<?xml version="1.0" ?>
<svg xmlns="http://www.w3.org/2000/svg" version="1.1" width="512" height="512">
  <defs/>
  <g>
    <path d="M 154.3629150390625 321.0928955078125 C 153.8362274169922 317.94232177734375 143.96946716308594 371.8908996582031 210.80496215820312 385.5962219238281" stroke-width="5.0" fill="none" stroke="rgb(0, 0, 0)" stroke-opacity="1.0" stroke-linecap="round" stroke-linejoin="round"/>
    <path d="M 255.7071075439453 203.82659912109375 C 196.60250854492188 283.0077209472656 150.9218292236328 288.649658203125 157.63754272460938 339.4028625488281" stroke-width="5.0" fill="none" stroke="rgb(0, 0, 0)" stroke-opacity="1.0" stroke-linecap="round" stroke-linejoin="round"/>
    <path d="M 407.84954833984375 353.17755126953125 C 381.4645080566406 402.8567810058594 268.99139404296875 402.61285400390625 223.24942016601562 385.6546630859375" stroke-width="5.0" fill="none" stroke="rgb(0, 0, 0)" stroke-opacity="1.0" stroke-linecap="round" stroke-linejoin="round"/>
    <path d="M 213.51052856445312 164.07876586914062 C 176.88938903808594 203.89674377441406 234.223388671875 233.3501739501953 212.4473419189453 187.5033416748047" stroke-width="5.0" fill="none" stroke="rgb(0, 0, 0)" stroke-opacity="1.0" stroke-linecap="round" stroke-linejoin="round"/>
    <path d="M 330.6495666503906 336.4151916503906 C 299.796630859375 318.27294921875 305.0323486328125 316.7091369628906 253.18551635742188 317.662353515625" stroke-width="5.0" fill="none" stroke="rgb(0, 0, 0)" stroke-opacity="1.0" stroke-linecap="round" stroke-linejoin="round"/>
    <path d="M 204.4249725341797 334.869873046875 C 206.6799774169922 335.5655822753906 269.9589538574219 327.4936828613281 227.97154235839844 328.6791687011719" stroke-width="5.0" fill="none" stroke="rgb(0, 0, 0)" stroke-opacity="1.0" stroke-linecap="round" stroke-linejoin="round"/>
    <path d="M 217.66815185546875 187.26242065429688 C 171.20831298828125 219.1500244140625 210.28524780273438 251.43923950195312 210.22494506835938 185.13214111328125" stroke-width="5.0" fill="none" stroke="rgb(0, 0, 0)" stroke-opacity="1.0" stroke-linecap="round" stroke-linejoin="round"/>
    <path d="M 184.66958618164062 379.2745056152344 C 269.9456481933594 394.7425842285156 193.40664672851562 394.4523620605469 172.1750946044922 362.2553405761719" stroke-width="5.0" fill="none" stroke="rgb(0, 0, 0)" stroke-opacity="1.0" stroke-linecap="round" stroke-linejoin="round"/>
    <path d="M 370.9798278808594 384.2741394042969 C 432.92529296875 359.38818359375 401.4545593261719 344.2488098144531 417.8684997558594 337.8469543457031" stroke-width="5.0" fill="none" stroke="rgb(0, 0, 0)" stroke-opacity="1.0" stroke-linecap="round" stroke-linejoin="round"/>
    <path d="M 323.9548645019531 157.9666748046875 C 314.42578125 142.9619903564453 326.12322998046875 161.91778564453125 308.5738220214844 148.02725219726562" stroke-width="5.0" fill="none" stroke="rgb(0, 0, 0)" stroke-opacity="1.0" stroke-linecap="round" stroke-linejoin="round"/>
    <path d="M 329.7989196777344 336.7737731933594 C 355.0108947753906 357.7359313964844 334.76727294921875 347.199951171875 445.66619873046875 322.509521484375" stroke-width="5.0" fill="none" stroke="rgb(0, 0, 0)" stroke-opacity="1.0" stroke-linecap="round" stroke-linejoin="round"/>
    <path d="M 209.2366485595703 314.4356994628906 C 247.6484375 256.191162109375 264.52496337890625 259.7407531738281 269.0239562988281 240.74734497070312" stroke-width="5.0" fill="none" stroke="rgb(0, 0, 0)" stroke-opacity="1.0" stroke-linecap="round" stroke-linejoin="round"/>
    <path d="M 320.1983947753906 206.01272583007812 C 325.673583984375 204.17408752441406 317.67425537109375 205.1088104248047 317.744140625 198.446533203125" stroke-width="5.0" fill="none" stroke="rgb(0, 0, 0)" stroke-opacity="1.0" stroke-linecap="round" stroke-linejoin="round"/>
    <path d="M 277.8469543457031 220.3107147216797 C 274.56622314453125 237.1286163330078 305.6854553222656 144.28240966796875 222.247802734375 162.05838012695312" stroke-width="5.0" fill="none" stroke="rgb(0, 0, 0)" stroke-opacity="1.0" stroke-linecap="round" stroke-linejoin="round"/>
    <path d="M 320.8707580566406 190.7138214111328 C 318.67547607421875 184.6201171875 323.6483154296875 192.5569305419922 319.2619323730469 196.4094696044922" stroke-width="5.0" fill="none" stroke="rgb(0, 0, 0)" stroke-opacity="1.0" stroke-linecap="round" stroke-linejoin="round"/>
    <path d="M 432.38433837890625 284.66754150390625 C 324.1409912109375 244.1651611328125 297.8660583496094 291.3294677734375 255.62503051757812 317.2225341796875" stroke-width="5.0" fill="none" stroke="rgb(0, 0, 0)" stroke-opacity="1.0" stroke-linecap="round" stroke-linejoin="round"/>
  </g>
</svg>
