<?xml version="1.0" ?>
<svg xmlns="http://www.w3.org/2000/svg" version="1.1" width="512" height="512">
  <defs/>
  <g>
    <path d="M 154.3629150390625 321.0928955078125 C 153.8362274169922 317.94232177734375 143.96946716308594 371.8908996582031 210.80496215820312 385.5962219238281" stroke-width="5.0" fill="none" stroke="rgb(0, 0, 0)" stroke-opacity="1.0" stroke-linecap="round" stroke-linejoin="round"/>
    <path d="M 255.7071075439453 203.82659912109375 C 196.60250854492188 283.0077209472656 150.9218292236328 288.649658203125 157.63754272460938 339.4028625488281" stroke-width="5.0" fill="none" stroke="rgb(0, 0, 0)" stroke-opacity="1.0" stroke-linecap="round" stroke-linejoin="round"/>
    <path d="M 407.84954833984375 353.17755126953125 C 381.4645080566406 402.8567810058594 268.99139404296875 402.61285400390625 223.24942016601562 385.6546630859375" stroke-width="5.0" fill="none" stroke="rgb(0, 0, 0)" stroke-opacity="1.0" stroke-linecap="round" stroke-linejoin="round"/>
    <path d="M 213.51052856445312 164.07876586914062 C 176.88938903808594 203.89674377441406 234.223388671875 233.3501739501953 212.4473419189453 187.5033416748047" stroke-width="5.0" fill="none" stroke="rgb(0, 0, 0)" stroke-opacity="1.0" stroke-linecap="round" stroke-linejoin="round"/>
    <path d="M 330.6495666503906 336.4151916503906 C 299.796630859375 318.27294921875 305.0323486328125 316.7091369628906 253.18551635742188 317.662353515625" stroke-width="5.0" fill="none" stroke="rgb(0, 0, 0)" stroke-opacity="1.0" stroke-linecap="round" stroke-linejoin="round"/>
    <path d="M 204.4249725341797 334.869873046875 C 206.6799774169922 335.5655822753906 269.9589538574219 327.4936828613281 227.97154235839844 328.6791687011719" stroke-width="5.0" fill="none" stroke="rgb(0, 0, 0)" stroke-opacity="1.0" stroke-linecap="round" stroke-linejoin="round"/>
    <path d="M 217.66815185546875 187.26242065429688 C 171.20831298828125 219.1500244140625 210.28524780273438 251.43923950195312 210.22494506835938 185.13214111328125" stroke-width="5.0" fill="none" stroke="rgb(0, 0, 0)" stroke-opacity="1.0" stroke-linecap="round" stroke-linejoin="round"/>
    <path d="M 184.66958618164062 379.2745056152344 C 269.9456481933594 394.7425842285156 193.40664672851562 394.4523620605469 172.1750946044922 362.2553405761719" stroke-width="5.0" fill="none" stroke="rgb(0, 0, 0)" stroke-opacity="1.0" stroke-linecap="round" stroke-linejoin="round"/>
    <path d="M 370.9798278808594 384.2741394042969 C 432.92529296875 359.38818359375 401.4545593261719 344.2488098144531 417.8684997558594 337.8469543457031" stroke-width="5.0" fill="none" stroke="rgb(0, 0, 0)" stroke-opacity="1.0" stroke-linecap="round" stroke-linejoin="round"/>
    <path d="M 323.9548645019531 157.9666748046875 C 314.42578125 142.9619903564453 326.12322998046875 161.91778564453125 308.5738220214844 148.02725219726562" stroke-width="5.0" fill="none" stroke="rgb(0, 0, 0)" stroke-opacity="1.0" stroke-linecap="round" stroke-linejoin="round"/>
    <path d="M 329.7989196777344 336.7737731933594 C 355.0108947753906 357.7359313964844 334.76727294921875 347.199951171875 445.66619873046875 322.509521484375" stroke-width="5.0" fill="none" stroke="rgb(0, 0, 0)" stroke-opacity="1.0" stroke-linecap="round" stroke-linejoin="round"/>
    <path d="M 209.2366485595703 314.4356994628906 C 247.6484375 256.191162109375 264.52496337890625 259.7407531738281 269.0239562988281 240.74734497070312" stroke-width="5.0" fill="none" stroke="rgb(0, 0, 0)" stroke-opacity="1.0" stroke-linecap="round" stroke-linejoin="round"/>
    <path d="M 320.1983947753906 206.01272583007812 C 325.673583984375 204.17408752441406 317.67425537109375 205.1088104248047 317.744140625 198.446533203125" stroke-width="5.0" fill="none" stroke="rgb(0, 0, 0)" stroke-opacity="1.0" stroke-linecap="round" stroke-linejoin="round"/>
    <path d="M 277.8469543457031 220.3107147216797 C 274.56622314453125 237.1286163330078 305.6854553222656 144.28240966796875 222.247802734375 162.05838012695312" stroke-width="5.0" fill="none" stroke="rgb(0, 0, 0)" stroke-opacity="1.0" stroke-linecap="round" stroke-linejoin="round"/>
    <path d="M 320.8707580566406 190.7138214111328 C 318.67547607421875 184.6201171875 323.6483154296875 192.5569305419922 319.2619323730469 196.4094696044922" stroke-width="5.0" fill="none" stroke="rgb(0, 0, 0)" stroke-opacity="1.0" stroke-linecap="round" stroke-linejoin="round"/>
    <path d="M 432.38433837890625 284.66754150390625 C 324.1409912109375 244.1651611328125 297.8660583496094 291.3294677734375 255.62503051757812 317.2225341796875" stroke-width="5.0" fill="none" stroke="rgb(0, 0, 0)" stroke-opacity="1.0" stroke-linecap="round" stroke-linejoin="round"/>
    <path d="M 386.82977294921875 162.29942321777344 C 425.4244079589844 225.0009765625 439.1749572753906 240.93443298339844 287.1239929199219 244.01686096191406" stroke-width="5.0" fill="none" stroke="rgb(0, 0, 0)" stroke-opacity="1.0" stroke-linecap="round" stroke-linejoin="round"/>
    <path d="M 261.8484802246094 146.42799377441406 C 341.3766784667969 129.52774047851562 354.597412109375 145.6992950439453 386.1169738769531 167.25048828125" stroke-width="5.0" fill="none" stroke="rgb(0, 0, 0)" stroke-opacity="1.0" stroke-linecap="round" stroke-linejoin="round"/>
    <path d="M 125.61910247802734 292.624755859375 C 185.22479248046875 298.3317565917969 141.1361846923828 280.4261169433594 199.53659057617188 313.82855224609375" stroke-width="5.0" fill="none" stroke="rgb(0, 0, 0)" stroke-opacity="1.0" stroke-linecap="round" stroke-linejoin="round"/>
    <path d="M 305.3446350097656 255.99215698242188 C 377.0375061035156 210.74932861328125 389.9922180175781 280.182373046875 254.8938446044922 261.2458190917969" stroke-width="5.0" fill="none" stroke="rgb(0, 0, 0)" stroke-opacity="1.0" stroke-linecap="round" stroke-linejoin="round"/>
    <path d="M 295.050048828125 168.43679809570312 C 282.3258361816406 176.00387573242188 262.7550048828125 135.11358642578125 318.3526916503906 168.0635986328125" stroke-width="5.0" fill="none" stroke="rgb(0, 0, 0)" stroke-opacity="1.0" stroke-linecap="round" stroke-linejoin="round"/>
    <path d="M 154.2288055419922 271.3681945800781 C 166.117919921875 259.54022216796875 207.3746337890625 243.70555114746094 250.14308166503906 241.49562072753906" stroke-width="5.0" fill="none" stroke="rgb(0, 0, 0)" stroke-opacity="1.0" stroke-linecap="round" stroke-linejoin="round"/>
    <path d="M 165.6258544921875 225.33229064941406 C 268.52960205078125 259.06927490234375 241.253173828125 222.77456665039062 168.68894958496094 244.64027404785156" stroke-width="5.0" fill="none" stroke="rgb(0, 0, 0)" stroke-opacity="1.0" stroke-linecap="round" stroke-linejoin="round"/>
    <path d="M 172.83009338378906 175.535888671875 C 140.29432678222656 224.96055603027344 158.51344299316406 224.111572265625 256.0538635253906 241.8585662841797" stroke-width="5.0" fill="none" stroke="rgb(0, 0, 0)" stroke-opacity="1.0" stroke-linecap="round" stroke-linejoin="round"/>
    <path d="M 185.4752197265625 177.3958740234375 C 148.267822265625 233.261962890625 164.9947967529297 108.7476806640625 335.7350158691406 139.81549072265625" stroke-width="5.0" fill="none" stroke="rgb(0, 0, 0)" stroke-opacity="1.0" stroke-linecap="round" stroke-linejoin="round"/>
    <path d="M 171.17889404296875 226.9564208984375 C 306.3468322753906 249.3260498046875 349.05841064453125 271.53277587890625 262.3392333984375 264.8587341308594" stroke-width="5.0" fill="none" stroke="rgb(0, 0, 0)" stroke-opacity="1.0" stroke-linecap="round" stroke-linejoin="round"/>
    <path d="M 255.7465057373047 328.3785705566406 C 256.5987243652344 320.7704772949219 196.47764587402344 332.48760986328125 311.7403259277344 327.0727233886719" stroke-width="5.0" fill="none" stroke="rgb(0, 0, 0)" stroke-opacity="1.0" stroke-linecap="round" stroke-linejoin="round"/>
    <path d="M 177.43966674804688 228.2550048828125 C 112.49063873291016 258.2499694824219 132.08599853515625 243.1140899658203 154.1847686767578 267.4730224609375" stroke-width="5.0" fill="none" stroke="rgb(0, 0, 0)" stroke-opacity="1.0" stroke-linecap="round" stroke-linejoin="round"/>
    <path d="M 260.07415771484375 310.3026123046875 C 193.35765075683594 342.4391174316406 229.805419921875 341.4327697753906 168.6007537841797 308.9771728515625" stroke-width="5.0" fill="none" stroke="rgb(0, 0, 0)" stroke-opacity="1.0" stroke-linecap="round" stroke-linejoin="round"/>
    <path d="M 403.6896057128906 259.2969055175781 C 179.29014587402344 233.3341827392578 165.0878448486328 244.05027770996094 398.530029296875 235.7283477783203" stroke-width="5.0" fill="none" stroke="rgb(0, 0, 0)" stroke-opacity="1.0" stroke-linecap="round" stroke-linejoin="round"/>
    <path d="M 388.08233642578125 171.22409057617188 C 354.3551025390625 130.01370239257812 335.56317138671875 169.75173950195312 366.7249450683594 179.8430938720703" stroke-width="5.0" fill="none" stroke="rgb(0, 0, 0)" stroke-opacity="1.0" stroke-linecap="round" stroke-linejoin="round"/>
    <path d="M 201.60711669921875 236.15264892578125 C 144.46231079101562 243.35369873046875 145.375 170.54034423828125 204.94345092773438 150.06602478027344" stroke-width="5.0" fill="none" stroke="rgb(0, 0, 0)" stroke-opacity="1.0" stroke-linecap="round" stroke-linejoin="round"/>
  </g>
</svg>
