<?xml version="1.0" ?>
<svg xmlns="http://www.w3.org/2000/svg" version="1.1" width="512" height="512">
  <defs/>
  <g>
    <path d="M 301.0233154296875 402.34326171875 C 251.3461456298828 386.9453430175781 268.9048767089844 422.3182373046875 318.2713317871094 410.03424072265625" stroke-width="5.0" fill="none" stroke="rgb(31, 119, 180)" stroke-opacity="1.0" stroke-linecap="round" stroke-linejoin="round"/>
    <path d="M 229.6138458251953 168.02149963378906 C 245.9115753173828 205.07778930664062 239.96470642089844 219.8168487548828 245.87509155273438 221.51980590820312" stroke-width="5.0" fill="none" stroke="rgb(31, 119, 180)" stroke-opacity="1.0" stroke-linecap="round" stroke-linejoin="round"/>
    <path d="M 340.7574462890625 230.337158203125 C 385.4331359863281 190.42376708984375 362.9207763671875 141.49732971191406 310.3602294921875 222.53195190429688" stroke-width="5.0" fill="none" stroke="rgb(31, 119, 180)" stroke-opacity="1.0" stroke-linecap="round" stroke-linejoin="round"/>
    <path d="M 226.68646240234375 370.448974609375 C 207.53892517089844 390.2866516113281 249.72564697265625 406.1141357421875 176.3053741455078 394.9026184082031" stroke-width="5.0" fill="none" stroke="rgb(31, 119, 180)" stroke-opacity="1.0" stroke-linecap="round" stroke-linejoin="round"/>
    <path d="M 302.4754638671875 337.0832214355469 C 337.3119812011719 354.46636962890625 386.1575927734375 325.9435729980469 335.7039794921875 269.740966796875" stroke-width="5.0" fill="none" stroke="rgb(31, 119, 180)" stroke-opacity="1.0" stroke-linecap="round" stroke-linejoin="round"/>
    <path d="M 193.49850463867188 399.0323181152344 C 190.9813232421875 376.6397399902344 178.70069885253906 390.0541687011719 146.6920928955078 384.3336486816406" stroke-width="5.0" fill="none" stroke="rgb(31, 119, 180)" stroke-opacity="1.0" stroke-linecap="round" stroke-linejoin="round"/>
    <path d="M 346.57977294921875 220.20339965820312 C 325.1297607421875 284.3677673339844 294.892333984375 266.1787414550781 311.5795593261719 212.6534881591797" stroke-width="5.0" fill="none" stroke="rgb(31, 119, 180)" stroke-opacity="1.0" stroke-linecap="round" stroke-linejoin="round"/>
    <path d="M 329.79595947265625 311.2986755371094 C 323.5594787597656 283.7678527832031 302.5479431152344 307.4627990722656 330.9547119140625 311.8717346191406" stroke-width="5.0" fill="none" stroke="rgb(31, 119, 180)" stroke-opacity="1.0" stroke-linecap="round" stroke-linejoin="round"/>
    <path d="M 92.87733459472656 388.72991943359375 C 91.40884399414062 345.92803955078125 55.32276916503906 306.3015441894531 141.22793579101562 248.14254760742188" stroke-width="5.0" fill="none" stroke="rgb(31, 119, 180)" stroke-opacity="1.0" stroke-linecap="round" stroke-linejoin="round"/>
    <path d="M 304.32843017578125 222.0265350341797 C 294.7229309082031 225.5399169921875 301.24420166015625 214.5655059814453 305.9953308105469 243.82249450683594" stroke-width="5.0" fill="none" stroke="rgb(31, 119, 180)" stroke-opacity="1.0" stroke-linecap="round" stroke-linejoin="round"/>
    <path d="M 187.68661499023438 248.96327209472656 C 247.3042755126953 267.2219543457031 264.1518249511719 299.5024108886719 261.87420654296875 255.0372772216797" stroke-width="5.0" fill="none" stroke="rgb(31, 119, 180)" stroke-opacity="1.0" stroke-linecap="round" stroke-linejoin="round"/>
    <path d="M 320.08148193359375 343.1166687011719 C 296.25201416015625 340.9042663574219 328.91387939453125 362.5196838378906 301.70343017578125 382.6136779785156" stroke-width="5.0" fill="none" stroke="rgb(31, 119, 180)" stroke-opacity="1.0" stroke-linecap="round" stroke-linejoin="round"/>
    <path d="M 233.84690856933594 151.9103240966797 C 270.72613525390625 165.13565063476562 267.70635986328125 176.6553192138672 259.6290588378906 162.75909423828125" stroke-width="5.0" fill="none" stroke="rgb(31, 119, 180)" stroke-opacity="1.0" stroke-linecap="round" stroke-linejoin="round"/>
    <path d="M 87.34931182861328 402.66815185546875 C 124.65821075439453 431.89892578125 218.6067352294922 378.39990234375 165.5001220703125 388.376708984375" stroke-width="5.0" fill="none" stroke="rgb(31, 119, 180)" stroke-opacity="1.0" stroke-linecap="round" stroke-linejoin="round"/>
    <path d="M 229.12130737304688 270.4524230957031 C 234.7091522216797 272.6426696777344 248.2230987548828 264.6484375 241.74053955078125 271.0284118652344" stroke-width="5.0" fill="none" stroke="rgb(31, 119, 180)" stroke-opacity="1.0" stroke-linecap="round" stroke-linejoin="round"/>
    <path d="M 240.6809539794922 194.64300537109375 C 251.44410705566406 228.31063842773438 234.4049072265625 226.27455139160156 263.8682861328125 257.9434509277344" stroke-width="5.0" fill="none" stroke="rgb(31, 119, 180)" stroke-opacity="1.0" stroke-linecap="round" stroke-linejoin="round"/>
    <path d="M 254.46337890625 157.49041748046875 C 195.38296508789062 133.16957092285156 185.00811767578125 215.9567413330078 192.40965270996094 194.6731719970703" stroke-width="5.0" fill="none" stroke="rgb(255, 127, 14)" stroke-opacity="1.0" stroke-linecap="round" stroke-linejoin="round"/>
    <path d="M 221.68858337402344 313.77630615234375 C 218.57147216796875 351.69000244140625 237.10549926757812 319.6084899902344 227.6340789794922 417.8779296875" stroke-width="5.0" fill="none" stroke="rgb(255, 127, 14)" stroke-opacity="1.0" stroke-linecap="round" stroke-linejoin="round"/>
    <path d="M 262.6282958984375 221.61886596679688 C 278.40301513671875 238.53431701660156 247.4560089111328 216.79002380371094 266.170166015625 221.31919860839844" stroke-width="5.0" fill="none" stroke="rgb(255, 127, 14)" stroke-opacity="1.0" stroke-linecap="round" stroke-linejoin="round"/>
    <path d="M 314.28924560546875 299.26239013671875 C 287.7812805175781 240.68508911132812 336.3497619628906 220.01576232910156 296.31683349609375 180.84396362304688" stroke-width="5.0" fill="none" stroke="rgb(255, 127, 14)" stroke-opacity="1.0" stroke-linecap="round" stroke-linejoin="round"/>
    <path d="M 277.25653076171875 298.89581298828125 C 277.6044921875 326.5635681152344 274.2156066894531 288.3447570800781 280.5701599121094 415.7104187011719" stroke-width="5.0" fill="none" stroke="rgb(255, 127, 14)" stroke-opacity="1.0" stroke-linecap="round" stroke-linejoin="round"/>
    <path d="M 194.40170288085938 200.31253051757812 C 176.8919677734375 237.19464111328125 179.0325469970703 247.84228515625 197.09364318847656 250.14393615722656" stroke-width="5.0" fill="none" stroke="rgb(255, 127, 14)" stroke-opacity="1.0" stroke-linecap="round" stroke-linejoin="round"/>
    <path d="M 149.5059356689453 245.36288452148438 C 198.55282592773438 235.20083618164062 209.4387664794922 241.01817321777344 161.5681610107422 240.8401641845703" stroke-width="5.0" fill="none" stroke="rgb(255, 127, 14)" stroke-opacity="1.0" stroke-linecap="round" stroke-linejoin="round"/>
    <path d="M 186.1836395263672 247.1210174560547 C 189.208251953125 179.98797607421875 222.9821319580078 135.8234405517578 259.8276062011719 164.62994384765625" stroke-width="5.0" fill="none" stroke="rgb(255, 127, 14)" stroke-opacity="1.0" stroke-linecap="round" stroke-linejoin="round"/>
    <path d="M 320.67572021484375 405.7281188964844 C 305.3890075683594 284.6005554199219 282.1247253417969 363.6528625488281 267.70751953125 246.28036499023438" stroke-width="5.0" fill="none" stroke="rgb(255, 127, 14)" stroke-opacity="1.0" stroke-linecap="round" stroke-linejoin="round"/>
    <path d="M 186.5914306640625 240.73199462890625 C 223.61801147460938 263.83709716796875 203.74330139160156 232.39463806152344 219.75869750976562 227.39540100097656" stroke-width="5.0" fill="none" stroke="rgb(255, 127, 14)" stroke-opacity="1.0" stroke-linecap="round" stroke-linejoin="round"/>
    <path d="M 130.44869995117188 366.96148681640625 C 158.88113403320312 395.25030517578125 136.02859497070312 363.0177917480469 152.15036010742188 404.6299133300781" stroke-width="5.0" fill="none" stroke="rgb(255, 127, 14)" stroke-opacity="1.0" stroke-linecap="round" stroke-linejoin="round"/>
    <path d="M 269.6122131347656 295.99737548828125 C 282.13323974609375 391.999755859375 314.119384765625 430.3669128417969 225.5446014404297 416.3993225097656" stroke-width="5.0" fill="none" stroke="rgb(255, 127, 14)" stroke-opacity="1.0" stroke-linecap="round" stroke-linejoin="round"/>
    <path d="M 321.8946533203125 200.513427734375 C 273.18292236328125 296.1054382324219 330.7172546386719 283.30859375 402.8473815917969 280.3506774902344" stroke-width="5.0" fill="none" stroke="rgb(255, 127, 14)" stroke-opacity="1.0" stroke-linecap="round" stroke-linejoin="round"/>
    <path d="M 248.7645721435547 198.63836669921875 C 231.4506072998047 221.55162048339844 231.0306396484375 185.27450561523438 213.115966796875 185.68136596679688" stroke-width="5.0" fill="none" stroke="rgb(255, 127, 14)" stroke-opacity="1.0" stroke-linecap="round" stroke-linejoin="round"/>
    <path d="M 295.9123229980469 177.0548553466797 C 320.2632751464844 162.2718505859375 355.1231384277344 156.36834716796875 363.62542724609375 202.90512084960938" stroke-width="5.0" fill="none" stroke="rgb(255, 127, 14)" stroke-opacity="1.0" stroke-linecap="round" stroke-linejoin="round"/>
    <path d="M 249.65481567382812 194.12147521972656 C 256.95172119140625 199.58685302734375 242.37637329101562 178.16160583496094 278.9567565917969 172.84246826171875" stroke-width="5.0" fill="none" stroke="rgb(255, 127, 14)" stroke-opacity="1.0" stroke-linecap="round" stroke-linejoin="round"/>
  </g>
</svg>
