<?xml version="1.0" ?>
<svg xmlns="http://www.w3.org/2000/svg" version="1.1" width="512" height="512">
  <defs/>
  <g>
    <path d="M 374.5178527832031 307.6782531738281 C 334.6112060546875 357.2620849609375 398.5236511230469 362.6594543457031 285.2508239746094 366.6913757324219" stroke-width="5.0" fill="none" stroke="rgb(0, 0, 0)" stroke-opacity="1.0" stroke-linecap="round" stroke-linejoin="round"/>
    <path d="M 256.98675537109375 338.20025634765625 C 217.3177490234375 389.2471923828125 256.5630187988281 402.7694091796875 190.85208129882812 402.3018493652344" stroke-width="5.0" fill="none" stroke="rgb(0, 0, 0)" stroke-opacity="1.0" stroke-linecap="round" stroke-linejoin="round"/>
    <path d="M 332.8306884765625 235.76492309570312 C 376.4661560058594 249.86940002441406 333.9253845214844 242.97320556640625 344.0239562988281 237.66778564453125" stroke-width="5.0" fill="none" stroke="rgb(0, 0, 0)" stroke-opacity="1.0" stroke-linecap="round" stroke-linejoin="round"/>
    <path d="M 187.85403442382812 307.34112548828125 C 118.59257507324219 306.98883056640625 148.6804962158203 288.59295654296875 149.28831481933594 288.0294189453125" stroke-width="5.0" fill="none" stroke="rgb(0, 0, 0)" stroke-opacity="1.0" stroke-linecap="round" stroke-linejoin="round"/>
    <path d="M 363.0635070800781 390.8622131347656 C 387.34381103515625 399.43377685546875 480.33978271484375 366.29205322265625 569.8921508789062 366.9426574707031" stroke-width="5.0" fill="none" stroke="rgb(0, 0, 0)" stroke-opacity="1.0" stroke-linecap="round" stroke-linejoin="round"/>
    <path d="M 188.8801727294922 398.186279296875 C 240.1252899169922 362.2585144042969 189.00616455078125 342.8034362792969 177.0929412841797 333.8347473144531" stroke-width="5.0" fill="none" stroke="rgb(0, 0, 0)" stroke-opacity="1.0" stroke-linecap="round" stroke-linejoin="round"/>
    <path d="M 279.6390686035156 274.427978515625 C 234.55625915527344 269.99346923828125 267.4259033203125 274.6040344238281 231.46473693847656 297.9369201660156" stroke-width="5.0" fill="none" stroke="rgb(0, 0, 0)" stroke-opacity="1.0" stroke-linecap="round" stroke-linejoin="round"/>
    <path d="M 219.87380981445312 179.33892822265625 C 178.22518920898438 266.2210693359375 218.78895568847656 220.98776245117188 167.8953094482422 262.7440490722656" stroke-width="5.0" fill="none" stroke="rgb(0, 0, 0)" stroke-opacity="1.0" stroke-linecap="round" stroke-linejoin="round"/>
    <path d="M 168.21775817871094 309.67266845703125 C 174.1231231689453 340.6478576660156 185.32266235351562 350.4573669433594 161.02536010742188 307.97271728515625" stroke-width="5.0" fill="none" stroke="rgb(0, 0, 0)" stroke-opacity="1.0" stroke-linecap="round" stroke-linejoin="round"/>
    <path d="M 173.10458374023438 402.32635498046875 C 181.38084411621094 408.3619079589844 162.985595703125 404.7070617675781 178.4310302734375 401.0275573730469" stroke-width="5.0" fill="none" stroke="rgb(0, 0, 0)" stroke-opacity="1.0" stroke-linecap="round" stroke-linejoin="round"/>
    <path d="M 329.7174377441406 331.5842590332031 C 292.0580139160156 365.19744873046875 254.43629455566406 372.20989990234375 296.39532470703125 348.24560546875" stroke-width="5.0" fill="none" stroke="rgb(0, 0, 0)" stroke-opacity="1.0" stroke-linecap="round" stroke-linejoin="round"/>
    <path d="M 353.4388732910156 245.06686401367188 C 368.1957702636719 280.6357421875 370.6545104980469 236.81689453125 378.421142578125 295.8147277832031" stroke-width="5.0" fill="none" stroke="rgb(0, 0, 0)" stroke-opacity="1.0" stroke-linecap="round" stroke-linejoin="round"/>
    <path d="M 278.8923034667969 353.1623229980469 C 252.81919860839844 386.5727844238281 264.39404296875 338.7110290527344 253.6739501953125 366.6546936035156" stroke-width="5.0" fill="none" stroke="rgb(0, 0, 0)" stroke-opacity="1.0" stroke-linecap="round" stroke-linejoin="round"/>
    <path d="M 196.27053833007812 385.9170837402344 C 213.3997802734375 353.66094970703125 204.46005249023438 381.03778076171875 128.53138732910156 432.1859436035156" stroke-width="5.0" fill="none" stroke="rgb(0, 0, 0)" stroke-opacity="1.0" stroke-linecap="round" stroke-linejoin="round"/>
    <path d="M 191.2127685546875 222.72537231445312 C 193.1490478515625 96.09952545166016 282.882080078125 131.6903533935547 197.3319549560547 231.08447265625" stroke-width="5.0" fill="none" stroke="rgb(0, 0, 0)" stroke-opacity="1.0" stroke-linecap="round" stroke-linejoin="round"/>
    <path d="M 312.597900390625 281.8762512207031 C 312.9798583984375 284.0251770019531 309.2301025390625 304.7198181152344 313.4232177734375 279.6163635253906" stroke-width="5.0" fill="none" stroke="rgb(0, 0, 0)" stroke-opacity="1.0" stroke-linecap="round" stroke-linejoin="round"/>
    <path d="M 181.67308044433594 337.3241882324219 C 172.81857299804688 336.00689697265625 171.13946533203125 315.23834228515625 176.6332244873047 326.71142578125" stroke-width="5.0" fill="none" stroke="rgb(0, 0, 0)" stroke-opacity="1.0" stroke-linecap="round" stroke-linejoin="round"/>
    <path d="M 324.5993347167969 233.74136352539062 C 346.7200622558594 240.34986877441406 377.59246826171875 254.8836212158203 375.6773376464844 306.20172119140625" stroke-width="5.0" fill="none" stroke="rgb(0, 0, 0)" stroke-opacity="1.0" stroke-linecap="round" stroke-linejoin="round"/>
    <path d="M 346.77020263671875 354.1845703125 C 287.5342102050781 368.77703857421875 284.082763671875 368.55072021484375 269.4356384277344 353.9342956542969" stroke-width="5.0" fill="none" stroke="rgb(0, 0, 0)" stroke-opacity="1.0" stroke-linecap="round" stroke-linejoin="round"/>
    <path d="M 243.69590759277344 129.97799682617188 C 187.7662353515625 146.69395446777344 177.58212280273438 173.3480987548828 171.52871704101562 226.25929260253906" stroke-width="5.0" fill="none" stroke="rgb(0, 0, 0)" stroke-opacity="1.0" stroke-linecap="round" stroke-linejoin="round"/>
    <path d="M 163.709716796875 302.209228515625 C 170.24826049804688 304.76458740234375 208.8052978515625 277.3978576660156 183.06314086914062 304.33392333984375" stroke-width="5.0" fill="none" stroke="rgb(0, 0, 0)" stroke-opacity="1.0" stroke-linecap="round" stroke-linejoin="round"/>
    <path d="M 319.6391906738281 351.58990478515625 C 318.3157653808594 318.8825988769531 309.405029296875 375.7332763671875 329.023193359375 330.0498352050781" stroke-width="5.0" fill="none" stroke="rgb(0, 0, 0)" stroke-opacity="1.0" stroke-linecap="round" stroke-linejoin="round"/>
    <path d="M 318.0613098144531 294.0461120605469 C 315.01708984375 332.75396728515625 376.259765625 353.39483642578125 296.5031433105469 350.7652282714844" stroke-width="5.0" fill="none" stroke="rgb(0, 0, 0)" stroke-opacity="1.0" stroke-linecap="round" stroke-linejoin="round"/>
    <path d="M 200.17579650878906 250.0175323486328 C 225.1393280029297 320.7628173828125 117.10965728759766 277.76519775390625 200.876708984375 357.2896728515625" stroke-width="5.0" fill="none" stroke="rgb(0, 0, 0)" stroke-opacity="1.0" stroke-linecap="round" stroke-linejoin="round"/>
    <path d="M 370.87982177734375 384.77996826171875 C 391.341064453125 382.738037109375 344.5879211425781 372.8304443359375 280.3462219238281 454.005126953125" stroke-width="5.0" fill="none" stroke="rgb(0, 0, 0)" stroke-opacity="1.0" stroke-linecap="round" stroke-linejoin="round"/>
    <path d="M 134.7668914794922 293.9667053222656 C 144.71925354003906 211.07077026367188 171.40838623046875 254.55789184570312 177.14794921875 203.41616821289062" stroke-width="5.0" fill="none" stroke="rgb(0, 0, 0)" stroke-opacity="1.0" stroke-linecap="round" stroke-linejoin="round"/>
    <path d="M 280.13629150390625 367.03179931640625 C 237.60769653320312 353.5271911621094 265.73980712890625 330.4391174316406 285.8522033691406 318.6353759765625" stroke-width="5.0" fill="none" stroke="rgb(0, 0, 0)" stroke-opacity="1.0" stroke-linecap="round" stroke-linejoin="round"/>
    <path d="M 314.2871398925781 273.2871398925781 C 327.4232177734375 261.6425476074219 334.1814880371094 260.77130126953125 322.15130615234375 268.29107666015625" stroke-width="5.0" fill="none" stroke="rgb(0, 0, 0)" stroke-opacity="1.0" stroke-linecap="round" stroke-linejoin="round"/>
    <path d="M 162.14271545410156 263.8229064941406 C 223.1084442138672 266.6837463378906 183.07516479492188 223.8153839111328 216.96766662597656 192.5780792236328" stroke-width="5.0" fill="none" stroke="rgb(0, 0, 0)" stroke-opacity="1.0" stroke-linecap="round" stroke-linejoin="round"/>
    <path d="M 263.8955078125 279.13201904296875 C 228.76837158203125 260.8445739746094 316.3436584472656 272.3336181640625 259.05181884765625 282.4757080078125" stroke-width="5.0" fill="none" stroke="rgb(0, 0, 0)" stroke-opacity="1.0" stroke-linecap="round" stroke-linejoin="round"/>
    <path d="M 230.99063110351562 174.076904296875 C 228.6253204345703 119.97843933105469 266.3488464355469 109.14718627929688 206.40223693847656 141.04168701171875" stroke-width="5.0" fill="none" stroke="rgb(0, 0, 0)" stroke-opacity="1.0" stroke-linecap="round" stroke-linejoin="round"/>
    <path d="M 368.5625915527344 322.4497375488281 C 366.4880676269531 255.7061004638672 384.2845764160156 302.4237365722656 365.18408203125 329.9757385253906" stroke-width="5.0" fill="none" stroke="rgb(0, 0, 0)" stroke-opacity="1.0" stroke-linecap="round" stroke-linejoin="round"/>
    <path d="M 244.8029022216797 473.8947448730469 C 153.8493194580078 356.1813049316406 167.19374084472656 245.18441772460938 188.0592803955078 292.0470886230469" stroke-width="5.0" fill="none" stroke="rgb(0, 0, 0)" stroke-opacity="1.0" stroke-linecap="round" stroke-linejoin="round"/>
    <path d="M 321.1767883300781 177.94857788085938 C 376.90704345703125 135.4932098388672 396.79486083984375 171.11097717285156 313.15838623046875 179.41566467285156" stroke-width="5.0" fill="none" stroke="rgb(0, 0, 0)" stroke-opacity="1.0" stroke-linecap="round" stroke-linejoin="round"/>
    <path d="M 248.1812744140625 211.24215698242188 C 267.7731018066406 201.95428466796875 253.76486206054688 209.09716796875 240.5920867919922 213.85931396484375" stroke-width="5.0" fill="none" stroke="rgb(0, 0, 0)" stroke-opacity="1.0" stroke-linecap="round" stroke-linejoin="round"/>
    <path d="M 172.35870361328125 166.68458557128906 C 253.38865661621094 189.09100341796875 235.61447143554688 181.86102294921875 158.62539672851562 227.99119567871094" stroke-width="5.0" fill="none" stroke="rgb(0, 0, 0)" stroke-opacity="1.0" stroke-linecap="round" stroke-linejoin="round"/>
    <path d="M 264.5414733886719 221.0377960205078 C 241.3375701904297 226.43348693847656 245.84022521972656 229.2852325439453 241.60513305664062 232.20208740234375" stroke-width="5.0" fill="none" stroke="rgb(0, 0, 0)" stroke-opacity="1.0" stroke-linecap="round" stroke-linejoin="round"/>
    <path d="M 200.55760192871094 355.2076721191406 C 171.20645141601562 404.1761779785156 213.75338745117188 405.08447265625 201.4130859375 349.4281005859375" stroke-width="5.0" fill="none" stroke="rgb(0, 0, 0)" stroke-opacity="1.0" stroke-linecap="round" stroke-linejoin="round"/>
    <path d="M 170.5707244873047 342.448974609375 C 208.7071075439453 363.7490234375 172.59347534179688 328.27801513671875 172.23521423339844 277.49017333984375" stroke-width="5.0" fill="none" stroke="rgb(0, 0, 0)" stroke-opacity="1.0" stroke-linecap="round" stroke-linejoin="round"/>
    <path d="M 281.87200927734375 325.8852844238281 C 287.6916198730469 356.50390625 344.8040771484375 325.50494384765625 304.52215576171875 373.8170471191406" stroke-width="5.0" fill="none" stroke="rgb(0, 0, 0)" stroke-opacity="1.0" stroke-linecap="round" stroke-linejoin="round"/>
    <path d="M 353.6912841796875 186.63319396972656 C 388.3939514160156 194.73483276367188 348.0578918457031 185.3753204345703 392.2288513183594 298.5380554199219" stroke-width="5.0" fill="none" stroke="rgb(0, 0, 0)" stroke-opacity="1.0" stroke-linecap="round" stroke-linejoin="round"/>
    <path d="M 356.2986145019531 187.27197265625 C 315.5177917480469 167.6591339111328 318.3323059082031 162.90631103515625 344.1798095703125 182.2529296875" stroke-width="5.0" fill="none" stroke="rgb(0, 0, 0)" stroke-opacity="1.0" stroke-linecap="round" stroke-linejoin="round"/>
    <path d="M 389.1225891113281 182.89248657226562 C 329.8589782714844 146.3007354736328 319.1043395996094 192.11920166015625 414.535400390625 214.2078094482422" stroke-width="5.0" fill="none" stroke="rgb(0, 0, 0)" stroke-opacity="1.0" stroke-linecap="round" stroke-linejoin="round"/>
    <path d="M 286.73382568359375 172.97247314453125 C 245.1427001953125 144.30670166015625 251.54324340820312 169.3852996826172 209.6771240234375 159.34100341796875" stroke-width="5.0" fill="none" stroke="rgb(0, 0, 0)" stroke-opacity="1.0" stroke-linecap="round" stroke-linejoin="round"/>
    <path d="M 288.5580139160156 347.6252136230469 C 288.5675964355469 397.1380920410156 313.59521484375 339.7251281738281 317.94769287109375 359.5048828125" stroke-width="5.0" fill="none" stroke="rgb(0, 0, 0)" stroke-opacity="1.0" stroke-linecap="round" stroke-linejoin="round"/>
    <path d="M 140.25100708007812 255.6434783935547 C 233.6704864501953 222.3502197265625 194.87684631347656 195.98086547851562 128.58941650390625 270.9142761230469" stroke-width="5.0" fill="none" stroke="rgb(0, 0, 0)" stroke-opacity="1.0" stroke-linecap="round" stroke-linejoin="round"/>
    <path d="M 148.35107421875 278.1883544921875 C 163.37405395507812 322.5572509765625 160.97085571289062 390.6815185546875 176.20594787597656 284.79266357421875" stroke-width="5.0" fill="none" stroke="rgb(0, 0, 0)" stroke-opacity="1.0" stroke-linecap="round" stroke-linejoin="round"/>
    <path d="M 188.03533935546875 173.0529327392578 C 242.1890869140625 175.47303771972656 222.68557739257812 192.8054656982422 152.10659790039062 194.02883911132812" stroke-width="5.0" fill="none" stroke="rgb(0, 0, 0)" stroke-opacity="1.0" stroke-linecap="round" stroke-linejoin="round"/>
    <path d="M 172.3983612060547 281.8567199707031 C 198.03927612304688 277.7272644042969 210.85594177246094 363.7557373046875 194.634521484375 348.52593994140625" stroke-width="5.0" fill="none" stroke="rgb(0, 0, 0)" stroke-opacity="1.0" stroke-linecap="round" stroke-linejoin="round"/>
    <path d="M 320.00177001953125 268.6653137207031 C 372.60443115234375 292.8590087890625 293.6830139160156 272.5976257324219 337.39288330078125 268.07244873046875" stroke-width="5.0" fill="none" stroke="rgb(0, 0, 0)" stroke-opacity="1.0" stroke-linecap="round" stroke-linejoin="round"/>
    <path d="M 275.9104309082031 243.31509399414062 C 241.19515991210938 233.11183166503906 241.85543823242188 281.5789489746094 240.82447814941406 274.61785888671875" stroke-width="5.0" fill="none" stroke="rgb(0, 0, 0)" stroke-opacity="1.0" stroke-linecap="round" stroke-linejoin="round"/>
    <path d="M 161.75753784179688 354.7873840332031 C 197.59555053710938 331.3341979980469 193.74880981445312 369.1844177246094 196.72518920898438 407.021240234375" stroke-width="5.0" fill="none" stroke="rgb(0, 0, 0)" stroke-opacity="1.0" stroke-linecap="round" stroke-linejoin="round"/>
    <path d="M 328.44140625 264.8639831542969 C 352.09326171875 291.40673828125 301.4024963378906 257.2525939941406 329.7254638671875 282.1990051269531" stroke-width="5.0" fill="none" stroke="rgb(0, 0, 0)" stroke-opacity="1.0" stroke-linecap="round" stroke-linejoin="round"/>
    <path d="M 334.4536437988281 261.2879943847656 C 358.0192565917969 276.86053466796875 353.1509094238281 299.6041259765625 335.6005859375 269.4954833984375" stroke-width="5.0" fill="none" stroke="rgb(0, 0, 0)" stroke-opacity="1.0" stroke-linecap="round" stroke-linejoin="round"/>
    <path d="M 196.43771362304688 306.94415283203125 C 206.5299530029297 339.0518798828125 208.5941162109375 425.9591369628906 306.7450256347656 422.0176696777344" stroke-width="5.0" fill="none" stroke="rgb(0, 0, 0)" stroke-opacity="1.0" stroke-linecap="round" stroke-linejoin="round"/>
    <path d="M 343.39117431640625 476.4647216796875 C 324.76904296875 371.31793212890625 330.4402160644531 356.0726013183594 360.8800048828125 462.03546142578125" stroke-width="5.0" fill="none" stroke="rgb(0, 0, 0)" stroke-opacity="1.0" stroke-linecap="round" stroke-linejoin="round"/>
  </g>
</svg>
