<?xml version="1.0" ?>
<svg xmlns="http://www.w3.org/2000/svg" version="1.1" width="512" height="512">
  <defs/>
  <g>
    <path d="M 307.8194274902344 336.2003173828125 C 313.5608215332031 304.356201171875 341.5010681152344 304.6656494140625 338.2463073730469 246.30303955078125" stroke-width="5.0" fill="none" stroke="rgb(0, 0, 0)" stroke-opacity="1.0" stroke-linecap="round" stroke-linejoin="round"/>
    <path d="M 177.11831665039062 233.6519317626953 C 158.97821044921875 259.9758605957031 167.35504150390625 298.9012756347656 181.22755432128906 308.82012939453125" stroke-width="5.0" fill="none" stroke="rgb(0, 0, 0)" stroke-opacity="1.0" stroke-linecap="round" stroke-linejoin="round"/>
    <path d="M 330.5749206542969 129.88125610351562 C 269.86767578125 131.50628662109375 253.3925323486328 202.16683959960938 285.71337890625 140.6717071533203" stroke-width="5.0" fill="none" stroke="rgb(0, 0, 0)" stroke-opacity="1.0" stroke-linecap="round" stroke-linejoin="round"/>
    <path d="M 290.6044616699219 202.38449096679688 C 224.92803955078125 222.46710205078125 206.5831756591797 230.3802490234375 196.25010681152344 213.58340454101562" stroke-width="5.0" fill="none" stroke="rgb(0, 0, 0)" stroke-opacity="1.0" stroke-linecap="round" stroke-linejoin="round"/>
    <path d="M 201.19778442382812 203.91455078125 C 213.7155303955078 203.14334106445312 258.94329833984375 257.0914611816406 264.29718017578125 169.03919982910156" stroke-width="5.0" fill="none" stroke="rgb(0, 0, 0)" stroke-opacity="1.0" stroke-linecap="round" stroke-linejoin="round"/>
    <path d="M 307.5697326660156 269.0378723144531 C 307.7833557128906 267.56201171875 323.5586853027344 273.464599609375 326.28717041015625 253.18118286132812" stroke-width="5.0" fill="none" stroke="rgb(0, 0, 0)" stroke-opacity="1.0" stroke-linecap="round" stroke-linejoin="round"/>
    <path d="M 322.12420654296875 243.4757080078125 C 323.6358337402344 287.9857482910156 370.2430419921875 258.60748291015625 313.6867370605469 210.1073455810547" stroke-width="5.0" fill="none" stroke="rgb(0, 0, 0)" stroke-opacity="1.0" stroke-linecap="round" stroke-linejoin="round"/>
    <path d="M 236.51258850097656 222.62298583984375 C 216.74293518066406 225.24142456054688 252.12277221679688 235.1463165283203 216.9092559814453 229.091552734375" stroke-width="5.0" fill="none" stroke="rgb(0, 0, 0)" stroke-opacity="1.0" stroke-linecap="round" stroke-linejoin="round"/>
    <path d="M 173.2144317626953 327.77508544921875 C 176.35694885253906 340.8570251464844 172.85191345214844 331.1886291503906 170.4934844970703 320.08734130859375" stroke-width="5.0" fill="none" stroke="rgb(0, 0, 0)" stroke-opacity="1.0" stroke-linecap="round" stroke-linejoin="round"/>
    <path d="M 174.3595733642578 291.2447814941406 C 198.03334045410156 343.1236572265625 177.8144073486328 322.6396484375 175.82412719726562 280.35595703125" stroke-width="5.0" fill="none" stroke="rgb(0, 0, 0)" stroke-opacity="1.0" stroke-linecap="round" stroke-linejoin="round"/>
    <path d="M 176.07357788085938 243.52914428710938 C 153.9622802734375 235.66583251953125 159.51956176757812 218.4874267578125 115.15703582763672 174.93795776367188" stroke-width="5.0" fill="none" stroke="rgb(0, 0, 0)" stroke-opacity="1.0" stroke-linecap="round" stroke-linejoin="round"/>
    <path d="M 185.73402404785156 315.9683532714844 C 215.39154052734375 340.7030944824219 206.52272033691406 334.4767150878906 183.75045776367188 311.6153869628906" stroke-width="5.0" fill="none" stroke="rgb(0, 0, 0)" stroke-opacity="1.0" stroke-linecap="round" stroke-linejoin="round"/>
    <path d="M 274.55474853515625 199.8596649169922 C 265.1841735839844 218.07151794433594 347.9984130859375 199.35964965820312 326.8393249511719 247.53582763671875" stroke-width="5.0" fill="none" stroke="rgb(0, 0, 0)" stroke-opacity="1.0" stroke-linecap="round" stroke-linejoin="round"/>
    <path d="M 93.19499969482422 154.11538696289062 C 101.79119110107422 234.3179931640625 122.93232727050781 260.8223876953125 165.98190307617188 258.4836120605469" stroke-width="5.0" fill="none" stroke="rgb(0, 0, 0)" stroke-opacity="1.0" stroke-linecap="round" stroke-linejoin="round"/>
    <path d="M 191.14056396484375 186.4062957763672 C 109.63561248779297 128.62826538085938 79.39591217041016 143.12322998046875 94.39480590820312 169.3719024658203" stroke-width="5.0" fill="none" stroke="rgb(0, 0, 0)" stroke-opacity="1.0" stroke-linecap="round" stroke-linejoin="round"/>
    <path d="M 211.4334259033203 237.06069946289062 C 236.9042510986328 202.590576171875 242.4582977294922 216.37208557128906 210.8619842529297 219.39459228515625" stroke-width="5.0" fill="none" stroke="rgb(0, 0, 0)" stroke-opacity="1.0" stroke-linecap="round" stroke-linejoin="round"/>
  </g>
</svg>
