<?xml version="1.0" ?>
<svg xmlns="http://www.w3.org/2000/svg" version="1.1" width="512" height="512">
  <defs/>
  <g>
    <path d="M 307.8194274902344 336.2003173828125 C 313.5608215332031 304.356201171875 341.5010681152344 304.6656494140625 338.2463073730469 246.30303955078125" stroke-width="5.0" fill="none" stroke="rgb(0, 0, 0)" stroke-opacity="1.0" stroke-linecap="round" stroke-linejoin="round"/>
    <path d="M 177.11831665039062 233.6519317626953 C 158.97821044921875 259.9758605957031 167.35504150390625 298.9012756347656 181.22755432128906 308.82012939453125" stroke-width="5.0" fill="none" stroke="rgb(0, 0, 0)" stroke-opacity="1.0" stroke-linecap="round" stroke-linejoin="round"/>
    <path d="M 330.5749206542969 129.88125610351562 C 269.86767578125 131.50628662109375 253.3925323486328 202.16683959960938 285.71337890625 140.6717071533203" stroke-width="5.0" fill="none" stroke="rgb(0, 0, 0)" stroke-opacity="1.0" stroke-linecap="round" stroke-linejoin="round"/>
    <path d="M 290.6044616699219 202.38449096679688 C 224.92803955078125 222.46710205078125 206.5831756591797 230.3802490234375 196.25010681152344 213.58340454101562" stroke-width="5.0" fill="none" stroke="rgb(0, 0, 0)" stroke-opacity="1.0" stroke-linecap="round" stroke-linejoin="round"/>
    <path d="M 201.19778442382812 203.91455078125 C 213.7155303955078 203.14334106445312 258.94329833984375 257.0914611816406 264.29718017578125 169.03919982910156" stroke-width="5.0" fill="none" stroke="rgb(0, 0, 0)" stroke-opacity="1.0" stroke-linecap="round" stroke-linejoin="round"/>
    <path d="M 307.5697326660156 269.0378723144531 C 307.7833557128906 267.56201171875 323.5586853027344 273.464599609375 326.28717041015625 253.18118286132812" stroke-width="5.0" fill="none" stroke="rgb(0, 0, 0)" stroke-opacity="1.0" stroke-linecap="round" stroke-linejoin="round"/>
    <path d="M 322.12420654296875 243.4757080078125 C 323.6358337402344 287.9857482910156 370.2430419921875 258.60748291015625 313.6867370605469 210.1073455810547" stroke-width="5.0" fill="none" stroke="rgb(0, 0, 0)" stroke-opacity="1.0" stroke-linecap="round" stroke-linejoin="round"/>
    <path d="M 236.51258850097656 222.62298583984375 C 216.74293518066406 225.24142456054688 252.12277221679688 235.1463165283203 216.9092559814453 229.091552734375" stroke-width="5.0" fill="none" stroke="rgb(0, 0, 0)" stroke-opacity="1.0" stroke-linecap="round" stroke-linejoin="round"/>
    <path d="M 173.2144317626953 327.77508544921875 C 176.35694885253906 340.8570251464844 172.85191345214844 331.1886291503906 170.4934844970703 320.08734130859375" stroke-width="5.0" fill="none" stroke="rgb(0, 0, 0)" stroke-opacity="1.0" stroke-linecap="round" stroke-linejoin="round"/>
    <path d="M 174.3595733642578 291.2447814941406 C 198.03334045410156 343.1236572265625 177.8144073486328 322.6396484375 175.82412719726562 280.35595703125" stroke-width="5.0" fill="none" stroke="rgb(0, 0, 0)" stroke-opacity="1.0" stroke-linecap="round" stroke-linejoin="round"/>
    <path d="M 176.07357788085938 243.52914428710938 C 153.9622802734375 235.66583251953125 159.51956176757812 218.4874267578125 115.15703582763672 174.93795776367188" stroke-width="5.0" fill="none" stroke="rgb(0, 0, 0)" stroke-opacity="1.0" stroke-linecap="round" stroke-linejoin="round"/>
    <path d="M 185.73402404785156 315.9683532714844 C 215.39154052734375 340.7030944824219 206.52272033691406 334.4767150878906 183.75045776367188 311.6153869628906" stroke-width="5.0" fill="none" stroke="rgb(0, 0, 0)" stroke-opacity="1.0" stroke-linecap="round" stroke-linejoin="round"/>
    <path d="M 274.55474853515625 199.8596649169922 C 265.1841735839844 218.07151794433594 347.9984130859375 199.35964965820312 326.8393249511719 247.53582763671875" stroke-width="5.0" fill="none" stroke="rgb(0, 0, 0)" stroke-opacity="1.0" stroke-linecap="round" stroke-linejoin="round"/>
    <path d="M 93.19499969482422 154.11538696289062 C 101.79119110107422 234.3179931640625 122.93232727050781 260.8223876953125 165.98190307617188 258.4836120605469" stroke-width="5.0" fill="none" stroke="rgb(0, 0, 0)" stroke-opacity="1.0" stroke-linecap="round" stroke-linejoin="round"/>
    <path d="M 191.14056396484375 186.4062957763672 C 109.63561248779297 128.62826538085938 79.39591217041016 143.12322998046875 94.39480590820312 169.3719024658203" stroke-width="5.0" fill="none" stroke="rgb(0, 0, 0)" stroke-opacity="1.0" stroke-linecap="round" stroke-linejoin="round"/>
    <path d="M 211.4334259033203 237.06069946289062 C 236.9042510986328 202.590576171875 242.4582977294922 216.37208557128906 210.8619842529297 219.39459228515625" stroke-width="5.0" fill="none" stroke="rgb(0, 0, 0)" stroke-opacity="1.0" stroke-linecap="round" stroke-linejoin="round"/>
    <path d="M 188.9962158203125 324.33294677734375 C 212.90130615234375 357.75494384765625 330.17913818359375 357.4815673828125 336.4511413574219 298.861083984375" stroke-width="5.0" fill="none" stroke="rgb(0, 0, 0)" stroke-opacity="1.0" stroke-linecap="round" stroke-linejoin="round"/>
    <path d="M 276.79608154296875 292.07745361328125 C 225.8239288330078 273.1382751464844 283.8627014160156 287.42523193359375 282.4057312011719 291.9830627441406" stroke-width="5.0" fill="none" stroke="rgb(0, 0, 0)" stroke-opacity="1.0" stroke-linecap="round" stroke-linejoin="round"/>
    <path d="M 325.7852783203125 282.7593078613281 C 308.96923828125 300.1484069824219 248.95376586914062 282.66290283203125 275.7953186035156 278.1542053222656" stroke-width="5.0" fill="none" stroke="rgb(0, 0, 0)" stroke-opacity="1.0" stroke-linecap="round" stroke-linejoin="round"/>
    <path d="M 315.56292724609375 211.77906799316406 C 285.2177734375 196.95130920410156 253.7222900390625 258.77252197265625 302.3735046386719 269.7725524902344" stroke-width="5.0" fill="none" stroke="rgb(0, 0, 0)" stroke-opacity="1.0" stroke-linecap="round" stroke-linejoin="round"/>
    <path d="M 362.675048828125 125.93789672851562 C 265.50567626953125 134.51119995117188 264.3384094238281 179.3201904296875 278.7156066894531 151.67929077148438" stroke-width="5.0" fill="none" stroke="rgb(0, 0, 0)" stroke-opacity="1.0" stroke-linecap="round" stroke-linejoin="round"/>
    <path d="M 184.9767303466797 426.7726745605469 C 177.86546325683594 349.5377197265625 166.4694366455078 319.23492431640625 168.7161102294922 322.2980651855469" stroke-width="5.0" fill="none" stroke="rgb(0, 0, 0)" stroke-opacity="1.0" stroke-linecap="round" stroke-linejoin="round"/>
    <path d="M 138.92831420898438 397.5923156738281 C 142.4364471435547 306.51031494140625 91.34358978271484 336.0309753417969 172.0183563232422 371.008056640625" stroke-width="5.0" fill="none" stroke="rgb(0, 0, 0)" stroke-opacity="1.0" stroke-linecap="round" stroke-linejoin="round"/>
    <path d="M 304.89581298828125 395.4603271484375 C 244.23377990722656 314.18475341796875 308.4064025878906 374.0077819824219 198.5919647216797 376.8895263671875" stroke-width="5.0" fill="none" stroke="rgb(0, 0, 0)" stroke-opacity="1.0" stroke-linecap="round" stroke-linejoin="round"/>
    <path d="M 275.32177734375 371.98382568359375 C 275.8371276855469 377.49951171875 236.66058349609375 332.0479736328125 298.8064270019531 399.95947265625" stroke-width="5.0" fill="none" stroke="rgb(0, 0, 0)" stroke-opacity="1.0" stroke-linecap="round" stroke-linejoin="round"/>
    <path d="M 342.4129333496094 258.7000427246094 C 264.0792541503906 308.1215515136719 302.1096496582031 155.90042114257812 321.52471923828125 249.01559448242188" stroke-width="5.0" fill="none" stroke="rgb(0, 0, 0)" stroke-opacity="1.0" stroke-linecap="round" stroke-linejoin="round"/>
    <path d="M 343.3773498535156 148.3019561767578 C 288.864013671875 213.9209747314453 269.362060546875 157.24720764160156 300.7486267089844 206.61659240722656" stroke-width="5.0" fill="none" stroke="rgb(0, 0, 0)" stroke-opacity="1.0" stroke-linecap="round" stroke-linejoin="round"/>
    <path d="M 264.3904724121094 222.51206970214844 C 275.54742431640625 173.80101013183594 269.59783935546875 256.4412536621094 250.45623779296875 226.41412353515625" stroke-width="5.0" fill="none" stroke="rgb(0, 0, 0)" stroke-opacity="1.0" stroke-linecap="round" stroke-linejoin="round"/>
    <path d="M 125.37129974365234 175.65542602539062 C 168.18115234375 206.0471649169922 148.5455780029297 232.43946838378906 203.63241577148438 208.2514190673828" stroke-width="5.0" fill="none" stroke="rgb(0, 0, 0)" stroke-opacity="1.0" stroke-linecap="round" stroke-linejoin="round"/>
    <path d="M 329.1904296875 322.6124267578125 C 298.4979248046875 340.2207946777344 308.6510925292969 328.4122314453125 304.67730712890625 338.8435974121094" stroke-width="5.0" fill="none" stroke="rgb(0, 0, 0)" stroke-opacity="1.0" stroke-linecap="round" stroke-linejoin="round"/>
    <path d="M 278.397216796875 148.78558349609375 C 256.7318420410156 185.20159912109375 255.10638427734375 139.98011779785156 185.1868133544922 181.37559509277344" stroke-width="5.0" fill="none" stroke="rgb(0, 0, 0)" stroke-opacity="1.0" stroke-linecap="round" stroke-linejoin="round"/>
    <path d="M 274.4779357910156 217.2198944091797 C 368.5609436035156 204.11904907226562 314.7197570800781 160.38259887695312 368.0089111328125 123.99296569824219" stroke-width="5.0" fill="none" stroke="rgb(0, 0, 0)" stroke-opacity="1.0" stroke-linecap="round" stroke-linejoin="round"/>
  </g>
</svg>
