<?xml version="1.0" ?>
<svg xmlns="http://www.w3.org/2000/svg" version="1.1" width="512" height="512">
  <defs/>
  <g>
    <path d="M 172.11260986328125 350.7366027832031 C 108.92869567871094 359.4268493652344 149.20510864257812 331.5184326171875 125.64888763427734 320.99310302734375" stroke-width="5.0" fill="none" stroke="rgb(0, 0, 0)" stroke-opacity="1.0" stroke-linecap="round" stroke-linejoin="round"/>
    <path d="M 328.56988525390625 176.7899932861328 C 318.271484375 157.10098266601562 313.9241943359375 195.86431884765625 329.349365234375 173.86468505859375" stroke-width="5.0" fill="none" stroke="rgb(0, 0, 0)" stroke-opacity="1.0" stroke-linecap="round" stroke-linejoin="round"/>
    <path d="M 325.49493408203125 328.14892578125 C 347.28424072265625 319.0721740722656 333.7004089355469 321.1073303222656 350.7599792480469 302.6470947265625" stroke-width="5.0" fill="none" stroke="rgb(0, 0, 0)" stroke-opacity="1.0" stroke-linecap="round" stroke-linejoin="round"/>
    <path d="M 406.2848815917969 227.2851104736328 C 326.851806640625 159.29208374023438 331.6871032714844 251.4429473876953 406.9320068359375 226.4772186279297" stroke-width="5.0" fill="none" stroke="rgb(0, 0, 0)" stroke-opacity="1.0" stroke-linecap="round" stroke-linejoin="round"/>
    <path d="M 173.50653076171875 344.63873291015625 C 100.76282501220703 311.0403747558594 52.28807830810547 253.9505157470703 112.56199645996094 234.79615783691406" stroke-width="5.0" fill="none" stroke="rgb(0, 0, 0)" stroke-opacity="1.0" stroke-linecap="round" stroke-linejoin="round"/>
    <path d="M 274.31304931640625 221.04931640625 C 289.4210510253906 221.97547912597656 270.4414367675781 249.65147399902344 254.15138244628906 185.58047485351562" stroke-width="5.0" fill="none" stroke="rgb(0, 0, 0)" stroke-opacity="1.0" stroke-linecap="round" stroke-linejoin="round"/>
    <path d="M 268.0149230957031 215.76388549804688 C 294.16619873046875 234.65432739257812 274.57769775390625 225.43682861328125 271.5836181640625 217.13853454589844" stroke-width="5.0" fill="none" stroke="rgb(0, 0, 0)" stroke-opacity="1.0" stroke-linecap="round" stroke-linejoin="round"/>
    <path d="M 327.57196044921875 227.2261505126953 C 356.63897705078125 224.2998809814453 340.1248474121094 212.0020751953125 333.6677551269531 234.83184814453125" stroke-width="5.0" fill="none" stroke="rgb(0, 0, 0)" stroke-opacity="1.0" stroke-linecap="round" stroke-linejoin="round"/>
    <path d="M 337.2634582519531 245.35401916503906 C 324.9859619140625 212.27542114257812 368.67724609375 254.25404357910156 361.07037353515625 277.92974853515625" stroke-width="5.0" fill="none" stroke="rgb(0, 0, 0)" stroke-opacity="1.0" stroke-linecap="round" stroke-linejoin="round"/>
    <path d="M 151.96136474609375 179.8819122314453 C 299.3855895996094 153.79425048828125 233.07354736328125 228.7923126220703 270.04254150390625 132.11293029785156" stroke-width="5.0" fill="none" stroke="rgb(0, 0, 0)" stroke-opacity="1.0" stroke-linecap="round" stroke-linejoin="round"/>
    <path d="M 343.28155517578125 237.1648406982422 C 378.62176513671875 276.1561279296875 352.7303161621094 319.2957458496094 332.35009765625 322.4697265625" stroke-width="5.0" fill="none" stroke="rgb(0, 0, 0)" stroke-opacity="1.0" stroke-linecap="round" stroke-linejoin="round"/>
    <path d="M 332.3512878417969 331.2361145019531 C 333.68060302734375 323.77325439453125 319.3949890136719 354.3272705078125 167.59703063964844 337.30694580078125" stroke-width="5.0" fill="none" stroke="rgb(0, 0, 0)" stroke-opacity="1.0" stroke-linecap="round" stroke-linejoin="round"/>
    <path d="M 151.9392547607422 204.8561248779297 C 101.13734436035156 202.65260314941406 116.22046661376953 267.05975341796875 126.453369140625 223.20443725585938" stroke-width="5.0" fill="none" stroke="rgb(0, 0, 0)" stroke-opacity="1.0" stroke-linecap="round" stroke-linejoin="round"/>
    <path d="M 358.0775451660156 188.49061584472656 C 352.9963684082031 182.3499755859375 391.8089599609375 194.4453582763672 358.125244140625 134.2237548828125" stroke-width="5.0" fill="none" stroke="rgb(0, 0, 0)" stroke-opacity="1.0" stroke-linecap="round" stroke-linejoin="round"/>
    <path d="M 377.14727783203125 205.01577758789062 C 368.7208251953125 125.97049713134766 329.6517639160156 100.97753143310547 271.9962158203125 130.8968963623047" stroke-width="5.0" fill="none" stroke="rgb(0, 0, 0)" stroke-opacity="1.0" stroke-linecap="round" stroke-linejoin="round"/>
    <path d="M 284.3843688964844 342.7225646972656 C 293.5393981933594 341.3477783203125 310.0993957519531 338.72283935546875 332.459716796875 325.141845703125" stroke-width="5.0" fill="none" stroke="rgb(0, 0, 0)" stroke-opacity="1.0" stroke-linecap="round" stroke-linejoin="round"/>
  </g>
</svg>
