<?xml version="1.0" ?>
<svg xmlns="http://www.w3.org/2000/svg" version="1.1" width="512" height="512">
  <defs/>
  <g>
    <path d="M 211.49537658691406 235.00537109375 C 204.99632263183594 163.2593536376953 154.85948181152344 237.93890380859375 165.3666534423828 273.5915832519531" stroke-width="5.0" fill="none" stroke="rgb(0, 0, 0)" stroke-opacity="1.0" stroke-linecap="round" stroke-linejoin="round"/>
    <path d="M 213.2876739501953 200.2665557861328 C 207.50714111328125 161.93801879882812 252.27001953125 134.51235961914062 290.4221496582031 156.40541076660156" stroke-width="5.0" fill="none" stroke="rgb(0, 0, 0)" stroke-opacity="1.0" stroke-linecap="round" stroke-linejoin="round"/>
    <path d="M 353.7053527832031 194.90550231933594 C 368.76910400390625 181.4500732421875 375.3706359863281 174.94808959960938 342.0411071777344 173.92041015625" stroke-width="5.0" fill="none" stroke="rgb(0, 0, 0)" stroke-opacity="1.0" stroke-linecap="round" stroke-linejoin="round"/>
    <path d="M 219.2213592529297 420.54779052734375 C 177.12356567382812 295.02886962890625 206.39044189453125 334.5187683105469 222.65899658203125 260.5166320800781" stroke-width="5.0" fill="none" stroke="rgb(0, 0, 0)" stroke-opacity="1.0" stroke-linecap="round" stroke-linejoin="round"/>
    <path d="M 344.53485107421875 199.78662109375 C 390.6240539550781 245.61880493164062 371.51641845703125 223.25083923339844 358.7445983886719 330.65582275390625" stroke-width="5.0" fill="none" stroke="rgb(0, 0, 0)" stroke-opacity="1.0" stroke-linecap="round" stroke-linejoin="round"/>
    <path d="M 299.47216796875 221.29217529296875 C 315.4419250488281 206.2853240966797 289.11572265625 180.88885498046875 277.31756591796875 200.1847686767578" stroke-width="5.0" fill="none" stroke="rgb(0, 0, 0)" stroke-opacity="1.0" stroke-linecap="round" stroke-linejoin="round"/>
    <path d="M 276.61724853515625 258.1570739746094 C 320.3554992675781 327.0744934082031 200.91062927246094 345.59466552734375 237.54074096679688 265.2093811035156" stroke-width="5.0" fill="none" stroke="rgb(0, 0, 0)" stroke-opacity="1.0" stroke-linecap="round" stroke-linejoin="round"/>
    <path d="M 253.08509826660156 259.2388000488281 C 274.8059387207031 240.31593322753906 242.5786590576172 238.4477081298828 216.23605346679688 230.79959106445312" stroke-width="5.0" fill="none" stroke="rgb(0, 0, 0)" stroke-opacity="1.0" stroke-linecap="round" stroke-linejoin="round"/>
    <path d="M 184.02520751953125 215.8441619873047 C 192.17361450195312 213.31788635253906 179.43960571289062 191.66033935546875 208.68072509765625 196.72930908203125" stroke-width="5.0" fill="none" stroke="rgb(0, 0, 0)" stroke-opacity="1.0" stroke-linecap="round" stroke-linejoin="round"/>
    <path d="M 299.7559814453125 221.8018035888672 C 306.9419250488281 213.70791625976562 301.92755126953125 228.78787231445312 284.826416015625 232.9111785888672" stroke-width="5.0" fill="none" stroke="rgb(0, 0, 0)" stroke-opacity="1.0" stroke-linecap="round" stroke-linejoin="round"/>
    <path d="M 170.8104705810547 263.9610595703125 C 256.3695373535156 256.4665222167969 251.18612670898438 264.7447509765625 244.943359375 261.7079162597656" stroke-width="5.0" fill="none" stroke="rgb(0, 0, 0)" stroke-opacity="1.0" stroke-linecap="round" stroke-linejoin="round"/>
    <path d="M 360.56781005859375 335.9766540527344 C 340.8425598144531 326.6943359375 365.37969970703125 359.11474609375 506.2250061035156 386.606201171875" stroke-width="5.0" fill="none" stroke="rgb(0, 0, 0)" stroke-opacity="1.0" stroke-linecap="round" stroke-linejoin="round"/>
    <path d="M 294.45849609375 198.1512908935547 C 263.30023193359375 174.96902465820312 314.84454345703125 225.19271850585938 275.6395263671875 222.24075317382812" stroke-width="5.0" fill="none" stroke="rgb(0, 0, 0)" stroke-opacity="1.0" stroke-linecap="round" stroke-linejoin="round"/>
    <path d="M 302.3194885253906 199.56198120117188 C 304.971435546875 260.6146545410156 215.64157104492188 220.35887145996094 277.1313171386719 191.39459228515625" stroke-width="5.0" fill="none" stroke="rgb(0, 0, 0)" stroke-opacity="1.0" stroke-linecap="round" stroke-linejoin="round"/>
    <path d="M 305.02642822265625 123.4482650756836 C 326.4253845214844 188.48611450195312 335.4674072265625 110.49561309814453 342.2920837402344 169.42477416992188" stroke-width="5.0" fill="none" stroke="rgb(0, 0, 0)" stroke-opacity="1.0" stroke-linecap="round" stroke-linejoin="round"/>
    <path d="M 241.7312469482422 246.0804443359375 C 234.1415557861328 246.84217834472656 190.3971405029297 243.10643005371094 168.071533203125 271.2117004394531" stroke-width="5.0" fill="none" stroke="rgb(0, 0, 0)" stroke-opacity="1.0" stroke-linecap="round" stroke-linejoin="round"/>
    <path d="M 343.9294738769531 187.70086669921875 C 336.17510986328125 203.75643920898438 334.84246826171875 180.52516174316406 366.22021484375 163.07005310058594" stroke-width="5.0" fill="none" stroke="rgb(0, 0, 0)" stroke-opacity="1.0" stroke-linecap="round" stroke-linejoin="round"/>
    <path d="M 289.7914123535156 227.99964904785156 C 299.30169677734375 230.73487854003906 262.7685546875 255.71751403808594 246.69345092773438 236.67771911621094" stroke-width="5.0" fill="none" stroke="rgb(0, 0, 0)" stroke-opacity="1.0" stroke-linecap="round" stroke-linejoin="round"/>
    <path d="M 352.11895751953125 200.00106811523438 C 352.84228515625 179.9835205078125 345.33489990234375 155.66876220703125 359.0114440917969 158.83236694335938" stroke-width="5.0" fill="none" stroke="rgb(0, 0, 0)" stroke-opacity="1.0" stroke-linecap="round" stroke-linejoin="round"/>
    <path d="M 342.52032470703125 194.63739013671875 C 321.611083984375 257.5886535644531 304.2376708984375 259.21441650390625 297.1213684082031 287.23345947265625" stroke-width="5.0" fill="none" stroke="rgb(0, 0, 0)" stroke-opacity="1.0" stroke-linecap="round" stroke-linejoin="round"/>
    <path d="M 318.70660400390625 183.4224853515625 C 292.18975830078125 154.11892700195312 359.3619689941406 161.41162109375 312.4842224121094 209.04078674316406" stroke-width="5.0" fill="none" stroke="rgb(0, 0, 0)" stroke-opacity="1.0" stroke-linecap="round" stroke-linejoin="round"/>
    <path d="M 159.7259063720703 136.14401245117188 C 180.47166442871094 179.93661499023438 157.79498291015625 205.36293029785156 187.1978759765625 164.81619262695312" stroke-width="5.0" fill="none" stroke="rgb(0, 0, 0)" stroke-opacity="1.0" stroke-linecap="round" stroke-linejoin="round"/>
    <path d="M 269.412109375 180.98324584960938 C 278.3408203125 156.26011657714844 313.77325439453125 155.76141357421875 305.9245300292969 190.4923553466797" stroke-width="5.0" fill="none" stroke="rgb(0, 0, 0)" stroke-opacity="1.0" stroke-linecap="round" stroke-linejoin="round"/>
    <path d="M 339.8345642089844 325.9681396484375 C 252.05343627929688 321.7839660644531 232.85780334472656 350.703857421875 214.0743408203125 296.1523742675781" stroke-width="5.0" fill="none" stroke="rgb(0, 0, 0)" stroke-opacity="1.0" stroke-linecap="round" stroke-linejoin="round"/>
    <path d="M 174.87484741210938 270.5653991699219 C 172.86575317382812 280.5748291015625 182.85745239257812 276.1710205078125 178.8990936279297 274.44744873046875" stroke-width="5.0" fill="none" stroke="rgb(0, 0, 0)" stroke-opacity="1.0" stroke-linecap="round" stroke-linejoin="round"/>
    <path d="M 215.4461669921875 217.33795166015625 C 242.41677856445312 232.21641540527344 187.62124633789062 252.83401489257812 188.6726837158203 213.41468811035156" stroke-width="5.0" fill="none" stroke="rgb(0, 0, 0)" stroke-opacity="1.0" stroke-linecap="round" stroke-linejoin="round"/>
    <path d="M 223.3453826904297 228.6527862548828 C 216.97140502929688 231.574462890625 222.94212341308594 223.3225555419922 220.47398376464844 230.37579345703125" stroke-width="5.0" fill="none" stroke="rgb(0, 0, 0)" stroke-opacity="1.0" stroke-linecap="round" stroke-linejoin="round"/>
    <path d="M 222.6866912841797 403.4109191894531 C 217.4967498779297 352.3111877441406 166.45318603515625 398.7950439453125 200.69601440429688 371.9693298339844" stroke-width="5.0" fill="none" stroke="rgb(0, 0, 0)" stroke-opacity="1.0" stroke-linecap="round" stroke-linejoin="round"/>
    <path d="M 256.24005126953125 216.38571166992188 C 234.39024353027344 208.13221740722656 230.1348876953125 161.54931640625 263.7055969238281 178.6450653076172" stroke-width="5.0" fill="none" stroke="rgb(0, 0, 0)" stroke-opacity="1.0" stroke-linecap="round" stroke-linejoin="round"/>
    <path d="M 169.7435760498047 184.5344696044922 C 111.41081237792969 253.443115234375 135.89512634277344 275.59857177734375 161.5130157470703 267.4585876464844" stroke-width="5.0" fill="none" stroke="rgb(0, 0, 0)" stroke-opacity="1.0" stroke-linecap="round" stroke-linejoin="round"/>
    <path d="M 273.1207580566406 326.80859375 C 320.39569091796875 306.7791748046875 277.8855285644531 229.95191955566406 279.706298828125 237.22035217285156" stroke-width="5.0" fill="none" stroke="rgb(0, 0, 0)" stroke-opacity="1.0" stroke-linecap="round" stroke-linejoin="round"/>
    <path d="M 204.82310485839844 395.362548828125 C 203.88648986816406 450.6844787597656 185.4979248046875 407.2458190917969 208.3004608154297 375.27777099609375" stroke-width="5.0" fill="none" stroke="rgb(0, 0, 0)" stroke-opacity="1.0" stroke-linecap="round" stroke-linejoin="round"/>
  </g>
</svg>
