<?xml version="1.0" ?>
<svg xmlns="http://www.w3.org/2000/svg" version="1.1" width="512" height="512">
  <defs/>
  <g>
    <path d="M 200.48593139648438 235.26107788085938 C 204.20327758789062 231.0290985107422 206.28598022460938 239.62106323242188 219.03631591796875 249.4765167236328" stroke-width="5.0" fill="none" stroke="rgb(31, 119, 180)" stroke-opacity="1.0" stroke-linecap="round" stroke-linejoin="round"/>
    <path d="M 228.94659423828125 157.2606201171875 C 231.8040008544922 158.19361877441406 225.0709228515625 144.83685302734375 222.09739685058594 154.05813598632812" stroke-width="5.0" fill="none" stroke="rgb(31, 119, 180)" stroke-opacity="1.0" stroke-linecap="round" stroke-linejoin="round"/>
    <path d="M 351.84967041015625 176.1920623779297 C 361.5099792480469 164.68296813964844 366.9787292480469 152.57215881347656 364.96014404296875 160.4891357421875" stroke-width="5.0" fill="none" stroke="rgb(31, 119, 180)" stroke-opacity="1.0" stroke-linecap="round" stroke-linejoin="round"/>
    <path d="M 233.3103485107422 343.7451477050781 C 238.77867126464844 346.41583251953125 230.10435485839844 342.333251953125 227.82589721679688 344.6387939453125" stroke-width="5.0" fill="none" stroke="rgb(31, 119, 180)" stroke-opacity="1.0" stroke-linecap="round" stroke-linejoin="round"/>
    <path d="M 356.7893981933594 210.90460205078125 C 356.88348388671875 223.4982452392578 352.9248046875 226.81898498535156 359.7412414550781 230.22640991210938" stroke-width="5.0" fill="none" stroke="rgb(31, 119, 180)" stroke-opacity="1.0" stroke-linecap="round" stroke-linejoin="round"/>
    <path d="M 307.10693359375 192.88027954101562 C 318.8123779296875 184.6087646484375 320.95367431640625 179.38662719726562 324.3944396972656 174.04075622558594" stroke-width="5.0" fill="none" stroke="rgb(31, 119, 180)" stroke-opacity="1.0" stroke-linecap="round" stroke-linejoin="round"/>
    <path d="M 242.71136474609375 294.1148376464844 C 235.20314025878906 298.3562316894531 231.28253173828125 290.52587890625 235.77613830566406 280.38006591796875" stroke-width="5.0" fill="none" stroke="rgb(31, 119, 180)" stroke-opacity="1.0" stroke-linecap="round" stroke-linejoin="round"/>
    <path d="M 242.57908630371094 235.9915313720703 C 231.66331481933594 239.79132080078125 236.3586883544922 246.9044189453125 237.51028442382812 248.28150939941406" stroke-width="5.0" fill="none" stroke="rgb(31, 119, 180)" stroke-opacity="1.0" stroke-linecap="round" stroke-linejoin="round"/>
    <path d="M 187.46234130859375 196.88046264648438 C 180.51565551757812 197.5210723876953 188.6709442138672 193.87350463867188 200.02052307128906 199.91290283203125" stroke-width="5.0" fill="none" stroke="rgb(31, 119, 180)" stroke-opacity="1.0" stroke-linecap="round" stroke-linejoin="round"/>
    <path d="M 301.1278076171875 223.04049682617188 C 291.3609619140625 234.88987731933594 300.4315185546875 232.55718994140625 308.13800048828125 242.77723693847656" stroke-width="5.0" fill="none" stroke="rgb(31, 119, 180)" stroke-opacity="1.0" stroke-linecap="round" stroke-linejoin="round"/>
    <path d="M 222.93954467773438 255.52154541015625 C 218.6398468017578 262.1019592285156 229.18634033203125 272.9281311035156 237.0240478515625 269.533203125" stroke-width="5.0" fill="none" stroke="rgb(31, 119, 180)" stroke-opacity="1.0" stroke-linecap="round" stroke-linejoin="round"/>
    <path d="M 333.18084716796875 356.17950439453125 C 329.3018493652344 367.5832214355469 331.0883483886719 379.4761047363281 343.7793273925781 387.48779296875" stroke-width="5.0" fill="none" stroke="rgb(31, 119, 180)" stroke-opacity="1.0" stroke-linecap="round" stroke-linejoin="round"/>
    <path d="M 294.366943359375 184.34423828125 C 280.21002197265625 187.1381072998047 285.3289794921875 199.53298950195312 285.7677001953125 204.57162475585938" stroke-width="5.0" fill="none" stroke="rgb(31, 119, 180)" stroke-opacity="1.0" stroke-linecap="round" stroke-linejoin="round"/>
    <path d="M 285.3794250488281 196.36602783203125 C 289.0978088378906 208.68270874023438 280.6954345703125 213.50131225585938 282.0473937988281 208.7495574951172" stroke-width="5.0" fill="none" stroke="rgb(31, 119, 180)" stroke-opacity="1.0" stroke-linecap="round" stroke-linejoin="round"/>
    <path d="M 316.87542724609375 156.54563903808594 C 325.3268737792969 164.66468811035156 324.8358459472656 153.0561065673828 325.2147216796875 156.7933807373047" stroke-width="5.0" fill="none" stroke="rgb(31, 119, 180)" stroke-opacity="1.0" stroke-linecap="round" stroke-linejoin="round"/>
    <path d="M 204.79649353027344 254.03814697265625 C 213.4449920654297 263.2698974609375 213.43649291992188 271.64794921875 202.6279296875 280.76641845703125" stroke-width="5.0" fill="none" stroke="rgb(31, 119, 180)" stroke-opacity="1.0" stroke-linecap="round" stroke-linejoin="round"/>
    <path d="M 342.90399169921875 187.22872924804688 C 350.2730407714844 196.28759765625 359.60711669921875 196.67771911621094 362.2550048828125 189.1391143798828" stroke-width="5.0" fill="none" stroke="rgb(255, 127, 14)" stroke-opacity="1.0" stroke-linecap="round" stroke-linejoin="round"/>
    <path d="M 297.8293762207031 237.34107971191406 C 287.0911560058594 227.9303741455078 284.27850341796875 237.76698303222656 285.9566650390625 246.91107177734375" stroke-width="5.0" fill="none" stroke="rgb(255, 127, 14)" stroke-opacity="1.0" stroke-linecap="round" stroke-linejoin="round"/>
    <path d="M 343.1697082519531 170.6796875 C 345.5872497558594 166.44566345214844 347.15496826171875 165.7058563232422 346.6437072753906 155.0974578857422" stroke-width="5.0" fill="none" stroke="rgb(255, 127, 14)" stroke-opacity="1.0" stroke-linecap="round" stroke-linejoin="round"/>
    <path d="M 324.58489990234375 254.74050903320312 C 328.3126525878906 254.01327514648438 319.06085205078125 253.62786865234375 311.7755126953125 264.1412658691406" stroke-width="5.0" fill="none" stroke="rgb(255, 127, 14)" stroke-opacity="1.0" stroke-linecap="round" stroke-linejoin="round"/>
    <path d="M 324.662841796875 182.2382049560547 C 313.590087890625 172.59413146972656 310.903076171875 184.3108673095703 312.36297607421875 176.7757568359375" stroke-width="5.0" fill="none" stroke="rgb(255, 127, 14)" stroke-opacity="1.0" stroke-linecap="round" stroke-linejoin="round"/>
    <path d="M 201.41476440429688 175.51539611816406 C 192.201171875 185.05392456054688 181.5184326171875 194.03334045410156 189.6694793701172 183.52642822265625" stroke-width="5.0" fill="none" stroke="rgb(255, 127, 14)" stroke-opacity="1.0" stroke-linecap="round" stroke-linejoin="round"/>
    <path d="M 267.23614501953125 154.24969482421875 C 278.0119934082031 155.75051879882812 283.295654296875 155.5552520751953 287.9197082519531 168.12347412109375" stroke-width="5.0" fill="none" stroke="rgb(255, 127, 14)" stroke-opacity="1.0" stroke-linecap="round" stroke-linejoin="round"/>
    <path d="M 267.4064636230469 331.9476318359375 C 263.402099609375 323.207275390625 250.86083984375 316.20574951171875 260.9390869140625 311.40118408203125" stroke-width="5.0" fill="none" stroke="rgb(255, 127, 14)" stroke-opacity="1.0" stroke-linecap="round" stroke-linejoin="round"/>
    <path d="M 198.80838012695312 255.89517211914062 C 210.2582550048828 254.5464630126953 206.18812561035156 243.7798614501953 208.07015991210938 237.80601501464844" stroke-width="5.0" fill="none" stroke="rgb(255, 127, 14)" stroke-opacity="1.0" stroke-linecap="round" stroke-linejoin="round"/>
    <path d="M 229.62249755859375 230.89100646972656 C 236.25772094726562 224.00405883789062 247.42054748535156 230.2065887451172 246.94505310058594 239.9475860595703" stroke-width="5.0" fill="none" stroke="rgb(255, 127, 14)" stroke-opacity="1.0" stroke-linecap="round" stroke-linejoin="round"/>
    <path d="M 227.93287658691406 233.09019470214844 C 218.2796630859375 240.05860900878906 215.796142578125 238.74700927734375 215.18978881835938 242.65533447265625" stroke-width="5.0" fill="none" stroke="rgb(255, 127, 14)" stroke-opacity="1.0" stroke-linecap="round" stroke-linejoin="round"/>
    <path d="M 229.3858642578125 341.9578552246094 C 227.81358337402344 338.29571533203125 225.12838745117188 345.15875244140625 237.7333221435547 354.5206604003906" stroke-width="5.0" fill="none" stroke="rgb(255, 127, 14)" stroke-opacity="1.0" stroke-linecap="round" stroke-linejoin="round"/>
    <path d="M 251.2949981689453 214.04562377929688 C 249.68177795410156 209.01918029785156 243.11245727539062 201.97914123535156 255.26060485839844 202.00735473632812" stroke-width="5.0" fill="none" stroke="rgb(255, 127, 14)" stroke-opacity="1.0" stroke-linecap="round" stroke-linejoin="round"/>
    <path d="M 176.85971069335938 231.4456024169922 C 173.8578338623047 231.91636657714844 186.01246643066406 244.3716278076172 188.03005981445312 247.00994873046875" stroke-width="5.0" fill="none" stroke="rgb(255, 127, 14)" stroke-opacity="1.0" stroke-linecap="round" stroke-linejoin="round"/>
    <path d="M 291.1894226074219 257.1966857910156 C 290.8660583496094 251.12782287597656 295.6758117675781 241.57656860351562 292.3973693847656 252.0008087158203" stroke-width="5.0" fill="none" stroke="rgb(255, 127, 14)" stroke-opacity="1.0" stroke-linecap="round" stroke-linejoin="round"/>
    <path d="M 200.96038818359375 350.9705505371094 C 211.9294891357422 352.9566955566406 201.38645935058594 342.5797119140625 193.9030303955078 338.0624084472656" stroke-width="5.0" fill="none" stroke="rgb(255, 127, 14)" stroke-opacity="1.0" stroke-linecap="round" stroke-linejoin="round"/>
  </g>
</svg>
