<?xml version="1.0" ?>
<svg xmlns="http://www.w3.org/2000/svg" version="1.1" width="512" height="512">
  <defs/>
  <g>
    <path d="M 227.7769775390625 220.55010986328125 C 188.47793579101562 220.68630981445312 181.3404541015625 268.51202392578125 181.94139099121094 261.0246887207031" stroke-width="5.0" fill="none" stroke="rgb(0, 0, 0)" stroke-opacity="1.0" stroke-linecap="round" stroke-linejoin="round"/>
    <path d="M 221.36363220214844 209.86253356933594 C 233.39547729492188 173.1151123046875 239.39389038085938 162.15675354003906 286.6280212402344 154.73519897460938" stroke-width="5.0" fill="none" stroke="rgb(0, 0, 0)" stroke-opacity="1.0" stroke-linecap="round" stroke-linejoin="round"/>
    <path d="M 354.1190490722656 178.1985321044922 C 360.96875 163.07470703125 368.16668701171875 160.52020263671875 343.3710021972656 164.51292419433594" stroke-width="5.0" fill="none" stroke="rgb(0, 0, 0)" stroke-opacity="1.0" stroke-linecap="round" stroke-linejoin="round"/>
    <path d="M 228.59083557128906 360.4477233886719 C 219.97349548339844 314.1138610839844 236.2389373779297 331.02191162109375 242.99363708496094 309.4647521972656" stroke-width="5.0" fill="none" stroke="rgb(0, 0, 0)" stroke-opacity="1.0" stroke-linecap="round" stroke-linejoin="round"/>
    <path d="M 353.41583251953125 181.7184600830078 C 377.3340759277344 221.9490203857422 365.42413330078125 197.64654541015625 354.0147705078125 254.095703125" stroke-width="5.0" fill="none" stroke="rgb(0, 0, 0)" stroke-opacity="1.0" stroke-linecap="round" stroke-linejoin="round"/>
    <path d="M 316.9457702636719 217.29830932617188 C 331.1925048828125 193.58851623535156 326.7783203125 189.85716247558594 309.51885986328125 182.9747772216797" stroke-width="5.0" fill="none" stroke="rgb(0, 0, 0)" stroke-opacity="1.0" stroke-linecap="round" stroke-linejoin="round"/>
    <path d="M 236.77490234375 286.780517578125 C 239.2830352783203 327.05389404296875 242.5928955078125 312.2049865722656 237.07354736328125 265.56170654296875" stroke-width="5.0" fill="none" stroke="rgb(0, 0, 0)" stroke-opacity="1.0" stroke-linecap="round" stroke-linejoin="round"/>
    <path d="M 259.9666748046875 243.47215270996094 C 234.35366821289062 238.6837921142578 253.70860290527344 243.60108947753906 230.61753845214844 240.5961456298828" stroke-width="5.0" fill="none" stroke="rgb(0, 0, 0)" stroke-opacity="1.0" stroke-linecap="round" stroke-linejoin="round"/>
    <path d="M 188.46617126464844 205.43133544921875 C 190.14064025878906 215.88865661621094 188.4866943359375 208.26771545410156 199.25314331054688 211.95179748535156" stroke-width="5.0" fill="none" stroke="rgb(0, 0, 0)" stroke-opacity="1.0" stroke-linecap="round" stroke-linejoin="round"/>
    <path d="M 305.4534606933594 225.9364776611328 C 304.8119812011719 235.90078735351562 313.7850341796875 230.97132873535156 301.3595275878906 240.4290771484375" stroke-width="5.0" fill="none" stroke="rgb(0, 0, 0)" stroke-opacity="1.0" stroke-linecap="round" stroke-linejoin="round"/>
    <path d="M 212.23452758789062 252.26791381835938 C 239.20106506347656 257.08929443359375 233.64144897460938 266.6987609863281 247.33538818359375 291.6906433105469" stroke-width="5.0" fill="none" stroke="rgb(0, 0, 0)" stroke-opacity="1.0" stroke-linecap="round" stroke-linejoin="round"/>
    <path d="M 333.6282653808594 324.6971435546875 C 320.8758850097656 390.4505615234375 323.1404724121094 395.2497863769531 367.3304138183594 419.512939453125" stroke-width="5.0" fill="none" stroke="rgb(0, 0, 0)" stroke-opacity="1.0" stroke-linecap="round" stroke-linejoin="round"/>
    <path d="M 302.19818115234375 197.59835815429688 C 271.6632995605469 181.69635009765625 279.6246032714844 211.40150451660156 290.01287841796875 196.84922790527344" stroke-width="5.0" fill="none" stroke="rgb(0, 0, 0)" stroke-opacity="1.0" stroke-linecap="round" stroke-linejoin="round"/>
    <path d="M 301.3166809082031 194.6262969970703 C 319.1794738769531 232.11465454101562 251.82896423339844 216.80612182617188 280.5102233886719 194.95127868652344" stroke-width="5.0" fill="none" stroke="rgb(0, 0, 0)" stroke-opacity="1.0" stroke-linecap="round" stroke-linejoin="round"/>
    <path d="M 315.5741882324219 140.2831268310547 C 331.55975341796875 172.17343139648438 336.9450988769531 127.97765350341797 343.7756652832031 164.0139923095703" stroke-width="5.0" fill="none" stroke="rgb(0, 0, 0)" stroke-opacity="1.0" stroke-linecap="round" stroke-linejoin="round"/>
    <path d="M 228.54208374023438 255.79266357421875 C 222.19650268554688 247.92481994628906 212.69985961914062 252.3621826171875 183.58164978027344 265.09796142578125" stroke-width="5.0" fill="none" stroke="rgb(0, 0, 0)" stroke-opacity="1.0" stroke-linecap="round" stroke-linejoin="round"/>
    <path d="M 345.4293212890625 188.3695068359375 C 354.50189208984375 183.92559814453125 362.6965026855469 195.12611389160156 358.1375427246094 191.39993286132812" stroke-width="5.0" fill="none" stroke="rgb(0, 0, 0)" stroke-opacity="1.0" stroke-linecap="round" stroke-linejoin="round"/>
    <path d="M 295.7284851074219 244.5768585205078 C 300.0509338378906 239.06944274902344 269.3197326660156 248.9320526123047 257.49749755859375 243.5799560546875" stroke-width="5.0" fill="none" stroke="rgb(0, 0, 0)" stroke-opacity="1.0" stroke-linecap="round" stroke-linejoin="round"/>
    <path d="M 349.6641540527344 176.59017944335938 C 350.2394104003906 169.81146240234375 359.251708984375 183.31552124023438 350.0256042480469 149.6851043701172" stroke-width="5.0" fill="none" stroke="rgb(0, 0, 0)" stroke-opacity="1.0" stroke-linecap="round" stroke-linejoin="round"/>
    <path d="M 351.67901611328125 244.50558471679688 C 337.6392517089844 264.32122802734375 323.25347900390625 268.3292236328125 297.3440246582031 279.14776611328125" stroke-width="5.0" fill="none" stroke="rgb(0, 0, 0)" stroke-opacity="1.0" stroke-linecap="round" stroke-linejoin="round"/>
    <path d="M 308.884033203125 175.56344604492188 C 317.3763122558594 155.68618774414062 331.6948547363281 178.81968688964844 327.2657165527344 173.39402770996094" stroke-width="5.0" fill="none" stroke="rgb(0, 0, 0)" stroke-opacity="1.0" stroke-linecap="round" stroke-linejoin="round"/>
    <path d="M 206.848388671875 173.5982208251953 C 193.56918334960938 189.80303955078125 185.13436889648438 197.5171661376953 196.994873046875 162.21055603027344" stroke-width="5.0" fill="none" stroke="rgb(0, 0, 0)" stroke-opacity="1.0" stroke-linecap="round" stroke-linejoin="round"/>
    <path d="M 263.0996398925781 181.40597534179688 C 280.9981994628906 155.885009765625 287.8951721191406 160.57481384277344 303.025146484375 193.1666717529297" stroke-width="5.0" fill="none" stroke="rgb(0, 0, 0)" stroke-opacity="1.0" stroke-linecap="round" stroke-linejoin="round"/>
    <path d="M 328.2605895996094 322.9134521484375 C 253.55148315429688 333.74005126953125 237.5203399658203 329.98724365234375 253.88426208496094 318.9435729980469" stroke-width="5.0" fill="none" stroke="rgb(0, 0, 0)" stroke-opacity="1.0" stroke-linecap="round" stroke-linejoin="round"/>
    <path d="M 199.84445190429688 250.0940399169922 C 201.7896728515625 251.70306396484375 198.23736572265625 248.5550537109375 203.08456420898438 246.45252990722656" stroke-width="5.0" fill="none" stroke="rgb(0, 0, 0)" stroke-opacity="1.0" stroke-linecap="round" stroke-linejoin="round"/>
    <path d="M 229.8616943359375 211.6398468017578 C 234.0373077392578 244.52076721191406 231.63809204101562 240.25730895996094 216.0808868408203 229.82379150390625" stroke-width="5.0" fill="none" stroke="rgb(0, 0, 0)" stroke-opacity="1.0" stroke-linecap="round" stroke-linejoin="round"/>
    <path d="M 220.5386505126953 261.1023864746094 C 236.86700439453125 267.6673889160156 235.40054321289062 254.79849243164062 226.64288330078125 253.4331512451172" stroke-width="5.0" fill="none" stroke="rgb(0, 0, 0)" stroke-opacity="1.0" stroke-linecap="round" stroke-linejoin="round"/>
    <path d="M 215.43377685546875 367.22161865234375 C 222.13851928710938 337.2511291503906 196.74586486816406 366.4380798339844 213.4699249267578 371.46697998046875" stroke-width="5.0" fill="none" stroke="rgb(0, 0, 0)" stroke-opacity="1.0" stroke-linecap="round" stroke-linejoin="round"/>
    <path d="M 259.3985595703125 215.32505798339844 C 239.9709930419922 200.91799926757812 241.08238220214844 159.47506713867188 282.14459228515625 176.590576171875" stroke-width="5.0" fill="none" stroke="rgb(0, 0, 0)" stroke-opacity="1.0" stroke-linecap="round" stroke-linejoin="round"/>
    <path d="M 157.61651611328125 221.24349975585938 C 135.9818572998047 227.1961669921875 154.6995086669922 269.9916687011719 177.0152587890625 260.4789123535156" stroke-width="5.0" fill="none" stroke="rgb(0, 0, 0)" stroke-opacity="1.0" stroke-linecap="round" stroke-linejoin="round"/>
    <path d="M 293.1402893066406 314.70318603515625 C 300.787353515625 254.2244873046875 282.9442138671875 226.62136840820312 290.8038635253906 261.5205383300781" stroke-width="5.0" fill="none" stroke="rgb(0, 0, 0)" stroke-opacity="1.0" stroke-linecap="round" stroke-linejoin="round"/>
    <path d="M 214.71603393554688 342.68780517578125 C 199.23651123046875 367.734375 185.83082580566406 354.9431457519531 225.63661193847656 344.3246765136719" stroke-width="5.0" fill="none" stroke="rgb(0, 0, 0)" stroke-opacity="1.0" stroke-linecap="round" stroke-linejoin="round"/>
  </g>
</svg>
