<?xml version="1.0" ?>
<svg xmlns="http://www.w3.org/2000/svg" version="1.1" width="512" height="512">
  <defs/>
  <g>
    <path d="M 200.66358947753906 238.30484008789062 C 198.3751678466797 232.9066619873047 193.18975830078125 248.60499572753906 208.09153747558594 252.4368896484375" stroke-width="5.0" fill="none" stroke="rgb(31, 119, 180)" stroke-opacity="1.0" stroke-linecap="round" stroke-linejoin="round"/>
    <path d="M 215.76321411132812 162.1236572265625 C 222.11337280273438 157.58956909179688 221.9005889892578 144.7266845703125 250.96932983398438 148.11984252929688" stroke-width="5.0" fill="none" stroke="rgb(31, 119, 180)" stroke-opacity="1.0" stroke-linecap="round" stroke-linejoin="round"/>
    <path d="M 351.5105285644531 175.26602172851562 C 369.4424133300781 170.64273071289062 367.4795837402344 158.3745574951172 348.7817077636719 165.1515655517578" stroke-width="5.0" fill="none" stroke="rgb(31, 119, 180)" stroke-opacity="1.0" stroke-linecap="round" stroke-linejoin="round"/>
    <path d="M 231.7108612060547 354.85601806640625 C 242.63253784179688 346.10430908203125 241.2012481689453 350.4991760253906 247.66859436035156 331.3628234863281" stroke-width="5.0" fill="none" stroke="rgb(31, 119, 180)" stroke-opacity="1.0" stroke-linecap="round" stroke-linejoin="round"/>
    <path d="M 353.12347412109375 188.7904815673828 C 363.9633483886719 227.64027404785156 362.507080078125 212.3502960205078 356.7279052734375 253.5335235595703" stroke-width="5.0" fill="none" stroke="rgb(31, 119, 180)" stroke-opacity="1.0" stroke-linecap="round" stroke-linejoin="round"/>
    <path d="M 323.4688720703125 218.39451599121094 C 331.5516357421875 201.41351318359375 325.4874267578125 189.638916015625 314.8993835449219 182.679931640625" stroke-width="5.0" fill="none" stroke="rgb(31, 119, 180)" stroke-opacity="1.0" stroke-linecap="round" stroke-linejoin="round"/>
    <path d="M 237.9220733642578 294.91510009765625 C 240.40078735351562 309.38409423828125 238.08401489257812 304.2436828613281 238.51754760742188 282.4512023925781" stroke-width="5.0" fill="none" stroke="rgb(31, 119, 180)" stroke-opacity="1.0" stroke-linecap="round" stroke-linejoin="round"/>
    <path d="M 243.97242736816406 246.73370361328125 C 240.82969665527344 241.04299926757812 241.1935272216797 261.03509521484375 241.38572692871094 246.12660217285156" stroke-width="5.0" fill="none" stroke="rgb(31, 119, 180)" stroke-opacity="1.0" stroke-linecap="round" stroke-linejoin="round"/>
    <path d="M 186.97874450683594 202.0667266845703 C 178.19760131835938 204.66067504882812 188.85707092285156 197.21939086914062 205.45648193359375 206.95523071289062" stroke-width="5.0" fill="none" stroke="rgb(31, 119, 180)" stroke-opacity="1.0" stroke-linecap="round" stroke-linejoin="round"/>
    <path d="M 300.7782287597656 219.62091064453125 C 309.2666320800781 238.4351043701172 313.5258483886719 229.5091094970703 301.5763854980469 239.0546112060547" stroke-width="5.0" fill="none" stroke="rgb(31, 119, 180)" stroke-opacity="1.0" stroke-linecap="round" stroke-linejoin="round"/>
    <path d="M 214.0321807861328 251.0131378173828 C 226.92578125 253.84872436523438 233.9147491455078 268.0997314453125 267.3420104980469 273.3673400878906" stroke-width="5.0" fill="none" stroke="rgb(31, 119, 180)" stroke-opacity="1.0" stroke-linecap="round" stroke-linejoin="round"/>
    <path d="M 326.37615966796875 350.2707214355469 C 323.952880859375 372.80316162109375 332.1839294433594 381.4362487792969 352.9034118652344 399.2312316894531" stroke-width="5.0" fill="none" stroke="rgb(31, 119, 180)" stroke-opacity="1.0" stroke-linecap="round" stroke-linejoin="round"/>
    <path d="M 295.1578369140625 184.19935607910156 C 264.5135498046875 173.9200897216797 264.1177978515625 200.5261688232422 281.6011657714844 201.15013122558594" stroke-width="5.0" fill="none" stroke="rgb(31, 119, 180)" stroke-opacity="1.0" stroke-linecap="round" stroke-linejoin="round"/>
    <path d="M 295.1822204589844 190.8634490966797 C 290.0513916015625 215.5272979736328 276.8475036621094 216.18453979492188 279.5494079589844 191.11239624023438" stroke-width="5.0" fill="none" stroke="rgb(31, 119, 180)" stroke-opacity="1.0" stroke-linecap="round" stroke-linejoin="round"/>
    <path d="M 314.92181396484375 156.9193878173828 C 310.0732116699219 161.32699584960938 327.52276611328125 139.7770538330078 335.64630126953125 163.9008026123047" stroke-width="5.0" fill="none" stroke="rgb(31, 119, 180)" stroke-opacity="1.0" stroke-linecap="round" stroke-linejoin="round"/>
    <path d="M 215.01441955566406 254.47134399414062 C 221.0974884033203 259.37359619140625 210.7986297607422 255.30474853515625 194.31166076660156 277.0966491699219" stroke-width="5.0" fill="none" stroke="rgb(31, 119, 180)" stroke-opacity="1.0" stroke-linecap="round" stroke-linejoin="round"/>
    <path d="M 358.80877685546875 193.90048217773438 C 358.17279052734375 188.9763641357422 368.85064697265625 203.182373046875 366.9923400878906 198.81588745117188" stroke-width="5.0" fill="none" stroke="rgb(255, 127, 14)" stroke-opacity="1.0" stroke-linecap="round" stroke-linejoin="round"/>
    <path d="M 292.54876708984375 244.11253356933594 C 296.8929443359375 241.41033935546875 292.69586181640625 248.36659240722656 281.1683044433594 246.37222290039062" stroke-width="5.0" fill="none" stroke="rgb(255, 127, 14)" stroke-opacity="1.0" stroke-linecap="round" stroke-linejoin="round"/>
    <path d="M 344.1709289550781 159.72012329101562 C 343.67236328125 165.33612060546875 347.0823059082031 169.45069885253906 343.6410217285156 144.96665954589844" stroke-width="5.0" fill="none" stroke="rgb(255, 127, 14)" stroke-opacity="1.0" stroke-linecap="round" stroke-linejoin="round"/>
    <path d="M 346.53448486328125 255.3191680908203 C 327.74267578125 258.8689270019531 320.84619140625 260.03814697265625 302.86419677734375 264.5246276855469" stroke-width="5.0" fill="none" stroke="rgb(255, 127, 14)" stroke-opacity="1.0" stroke-linecap="round" stroke-linejoin="round"/>
    <path d="M 310.09625244140625 175.39181518554688 C 310.389892578125 163.14639282226562 317.2084655761719 181.2877197265625 321.3347473144531 169.48338317871094" stroke-width="5.0" fill="none" stroke="rgb(255, 127, 14)" stroke-opacity="1.0" stroke-linecap="round" stroke-linejoin="round"/>
    <path d="M 210.3891143798828 156.04461669921875 C 186.83119201660156 179.09071350097656 187.62661743164062 198.1385955810547 190.5908203125 181.9163360595703" stroke-width="5.0" fill="none" stroke="rgb(255, 127, 14)" stroke-opacity="1.0" stroke-linecap="round" stroke-linejoin="round"/>
    <path d="M 241.79608154296875 156.3025360107422 C 272.5087585449219 158.0391845703125 273.4193420410156 165.82737731933594 286.8457336425781 178.52772521972656" stroke-width="5.0" fill="none" stroke="rgb(255, 127, 14)" stroke-opacity="1.0" stroke-linecap="round" stroke-linejoin="round"/>
    <path d="M 272.1735534667969 326.1159362792969 C 252.44827270507812 332.78082275390625 250.93394470214844 324.8419494628906 264.0350646972656 313.94989013671875" stroke-width="5.0" fill="none" stroke="rgb(255, 127, 14)" stroke-opacity="1.0" stroke-linecap="round" stroke-linejoin="round"/>
    <path d="M 200.14218139648438 250.0131072998047 C 211.64529418945312 256.6558532714844 202.38206481933594 245.7642364501953 200.19595336914062 251.25979614257812" stroke-width="5.0" fill="none" stroke="rgb(255, 127, 14)" stroke-opacity="1.0" stroke-linecap="round" stroke-linejoin="round"/>
    <path d="M 218.6565399169922 227.93898010253906 C 235.5410614013672 218.14488220214844 239.97789001464844 232.22694396972656 249.50328063964844 234.61973571777344" stroke-width="5.0" fill="none" stroke="rgb(255, 127, 14)" stroke-opacity="1.0" stroke-linecap="round" stroke-linejoin="round"/>
    <path d="M 231.51211547851562 237.52593994140625 C 234.71800231933594 249.02291870117188 220.3313446044922 241.8780059814453 225.2659454345703 233.24171447753906" stroke-width="5.0" fill="none" stroke="rgb(255, 127, 14)" stroke-opacity="1.0" stroke-linecap="round" stroke-linejoin="round"/>
    <path d="M 227.49917602539062 344.763427734375 C 230.75843811035156 351.6183776855469 217.09454345703125 354.4124755859375 230.52175903320312 366.7593078613281" stroke-width="5.0" fill="none" stroke="rgb(255, 127, 14)" stroke-opacity="1.0" stroke-linecap="round" stroke-linejoin="round"/>
    <path d="M 251.97422790527344 218.44334411621094 C 244.23089599609375 213.7505645751953 240.49896240234375 184.42823791503906 258.3755798339844 190.84239196777344" stroke-width="5.0" fill="none" stroke="rgb(255, 127, 14)" stroke-opacity="1.0" stroke-linecap="round" stroke-linejoin="round"/>
    <path d="M 172.7234649658203 205.58828735351562 C 157.0748291015625 227.58985900878906 171.0746307373047 251.47523498535156 194.286865234375 254.49765014648438" stroke-width="5.0" fill="none" stroke="rgb(255, 127, 14)" stroke-opacity="1.0" stroke-linecap="round" stroke-linejoin="round"/>
    <path d="M 294.27081298828125 268.04119873046875 C 296.9014587402344 255.5361785888672 297.80303955078125 240.55215454101562 292.00726318359375 261.20538330078125" stroke-width="5.0" fill="none" stroke="rgb(255, 127, 14)" stroke-opacity="1.0" stroke-linecap="round" stroke-linejoin="round"/>
    <path d="M 199.98313903808594 352.6322021484375 C 207.569091796875 362.5111999511719 195.26858520507812 360.4829406738281 210.34669494628906 330.1326599121094" stroke-width="5.0" fill="none" stroke="rgb(255, 127, 14)" stroke-opacity="1.0" stroke-linecap="round" stroke-linejoin="round"/>
  </g>
</svg>
