<?xml version="1.0" ?>
<svg xmlns="http://www.w3.org/2000/svg" version="1.1" width="512" height="512">
  <defs/>
  <g>
    <path d="M 219.94993591308594 215.85055541992188 C 188.6145477294922 221.9000244140625 181.8276824951172 269.37994384765625 180.23629760742188 260.5286865234375" stroke-width="5.0" fill="none" stroke="rgb(0, 0, 0)" stroke-opacity="1.0" stroke-linecap="round" stroke-linejoin="round"/>
    <path d="M 220.20672607421875 187.50048828125 C 228.8670196533203 165.73709106445312 231.5882110595703 157.1265869140625 279.1736755371094 152.51220703125" stroke-width="5.0" fill="none" stroke="rgb(0, 0, 0)" stroke-opacity="1.0" stroke-linecap="round" stroke-linejoin="round"/>
    <path d="M 357.22698974609375 176.02471923828125 C 358.93798828125 160.8891143798828 362.225341796875 153.7317657470703 346.0826416015625 163.94369506835938" stroke-width="5.0" fill="none" stroke="rgb(0, 0, 0)" stroke-opacity="1.0" stroke-linecap="round" stroke-linejoin="round"/>
    <path d="M 228.0433349609375 366.514404296875 C 242.06057739257812 342.5935363769531 244.51864624023438 354.26904296875 244.98345947265625 312.00177001953125" stroke-width="5.0" fill="none" stroke="rgb(0, 0, 0)" stroke-opacity="1.0" stroke-linecap="round" stroke-linejoin="round"/>
    <path d="M 355.3620910644531 177.40170288085938 C 382.9114685058594 216.4444122314453 369.38623046875 200.9057159423828 355.1461181640625 256.77838134765625" stroke-width="5.0" fill="none" stroke="rgb(0, 0, 0)" stroke-opacity="1.0" stroke-linecap="round" stroke-linejoin="round"/>
    <path d="M 312.4385070800781 220.7262725830078 C 322.6813049316406 200.37069702148438 316.713623046875 196.52685546875 309.37176513671875 188.48851013183594" stroke-width="5.0" fill="none" stroke="rgb(0, 0, 0)" stroke-opacity="1.0" stroke-linecap="round" stroke-linejoin="round"/>
    <path d="M 237.19131469726562 286.4671325683594 C 243.4825897216797 317.9503479003906 237.15757751464844 311.28472900390625 240.16600036621094 263.27398681640625" stroke-width="5.0" fill="none" stroke="rgb(0, 0, 0)" stroke-opacity="1.0" stroke-linecap="round" stroke-linejoin="round"/>
    <path d="M 253.55674743652344 249.55813598632812 C 231.08203125 240.8525390625 243.51890563964844 253.91159057617188 235.84039306640625 241.6429443359375" stroke-width="5.0" fill="none" stroke="rgb(0, 0, 0)" stroke-opacity="1.0" stroke-linecap="round" stroke-linejoin="round"/>
    <path d="M 184.63729858398438 203.08975219726562 C 188.85667419433594 215.58692932128906 184.191162109375 202.8377685546875 191.95704650878906 222.3478546142578" stroke-width="5.0" fill="none" stroke="rgb(0, 0, 0)" stroke-opacity="1.0" stroke-linecap="round" stroke-linejoin="round"/>
    <path d="M 307.53302001953125 219.8825225830078 C 309.2110900878906 236.87820434570312 315.1686096191406 234.9378662109375 301.8852233886719 243.65060424804688" stroke-width="5.0" fill="none" stroke="rgb(0, 0, 0)" stroke-opacity="1.0" stroke-linecap="round" stroke-linejoin="round"/>
    <path d="M 217.4958953857422 255.91151428222656 C 236.15310668945312 249.96839904785156 236.17532348632812 264.40875244140625 249.9506072998047 295.20562744140625" stroke-width="5.0" fill="none" stroke="rgb(0, 0, 0)" stroke-opacity="1.0" stroke-linecap="round" stroke-linejoin="round"/>
    <path d="M 327.2943115234375 336.9010925292969 C 321.9983825683594 386.2132568359375 327.0247802734375 387.0230712890625 364.46771240234375 417.3555603027344" stroke-width="5.0" fill="none" stroke="rgb(0, 0, 0)" stroke-opacity="1.0" stroke-linecap="round" stroke-linejoin="round"/>
    <path d="M 303.9832458496094 193.262451171875 C 271.2040710449219 179.33932495117188 277.8175964355469 210.69520568847656 289.61199951171875 198.14376831054688" stroke-width="5.0" fill="none" stroke="rgb(0, 0, 0)" stroke-opacity="1.0" stroke-linecap="round" stroke-linejoin="round"/>
    <path d="M 301.1669921875 193.49932861328125 C 313.89910888671875 226.16842651367188 249.6748504638672 214.2737274169922 278.55487060546875 192.7390899658203" stroke-width="5.0" fill="none" stroke="rgb(0, 0, 0)" stroke-opacity="1.0" stroke-linecap="round" stroke-linejoin="round"/>
    <path d="M 311.97528076171875 145.65196228027344 C 338.3023986816406 169.39541625976562 342.475341796875 133.2874755859375 338.30035400390625 158.42623901367188" stroke-width="5.0" fill="none" stroke="rgb(0, 0, 0)" stroke-opacity="1.0" stroke-linecap="round" stroke-linejoin="round"/>
    <path d="M 220.30706787109375 247.49925231933594 C 214.4654083251953 249.32566833496094 209.32553100585938 248.54843139648438 178.68894958496094 265.6033935546875" stroke-width="5.0" fill="none" stroke="rgb(0, 0, 0)" stroke-opacity="1.0" stroke-linecap="round" stroke-linejoin="round"/>
    <path d="M 348.38824462890625 188.17340087890625 C 350.58526611328125 189.2859649658203 359.4381408691406 199.1415557861328 357.9833068847656 196.7427978515625" stroke-width="5.0" fill="none" stroke="rgb(0, 0, 0)" stroke-opacity="1.0" stroke-linecap="round" stroke-linejoin="round"/>
    <path d="M 299.7554626464844 241.79139709472656 C 302.4371032714844 242.54014587402344 282.85662841796875 251.22476196289062 255.61830139160156 246.05349731445312" stroke-width="5.0" fill="none" stroke="rgb(0, 0, 0)" stroke-opacity="1.0" stroke-linecap="round" stroke-linejoin="round"/>
    <path d="M 344.6961669921875 173.9622039794922 C 351.643798828125 162.41603088378906 357.0887451171875 171.03717041015625 348.58892822265625 144.85842895507812" stroke-width="5.0" fill="none" stroke="rgb(0, 0, 0)" stroke-opacity="1.0" stroke-linecap="round" stroke-linejoin="round"/>
    <path d="M 353.4027099609375 250.400390625 C 340.35223388671875 268.0546569824219 328.1766052246094 269.0685729980469 300.7119140625 272.2275390625" stroke-width="5.0" fill="none" stroke="rgb(0, 0, 0)" stroke-opacity="1.0" stroke-linecap="round" stroke-linejoin="round"/>
    <path d="M 305.57684326171875 168.5318145751953 C 308.3977966308594 161.57818603515625 324.96929931640625 186.01429748535156 325.923583984375 173.93186950683594" stroke-width="5.0" fill="none" stroke="rgb(0, 0, 0)" stroke-opacity="1.0" stroke-linecap="round" stroke-linejoin="round"/>
    <path d="M 210.48521423339844 162.0912322998047 C 189.7872772216797 182.26058959960938 185.2676544189453 196.45840454101562 193.7600555419922 165.5324249267578" stroke-width="5.0" fill="none" stroke="rgb(0, 0, 0)" stroke-opacity="1.0" stroke-linecap="round" stroke-linejoin="round"/>
    <path d="M 247.18087768554688 178.5480499267578 C 288.5044860839844 162.38893127441406 295.93572998046875 165.37770080566406 302.1929931640625 185.86619567871094" stroke-width="5.0" fill="none" stroke="rgb(0, 0, 0)" stroke-opacity="1.0" stroke-linecap="round" stroke-linejoin="round"/>
    <path d="M 315.7715148925781 325.23834228515625 C 252.15081787109375 328.8304748535156 244.15646362304688 325.5284118652344 255.79721069335938 323.58538818359375" stroke-width="5.0" fill="none" stroke="rgb(0, 0, 0)" stroke-opacity="1.0" stroke-linecap="round" stroke-linejoin="round"/>
    <path d="M 208.64288330078125 242.84007263183594 C 201.90625 251.92735290527344 198.00057983398438 240.5216827392578 201.6747589111328 247.21636962890625" stroke-width="5.0" fill="none" stroke="rgb(0, 0, 0)" stroke-opacity="1.0" stroke-linecap="round" stroke-linejoin="round"/>
    <path d="M 217.251953125 228.80166625976562 C 231.08407592773438 236.785400390625 236.769775390625 234.1573028564453 209.6637725830078 231.3470001220703" stroke-width="5.0" fill="none" stroke="rgb(0, 0, 0)" stroke-opacity="1.0" stroke-linecap="round" stroke-linejoin="round"/>
    <path d="M 228.95046997070312 251.74395751953125 C 233.64100646972656 261.0875549316406 228.94007873535156 251.34478759765625 226.22093200683594 246.54983520507812" stroke-width="5.0" fill="none" stroke="rgb(0, 0, 0)" stroke-opacity="1.0" stroke-linecap="round" stroke-linejoin="round"/>
    <path d="M 215.7213134765625 367.65655517578125 C 222.75186157226562 337.3841857910156 195.29153442382812 354.3633117675781 213.2681884765625 367.816162109375" stroke-width="5.0" fill="none" stroke="rgb(0, 0, 0)" stroke-opacity="1.0" stroke-linecap="round" stroke-linejoin="round"/>
    <path d="M 267.5946350097656 213.06988525390625 C 256.03662109375 197.48263549804688 250.3726043701172 164.9076385498047 277.6748352050781 186.35629272460938" stroke-width="5.0" fill="none" stroke="rgb(0, 0, 0)" stroke-opacity="1.0" stroke-linecap="round" stroke-linejoin="round"/>
    <path d="M 158.9123992919922 216.46072387695312 C 132.51377868652344 231.4157257080078 151.67893981933594 268.2825622558594 177.9282989501953 255.398681640625" stroke-width="5.0" fill="none" stroke="rgb(0, 0, 0)" stroke-opacity="1.0" stroke-linecap="round" stroke-linejoin="round"/>
    <path d="M 303.8814392089844 303.0850830078125 C 294.0875549316406 250.68548583984375 291.57684326171875 234.34347534179688 294.92034912109375 262.3257141113281" stroke-width="5.0" fill="none" stroke="rgb(0, 0, 0)" stroke-opacity="1.0" stroke-linecap="round" stroke-linejoin="round"/>
    <path d="M 208.06153869628906 335.40423583984375 C 203.59681701660156 366.7083435058594 188.94195556640625 357.5701599121094 217.65199279785156 339.5938720703125" stroke-width="5.0" fill="none" stroke="rgb(0, 0, 0)" stroke-opacity="1.0" stroke-linecap="round" stroke-linejoin="round"/>
  </g>
</svg>
