<?xml version="1.0" ?>
<svg xmlns="http://www.w3.org/2000/svg" version="1.1" width="512" height="512">
  <defs/>
  <g>
    <path d="M 234.084228515625 232.07337951660156 C 211.3201141357422 176.26123046875 168.8188934326172 250.66397094726562 183.0685272216797 273.3310546875" stroke-width="5.0" fill="none" stroke="rgb(0, 0, 0)" stroke-opacity="1.0" stroke-linecap="round" stroke-linejoin="round"/>
    <path d="M 204.39149475097656 206.41842651367188 C 221.39134216308594 163.38046264648438 232.46995544433594 155.46319580078125 286.8446350097656 160.85049438476562" stroke-width="5.0" fill="none" stroke="rgb(0, 0, 0)" stroke-opacity="1.0" stroke-linecap="round" stroke-linejoin="round"/>
    <path d="M 359.0284118652344 190.56040954589844 C 374.8575134277344 163.76718139648438 374.6668395996094 164.774169921875 342.52667236328125 170.944091796875" stroke-width="5.0" fill="none" stroke="rgb(0, 0, 0)" stroke-opacity="1.0" stroke-linecap="round" stroke-linejoin="round"/>
    <path d="M 226.1549530029297 379.1973876953125 C 210.8468017578125 308.3094482421875 221.3222198486328 329.7606201171875 224.83660888671875 297.3974304199219" stroke-width="5.0" fill="none" stroke="rgb(0, 0, 0)" stroke-opacity="1.0" stroke-linecap="round" stroke-linejoin="round"/>
    <path d="M 367.6302490234375 181.20098876953125 C 384.74188232421875 224.1678466796875 361.5072326660156 196.5319366455078 361.7726745605469 253.48507690429688" stroke-width="5.0" fill="none" stroke="rgb(0, 0, 0)" stroke-opacity="1.0" stroke-linecap="round" stroke-linejoin="round"/>
    <path d="M 313.4222106933594 227.98081970214844 C 326.0260314941406 204.60704040527344 304.0285339355469 203.20797729492188 302.74212646484375 200.39772033691406" stroke-width="5.0" fill="none" stroke="rgb(0, 0, 0)" stroke-opacity="1.0" stroke-linecap="round" stroke-linejoin="round"/>
    <path d="M 253.39674377441406 275.887939453125 C 291.16802978515625 339.5561828613281 226.38125610351562 346.27789306640625 232.10911560058594 266.6346130371094" stroke-width="5.0" fill="none" stroke="rgb(0, 0, 0)" stroke-opacity="1.0" stroke-linecap="round" stroke-linejoin="round"/>
    <path d="M 264.1021423339844 245.30430603027344 C 246.64186096191406 234.34918212890625 250.33277893066406 244.42027282714844 214.01507568359375 231.5484619140625" stroke-width="5.0" fill="none" stroke="rgb(0, 0, 0)" stroke-opacity="1.0" stroke-linecap="round" stroke-linejoin="round"/>
    <path d="M 203.08885192871094 216.35108947753906 C 219.5697021484375 217.2674560546875 195.132080078125 218.42654418945312 203.74232482910156 201.2399139404297" stroke-width="5.0" fill="none" stroke="rgb(0, 0, 0)" stroke-opacity="1.0" stroke-linecap="round" stroke-linejoin="round"/>
    <path d="M 310.23974609375 230.1097412109375 C 315.7138671875 227.27044677734375 318.8102722167969 228.7666473388672 307.20928955078125 232.97537231445312" stroke-width="5.0" fill="none" stroke="rgb(0, 0, 0)" stroke-opacity="1.0" stroke-linecap="round" stroke-linejoin="round"/>
    <path d="M 194.87620544433594 263.2908020019531 C 248.5706024169922 258.2642822265625 230.2469024658203 256.9739074707031 231.0012664794922 262.96417236328125" stroke-width="5.0" fill="none" stroke="rgb(0, 0, 0)" stroke-opacity="1.0" stroke-linecap="round" stroke-linejoin="round"/>
    <path d="M 313.3509521484375 314.0587158203125 C 310.6563720703125 343.9076232910156 341.3009338378906 386.4203796386719 428.08734130859375 399.454345703125" stroke-width="5.0" fill="none" stroke="rgb(0, 0, 0)" stroke-opacity="1.0" stroke-linecap="round" stroke-linejoin="round"/>
    <path d="M 301.13104248046875 198.2916717529297 C 269.1678161621094 181.20608520507812 289.3024597167969 232.85948181152344 295.0144958496094 204.16934204101562" stroke-width="5.0" fill="none" stroke="rgb(0, 0, 0)" stroke-opacity="1.0" stroke-linecap="round" stroke-linejoin="round"/>
    <path d="M 302.2110900878906 196.25506591796875 C 319.753662109375 241.24032592773438 241.97677612304688 221.0009765625 284.17230224609375 198.2095947265625" stroke-width="5.0" fill="none" stroke="rgb(0, 0, 0)" stroke-opacity="1.0" stroke-linecap="round" stroke-linejoin="round"/>
    <path d="M 307.5145568847656 143.6099853515625 C 331.6624450683594 177.40390014648438 339.06768798828125 115.88802337646484 342.8537292480469 171.06088256835938" stroke-width="5.0" fill="none" stroke="rgb(0, 0, 0)" stroke-opacity="1.0" stroke-linecap="round" stroke-linejoin="round"/>
    <path d="M 242.94309997558594 248.80824279785156 C 225.8802490234375 242.92840576171875 200.50302124023438 245.87110900878906 182.73886108398438 272.8338623046875" stroke-width="5.0" fill="none" stroke="rgb(0, 0, 0)" stroke-opacity="1.0" stroke-linecap="round" stroke-linejoin="round"/>
    <path d="M 350.8348388671875 179.8286590576172 C 347.0511474609375 155.67752075195312 355.8107604980469 181.41885375976562 357.9679260253906 172.5042724609375" stroke-width="5.0" fill="none" stroke="rgb(0, 0, 0)" stroke-opacity="1.0" stroke-linecap="round" stroke-linejoin="round"/>
    <path d="M 300.1391906738281 237.85025024414062 C 307.7070617675781 241.57635498046875 266.6638488769531 268.3529052734375 257.5146179199219 232.78160095214844" stroke-width="5.0" fill="none" stroke="rgb(0, 0, 0)" stroke-opacity="1.0" stroke-linecap="round" stroke-linejoin="round"/>
    <path d="M 364.6194152832031 203.78367614746094 C 340.34136962890625 164.1450653076172 344.35284423828125 177.18067932128906 356.31524658203125 155.81533813476562" stroke-width="5.0" fill="none" stroke="rgb(0, 0, 0)" stroke-opacity="1.0" stroke-linecap="round" stroke-linejoin="round"/>
    <path d="M 356.0060729980469 251.12374877929688 C 349.67919921875 273.9307861328125 312.72332763671875 267.77569580078125 298.09173583984375 285.4664001464844" stroke-width="5.0" fill="none" stroke="rgb(0, 0, 0)" stroke-opacity="1.0" stroke-linecap="round" stroke-linejoin="round"/>
    <path d="M 315.2768859863281 174.71531677246094 C 302.3268737792969 160.73023986816406 329.1181335449219 177.9567108154297 307.8236083984375 199.4563751220703" stroke-width="5.0" fill="none" stroke="rgb(0, 0, 0)" stroke-opacity="1.0" stroke-linecap="round" stroke-linejoin="round"/>
    <path d="M 175.82015991210938 152.97198486328125 C 164.50521850585938 173.463623046875 173.01547241210938 199.9304656982422 199.675048828125 180.0849609375" stroke-width="5.0" fill="none" stroke="rgb(0, 0, 0)" stroke-opacity="1.0" stroke-linecap="round" stroke-linejoin="round"/>
    <path d="M 276.6019592285156 176.9066619873047 C 286.2551574707031 159.82266235351562 299.6517333984375 156.05528259277344 304.340576171875 199.1791229248047" stroke-width="5.0" fill="none" stroke="rgb(0, 0, 0)" stroke-opacity="1.0" stroke-linecap="round" stroke-linejoin="round"/>
    <path d="M 309.559814453125 311.1062316894531 C 260.6029968261719 340.94873046875 265.3818664550781 344.0102233886719 241.5946807861328 329.18609619140625" stroke-width="5.0" fill="none" stroke="rgb(0, 0, 0)" stroke-opacity="1.0" stroke-linecap="round" stroke-linejoin="round"/>
    <path d="M 205.95542907714844 261.36993408203125 C 220.13128662109375 259.2542419433594 199.06163024902344 257.4446716308594 200.92857360839844 254.12144470214844" stroke-width="5.0" fill="none" stroke="rgb(0, 0, 0)" stroke-opacity="1.0" stroke-linecap="round" stroke-linejoin="round"/>
    <path d="M 211.1193389892578 202.75437927246094 C 246.1487579345703 209.7861785888672 212.88433837890625 224.21214294433594 210.40411376953125 227.4298858642578" stroke-width="5.0" fill="none" stroke="rgb(0, 0, 0)" stroke-opacity="1.0" stroke-linecap="round" stroke-linejoin="round"/>
    <path d="M 215.70571899414062 233.69805908203125 C 217.75396728515625 236.405029296875 216.3390350341797 237.5850372314453 211.34228515625 228.23605346679688" stroke-width="5.0" fill="none" stroke="rgb(0, 0, 0)" stroke-opacity="1.0" stroke-linecap="round" stroke-linejoin="round"/>
    <path d="M 214.4999542236328 387.3372802734375 C 233.3257293701172 324.837890625 190.6833953857422 375.84771728515625 198.80416870117188 368.8572692871094" stroke-width="5.0" fill="none" stroke="rgb(0, 0, 0)" stroke-opacity="1.0" stroke-linecap="round" stroke-linejoin="round"/>
    <path d="M 254.62672424316406 221.67034912109375 C 229.4453582763672 212.3505401611328 230.1055450439453 159.1593017578125 280.529296875 179.67239379882812" stroke-width="5.0" fill="none" stroke="rgb(0, 0, 0)" stroke-opacity="1.0" stroke-linecap="round" stroke-linejoin="round"/>
    <path d="M 133.8236541748047 202.77435302734375 C 102.57557678222656 223.2528839111328 147.68556213378906 270.8540954589844 184.303466796875 244.30392456054688" stroke-width="5.0" fill="none" stroke="rgb(0, 0, 0)" stroke-opacity="1.0" stroke-linecap="round" stroke-linejoin="round"/>
    <path d="M 283.4890441894531 328.15576171875 C 319.7273864746094 290.8422546386719 274.449462890625 233.0888214111328 286.52490234375 251.4284210205078" stroke-width="5.0" fill="none" stroke="rgb(0, 0, 0)" stroke-opacity="1.0" stroke-linecap="round" stroke-linejoin="round"/>
    <path d="M 218.2941436767578 350.1964416503906 C 199.18272399902344 394.27288818359375 200.58831787109375 378.697509765625 228.35536193847656 363.8935546875" stroke-width="5.0" fill="none" stroke="rgb(0, 0, 0)" stroke-opacity="1.0" stroke-linecap="round" stroke-linejoin="round"/>
  </g>
</svg>
