<?xml version="1.0" ?>
<svg xmlns="http://www.w3.org/2000/svg" version="1.1" width="512" height="512">
  <defs/>
  <g>
    <path d="M 231.50396728515625 229.24595642089844 C 215.03367614746094 173.28675842285156 168.33937072753906 247.25454711914062 179.5393524169922 274.10308837890625" stroke-width="5.0" fill="none" stroke="rgb(0, 0, 0)" stroke-opacity="1.0" stroke-linecap="round" stroke-linejoin="round"/>
    <path d="M 218.67437744140625 200.2266082763672 C 230.34742736816406 173.09507751464844 242.32627868652344 150.14251708984375 285.17364501953125 151.38011169433594" stroke-width="5.0" fill="none" stroke="rgb(0, 0, 0)" stroke-opacity="1.0" stroke-linecap="round" stroke-linejoin="round"/>
    <path d="M 367.8343505859375 175.23599243164062 C 361.5550537109375 168.08595275878906 380.3338928222656 178.94825744628906 342.8108215332031 172.94357299804688" stroke-width="5.0" fill="none" stroke="rgb(0, 0, 0)" stroke-opacity="1.0" stroke-linecap="round" stroke-linejoin="round"/>
    <path d="M 222.4765167236328 393.3046569824219 C 204.51055908203125 322.1939697265625 226.95130920410156 345.9977111816406 231.97592163085938 265.4795837402344" stroke-width="5.0" fill="none" stroke="rgb(0, 0, 0)" stroke-opacity="1.0" stroke-linecap="round" stroke-linejoin="round"/>
    <path d="M 346.82000732421875 195.92774963378906 C 366.7015380859375 235.84591674804688 353.8521423339844 195.8626708984375 363.1523132324219 282.5820617675781" stroke-width="5.0" fill="none" stroke="rgb(0, 0, 0)" stroke-opacity="1.0" stroke-linecap="round" stroke-linejoin="round"/>
    <path d="M 313.40850830078125 226.9238739013672 C 324.9208068847656 210.21311950683594 305.3424987792969 195.00921630859375 306.4302673339844 198.71621704101562" stroke-width="5.0" fill="none" stroke="rgb(0, 0, 0)" stroke-opacity="1.0" stroke-linecap="round" stroke-linejoin="round"/>
    <path d="M 264.6822204589844 271.8482666015625 C 303.86553955078125 327.3385009765625 213.62753295898438 345.81036376953125 220.7024383544922 264.57470703125" stroke-width="5.0" fill="none" stroke="rgb(0, 0, 0)" stroke-opacity="1.0" stroke-linecap="round" stroke-linejoin="round"/>
    <path d="M 263.6716613769531 251.18521118164062 C 251.47274780273438 235.2522735595703 239.7735137939453 247.87240600585938 222.9178466796875 224.85565185546875" stroke-width="5.0" fill="none" stroke="rgb(0, 0, 0)" stroke-opacity="1.0" stroke-linecap="round" stroke-linejoin="round"/>
    <path d="M 195.94703674316406 223.23770141601562 C 206.2306365966797 219.02381896972656 181.5658721923828 219.99278259277344 209.0997772216797 199.23623657226562" stroke-width="5.0" fill="none" stroke="rgb(0, 0, 0)" stroke-opacity="1.0" stroke-linecap="round" stroke-linejoin="round"/>
    <path d="M 310.77825927734375 228.12673950195312 C 313.2715759277344 223.68798828125 316.2356872558594 222.3756561279297 301.44525146484375 239.7754669189453" stroke-width="5.0" fill="none" stroke="rgb(0, 0, 0)" stroke-opacity="1.0" stroke-linecap="round" stroke-linejoin="round"/>
    <path d="M 196.2311248779297 266.5455017089844 C 256.718017578125 260.86077880859375 238.82601928710938 259.94683837890625 234.945556640625 259.8568420410156" stroke-width="5.0" fill="none" stroke="rgb(0, 0, 0)" stroke-opacity="1.0" stroke-linecap="round" stroke-linejoin="round"/>
    <path d="M 331.9541320800781 316.6864929199219 C 335.4586181640625 311.5587158203125 374.69384765625 352.96368408203125 464.6028137207031 377.95062255859375" stroke-width="5.0" fill="none" stroke="rgb(0, 0, 0)" stroke-opacity="1.0" stroke-linecap="round" stroke-linejoin="round"/>
    <path d="M 301.1816101074219 201.87257385253906 C 272.97113037109375 181.6584930419922 302.0912780761719 243.9031219482422 275.6082458496094 217.0873565673828" stroke-width="5.0" fill="none" stroke="rgb(0, 0, 0)" stroke-opacity="1.0" stroke-linecap="round" stroke-linejoin="round"/>
    <path d="M 301.09228515625 204.25634765625 C 315.8426818847656 253.8361053466797 230.5811767578125 231.8069610595703 276.400146484375 201.1306610107422" stroke-width="5.0" fill="none" stroke="rgb(0, 0, 0)" stroke-opacity="1.0" stroke-linecap="round" stroke-linejoin="round"/>
    <path d="M 309.1529541015625 130.98764038085938 C 325.5400085449219 176.7168426513672 343.95904541015625 109.78016662597656 337.48040771484375 169.39544677734375" stroke-width="5.0" fill="none" stroke="rgb(0, 0, 0)" stroke-opacity="1.0" stroke-linecap="round" stroke-linejoin="round"/>
    <path d="M 240.2137908935547 248.66429138183594 C 233.2220001220703 245.60108947753906 201.07855224609375 251.02761840820312 180.67100524902344 272.57403564453125" stroke-width="5.0" fill="none" stroke="rgb(0, 0, 0)" stroke-opacity="1.0" stroke-linecap="round" stroke-linejoin="round"/>
    <path d="M 343.6633605957031 175.633056640625 C 335.14959716796875 167.14341735839844 335.3864440917969 176.95223999023438 359.0045166015625 160.459228515625" stroke-width="5.0" fill="none" stroke="rgb(0, 0, 0)" stroke-opacity="1.0" stroke-linecap="round" stroke-linejoin="round"/>
    <path d="M 294.4115295410156 241.91799926757812 C 307.8907165527344 235.94993591308594 269.1138610839844 261.6197814941406 246.2743682861328 242.69737243652344" stroke-width="5.0" fill="none" stroke="rgb(0, 0, 0)" stroke-opacity="1.0" stroke-linecap="round" stroke-linejoin="round"/>
    <path d="M 357.3732604980469 206.16184997558594 C 348.5256042480469 173.2254638671875 348.1285095214844 175.97872924804688 365.9278564453125 156.67575073242188" stroke-width="5.0" fill="none" stroke="rgb(0, 0, 0)" stroke-opacity="1.0" stroke-linecap="round" stroke-linejoin="round"/>
    <path d="M 352.71136474609375 238.78892517089844 C 347.0391540527344 276.5935363769531 315.13079833984375 275.42889404296875 294.4477844238281 282.9736633300781" stroke-width="5.0" fill="none" stroke="rgb(0, 0, 0)" stroke-opacity="1.0" stroke-linecap="round" stroke-linejoin="round"/>
    <path d="M 316.1000061035156 191.5244598388672 C 293.9394226074219 172.0683135986328 338.30108642578125 175.056640625 318.4296569824219 209.73309326171875" stroke-width="5.0" fill="none" stroke="rgb(0, 0, 0)" stroke-opacity="1.0" stroke-linecap="round" stroke-linejoin="round"/>
    <path d="M 172.14674377441406 135.844482421875 C 165.23130798339844 163.8054656982422 167.2349090576172 181.39871215820312 197.63339233398438 171.0516815185547" stroke-width="5.0" fill="none" stroke="rgb(0, 0, 0)" stroke-opacity="1.0" stroke-linecap="round" stroke-linejoin="round"/>
    <path d="M 272.4058532714844 174.66273498535156 C 274.6787109375 156.25828552246094 312.8709716796875 151.56260681152344 306.9002685546875 200.3644561767578" stroke-width="5.0" fill="none" stroke="rgb(0, 0, 0)" stroke-opacity="1.0" stroke-linecap="round" stroke-linejoin="round"/>
    <path d="M 325.5540466308594 320.7041320800781 C 260.979736328125 335.9864501953125 260.96728515625 346.1475524902344 234.94810485839844 321.799560546875" stroke-width="5.0" fill="none" stroke="rgb(0, 0, 0)" stroke-opacity="1.0" stroke-linecap="round" stroke-linejoin="round"/>
    <path d="M 193.26194763183594 265.9122314453125 C 199.82318115234375 269.6220703125 192.795166015625 270.5159912109375 188.29290771484375 270.3304138183594" stroke-width="5.0" fill="none" stroke="rgb(0, 0, 0)" stroke-opacity="1.0" stroke-linecap="round" stroke-linejoin="round"/>
    <path d="M 211.77809143066406 190.38204956054688 C 242.85833740234375 229.28016662597656 218.68310546875 245.71942138671875 200.11146545410156 226.4166259765625" stroke-width="5.0" fill="none" stroke="rgb(0, 0, 0)" stroke-opacity="1.0" stroke-linecap="round" stroke-linejoin="round"/>
    <path d="M 227.3309326171875 229.0318603515625 C 234.44784545898438 228.62457275390625 236.67098999023438 231.40745544433594 217.96600341796875 233.18846130371094" stroke-width="5.0" fill="none" stroke="rgb(0, 0, 0)" stroke-opacity="1.0" stroke-linecap="round" stroke-linejoin="round"/>
    <path d="M 207.22926330566406 394.8741760253906 C 229.9705810546875 336.7185974121094 179.7372283935547 378.95013427734375 197.44717407226562 370.5809631347656" stroke-width="5.0" fill="none" stroke="rgb(0, 0, 0)" stroke-opacity="1.0" stroke-linecap="round" stroke-linejoin="round"/>
    <path d="M 257.1260070800781 217.0017547607422 C 231.4243927001953 208.3385009765625 231.1262664794922 157.31935119628906 274.9337158203125 173.16473388671875" stroke-width="5.0" fill="none" stroke="rgb(0, 0, 0)" stroke-opacity="1.0" stroke-linecap="round" stroke-linejoin="round"/>
    <path d="M 156.08457946777344 197.629638671875 C 116.44373321533203 236.5393524169922 154.39134216308594 282.4715270996094 178.7684326171875 264.7730712890625" stroke-width="5.0" fill="none" stroke="rgb(0, 0, 0)" stroke-opacity="1.0" stroke-linecap="round" stroke-linejoin="round"/>
    <path d="M 279.8555603027344 329.0017395019531 C 321.7020263671875 290.2840881347656 272.3533630371094 237.85726928710938 282.85888671875 250.000732421875" stroke-width="5.0" fill="none" stroke="rgb(0, 0, 0)" stroke-opacity="1.0" stroke-linecap="round" stroke-linejoin="round"/>
    <path d="M 211.9689483642578 365.6751708984375 C 187.3485107421875 399.3634033203125 181.68678283691406 370.78997802734375 204.56338500976562 354.17138671875" stroke-width="5.0" fill="none" stroke="rgb(0, 0, 0)" stroke-opacity="1.0" stroke-linecap="round" stroke-linejoin="round"/>
  </g>
</svg>
