<?xml version="1.0" ?>
<svg xmlns="http://www.w3.org/2000/svg" version="1.1" width="512" height="512">
  <defs/>
  <g>
    <path d="M 225.8920440673828 238.4022674560547 C 205.00967407226562 183.04122924804688 171.44207763671875 254.79989624023438 178.3192596435547 280.2004699707031" stroke-width="5.0" fill="none" stroke="rgb(0, 0, 0)" stroke-opacity="1.0" stroke-linecap="round" stroke-linejoin="round"/>
    <path d="M 206.81199645996094 209.22201538085938 C 220.88449096679688 164.74522399902344 235.0537872314453 162.9944610595703 290.84039306640625 156.19281005859375" stroke-width="5.0" fill="none" stroke="rgb(0, 0, 0)" stroke-opacity="1.0" stroke-linecap="round" stroke-linejoin="round"/>
    <path d="M 357.8377990722656 185.6173095703125 C 368.4112548828125 162.71478271484375 373.91571044921875 168.206298828125 336.951171875 164.35902404785156" stroke-width="5.0" fill="none" stroke="rgb(0, 0, 0)" stroke-opacity="1.0" stroke-linecap="round" stroke-linejoin="round"/>
    <path d="M 229.4370574951172 370.9355163574219 C 209.71258544921875 318.30633544921875 225.3096923828125 338.9979553222656 229.03504943847656 305.4093933105469" stroke-width="5.0" fill="none" stroke="rgb(0, 0, 0)" stroke-opacity="1.0" stroke-linecap="round" stroke-linejoin="round"/>
    <path d="M 366.1666564941406 182.5117645263672 C 375.5121154785156 215.20339965820312 355.8113098144531 198.3289031982422 358.07568359375 250.57559204101562" stroke-width="5.0" fill="none" stroke="rgb(0, 0, 0)" stroke-opacity="1.0" stroke-linecap="round" stroke-linejoin="round"/>
    <path d="M 310.0533447265625 227.81192016601562 C 321.8501892089844 203.83795166015625 308.0794372558594 206.81825256347656 309.5423278808594 193.32025146484375" stroke-width="5.0" fill="none" stroke="rgb(0, 0, 0)" stroke-opacity="1.0" stroke-linecap="round" stroke-linejoin="round"/>
    <path d="M 245.4064483642578 275.95892333984375 C 272.10272216796875 345.7996520996094 227.68075561523438 344.6916809082031 228.62901306152344 263.8413391113281" stroke-width="5.0" fill="none" stroke="rgb(0, 0, 0)" stroke-opacity="1.0" stroke-linecap="round" stroke-linejoin="round"/>
    <path d="M 263.7273254394531 251.4921875 C 233.10775756835938 245.26171875 248.802001953125 247.1417694091797 213.48683166503906 231.57655334472656" stroke-width="5.0" fill="none" stroke="rgb(0, 0, 0)" stroke-opacity="1.0" stroke-linecap="round" stroke-linejoin="round"/>
    <path d="M 192.22271728515625 226.75173950195312 C 213.767333984375 215.8307647705078 207.25082397460938 213.1344451904297 207.35391235351562 198.3253631591797" stroke-width="5.0" fill="none" stroke="rgb(0, 0, 0)" stroke-opacity="1.0" stroke-linecap="round" stroke-linejoin="round"/>
    <path d="M 309.6688232421875 228.55731201171875 C 309.80780029296875 222.53652954101562 313.0362243652344 224.38345336914062 295.578125 235.3494415283203" stroke-width="5.0" fill="none" stroke="rgb(0, 0, 0)" stroke-opacity="1.0" stroke-linecap="round" stroke-linejoin="round"/>
    <path d="M 205.08168029785156 261.25457763671875 C 251.6623077392578 260.36041259765625 230.8562469482422 260.7860107421875 229.288818359375 262.6112365722656" stroke-width="5.0" fill="none" stroke="rgb(0, 0, 0)" stroke-opacity="1.0" stroke-linecap="round" stroke-linejoin="round"/>
    <path d="M 315.07476806640625 317.5002136230469 C 303.5730895996094 351.11627197265625 334.08184814453125 388.41815185546875 413.14776611328125 404.867431640625" stroke-width="5.0" fill="none" stroke="rgb(0, 0, 0)" stroke-opacity="1.0" stroke-linecap="round" stroke-linejoin="round"/>
    <path d="M 301.7283020019531 199.4657440185547 C 274.3159484863281 182.52430725097656 287.2907409667969 237.5548095703125 289.931884765625 205.54937744140625" stroke-width="5.0" fill="none" stroke="rgb(0, 0, 0)" stroke-opacity="1.0" stroke-linecap="round" stroke-linejoin="round"/>
    <path d="M 300.29736328125 199.02809143066406 C 319.28759765625 247.25119018554688 244.35317993164062 221.25169372558594 282.0280456542969 195.42356872558594" stroke-width="5.0" fill="none" stroke="rgb(0, 0, 0)" stroke-opacity="1.0" stroke-linecap="round" stroke-linejoin="round"/>
    <path d="M 303.2861328125 141.1500701904297 C 329.1968688964844 173.9169158935547 341.2414855957031 113.22850799560547 340.59564208984375 166.72276306152344" stroke-width="5.0" fill="none" stroke="rgb(0, 0, 0)" stroke-opacity="1.0" stroke-linecap="round" stroke-linejoin="round"/>
    <path d="M 237.22645568847656 251.56414794921875 C 229.45033264160156 251.02772521972656 208.5460662841797 252.814453125 179.98289489746094 274.3830871582031" stroke-width="5.0" fill="none" stroke="rgb(0, 0, 0)" stroke-opacity="1.0" stroke-linecap="round" stroke-linejoin="round"/>
    <path d="M 346.4670715332031 185.75376892089844 C 354.01458740234375 162.0436248779297 357.6141052246094 178.7127227783203 358.79364013671875 175.57334899902344" stroke-width="5.0" fill="none" stroke="rgb(0, 0, 0)" stroke-opacity="1.0" stroke-linecap="round" stroke-linejoin="round"/>
    <path d="M 299.7978210449219 243.55426025390625 C 302.11553955078125 233.3928985595703 257.95550537109375 258.1655578613281 252.3978729248047 234.85299682617188" stroke-width="5.0" fill="none" stroke="rgb(0, 0, 0)" stroke-opacity="1.0" stroke-linecap="round" stroke-linejoin="round"/>
    <path d="M 355.1772155761719 199.78826904296875 C 341.71832275390625 175.90118408203125 352.6529235839844 191.5548858642578 349.2021789550781 163.54147338867188" stroke-width="5.0" fill="none" stroke="rgb(0, 0, 0)" stroke-opacity="1.0" stroke-linecap="round" stroke-linejoin="round"/>
    <path d="M 352.8639221191406 248.75372314453125 C 345.0587158203125 267.88623046875 313.80743408203125 264.7337646484375 303.0095520019531 277.7889099121094" stroke-width="5.0" fill="none" stroke="rgb(0, 0, 0)" stroke-opacity="1.0" stroke-linecap="round" stroke-linejoin="round"/>
    <path d="M 308.6837158203125 176.42538452148438 C 308.3394470214844 149.8076629638672 334.23931884765625 171.0641326904297 312.60589599609375 203.0315399169922" stroke-width="5.0" fill="none" stroke="rgb(0, 0, 0)" stroke-opacity="1.0" stroke-linecap="round" stroke-linejoin="round"/>
    <path d="M 194.583251953125 167.39598083496094 C 175.78807067871094 182.17063903808594 178.04759216308594 202.7976837158203 201.7890167236328 176.5571746826172" stroke-width="5.0" fill="none" stroke="rgb(0, 0, 0)" stroke-opacity="1.0" stroke-linecap="round" stroke-linejoin="round"/>
    <path d="M 271.89373779296875 169.7131805419922 C 285.2142028808594 153.1123046875 307.941650390625 149.94764709472656 311.8127746582031 189.1418914794922" stroke-width="5.0" fill="none" stroke="rgb(0, 0, 0)" stroke-opacity="1.0" stroke-linecap="round" stroke-linejoin="round"/>
    <path d="M 319.6853942871094 313.85955810546875 C 265.1715087890625 349.0260925292969 263.5826721191406 350.1943359375 244.75584411621094 328.86798095703125" stroke-width="5.0" fill="none" stroke="rgb(0, 0, 0)" stroke-opacity="1.0" stroke-linecap="round" stroke-linejoin="round"/>
    <path d="M 210.51779174804688 248.54608154296875 C 218.1550750732422 253.85935974121094 205.81170654296875 252.246337890625 215.6114044189453 247.30050659179688" stroke-width="5.0" fill="none" stroke="rgb(0, 0, 0)" stroke-opacity="1.0" stroke-linecap="round" stroke-linejoin="round"/>
    <path d="M 216.82623291015625 196.8151092529297 C 252.9684295654297 218.12139892578125 222.98585510253906 237.2389373779297 214.3920135498047 239.26693725585938" stroke-width="5.0" fill="none" stroke="rgb(0, 0, 0)" stroke-opacity="1.0" stroke-linecap="round" stroke-linejoin="round"/>
    <path d="M 218.02886962890625 236.01544189453125 C 216.8739013671875 246.93368530273438 217.26998901367188 243.51551818847656 225.79025268554688 245.7241973876953" stroke-width="5.0" fill="none" stroke="rgb(0, 0, 0)" stroke-opacity="1.0" stroke-linecap="round" stroke-linejoin="round"/>
    <path d="M 218.63853454589844 375.67779541015625 C 218.4239044189453 318.8291015625 197.3199462890625 364.8478088378906 212.90997314453125 366.61065673828125" stroke-width="5.0" fill="none" stroke="rgb(0, 0, 0)" stroke-opacity="1.0" stroke-linecap="round" stroke-linejoin="round"/>
    <path d="M 259.3492736816406 216.83152770996094 C 229.4873809814453 210.22422790527344 236.64376831054688 153.4751739501953 276.8625793457031 171.5166473388672" stroke-width="5.0" fill="none" stroke="rgb(0, 0, 0)" stroke-opacity="1.0" stroke-linecap="round" stroke-linejoin="round"/>
    <path d="M 140.003173828125 205.99168395996094 C 109.71387481689453 227.00816345214844 140.36312866210938 272.81805419921875 181.5440673828125 242.33676147460938" stroke-width="5.0" fill="none" stroke="rgb(0, 0, 0)" stroke-opacity="1.0" stroke-linecap="round" stroke-linejoin="round"/>
    <path d="M 289.69256591796875 333.5259094238281 C 323.2574768066406 285.2939147949219 279.0762634277344 230.31271362304688 292.17657470703125 254.6261444091797" stroke-width="5.0" fill="none" stroke="rgb(0, 0, 0)" stroke-opacity="1.0" stroke-linecap="round" stroke-linejoin="round"/>
    <path d="M 227.90750122070312 354.1180419921875 C 197.0850830078125 385.4117126464844 203.0127410888672 380.4001159667969 227.68080139160156 355.504638671875" stroke-width="5.0" fill="none" stroke="rgb(0, 0, 0)" stroke-opacity="1.0" stroke-linecap="round" stroke-linejoin="round"/>
  </g>
</svg>
