<?xml version="1.0" ?>
<svg xmlns="http://www.w3.org/2000/svg" version="1.1" width="512" height="512">
  <defs/>
  <g>
    <path d="M 230.04380798339844 225.00457763671875 C 196.25485229492188 198.0902862548828 181.82284545898438 267.5242614746094 189.10794067382812 266.8833312988281" stroke-width="5.0" fill="none" stroke="rgb(0, 0, 0)" stroke-opacity="1.0" stroke-linecap="round" stroke-linejoin="round"/>
    <path d="M 207.45172119140625 207.42849731445312 C 226.6345672607422 168.37744140625 237.28892517089844 165.52745056152344 288.4320983886719 159.02528381347656" stroke-width="5.0" fill="none" stroke="rgb(0, 0, 0)" stroke-opacity="1.0" stroke-linecap="round" stroke-linejoin="round"/>
    <path d="M 354.4711608886719 170.79006958007812 C 367.7041015625 167.32606506347656 366.2923889160156 155.99647521972656 353.7366638183594 161.73989868164062" stroke-width="5.0" fill="none" stroke="rgb(0, 0, 0)" stroke-opacity="1.0" stroke-linecap="round" stroke-linejoin="round"/>
    <path d="M 220.86610412597656 368.6555480957031 C 222.5551300048828 325.46392822265625 247.75291442871094 336.5586853027344 241.11012268066406 319.38751220703125" stroke-width="5.0" fill="none" stroke="rgb(0, 0, 0)" stroke-opacity="1.0" stroke-linecap="round" stroke-linejoin="round"/>
    <path d="M 348.3679504394531 191.0874481201172 C 369.9278869628906 233.9440155029297 367.4124755859375 212.4443817138672 362.9198913574219 251.8206787109375" stroke-width="5.0" fill="none" stroke="rgb(0, 0, 0)" stroke-opacity="1.0" stroke-linecap="round" stroke-linejoin="round"/>
    <path d="M 309.8778076171875 223.445068359375 C 323.5081481933594 199.16213989257812 315.4977111816406 204.06704711914062 309.7710876464844 184.6271209716797" stroke-width="5.0" fill="none" stroke="rgb(0, 0, 0)" stroke-opacity="1.0" stroke-linecap="round" stroke-linejoin="round"/>
    <path d="M 230.5995635986328 273.0177001953125 C 234.93955993652344 329.3517150878906 231.40121459960938 323.6615295410156 228.9033203125 265.2269592285156" stroke-width="5.0" fill="none" stroke="rgb(0, 0, 0)" stroke-opacity="1.0" stroke-linecap="round" stroke-linejoin="round"/>
    <path d="M 274.5713195800781 242.33380126953125 C 240.62391662597656 237.0411834716797 257.2132568359375 237.4836883544922 221.72752380371094 241.0942840576172" stroke-width="5.0" fill="none" stroke="rgb(0, 0, 0)" stroke-opacity="1.0" stroke-linecap="round" stroke-linejoin="round"/>
    <path d="M 186.7090301513672 208.3322296142578 C 194.4083709716797 224.7879638671875 199.06936645507812 208.30555725097656 200.77487182617188 214.52992248535156" stroke-width="5.0" fill="none" stroke="rgb(0, 0, 0)" stroke-opacity="1.0" stroke-linecap="round" stroke-linejoin="round"/>
    <path d="M 308.7449035644531 221.2218017578125 C 310.55670166015625 228.55133056640625 313.21832275390625 227.332763671875 302.4949645996094 255.00726318359375" stroke-width="5.0" fill="none" stroke="rgb(0, 0, 0)" stroke-opacity="1.0" stroke-linecap="round" stroke-linejoin="round"/>
    <path d="M 203.32273864746094 262.4317932128906 C 238.05284118652344 261.6304016113281 237.4837646484375 266.15118408203125 252.24375915527344 277.0659484863281" stroke-width="5.0" fill="none" stroke="rgb(0, 0, 0)" stroke-opacity="1.0" stroke-linecap="round" stroke-linejoin="round"/>
    <path d="M 324.9588623046875 331.5505065917969 C 311.2111511230469 381.459716796875 318.1793212890625 406.4681396484375 371.76654052734375 428.932373046875" stroke-width="5.0" fill="none" stroke="rgb(0, 0, 0)" stroke-opacity="1.0" stroke-linecap="round" stroke-linejoin="round"/>
    <path d="M 304.25439453125 199.58724975585938 C 277.1864013671875 180.63804626464844 287.42987060546875 217.9862060546875 290.192626953125 202.9732666015625" stroke-width="5.0" fill="none" stroke="rgb(0, 0, 0)" stroke-opacity="1.0" stroke-linecap="round" stroke-linejoin="round"/>
    <path d="M 300.64007568359375 196.61087036132812 C 313.2410583496094 234.80300903320312 248.43446350097656 222.96189880371094 281.36859130859375 194.9237518310547" stroke-width="5.0" fill="none" stroke="rgb(0, 0, 0)" stroke-opacity="1.0" stroke-linecap="round" stroke-linejoin="round"/>
    <path d="M 320.5229797363281 136.52523803710938 C 326.74847412109375 171.01278686523438 341.1172180175781 115.23670196533203 341.466796875 162.7159423828125" stroke-width="5.0" fill="none" stroke="rgb(0, 0, 0)" stroke-opacity="1.0" stroke-linecap="round" stroke-linejoin="round"/>
    <path d="M 239.8712615966797 247.3800506591797 C 226.22760009765625 248.0387725830078 210.83187866210938 252.2467498779297 183.3336944580078 270.119140625" stroke-width="5.0" fill="none" stroke="rgb(0, 0, 0)" stroke-opacity="1.0" stroke-linecap="round" stroke-linejoin="round"/>
    <path d="M 342.3355407714844 184.10206604003906 C 356.5600280761719 170.52894592285156 366.0218505859375 178.64837646484375 365.72113037109375 179.65257263183594" stroke-width="5.0" fill="none" stroke="rgb(0, 0, 0)" stroke-opacity="1.0" stroke-linecap="round" stroke-linejoin="round"/>
    <path d="M 292.6536560058594 232.61215209960938 C 307.9607238769531 230.7528076171875 272.2440185546875 247.1472625732422 258.39501953125 246.6638946533203" stroke-width="5.0" fill="none" stroke="rgb(0, 0, 0)" stroke-opacity="1.0" stroke-linecap="round" stroke-linejoin="round"/>
    <path d="M 348.318603515625 177.706298828125 C 346.9635314941406 170.4346466064453 356.1402282714844 184.89857482910156 346.2261047363281 149.8811798095703" stroke-width="5.0" fill="none" stroke="rgb(0, 0, 0)" stroke-opacity="1.0" stroke-linecap="round" stroke-linejoin="round"/>
    <path d="M 358.8985900878906 250.0324249267578 C 345.6512451171875 269.8895263671875 317.36846923828125 263.1393127441406 294.7968444824219 279.002197265625" stroke-width="5.0" fill="none" stroke="rgb(0, 0, 0)" stroke-opacity="1.0" stroke-linecap="round" stroke-linejoin="round"/>
    <path d="M 308.9172668457031 176.26199340820312 C 320.33319091796875 151.74481201171875 334.7602233886719 172.15074157714844 324.6018981933594 182.78614807128906" stroke-width="5.0" fill="none" stroke="rgb(0, 0, 0)" stroke-opacity="1.0" stroke-linecap="round" stroke-linejoin="round"/>
    <path d="M 198.7967987060547 167.35671997070312 C 188.84649658203125 183.11900329589844 182.625 189.28359985351562 198.826171875 158.17535400390625" stroke-width="5.0" fill="none" stroke="rgb(0, 0, 0)" stroke-opacity="1.0" stroke-linecap="round" stroke-linejoin="round"/>
    <path d="M 274.56915283203125 179.56063842773438 C 286.4195251464844 163.21685791015625 300.9325256347656 159.09677124023438 303.4177551269531 195.2251434326172" stroke-width="5.0" fill="none" stroke="rgb(0, 0, 0)" stroke-opacity="1.0" stroke-linecap="round" stroke-linejoin="round"/>
    <path d="M 323.7055969238281 328.2613525390625 C 267.498779296875 343.81854248046875 243.935791015625 337.02093505859375 256.12310791015625 332.3278503417969" stroke-width="5.0" fill="none" stroke="rgb(0, 0, 0)" stroke-opacity="1.0" stroke-linecap="round" stroke-linejoin="round"/>
    <path d="M 198.1339874267578 255.1669158935547 C 201.845947265625 262.6806640625 203.86915588378906 255.5150909423828 202.86846923828125 258.007568359375" stroke-width="5.0" fill="none" stroke="rgb(0, 0, 0)" stroke-opacity="1.0" stroke-linecap="round" stroke-linejoin="round"/>
    <path d="M 226.00791931152344 206.34423828125 C 242.6810302734375 243.09214782714844 234.74986267089844 243.02500915527344 218.6376495361328 240.3849334716797" stroke-width="5.0" fill="none" stroke="rgb(0, 0, 0)" stroke-opacity="1.0" stroke-linecap="round" stroke-linejoin="round"/>
    <path d="M 221.8895263671875 256.46649169921875 C 229.85096740722656 253.86993408203125 231.48658752441406 251.6902313232422 233.1324005126953 257.1935729980469" stroke-width="5.0" fill="none" stroke="rgb(0, 0, 0)" stroke-opacity="1.0" stroke-linecap="round" stroke-linejoin="round"/>
    <path d="M 212.2284393310547 370.784423828125 C 220.81813049316406 327.63653564453125 193.50685119628906 370.17608642578125 205.18548583984375 370.5049743652344" stroke-width="5.0" fill="none" stroke="rgb(0, 0, 0)" stroke-opacity="1.0" stroke-linecap="round" stroke-linejoin="round"/>
    <path d="M 260.1126708984375 214.850830078125 C 240.15853881835938 198.5631561279297 238.1818084716797 164.41497802734375 272.35791015625 177.87648010253906" stroke-width="5.0" fill="none" stroke="rgb(0, 0, 0)" stroke-opacity="1.0" stroke-linecap="round" stroke-linejoin="round"/>
    <path d="M 139.11146545410156 210.02508544921875 C 116.40806579589844 224.87831115722656 144.474853515625 266.2251281738281 182.00067138671875 252.15345764160156" stroke-width="5.0" fill="none" stroke="rgb(0, 0, 0)" stroke-opacity="1.0" stroke-linecap="round" stroke-linejoin="round"/>
    <path d="M 296.4313659667969 336.1454162597656 C 306.3040771484375 262.4291687011719 281.51336669921875 222.7002716064453 292.012939453125 249.19691467285156" stroke-width="5.0" fill="none" stroke="rgb(0, 0, 0)" stroke-opacity="1.0" stroke-linecap="round" stroke-linejoin="round"/>
    <path d="M 206.7562255859375 341.04693603515625 C 193.30862426757812 372.0901184082031 184.04949951171875 356.141845703125 229.5231475830078 346.5696105957031" stroke-width="5.0" fill="none" stroke="rgb(0, 0, 0)" stroke-opacity="1.0" stroke-linecap="round" stroke-linejoin="round"/>
  </g>
</svg>
