<?xml version="1.0" ?>
<svg xmlns="http://www.w3.org/2000/svg" version="1.1" width="512" height="512">
  <defs/>
  <g>
    <path d="M 217.15406799316406 225.0707550048828 C 198.688232421875 165.12156677246094 133.97312927246094 231.02622985839844 146.95492553710938 277.6205139160156" stroke-width="5.0" fill="none" stroke="rgb(0, 0, 0)" stroke-opacity="1.0" stroke-linecap="round" stroke-linejoin="round"/>
    <path d="M 207.50450134277344 191.4523468017578 C 205.70401000976562 155.95639038085938 258.8219909667969 120.99909973144531 284.3013610839844 156.11456298828125" stroke-width="5.0" fill="none" stroke="rgb(0, 0, 0)" stroke-opacity="1.0" stroke-linecap="round" stroke-linejoin="round"/>
    <path d="M 344.1090087890625 184.6401824951172 C 348.1552429199219 187.3621368408203 360.2617492675781 199.7808074951172 334.99774169921875 183.87899780273438" stroke-width="5.0" fill="none" stroke="rgb(0, 0, 0)" stroke-opacity="1.0" stroke-linecap="round" stroke-linejoin="round"/>
    <path d="M 212.88912963867188 430.3763122558594 C 158.72329711914062 282.67620849609375 206.44508361816406 332.898193359375 206.86691284179688 265.6290283203125" stroke-width="5.0" fill="none" stroke="rgb(0, 0, 0)" stroke-opacity="1.0" stroke-linecap="round" stroke-linejoin="round"/>
    <path d="M 353.6089172363281 187.8466033935547 C 382.0106201171875 245.2709503173828 353.4016418457031 209.5884552001953 362.278076171875 325.2796325683594" stroke-width="5.0" fill="none" stroke="rgb(0, 0, 0)" stroke-opacity="1.0" stroke-linecap="round" stroke-linejoin="round"/>
    <path d="M 300.2899169921875 225.63262939453125 C 310.0820007324219 207.0657196044922 276.04754638671875 179.31019592285156 268.14013671875 208.14950561523438" stroke-width="5.0" fill="none" stroke="rgb(0, 0, 0)" stroke-opacity="1.0" stroke-linecap="round" stroke-linejoin="round"/>
    <path d="M 269.5224304199219 258.7247009277344 C 314.5608825683594 332.1687927246094 189.61383056640625 344.309814453125 228.51051330566406 261.9128723144531" stroke-width="5.0" fill="none" stroke="rgb(0, 0, 0)" stroke-opacity="1.0" stroke-linecap="round" stroke-linejoin="round"/>
    <path d="M 241.27891540527344 263.32769775390625 C 270.6744384765625 250.87042236328125 239.22055053710938 240.9905242919922 217.20315551757812 231.81942749023438" stroke-width="5.0" fill="none" stroke="rgb(0, 0, 0)" stroke-opacity="1.0" stroke-linecap="round" stroke-linejoin="round"/>
    <path d="M 186.0539093017578 206.15371704101562 C 173.5982208251953 206.8871307373047 182.34315490722656 179.3358917236328 208.5222625732422 195.87588500976562" stroke-width="5.0" fill="none" stroke="rgb(0, 0, 0)" stroke-opacity="1.0" stroke-linecap="round" stroke-linejoin="round"/>
    <path d="M 290.84503173828125 234.0114288330078 C 309.16510009765625 212.00840759277344 299.20343017578125 226.4436492919922 295.0197448730469 236.22804260253906" stroke-width="5.0" fill="none" stroke="rgb(0, 0, 0)" stroke-opacity="1.0" stroke-linecap="round" stroke-linejoin="round"/>
    <path d="M 165.4632110595703 271.6563720703125 C 235.0361785888672 249.49185180664062 234.21148681640625 265.0654602050781 245.73370361328125 262.0111083984375" stroke-width="5.0" fill="none" stroke="rgb(0, 0, 0)" stroke-opacity="1.0" stroke-linecap="round" stroke-linejoin="round"/>
    <path d="M 370.7928161621094 328.64813232421875 C 355.29461669921875 322.2798767089844 380.81402587890625 339.40643310546875 506.2257385253906 365.0931091308594" stroke-width="5.0" fill="none" stroke="rgb(0, 0, 0)" stroke-opacity="1.0" stroke-linecap="round" stroke-linejoin="round"/>
    <path d="M 284.02178955078125 193.6368865966797 C 250.3042449951172 188.35240173339844 303.4664001464844 231.14999389648438 263.1617126464844 224.50709533691406" stroke-width="5.0" fill="none" stroke="rgb(0, 0, 0)" stroke-opacity="1.0" stroke-linecap="round" stroke-linejoin="round"/>
    <path d="M 302.1369934082031 211.95230102539062 C 293.92913818359375 278.83880615234375 181.4266357421875 214.18006896972656 276.9433288574219 193.74826049804688" stroke-width="5.0" fill="none" stroke="rgb(0, 0, 0)" stroke-opacity="1.0" stroke-linecap="round" stroke-linejoin="round"/>
    <path d="M 281.44573974609375 105.60414123535156 C 328.6566467285156 172.9153594970703 335.211669921875 109.99456787109375 332.1146240234375 179.99571228027344" stroke-width="5.0" fill="none" stroke="rgb(0, 0, 0)" stroke-opacity="1.0" stroke-linecap="round" stroke-linejoin="round"/>
    <path d="M 240.58396911621094 249.32672119140625 C 236.7630157470703 244.32467651367188 193.62489318847656 240.89846801757812 152.56723022460938 273.7493591308594" stroke-width="5.0" fill="none" stroke="rgb(0, 0, 0)" stroke-opacity="1.0" stroke-linecap="round" stroke-linejoin="round"/>
    <path d="M 338.4078674316406 195.1250762939453 C 342.7030029296875 213.69107055664062 331.27978515625 162.77932739257812 358.51959228515625 161.5712432861328" stroke-width="5.0" fill="none" stroke="rgb(0, 0, 0)" stroke-opacity="1.0" stroke-linecap="round" stroke-linejoin="round"/>
    <path d="M 296.41278076171875 234.3870086669922 C 299.3619079589844 246.00051879882812 262.63299560546875 265.6898193359375 227.71095275878906 243.1959686279297" stroke-width="5.0" fill="none" stroke="rgb(0, 0, 0)" stroke-opacity="1.0" stroke-linecap="round" stroke-linejoin="round"/>
    <path d="M 371.48785400390625 182.1151580810547 C 378.0604553222656 172.34375 332.4548645019531 175.3228759765625 368.2574768066406 165.76707458496094" stroke-width="5.0" fill="none" stroke="rgb(0, 0, 0)" stroke-opacity="1.0" stroke-linecap="round" stroke-linejoin="round"/>
    <path d="M 337.23748779296875 187.7884063720703 C 309.3525695800781 245.7721405029297 290.7428894042969 250.09396362304688 284.9873352050781 267.71282958984375" stroke-width="5.0" fill="none" stroke="rgb(0, 0, 0)" stroke-opacity="1.0" stroke-linecap="round" stroke-linejoin="round"/>
    <path d="M 310.8002624511719 187.74478149414062 C 279.17767333984375 153.56643676757812 347.97265625 173.0699005126953 301.1530456542969 209.47674560546875" stroke-width="5.0" fill="none" stroke="rgb(0, 0, 0)" stroke-opacity="1.0" stroke-linecap="round" stroke-linejoin="round"/>
    <path d="M 160.1548614501953 109.91278839111328 C 180.32688903808594 183.1239471435547 152.51950073242188 224.7044677734375 184.97433471679688 176.0293731689453" stroke-width="5.0" fill="none" stroke="rgb(0, 0, 0)" stroke-opacity="1.0" stroke-linecap="round" stroke-linejoin="round"/>
    <path d="M 261.1188049316406 171.63162231445312 C 278.8392333984375 150.83384704589844 304.17645263671875 155.48033142089844 298.5331726074219 202.08004760742188" stroke-width="5.0" fill="none" stroke="rgb(0, 0, 0)" stroke-opacity="1.0" stroke-linecap="round" stroke-linejoin="round"/>
    <path d="M 343.365478515625 329.31549072265625 C 252.75833129882812 313.63671875 227.6097869873047 365.4983825683594 205.4422149658203 300.2648620605469" stroke-width="5.0" fill="none" stroke="rgb(0, 0, 0)" stroke-opacity="1.0" stroke-linecap="round" stroke-linejoin="round"/>
    <path d="M 177.97903442382812 272.4923095703125 C 169.73959350585938 272.1141662597656 188.64561462402344 277.4875793457031 179.52984619140625 275.3201599121094" stroke-width="5.0" fill="none" stroke="rgb(0, 0, 0)" stroke-opacity="1.0" stroke-linecap="round" stroke-linejoin="round"/>
    <path d="M 219.39051818847656 233.1355438232422 C 246.33384704589844 233.5886993408203 180.71800231933594 249.8220672607422 180.4462127685547 211.14137268066406" stroke-width="5.0" fill="none" stroke="rgb(0, 0, 0)" stroke-opacity="1.0" stroke-linecap="round" stroke-linejoin="round"/>
    <path d="M 221.4574737548828 229.4834747314453 C 216.7758331298828 227.3955535888672 232.63943481445312 231.5826873779297 219.21240234375 233.83145141601562" stroke-width="5.0" fill="none" stroke="rgb(0, 0, 0)" stroke-opacity="1.0" stroke-linecap="round" stroke-linejoin="round"/>
    <path d="M 216.35032653808594 417.710693359375 C 215.95883178710938 370.9692687988281 174.4055633544922 421.19049072265625 205.23390197753906 390.8590393066406" stroke-width="5.0" fill="none" stroke="rgb(0, 0, 0)" stroke-opacity="1.0" stroke-linecap="round" stroke-linejoin="round"/>
    <path d="M 240.43011474609375 207.9070587158203 C 224.70184326171875 199.40725708007812 221.02516174316406 152.8638153076172 261.27850341796875 169.84649658203125" stroke-width="5.0" fill="none" stroke="rgb(0, 0, 0)" stroke-opacity="1.0" stroke-linecap="round" stroke-linejoin="round"/>
    <path d="M 172.9182586669922 172.66966247558594 C 115.77464294433594 280.3404235839844 123.01819610595703 301.2147521972656 166.45419311523438 279.9104919433594" stroke-width="5.0" fill="none" stroke="rgb(0, 0, 0)" stroke-opacity="1.0" stroke-linecap="round" stroke-linejoin="round"/>
    <path d="M 262.0644836425781 328.47454833984375 C 312.2112731933594 306.38531494140625 270.81243896484375 235.63267517089844 277.7459411621094 234.0336151123047" stroke-width="5.0" fill="none" stroke="rgb(0, 0, 0)" stroke-opacity="1.0" stroke-linecap="round" stroke-linejoin="round"/>
    <path d="M 209.96591186523438 392.7089538574219 C 215.84901428222656 457.96441650390625 188.5107421875 409.814208984375 204.6828155517578 389.8551940917969" stroke-width="5.0" fill="none" stroke="rgb(0, 0, 0)" stroke-opacity="1.0" stroke-linecap="round" stroke-linejoin="round"/>
  </g>
</svg>
