<?xml version="1.0" ?>
<svg xmlns="http://www.w3.org/2000/svg" version="1.1" width="512" height="512">
  <defs/>
  <g>
    <path d="M 217.5463409423828 225.4939727783203 C 193.3914337158203 233.3498992919922 190.1699981689453 271.338623046875 198.25843811035156 260.967041015625" stroke-width="5.0" fill="none" stroke="rgb(31, 119, 180)" stroke-opacity="1.0" stroke-linecap="round" stroke-linejoin="round"/>
    <path d="M 221.53504943847656 169.7049102783203 C 230.98887634277344 167.20693969726562 230.32504272460938 157.76463317871094 260.6972351074219 146.8860626220703" stroke-width="5.0" fill="none" stroke="rgb(31, 119, 180)" stroke-opacity="1.0" stroke-linecap="round" stroke-linejoin="round"/>
    <path d="M 354.8279724121094 175.3652801513672 C 376.0604553222656 173.5635223388672 371.1849365234375 162.66921997070312 342.4649658203125 160.84083557128906" stroke-width="5.0" fill="none" stroke="rgb(31, 119, 180)" stroke-opacity="1.0" stroke-linecap="round" stroke-linejoin="round"/>
    <path d="M 237.0554656982422 355.922607421875 C 244.4906463623047 346.096923828125 247.2220916748047 357.0602722167969 247.07862854003906 329.2059631347656" stroke-width="5.0" fill="none" stroke="rgb(31, 119, 180)" stroke-opacity="1.0" stroke-linecap="round" stroke-linejoin="round"/>
    <path d="M 364.4671630859375 176.36734008789062 C 379.97650146484375 223.866455078125 375.6593933105469 219.2998504638672 354.41436767578125 257.1457214355469" stroke-width="5.0" fill="none" stroke="rgb(31, 119, 180)" stroke-opacity="1.0" stroke-linecap="round" stroke-linejoin="round"/>
    <path d="M 311.0578308105469 221.06948852539062 C 324.9385681152344 195.40220642089844 321.29425048828125 194.12551879882812 309.38067626953125 184.0464630126953" stroke-width="5.0" fill="none" stroke="rgb(31, 119, 180)" stroke-opacity="1.0" stroke-linecap="round" stroke-linejoin="round"/>
    <path d="M 236.9512939453125 284.6893615722656 C 239.6401824951172 314.5193176269531 235.33444213867188 315.0574951171875 238.63902282714844 268.48492431640625" stroke-width="5.0" fill="none" stroke="rgb(31, 119, 180)" stroke-opacity="1.0" stroke-linecap="round" stroke-linejoin="round"/>
    <path d="M 244.24591064453125 245.2889862060547 C 229.1595001220703 232.27442932128906 244.4405059814453 242.4447479248047 241.18321228027344 241.0242919921875" stroke-width="5.0" fill="none" stroke="rgb(31, 119, 180)" stroke-opacity="1.0" stroke-linecap="round" stroke-linejoin="round"/>
    <path d="M 185.67787170410156 208.3397674560547 C 179.59896850585938 209.0897979736328 182.95355224609375 205.11424255371094 190.16444396972656 230.03048706054688" stroke-width="5.0" fill="none" stroke="rgb(31, 119, 180)" stroke-opacity="1.0" stroke-linecap="round" stroke-linejoin="round"/>
    <path d="M 310.2898864746094 216.51034545898438 C 319.6796569824219 231.51687622070312 321.76483154296875 234.3719940185547 303.0685729980469 243.60562133789062" stroke-width="5.0" fill="none" stroke="rgb(31, 119, 180)" stroke-opacity="1.0" stroke-linecap="round" stroke-linejoin="round"/>
    <path d="M 209.65463256835938 257.60858154296875 C 227.32762145996094 256.5536804199219 237.45635986328125 266.85711669921875 261.5834655761719 283.9300537109375" stroke-width="5.0" fill="none" stroke="rgb(31, 119, 180)" stroke-opacity="1.0" stroke-linecap="round" stroke-linejoin="round"/>
    <path d="M 330.77020263671875 348.13262939453125 C 322.03497314453125 380.5750427246094 332.0022277832031 380.327392578125 365.55859375 405.90252685546875" stroke-width="5.0" fill="none" stroke="rgb(31, 119, 180)" stroke-opacity="1.0" stroke-linecap="round" stroke-linejoin="round"/>
    <path d="M 309.4069519042969 180.5455780029297 C 262.94696044921875 179.15882873535156 255.69346618652344 220.45899963378906 295.0722351074219 205.55824279785156" stroke-width="5.0" fill="none" stroke="rgb(31, 119, 180)" stroke-opacity="1.0" stroke-linecap="round" stroke-linejoin="round"/>
    <path d="M 298.8628234863281 197.17100524902344 C 309.672607421875 217.26673889160156 264.4958801269531 211.1069793701172 285.4056396484375 194.7989044189453" stroke-width="5.0" fill="none" stroke="rgb(31, 119, 180)" stroke-opacity="1.0" stroke-linecap="round" stroke-linejoin="round"/>
    <path d="M 318.603759765625 149.35745239257812 C 322.2254333496094 160.90371704101562 342.7339172363281 129.68093872070312 342.5509033203125 160.34848022460938" stroke-width="5.0" fill="none" stroke="rgb(31, 119, 180)" stroke-opacity="1.0" stroke-linecap="round" stroke-linejoin="round"/>
    <path d="M 222.39451599121094 246.2539520263672 C 214.6157989501953 250.04771423339844 207.47305297851562 247.903076171875 191.04762268066406 266.0606994628906" stroke-width="5.0" fill="none" stroke="rgb(31, 119, 180)" stroke-opacity="1.0" stroke-linecap="round" stroke-linejoin="round"/>
    <path d="M 363.55572509765625 190.6310577392578 C 348.5377502441406 192.49151611328125 355.26983642578125 203.5358428955078 358.30517578125 198.72747802734375" stroke-width="5.0" fill="none" stroke="rgb(255, 127, 14)" stroke-opacity="1.0" stroke-linecap="round" stroke-linejoin="round"/>
    <path d="M 303.4107971191406 245.82083129882812 C 301.4306335449219 243.31861877441406 290.57452392578125 252.672607421875 264.331787109375 247.6263885498047" stroke-width="5.0" fill="none" stroke="rgb(255, 127, 14)" stroke-opacity="1.0" stroke-linecap="round" stroke-linejoin="round"/>
    <path d="M 344.2821044921875 173.75843811035156 C 351.3989562988281 167.2666778564453 354.03228759765625 172.60548400878906 351.02862548828125 142.7925567626953" stroke-width="5.0" fill="none" stroke="rgb(255, 127, 14)" stroke-opacity="1.0" stroke-linecap="round" stroke-linejoin="round"/>
    <path d="M 345.6376037597656 256.8865051269531 C 329.45745849609375 256.16510009765625 322.1508483886719 261.4660339355469 298.67987060546875 265.6416931152344" stroke-width="5.0" fill="none" stroke="rgb(255, 127, 14)" stroke-opacity="1.0" stroke-linecap="round" stroke-linejoin="round"/>
    <path d="M 301.3871765136719 175.77735900878906 C 313.50579833984375 152.0753936767578 329.088623046875 176.88986206054688 326.385986328125 171.66351318359375" stroke-width="5.0" fill="none" stroke="rgb(255, 127, 14)" stroke-opacity="1.0" stroke-linecap="round" stroke-linejoin="round"/>
    <path d="M 214.97386169433594 161.83323669433594 C 185.27487182617188 179.04786682128906 186.1875 196.48248291015625 192.10548400878906 173.32655334472656" stroke-width="5.0" fill="none" stroke="rgb(255, 127, 14)" stroke-opacity="1.0" stroke-linecap="round" stroke-linejoin="round"/>
    <path d="M 235.70204162597656 158.1587371826172 C 278.2248840332031 148.3753662109375 283.409912109375 158.24510192871094 297.78961181640625 178.36074829101562" stroke-width="5.0" fill="none" stroke="rgb(255, 127, 14)" stroke-opacity="1.0" stroke-linecap="round" stroke-linejoin="round"/>
    <path d="M 297.9596862792969 335.876708984375 C 256.1175537109375 327.2033996582031 254.71939086914062 319.0987243652344 257.1961975097656 320.3493957519531" stroke-width="5.0" fill="none" stroke="rgb(255, 127, 14)" stroke-opacity="1.0" stroke-linecap="round" stroke-linejoin="round"/>
    <path d="M 200.23077392578125 253.81484985351562 C 200.72940063476562 256.19512939453125 197.5427703857422 240.8222198486328 197.13340759277344 241.0664520263672" stroke-width="5.0" fill="none" stroke="rgb(255, 127, 14)" stroke-opacity="1.0" stroke-linecap="round" stroke-linejoin="round"/>
    <path d="M 219.35577392578125 224.43328857421875 C 238.45721435546875 228.2611541748047 237.9824981689453 239.3992462158203 221.16636657714844 234.619384765625" stroke-width="5.0" fill="none" stroke="rgb(255, 127, 14)" stroke-opacity="1.0" stroke-linecap="round" stroke-linejoin="round"/>
    <path d="M 230.54254150390625 243.1819610595703 C 231.7022247314453 244.46243286132812 224.06202697753906 245.30316162109375 232.09127807617188 246.2827606201172" stroke-width="5.0" fill="none" stroke="rgb(255, 127, 14)" stroke-opacity="1.0" stroke-linecap="round" stroke-linejoin="round"/>
    <path d="M 227.8277130126953 359.741943359375 C 228.5057373046875 344.8388671875 210.42970275878906 352.97723388671875 227.87326049804688 369.44244384765625" stroke-width="5.0" fill="none" stroke="rgb(255, 127, 14)" stroke-opacity="1.0" stroke-linecap="round" stroke-linejoin="round"/>
    <path d="M 257.2944641113281 224.1790771484375 C 239.54148864746094 208.01039123535156 234.68759155273438 177.4227294921875 268.5660095214844 188.5043487548828" stroke-width="5.0" fill="none" stroke="rgb(255, 127, 14)" stroke-opacity="1.0" stroke-linecap="round" stroke-linejoin="round"/>
    <path d="M 168.38841247558594 200.9486083984375 C 145.75938415527344 226.19532775878906 164.41342163085938 258.2071228027344 189.77090454101562 247.73805236816406" stroke-width="5.0" fill="none" stroke="rgb(255, 127, 14)" stroke-opacity="1.0" stroke-linecap="round" stroke-linejoin="round"/>
    <path d="M 301.8982849121094 281.1577453613281 C 289.9195861816406 257.75384521484375 297.79254150390625 242.25192260742188 296.0898742675781 259.88189697265625" stroke-width="5.0" fill="none" stroke="rgb(255, 127, 14)" stroke-opacity="1.0" stroke-linecap="round" stroke-linejoin="round"/>
    <path d="M 211.3326416015625 335.0491027832031 C 201.46717834472656 360.137451171875 190.52996826171875 356.7266845703125 224.85272216796875 334.81353759765625" stroke-width="5.0" fill="none" stroke="rgb(255, 127, 14)" stroke-opacity="1.0" stroke-linecap="round" stroke-linejoin="round"/>
  </g>
</svg>
