<?xml version="1.0" ?>
<svg xmlns="http://www.w3.org/2000/svg" version="1.1" width="512" height="512">
  <defs/>
  <g>
    <path d="M 216.158935546875 230.58447265625 C 204.55357360839844 166.1773681640625 142.37042236328125 235.0699005126953 148.64700317382812 278.72857666015625" stroke-width="5.0" fill="none" stroke="rgb(0, 0, 0)" stroke-opacity="1.0" stroke-linecap="round" stroke-linejoin="round"/>
    <path d="M 207.37655639648438 192.04270935058594 C 208.201171875 162.7832794189453 259.2864990234375 131.0107879638672 291.0614318847656 159.42300415039062" stroke-width="5.0" fill="none" stroke="rgb(0, 0, 0)" stroke-opacity="1.0" stroke-linecap="round" stroke-linejoin="round"/>
    <path d="M 349.27301025390625 192.6835174560547 C 346.2616882324219 189.02279663085938 349.5533752441406 205.46380615234375 336.33526611328125 185.3278045654297" stroke-width="5.0" fill="none" stroke="rgb(0, 0, 0)" stroke-opacity="1.0" stroke-linecap="round" stroke-linejoin="round"/>
    <path d="M 213.16917419433594 429.38580322265625 C 171.81105041503906 283.88226318359375 209.33428955078125 334.0075378417969 213.60061645507812 267.7518310546875" stroke-width="5.0" fill="none" stroke="rgb(0, 0, 0)" stroke-opacity="1.0" stroke-linecap="round" stroke-linejoin="round"/>
    <path d="M 354.6147766113281 191.5795135498047 C 389.3083801269531 250.19407653808594 359.7496337890625 222.2288360595703 357.7933044433594 323.9312438964844" stroke-width="5.0" fill="none" stroke="rgb(0, 0, 0)" stroke-opacity="1.0" stroke-linecap="round" stroke-linejoin="round"/>
    <path d="M 302.994873046875 229.75526428222656 C 313.9300231933594 205.55238342285156 277.8836975097656 176.38336181640625 270.865966796875 202.7417755126953" stroke-width="5.0" fill="none" stroke="rgb(0, 0, 0)" stroke-opacity="1.0" stroke-linecap="round" stroke-linejoin="round"/>
    <path d="M 270.146240234375 265.1923522949219 C 319.99072265625 330.29400634765625 197.95535278320312 348.1867980957031 238.89881896972656 268.953857421875" stroke-width="5.0" fill="none" stroke="rgb(0, 0, 0)" stroke-opacity="1.0" stroke-linecap="round" stroke-linejoin="round"/>
    <path d="M 248.0945587158203 263.83172607421875 C 270.1686096191406 247.03384399414062 239.6067352294922 240.45481872558594 212.83770751953125 231.8985137939453" stroke-width="5.0" fill="none" stroke="rgb(0, 0, 0)" stroke-opacity="1.0" stroke-linecap="round" stroke-linejoin="round"/>
    <path d="M 180.7147216796875 212.49359130859375 C 177.06057739257812 211.8080291748047 189.8236846923828 182.2928924560547 209.19993591308594 197.34902954101562" stroke-width="5.0" fill="none" stroke="rgb(0, 0, 0)" stroke-opacity="1.0" stroke-linecap="round" stroke-linejoin="round"/>
    <path d="M 292.14935302734375 232.39268493652344 C 306.46209716796875 213.15208435058594 298.28057861328125 227.11376953125 287.5876159667969 237.69961547851562" stroke-width="5.0" fill="none" stroke="rgb(0, 0, 0)" stroke-opacity="1.0" stroke-linecap="round" stroke-linejoin="round"/>
    <path d="M 174.1560821533203 273.48992919921875 C 246.35504150390625 253.69290161132812 236.7415008544922 264.2147216796875 246.42266845703125 264.4439392089844" stroke-width="5.0" fill="none" stroke="rgb(0, 0, 0)" stroke-opacity="1.0" stroke-linecap="round" stroke-linejoin="round"/>
    <path d="M 364.7452697753906 333.3802490234375 C 357.7824401855469 319.9222412109375 372.8698425292969 350.5699462890625 502.4624328613281 378.4251708984375" stroke-width="5.0" fill="none" stroke="rgb(0, 0, 0)" stroke-opacity="1.0" stroke-linecap="round" stroke-linejoin="round"/>
    <path d="M 284.0157775878906 196.82196044921875 C 251.4869384765625 182.60797119140625 300.9864501953125 230.99964904785156 268.3731689453125 220.25491333007812" stroke-width="5.0" fill="none" stroke="rgb(0, 0, 0)" stroke-opacity="1.0" stroke-linecap="round" stroke-linejoin="round"/>
    <path d="M 304.3362121582031 208.11172485351562 C 299.5679931640625 272.6150817871094 197.15878295898438 219.46446228027344 276.68115234375 191.66827392578125" stroke-width="5.0" fill="none" stroke="rgb(0, 0, 0)" stroke-opacity="1.0" stroke-linecap="round" stroke-linejoin="round"/>
    <path d="M 298.7922668457031 103.40142059326172 C 329.1633605957031 183.84255981445312 339.34552001953125 117.06257629394531 334.62890625 188.0191650390625" stroke-width="5.0" fill="none" stroke="rgb(0, 0, 0)" stroke-opacity="1.0" stroke-linecap="round" stroke-linejoin="round"/>
    <path d="M 240.19754028320312 249.3907470703125 C 232.71685791015625 245.79148864746094 191.0227813720703 241.33743286132812 160.04566955566406 274.0567932128906" stroke-width="5.0" fill="none" stroke="rgb(0, 0, 0)" stroke-opacity="1.0" stroke-linecap="round" stroke-linejoin="round"/>
    <path d="M 349.8050842285156 193.22918701171875 C 346.6359558105469 207.05233764648438 336.9232482910156 169.06556701660156 357.20135498046875 159.9281768798828" stroke-width="5.0" fill="none" stroke="rgb(0, 0, 0)" stroke-opacity="1.0" stroke-linecap="round" stroke-linejoin="round"/>
    <path d="M 293.6293640136719 237.9543914794922 C 301.6880798339844 242.20339965820312 262.43487548828125 262.48419189453125 237.1665802001953 235.03707885742188" stroke-width="5.0" fill="none" stroke="rgb(0, 0, 0)" stroke-opacity="1.0" stroke-linecap="round" stroke-linejoin="round"/>
    <path d="M 364.3043518066406 184.3893585205078 C 368.1400451660156 177.2272491455078 344.86712646484375 175.12603759765625 361.60894775390625 169.1953582763672" stroke-width="5.0" fill="none" stroke="rgb(0, 0, 0)" stroke-opacity="1.0" stroke-linecap="round" stroke-linejoin="round"/>
    <path d="M 346.5810852050781 196.9535675048828 C 311.11749267578125 245.74801635742188 288.44305419921875 246.2483673095703 283.47454833984375 267.90838623046875" stroke-width="5.0" fill="none" stroke="rgb(0, 0, 0)" stroke-opacity="1.0" stroke-linecap="round" stroke-linejoin="round"/>
    <path d="M 313.514892578125 194.4676971435547 C 276.82562255859375 162.85714721679688 350.09112548828125 178.0974884033203 305.9322509765625 223.25160217285156" stroke-width="5.0" fill="none" stroke="rgb(0, 0, 0)" stroke-opacity="1.0" stroke-linecap="round" stroke-linejoin="round"/>
    <path d="M 168.43270874023438 105.04512023925781 C 186.47169494628906 170.69590759277344 151.2149658203125 205.1817169189453 181.3444366455078 161.02244567871094" stroke-width="5.0" fill="none" stroke="rgb(0, 0, 0)" stroke-opacity="1.0" stroke-linecap="round" stroke-linejoin="round"/>
    <path d="M 264.59942626953125 179.56007385253906 C 269.7588806152344 157.55662536621094 296.505859375 163.52301025390625 293.39483642578125 200.1260223388672" stroke-width="5.0" fill="none" stroke="rgb(0, 0, 0)" stroke-opacity="1.0" stroke-linecap="round" stroke-linejoin="round"/>
    <path d="M 342.45977783203125 326.8731384277344 C 253.52394104003906 320.1007385253906 232.51158142089844 356.6946105957031 212.9326171875 299.83502197265625" stroke-width="5.0" fill="none" stroke="rgb(0, 0, 0)" stroke-opacity="1.0" stroke-linecap="round" stroke-linejoin="round"/>
    <path d="M 172.4644775390625 272.6693115234375 C 163.76040649414062 277.5186767578125 184.6085205078125 275.3109130859375 180.086669921875 275.91314697265625" stroke-width="5.0" fill="none" stroke="rgb(0, 0, 0)" stroke-opacity="1.0" stroke-linecap="round" stroke-linejoin="round"/>
    <path d="M 209.2013397216797 227.90403747558594 C 250.2510528564453 225.34011840820312 184.53028869628906 240.7720184326172 185.41998291015625 208.0910186767578" stroke-width="5.0" fill="none" stroke="rgb(0, 0, 0)" stroke-opacity="1.0" stroke-linecap="round" stroke-linejoin="round"/>
    <path d="M 216.09901428222656 225.23922729492188 C 216.0603790283203 225.77711486816406 230.2677764892578 227.44253540039062 217.6228790283203 237.27093505859375" stroke-width="5.0" fill="none" stroke="rgb(0, 0, 0)" stroke-opacity="1.0" stroke-linecap="round" stroke-linejoin="round"/>
    <path d="M 224.58595275878906 411.9727478027344 C 214.63265991210938 366.5584716796875 174.13754272460938 418.2041015625 206.7096405029297 388.074951171875" stroke-width="5.0" fill="none" stroke="rgb(0, 0, 0)" stroke-opacity="1.0" stroke-linecap="round" stroke-linejoin="round"/>
    <path d="M 247.16624450683594 202.8103485107422 C 232.97593688964844 200.94790649414062 224.94700622558594 160.96661376953125 263.59173583984375 179.02101135253906" stroke-width="5.0" fill="none" stroke="rgb(0, 0, 0)" stroke-opacity="1.0" stroke-linecap="round" stroke-linejoin="round"/>
    <path d="M 166.1455535888672 168.5991668701172 C 118.24195861816406 262.8143310546875 133.94847106933594 285.5553283691406 164.47755432128906 278.8760070800781" stroke-width="5.0" fill="none" stroke="rgb(0, 0, 0)" stroke-opacity="1.0" stroke-linecap="round" stroke-linejoin="round"/>
    <path d="M 268.0544738769531 329.2498474121094 C 314.85626220703125 311.330322265625 271.3349609375 236.21240234375 275.5873107910156 239.61996459960938" stroke-width="5.0" fill="none" stroke="rgb(0, 0, 0)" stroke-opacity="1.0" stroke-linecap="round" stroke-linejoin="round"/>
    <path d="M 211.9567413330078 393.3628234863281 C 220.73104858398438 466.97705078125 189.89601135253906 412.96221923828125 207.25230407714844 384.22406005859375" stroke-width="5.0" fill="none" stroke="rgb(0, 0, 0)" stroke-opacity="1.0" stroke-linecap="round" stroke-linejoin="round"/>
  </g>
</svg>
