<?xml version="1.0" ?>
<svg xmlns="http://www.w3.org/2000/svg" version="1.1" width="512" height="512">
  <defs/>
  <g>
    <path d="M 230.51980590820312 227.56114196777344 C 207.6973419189453 189.0283660888672 167.346435546875 259.6295166015625 175.98846435546875 275.77117919921875" stroke-width="5.0" fill="none" stroke="rgb(31, 119, 180)" stroke-opacity="1.0" stroke-linecap="round" stroke-linejoin="round"/>
    <path d="M 210.06138610839844 216.254150390625 C 232.4525604248047 170.1751251220703 238.28155517578125 162.3401641845703 288.77691650390625 158.06503295898438" stroke-width="5.0" fill="none" stroke="rgb(31, 119, 180)" stroke-opacity="1.0" stroke-linecap="round" stroke-linejoin="round"/>
    <path d="M 360.98712158203125 184.39361572265625 C 370.3818664550781 172.43719482421875 371.348388671875 168.48744201660156 341.3531494140625 170.8137664794922" stroke-width="5.0" fill="none" stroke="rgb(31, 119, 180)" stroke-opacity="1.0" stroke-linecap="round" stroke-linejoin="round"/>
    <path d="M 226.7964324951172 368.1568603515625 C 215.1495361328125 328.0893859863281 237.8356170654297 344.7228698730469 230.14385986328125 313.1658935546875" stroke-width="5.0" fill="none" stroke="rgb(31, 119, 180)" stroke-opacity="1.0" stroke-linecap="round" stroke-linejoin="round"/>
    <path d="M 362.463623046875 182.149658203125 C 373.2529602050781 223.11895751953125 361.732177734375 209.26512145996094 358.2528076171875 251.66734313964844" stroke-width="5.0" fill="none" stroke="rgb(31, 119, 180)" stroke-opacity="1.0" stroke-linecap="round" stroke-linejoin="round"/>
    <path d="M 306.0836181640625 226.916748046875 C 317.9597473144531 206.753173828125 307.020751953125 205.61187744140625 306.6394958496094 191.4779815673828" stroke-width="5.0" fill="none" stroke="rgb(31, 119, 180)" stroke-opacity="1.0" stroke-linecap="round" stroke-linejoin="round"/>
    <path d="M 240.6845703125 266.0601806640625 C 246.59144592285156 339.3462219238281 226.51968383789062 336.3132629394531 221.59376525878906 265.6903991699219" stroke-width="5.0" fill="none" stroke="rgb(31, 119, 180)" stroke-opacity="1.0" stroke-linecap="round" stroke-linejoin="round"/>
    <path d="M 265.8620300292969 246.46371459960938 C 240.79214477539062 239.74856567382812 257.2762451171875 240.84182739257812 219.61669921875 232.45330810546875" stroke-width="5.0" fill="none" stroke="rgb(31, 119, 180)" stroke-opacity="1.0" stroke-linecap="round" stroke-linejoin="round"/>
    <path d="M 197.86341857910156 214.79689025878906 C 201.0244598388672 220.31578063964844 201.0164031982422 210.90170288085938 199.8041229248047 202.00674438476562" stroke-width="5.0" fill="none" stroke="rgb(31, 119, 180)" stroke-opacity="1.0" stroke-linecap="round" stroke-linejoin="round"/>
    <path d="M 310.36383056640625 220.6492919921875 C 316.3077392578125 224.42420959472656 312.1811828613281 222.67333984375 293.44110107421875 239.0400848388672" stroke-width="5.0" fill="none" stroke="rgb(31, 119, 180)" stroke-opacity="1.0" stroke-linecap="round" stroke-linejoin="round"/>
    <path d="M 197.6647186279297 264.2166748046875 C 248.74447631835938 260.3913269042969 240.08387756347656 260.9410705566406 239.78672790527344 274.1502685546875" stroke-width="5.0" fill="none" stroke="rgb(31, 119, 180)" stroke-opacity="1.0" stroke-linecap="round" stroke-linejoin="round"/>
    <path d="M 323.9496765136719 325.5202941894531 C 311.4780578613281 370.6507568359375 324.8995056152344 401.8363952636719 390.0731506347656 418.70672607421875" stroke-width="5.0" fill="none" stroke="rgb(31, 119, 180)" stroke-opacity="1.0" stroke-linecap="round" stroke-linejoin="round"/>
    <path d="M 299.3486328125 201.96543884277344 C 275.1437683105469 182.88580322265625 283.41864013671875 230.91683959960938 287.54779052734375 206.32020568847656" stroke-width="5.0" fill="none" stroke="rgb(31, 119, 180)" stroke-opacity="1.0" stroke-linecap="round" stroke-linejoin="round"/>
    <path d="M 298.6879577636719 199.49815368652344 C 314.7100524902344 236.80702209472656 247.00205993652344 221.58511352539062 283.3983154296875 196.67202758789062" stroke-width="5.0" fill="none" stroke="rgb(31, 119, 180)" stroke-opacity="1.0" stroke-linecap="round" stroke-linejoin="round"/>
    <path d="M 316.83282470703125 144.2386016845703 C 330.17071533203125 178.33436584472656 345.6896057128906 116.66146087646484 343.38958740234375 169.2998504638672" stroke-width="5.0" fill="none" stroke="rgb(31, 119, 180)" stroke-opacity="1.0" stroke-linecap="round" stroke-linejoin="round"/>
    <path d="M 244.71676635742188 250.01934814453125 C 227.4303741455078 251.16648864746094 207.83006286621094 251.40188598632812 182.10507202148438 271.82244873046875" stroke-width="5.0" fill="none" stroke="rgb(31, 119, 180)" stroke-opacity="1.0" stroke-linecap="round" stroke-linejoin="round"/>
    <path d="M 341.49432373046875 176.5673370361328 C 352.1571044921875 165.36326599121094 355.3778381347656 178.3006134033203 355.95391845703125 179.52394104003906" stroke-width="5.0" fill="none" stroke="rgb(255, 127, 14)" stroke-opacity="1.0" stroke-linecap="round" stroke-linejoin="round"/>
    <path d="M 295.62921142578125 238.8427276611328 C 314.0447998046875 236.4868927001953 279.1214294433594 248.54318237304688 259.208740234375 228.49703979492188" stroke-width="5.0" fill="none" stroke="rgb(255, 127, 14)" stroke-opacity="1.0" stroke-linecap="round" stroke-linejoin="round"/>
    <path d="M 351.2582092285156 189.36166381835938 C 342.6390380859375 167.87432861328125 350.7810974121094 177.0377655029297 351.85638427734375 158.22695922851562" stroke-width="5.0" fill="none" stroke="rgb(255, 127, 14)" stroke-opacity="1.0" stroke-linecap="round" stroke-linejoin="round"/>
    <path d="M 348.7958068847656 247.32229614257812 C 348.7774353027344 275.6602478027344 318.6964111328125 266.2470397949219 299.3837890625 278.72210693359375" stroke-width="5.0" fill="none" stroke="rgb(255, 127, 14)" stroke-opacity="1.0" stroke-linecap="round" stroke-linejoin="round"/>
    <path d="M 308.2711181640625 179.75315856933594 C 307.8412170410156 156.7670440673828 323.6089782714844 177.10906982421875 315.4242858886719 200.9340057373047" stroke-width="5.0" fill="none" stroke="rgb(255, 127, 14)" stroke-opacity="1.0" stroke-linecap="round" stroke-linejoin="round"/>
    <path d="M 192.16659545898438 154.0304718017578 C 177.13340759277344 181.13186645507812 177.16867065429688 196.70535278320312 202.40797424316406 174.48220825195312" stroke-width="5.0" fill="none" stroke="rgb(255, 127, 14)" stroke-opacity="1.0" stroke-linecap="round" stroke-linejoin="round"/>
    <path d="M 278.5639953613281 179.3775177001953 C 284.79962158203125 159.49154663085938 309.2731018066406 155.04148864746094 308.8481140136719 187.33375549316406" stroke-width="5.0" fill="none" stroke="rgb(255, 127, 14)" stroke-opacity="1.0" stroke-linecap="round" stroke-linejoin="round"/>
    <path d="M 318.6800537109375 322.31634521484375 C 260.53515625 349.49517822265625 254.53427124023438 355.45062255859375 255.05902099609375 345.9742736816406" stroke-width="5.0" fill="none" stroke="rgb(255, 127, 14)" stroke-opacity="1.0" stroke-linecap="round" stroke-linejoin="round"/>
    <path d="M 212.9608154296875 255.21859741210938 C 216.61695861816406 255.4216766357422 203.64620971679688 252.29727172851562 209.3538360595703 249.54782104492188" stroke-width="5.0" fill="none" stroke="rgb(255, 127, 14)" stroke-opacity="1.0" stroke-linecap="round" stroke-linejoin="round"/>
    <path d="M 223.58140563964844 192.67813110351562 C 245.8113250732422 237.38644409179688 228.8312530517578 245.03271484375 214.59249877929688 239.7271728515625" stroke-width="5.0" fill="none" stroke="rgb(255, 127, 14)" stroke-opacity="1.0" stroke-linecap="round" stroke-linejoin="round"/>
    <path d="M 223.427734375 246.8576202392578 C 222.53343200683594 249.4038848876953 230.2407989501953 249.2847900390625 225.583251953125 248.92689514160156" stroke-width="5.0" fill="none" stroke="rgb(255, 127, 14)" stroke-opacity="1.0" stroke-linecap="round" stroke-linejoin="round"/>
    <path d="M 219.37796020507812 368.82568359375 C 215.18649291992188 323.9296875 195.2117156982422 366.40771484375 216.53684997558594 363.6363220214844" stroke-width="5.0" fill="none" stroke="rgb(255, 127, 14)" stroke-opacity="1.0" stroke-linecap="round" stroke-linejoin="round"/>
    <path d="M 258.6490783691406 218.12818908691406 C 236.19847106933594 204.67396545410156 242.8055419921875 161.76263427734375 272.54730224609375 173.38856506347656" stroke-width="5.0" fill="none" stroke="rgb(255, 127, 14)" stroke-opacity="1.0" stroke-linecap="round" stroke-linejoin="round"/>
    <path d="M 138.3055419921875 206.17161560058594 C 111.07718658447266 232.4622344970703 134.98837280273438 271.129638671875 187.7091522216797 249.2515869140625" stroke-width="5.0" fill="none" stroke="rgb(255, 127, 14)" stroke-opacity="1.0" stroke-linecap="round" stroke-linejoin="round"/>
    <path d="M 294.40557861328125 330.2284851074219 C 318.8198547363281 284.9501953125 275.57244873046875 235.55450439453125 292.1878967285156 255.02593994140625" stroke-width="5.0" fill="none" stroke="rgb(255, 127, 14)" stroke-opacity="1.0" stroke-linecap="round" stroke-linejoin="round"/>
    <path d="M 219.1265411376953 342.4137268066406 C 183.957275390625 371.22283935546875 192.02174377441406 369.7951354980469 226.79354858398438 349.938720703125" stroke-width="5.0" fill="none" stroke="rgb(255, 127, 14)" stroke-opacity="1.0" stroke-linecap="round" stroke-linejoin="round"/>
  </g>
</svg>
