<?xml version="1.0" ?>
<svg xmlns="http://www.w3.org/2000/svg" version="1.1" width="512" height="512">
  <defs/>
  <g>
    <path d="M 225.30142211914062 232.76681518554688 C 205.0237579345703 167.53402709960938 154.66029357910156 237.0403289794922 169.06375122070312 280.0953674316406" stroke-width="5.0" fill="none" stroke="rgb(31, 119, 180)" stroke-opacity="1.0" stroke-linecap="round" stroke-linejoin="round"/>
    <path d="M 210.60610961914062 195.15020751953125 C 206.85475158691406 166.43992614746094 247.8045654296875 146.0901641845703 280.3313903808594 155.16619873046875" stroke-width="5.0" fill="none" stroke="rgb(31, 119, 180)" stroke-opacity="1.0" stroke-linecap="round" stroke-linejoin="round"/>
    <path d="M 359.47821044921875 192.2462158203125 C 356.3972473144531 191.66514587402344 361.0581970214844 181.31614685058594 345.0167541503906 179.99449157714844" stroke-width="5.0" fill="none" stroke="rgb(31, 119, 180)" stroke-opacity="1.0" stroke-linecap="round" stroke-linejoin="round"/>
    <path d="M 220.24539184570312 407.9593200683594 C 188.103271484375 319.10546875 218.6685028076172 345.5019836425781 232.03672790527344 266.5409851074219" stroke-width="5.0" fill="none" stroke="rgb(31, 119, 180)" stroke-opacity="1.0" stroke-linecap="round" stroke-linejoin="round"/>
    <path d="M 349.438232421875 196.7495880126953 C 370.3185729980469 235.38963317871094 354.47747802734375 199.7850341796875 355.7154541015625 314.6480407714844" stroke-width="5.0" fill="none" stroke="rgb(31, 119, 180)" stroke-opacity="1.0" stroke-linecap="round" stroke-linejoin="round"/>
    <path d="M 305.7908935546875 226.4322967529297 C 318.5591125488281 202.7541046142578 302.69842529296875 183.97128295898438 283.09246826171875 193.96926879882812" stroke-width="5.0" fill="none" stroke="rgb(31, 119, 180)" stroke-opacity="1.0" stroke-linecap="round" stroke-linejoin="round"/>
    <path d="M 271.10345458984375 263.7346496582031 C 309.5567626953125 327.0063171386719 220.88882446289062 345.8174133300781 231.3888397216797 262.08001708984375" stroke-width="5.0" fill="none" stroke="rgb(31, 119, 180)" stroke-opacity="1.0" stroke-linecap="round" stroke-linejoin="round"/>
    <path d="M 255.01046752929688 257.2338562011719 C 262.7178649902344 236.8743896484375 242.98733520507812 235.05099487304688 202.57400512695312 220.06719970703125" stroke-width="5.0" fill="none" stroke="rgb(31, 119, 180)" stroke-opacity="1.0" stroke-linecap="round" stroke-linejoin="round"/>
    <path d="M 185.9669189453125 216.25247192382812 C 191.45323181152344 209.5191192626953 175.20553588867188 199.93905639648438 209.3300323486328 195.39895629882812" stroke-width="5.0" fill="none" stroke="rgb(31, 119, 180)" stroke-opacity="1.0" stroke-linecap="round" stroke-linejoin="round"/>
    <path d="M 301.66094970703125 229.90089416503906 C 309.4898376464844 221.6660919189453 314.13043212890625 231.58538818359375 277.16595458984375 234.60597229003906" stroke-width="5.0" fill="none" stroke="rgb(31, 119, 180)" stroke-opacity="1.0" stroke-linecap="round" stroke-linejoin="round"/>
    <path d="M 167.20431518554688 268.8380432128906 C 250.5417938232422 250.6250457763672 240.0714874267578 263.4367370605469 242.01675415039062 267.0372009277344" stroke-width="5.0" fill="none" stroke="rgb(31, 119, 180)" stroke-opacity="1.0" stroke-linecap="round" stroke-linejoin="round"/>
    <path d="M 345.1695556640625 336.0372009277344 C 342.9604797363281 324.7544250488281 356.528076171875 376.2130432128906 488.24273681640625 387.7552490234375" stroke-width="5.0" fill="none" stroke="rgb(31, 119, 180)" stroke-opacity="1.0" stroke-linecap="round" stroke-linejoin="round"/>
    <path d="M 293.0320129394531 193.6094207763672 C 258.167724609375 186.60366821289062 309.65899658203125 238.05563354492188 278.2092590332031 215.86769104003906" stroke-width="5.0" fill="none" stroke="rgb(31, 119, 180)" stroke-opacity="1.0" stroke-linecap="round" stroke-linejoin="round"/>
    <path d="M 298.079345703125 207.88848876953125 C 316.10791015625 262.94866943359375 231.0961151123047 221.62777709960938 272.8600158691406 198.18218994140625" stroke-width="5.0" fill="none" stroke="rgb(31, 119, 180)" stroke-opacity="1.0" stroke-linecap="round" stroke-linejoin="round"/>
    <path d="M 300.3603515625 127.6015396118164 C 319.1563415527344 190.43820190429688 333.0101318359375 115.87513732910156 336.27459716796875 181.77581787109375" stroke-width="5.0" fill="none" stroke="rgb(31, 119, 180)" stroke-opacity="1.0" stroke-linecap="round" stroke-linejoin="round"/>
    <path d="M 242.33360290527344 246.34417724609375 C 234.89114379882812 241.9851837158203 197.15457153320312 244.0570068359375 168.23260498046875 279.8341064453125" stroke-width="5.0" fill="none" stroke="rgb(31, 119, 180)" stroke-opacity="1.0" stroke-linecap="round" stroke-linejoin="round"/>
    <path d="M 352.5326843261719 197.28497314453125 C 341.7358703613281 192.21131896972656 334.5332336425781 168.82235717773438 359.9600830078125 169.23831176757812" stroke-width="5.0" fill="none" stroke="rgb(255, 127, 14)" stroke-opacity="1.0" stroke-linecap="round" stroke-linejoin="round"/>
    <path d="M 297.87493896484375 232.00538635253906 C 310.2649841308594 233.9913330078125 275.6457214355469 249.19691467285156 241.13352966308594 238.74542236328125" stroke-width="5.0" fill="none" stroke="rgb(255, 127, 14)" stroke-opacity="1.0" stroke-linecap="round" stroke-linejoin="round"/>
    <path d="M 345.80828857421875 217.8170166015625 C 339.5988464355469 181.8765106201172 343.5118713378906 163.57406616210938 356.670654296875 163.1269989013672" stroke-width="5.0" fill="none" stroke="rgb(255, 127, 14)" stroke-opacity="1.0" stroke-linecap="round" stroke-linejoin="round"/>
    <path d="M 345.1404113769531 214.10768127441406 C 335.47235107421875 272.15924072265625 312.5251770019531 267.4367370605469 295.3220520019531 286.1010437011719" stroke-width="5.0" fill="none" stroke="rgb(255, 127, 14)" stroke-opacity="1.0" stroke-linecap="round" stroke-linejoin="round"/>
    <path d="M 316.4209289550781 200.15646362304688 C 291.4637145996094 168.87158203125 346.8092346191406 170.5537872314453 314.7736511230469 213.68780517578125" stroke-width="5.0" fill="none" stroke="rgb(255, 127, 14)" stroke-opacity="1.0" stroke-linecap="round" stroke-linejoin="round"/>
    <path d="M 153.03359985351562 143.4947967529297 C 164.691650390625 173.77976989746094 148.2765350341797 174.7111358642578 183.85018920898438 173.84494018554688" stroke-width="5.0" fill="none" stroke="rgb(255, 127, 14)" stroke-opacity="1.0" stroke-linecap="round" stroke-linejoin="round"/>
    <path d="M 269.3620910644531 171.92279052734375 C 275.8099670410156 152.2045135498047 303.6031188964844 151.95205688476562 307.0802917480469 202.52322387695312" stroke-width="5.0" fill="none" stroke="rgb(255, 127, 14)" stroke-opacity="1.0" stroke-linecap="round" stroke-linejoin="round"/>
    <path d="M 339.92559814453125 328.2901916503906 C 250.09970092773438 335.2675476074219 244.32626342773438 353.4920654296875 226.64117431640625 307.3622741699219" stroke-width="5.0" fill="none" stroke="rgb(255, 127, 14)" stroke-opacity="1.0" stroke-linecap="round" stroke-linejoin="round"/>
    <path d="M 180.08929443359375 272.6798400878906 C 177.3631134033203 272.45587158203125 187.21798706054688 275.71881103515625 187.8415069580078 272.5751037597656" stroke-width="5.0" fill="none" stroke="rgb(255, 127, 14)" stroke-opacity="1.0" stroke-linecap="round" stroke-linejoin="round"/>
    <path d="M 209.27340698242188 210.15139770507812 C 243.7069091796875 237.8480224609375 201.82839965820312 252.62484741210938 187.20413208007812 219.12806701660156" stroke-width="5.0" fill="none" stroke="rgb(255, 127, 14)" stroke-opacity="1.0" stroke-linecap="round" stroke-linejoin="round"/>
    <path d="M 222.41441345214844 233.636474609375 C 234.47274780273438 234.88783264160156 235.34719848632812 231.62176513671875 214.7035675048828 239.2367401123047" stroke-width="5.0" fill="none" stroke="rgb(255, 127, 14)" stroke-opacity="1.0" stroke-linecap="round" stroke-linejoin="round"/>
    <path d="M 213.868896484375 409.2618713378906 C 219.1800994873047 352.05303955078125 165.3016357421875 399.4957580566406 196.90078735351562 370.6455993652344" stroke-width="5.0" fill="none" stroke="rgb(255, 127, 14)" stroke-opacity="1.0" stroke-linecap="round" stroke-linejoin="round"/>
    <path d="M 254.21246337890625 224.82737731933594 C 229.4679412841797 211.35496520996094 228.58316040039062 163.7955780029297 265.8847961425781 178.9621124267578" stroke-width="5.0" fill="none" stroke="rgb(255, 127, 14)" stroke-opacity="1.0" stroke-linecap="round" stroke-linejoin="round"/>
    <path d="M 156.9420623779297 186.46339416503906 C 113.47474670410156 255.68377685546875 139.23826599121094 288.7299499511719 160.63291931152344 276.48095703125" stroke-width="5.0" fill="none" stroke="rgb(255, 127, 14)" stroke-opacity="1.0" stroke-linecap="round" stroke-linejoin="round"/>
    <path d="M 279.8266906738281 334.00054931640625 C 318.0798645019531 308.2607421875 270.29205322265625 244.7606964111328 276.7220153808594 240.6429901123047" stroke-width="5.0" fill="none" stroke="rgb(255, 127, 14)" stroke-opacity="1.0" stroke-linecap="round" stroke-linejoin="round"/>
    <path d="M 210.88809204101562 373.47686767578125 C 202.32887268066406 430.3114318847656 188.44302368164062 392.3219299316406 206.022216796875 361.2551574707031" stroke-width="5.0" fill="none" stroke="rgb(255, 127, 14)" stroke-opacity="1.0" stroke-linecap="round" stroke-linejoin="round"/>
  </g>
</svg>
