<?xml version="1.0" ?>
<svg xmlns="http://www.w3.org/2000/svg" version="1.1" width="512" height="512">
  <defs/>
  <g>
    <path d="M 232.16156005859375 229.6028594970703 C 211.64031982421875 170.35198974609375 159.3734130859375 241.08517456054688 168.1226043701172 273.4456787109375" stroke-width="5.0" fill="none" stroke="rgb(31, 119, 180)" stroke-opacity="1.0" stroke-linecap="round" stroke-linejoin="round"/>
    <path d="M 212.50563049316406 196.46298217773438 C 218.5713653564453 172.36126708984375 250.59486389160156 150.31321716308594 289.2015380859375 162.17398071289062" stroke-width="5.0" fill="none" stroke="rgb(31, 119, 180)" stroke-opacity="1.0" stroke-linecap="round" stroke-linejoin="round"/>
    <path d="M 365.5715026855469 186.0433349609375 C 360.45025634765625 172.65139770507812 371.7222900390625 179.7754364013672 340.4398193359375 171.86280822753906" stroke-width="5.0" fill="none" stroke="rgb(31, 119, 180)" stroke-opacity="1.0" stroke-linecap="round" stroke-linejoin="round"/>
    <path d="M 221.43894958496094 399.4256286621094 C 202.33839416503906 328.7539367675781 233.64259338378906 354.8668518066406 233.20326232910156 272.4033508300781" stroke-width="5.0" fill="none" stroke="rgb(31, 119, 180)" stroke-opacity="1.0" stroke-linecap="round" stroke-linejoin="round"/>
    <path d="M 352.60284423828125 193.8216094970703 C 370.3012390136719 228.68675231933594 351.4680480957031 194.95603942871094 358.9550476074219 305.6512145996094" stroke-width="5.0" fill="none" stroke="rgb(31, 119, 180)" stroke-opacity="1.0" stroke-linecap="round" stroke-linejoin="round"/>
    <path d="M 314.86553955078125 228.166748046875 C 320.2770690917969 208.18899536132812 306.06915283203125 191.87095642089844 297.42669677734375 207.22738647460938" stroke-width="5.0" fill="none" stroke="rgb(31, 119, 180)" stroke-opacity="1.0" stroke-linecap="round" stroke-linejoin="round"/>
    <path d="M 270.9483947753906 265.1717834472656 C 308.3483581542969 331.1390686035156 213.19932556152344 348.1192626953125 223.1855010986328 266.7794494628906" stroke-width="5.0" fill="none" stroke="rgb(31, 119, 180)" stroke-opacity="1.0" stroke-linecap="round" stroke-linejoin="round"/>
    <path d="M 258.3702087402344 258.4320373535156 C 267.3473205566406 225.07754516601562 240.6715087890625 245.72035217285156 207.6665496826172 231.25030517578125" stroke-width="5.0" fill="none" stroke="rgb(31, 119, 180)" stroke-opacity="1.0" stroke-linecap="round" stroke-linejoin="round"/>
    <path d="M 192.32679748535156 215.92405700683594 C 210.81036376953125 213.9124298095703 185.64845275878906 213.482177734375 210.9221954345703 198.03530883789062" stroke-width="5.0" fill="none" stroke="rgb(31, 119, 180)" stroke-opacity="1.0" stroke-linecap="round" stroke-linejoin="round"/>
    <path d="M 307.01141357421875 235.27310180664062 C 313.1590270996094 225.40750122070312 323.1630554199219 232.923828125 297.2579040527344 241.3957977294922" stroke-width="5.0" fill="none" stroke="rgb(31, 119, 180)" stroke-opacity="1.0" stroke-linecap="round" stroke-linejoin="round"/>
    <path d="M 179.80735778808594 268.8852233886719 C 256.2547607421875 264.6003112792969 234.185546875 264.8998107910156 242.83851623535156 256.0039367675781" stroke-width="5.0" fill="none" stroke="rgb(31, 119, 180)" stroke-opacity="1.0" stroke-linecap="round" stroke-linejoin="round"/>
    <path d="M 335.4750671386719 324.6600646972656 C 340.4897155761719 314.0280456542969 373.75860595703125 354.7693786621094 479.12982177734375 370.58087158203125" stroke-width="5.0" fill="none" stroke="rgb(31, 119, 180)" stroke-opacity="1.0" stroke-linecap="round" stroke-linejoin="round"/>
    <path d="M 300.2137451171875 204.48020935058594 C 259.93768310546875 186.27906799316406 303.4356689453125 240.82972717285156 276.67327880859375 219.13572692871094" stroke-width="5.0" fill="none" stroke="rgb(31, 119, 180)" stroke-opacity="1.0" stroke-linecap="round" stroke-linejoin="round"/>
    <path d="M 304.2993469238281 212.11082458496094 C 312.5030212402344 263.32196044921875 222.68359375 234.80589294433594 275.4419250488281 202.65151977539062" stroke-width="5.0" fill="none" stroke="rgb(31, 119, 180)" stroke-opacity="1.0" stroke-linecap="round" stroke-linejoin="round"/>
    <path d="M 298.4741516113281 133.83067321777344 C 314.1224365234375 179.42919921875 334.3436584472656 112.55972290039062 337.22528076171875 169.7694854736328" stroke-width="5.0" fill="none" stroke="rgb(31, 119, 180)" stroke-opacity="1.0" stroke-linecap="round" stroke-linejoin="round"/>
    <path d="M 249.40032958984375 252.21194458007812 C 226.4450225830078 245.83212280273438 194.50938415527344 244.40037536621094 169.50875854492188 268.7496032714844" stroke-width="5.0" fill="none" stroke="rgb(31, 119, 180)" stroke-opacity="1.0" stroke-linecap="round" stroke-linejoin="round"/>
    <path d="M 353.9006042480469 178.24578857421875 C 346.72021484375 173.7270050048828 332.4078674316406 170.27426147460938 349.27557373046875 143.434326171875" stroke-width="5.0" fill="none" stroke="rgb(255, 127, 14)" stroke-opacity="1.0" stroke-linecap="round" stroke-linejoin="round"/>
    <path d="M 291.99139404296875 231.77987670898438 C 318.6100158691406 236.689453125 275.4127502441406 258.918701171875 242.66429138183594 242.0705108642578" stroke-width="5.0" fill="none" stroke="rgb(255, 127, 14)" stroke-opacity="1.0" stroke-linecap="round" stroke-linejoin="round"/>
    <path d="M 352.2818908691406 207.61891174316406 C 343.09564208984375 174.76943969726562 341.19921875 167.6365966796875 357.9534606933594 154.49447631835938" stroke-width="5.0" fill="none" stroke="rgb(255, 127, 14)" stroke-opacity="1.0" stroke-linecap="round" stroke-linejoin="round"/>
    <path d="M 352.9460144042969 224.451416015625 C 337.6709289550781 270.9341735839844 306.81146240234375 268.4520263671875 288.8115539550781 274.657470703125" stroke-width="5.0" fill="none" stroke="rgb(255, 127, 14)" stroke-opacity="1.0" stroke-linecap="round" stroke-linejoin="round"/>
    <path d="M 316.48846435546875 192.0081024169922 C 286.941650390625 169.7913818359375 341.57464599609375 175.43226623535156 318.8615417480469 205.5056915283203" stroke-width="5.0" fill="none" stroke="rgb(255, 127, 14)" stroke-opacity="1.0" stroke-linecap="round" stroke-linejoin="round"/>
    <path d="M 154.19064331054688 146.52297973632812 C 162.7252655029297 166.9721221923828 160.48155212402344 180.52215576171875 190.47718811035156 174.19265747070312" stroke-width="5.0" fill="none" stroke="rgb(255, 127, 14)" stroke-opacity="1.0" stroke-linecap="round" stroke-linejoin="round"/>
    <path d="M 268.4835205078125 176.0516815185547 C 270.6495056152344 162.22271728515625 307.1261291503906 157.38925170898438 302.7176818847656 197.8179473876953" stroke-width="5.0" fill="none" stroke="rgb(255, 127, 14)" stroke-opacity="1.0" stroke-linecap="round" stroke-linejoin="round"/>
    <path d="M 328.8937683105469 321.5818176269531 C 262.08544921875 336.69561767578125 255.09226989746094 349.18963623046875 232.1610565185547 319.8108825683594" stroke-width="5.0" fill="none" stroke="rgb(255, 127, 14)" stroke-opacity="1.0" stroke-linecap="round" stroke-linejoin="round"/>
    <path d="M 194.0511016845703 268.1235656738281 C 192.20619201660156 263.1192321777344 190.6728057861328 263.4517517089844 192.23670959472656 266.0846862792969" stroke-width="5.0" fill="none" stroke="rgb(255, 127, 14)" stroke-opacity="1.0" stroke-linecap="round" stroke-linejoin="round"/>
    <path d="M 210.94725036621094 197.59861755371094 C 241.0887451171875 237.35345458984375 216.95423889160156 254.3927764892578 194.63671875 222.5860595703125" stroke-width="5.0" fill="none" stroke="rgb(255, 127, 14)" stroke-opacity="1.0" stroke-linecap="round" stroke-linejoin="round"/>
    <path d="M 230.9674072265625 232.9000244140625 C 229.56820678710938 227.87478637695312 236.3438262939453 230.5299072265625 223.28164672851562 233.38467407226562" stroke-width="5.0" fill="none" stroke="rgb(255, 127, 14)" stroke-opacity="1.0" stroke-linecap="round" stroke-linejoin="round"/>
    <path d="M 205.10250854492188 401.92626953125 C 227.5977020263672 351.6336669921875 176.69354248046875 390.326171875 191.8202362060547 367.88421630859375" stroke-width="5.0" fill="none" stroke="rgb(255, 127, 14)" stroke-opacity="1.0" stroke-linecap="round" stroke-linejoin="round"/>
    <path d="M 256.4945068359375 219.04898071289062 C 236.17822265625 206.4368438720703 233.7733612060547 162.26345825195312 269.9244384765625 179.12466430664062" stroke-width="5.0" fill="none" stroke="rgb(255, 127, 14)" stroke-opacity="1.0" stroke-linecap="round" stroke-linejoin="round"/>
    <path d="M 157.38723754882812 190.22817993164062 C 117.34806060791016 245.2072296142578 150.6145477294922 283.9071044921875 171.1438446044922 265.1141052246094" stroke-width="5.0" fill="none" stroke="rgb(255, 127, 14)" stroke-opacity="1.0" stroke-linecap="round" stroke-linejoin="round"/>
    <path d="M 278.5120849609375 332.6269836425781 C 318.2356872558594 300.1251220703125 266.1109313964844 248.56138610839844 287.3040466308594 250.0668487548828" stroke-width="5.0" fill="none" stroke="rgb(255, 127, 14)" stroke-opacity="1.0" stroke-linecap="round" stroke-linejoin="round"/>
    <path d="M 205.70794677734375 373.38232421875 C 190.664794921875 415.17877197265625 181.79171752929688 382.16668701171875 204.97047424316406 362.2425537109375" stroke-width="5.0" fill="none" stroke="rgb(255, 127, 14)" stroke-opacity="1.0" stroke-linecap="round" stroke-linejoin="round"/>
  </g>
</svg>
