<?xml version="1.0" ?>
<svg xmlns="http://www.w3.org/2000/svg" version="1.1" width="512" height="512">
  <defs/>
  <g>
    <path d="M 219.7296600341797 231.39208984375 C 203.87989807128906 158.9573516845703 156.82281494140625 233.4028778076172 166.83346557617188 275.6116027832031" stroke-width="5.0" fill="none" stroke="rgb(0, 0, 0)" stroke-opacity="1.0" stroke-linecap="round" stroke-linejoin="round"/>
    <path d="M 217.8870849609375 202.3175506591797 C 214.80511474609375 167.86155700683594 249.0977020263672 147.2776641845703 282.89093017578125 160.62860107421875" stroke-width="5.0" fill="none" stroke="rgb(0, 0, 0)" stroke-opacity="1.0" stroke-linecap="round" stroke-linejoin="round"/>
    <path d="M 356.7088928222656 186.41282653808594 C 363.52020263671875 183.93914794921875 370.855224609375 176.1599884033203 345.13519287109375 175.29014587402344" stroke-width="5.0" fill="none" stroke="rgb(0, 0, 0)" stroke-opacity="1.0" stroke-linecap="round" stroke-linejoin="round"/>
    <path d="M 221.04457092285156 408.9783630371094 C 178.806396484375 301.5611572265625 205.3757781982422 332.4330139160156 227.95010375976562 264.8199768066406" stroke-width="5.0" fill="none" stroke="rgb(0, 0, 0)" stroke-opacity="1.0" stroke-linecap="round" stroke-linejoin="round"/>
    <path d="M 356.3063049316406 195.12652587890625 C 379.5680236816406 244.67881774902344 364.4925842285156 215.83546447753906 355.8184814453125 322.58587646484375" stroke-width="5.0" fill="none" stroke="rgb(0, 0, 0)" stroke-opacity="1.0" stroke-linecap="round" stroke-linejoin="round"/>
    <path d="M 302.2441101074219 221.7689666748047 C 316.5294189453125 206.50621032714844 294.8994445800781 186.0660858154297 285.9389953613281 200.9779510498047" stroke-width="5.0" fill="none" stroke="rgb(0, 0, 0)" stroke-opacity="1.0" stroke-linecap="round" stroke-linejoin="round"/>
    <path d="M 275.8210144042969 252.56234741210938 C 311.6264953613281 328.2132568359375 213.57984924316406 352.3128967285156 240.32395935058594 264.06304931640625" stroke-width="5.0" fill="none" stroke="rgb(0, 0, 0)" stroke-opacity="1.0" stroke-linecap="round" stroke-linejoin="round"/>
    <path d="M 257.49365234375 258.3974304199219 C 272.6246337890625 238.25711059570312 240.7305145263672 240.29469299316406 208.9950408935547 228.0004425048828" stroke-width="5.0" fill="none" stroke="rgb(0, 0, 0)" stroke-opacity="1.0" stroke-linecap="round" stroke-linejoin="round"/>
    <path d="M 182.98263549804688 214.39547729492188 C 193.28787231445312 204.07901000976562 179.572021484375 192.0604705810547 208.80917358398438 191.32901000976562" stroke-width="5.0" fill="none" stroke="rgb(0, 0, 0)" stroke-opacity="1.0" stroke-linecap="round" stroke-linejoin="round"/>
    <path d="M 299.37786865234375 224.3643341064453 C 303.8966979980469 214.03282165527344 303.4247741699219 227.0123748779297 281.34375 230.25253295898438" stroke-width="5.0" fill="none" stroke="rgb(0, 0, 0)" stroke-opacity="1.0" stroke-linecap="round" stroke-linejoin="round"/>
    <path d="M 167.759765625 265.078125 C 259.46160888671875 254.58465576171875 254.1326904296875 261.9864196777344 237.37496948242188 259.5946044921875" stroke-width="5.0" fill="none" stroke="rgb(0, 0, 0)" stroke-opacity="1.0" stroke-linecap="round" stroke-linejoin="round"/>
    <path d="M 356.4726257324219 331.95965576171875 C 359.60357666015625 311.7544860839844 369.43524169921875 362.06097412109375 496.3678894042969 395.14691162109375" stroke-width="5.0" fill="none" stroke="rgb(0, 0, 0)" stroke-opacity="1.0" stroke-linecap="round" stroke-linejoin="round"/>
    <path d="M 296.4173889160156 195.88400268554688 C 264.96533203125 184.7783966064453 315.4696350097656 235.09388732910156 276.4319763183594 212.85635375976562" stroke-width="5.0" fill="none" stroke="rgb(0, 0, 0)" stroke-opacity="1.0" stroke-linecap="round" stroke-linejoin="round"/>
    <path d="M 304.3236999511719 203.07321166992188 C 314.0186767578125 260.4128723144531 225.74600219726562 221.2512664794922 276.6705627441406 193.25608825683594" stroke-width="5.0" fill="none" stroke="rgb(0, 0, 0)" stroke-opacity="1.0" stroke-linecap="round" stroke-linejoin="round"/>
    <path d="M 298.4269104003906 133.90841674804688 C 319.6817626953125 200.52342224121094 339.0666809082031 119.37010955810547 337.3668518066406 178.4058837890625" stroke-width="5.0" fill="none" stroke="rgb(0, 0, 0)" stroke-opacity="1.0" stroke-linecap="round" stroke-linejoin="round"/>
    <path d="M 248.83766174316406 247.77462768554688 C 232.2733917236328 242.55227661132812 190.5446319580078 240.40171813964844 165.72857666015625 279.5738220214844" stroke-width="5.0" fill="none" stroke="rgb(0, 0, 0)" stroke-opacity="1.0" stroke-linecap="round" stroke-linejoin="round"/>
    <path d="M 351.5284118652344 195.63710021972656 C 340.3670654296875 195.74850463867188 336.4963073730469 175.94960021972656 357.7113037109375 162.8818359375" stroke-width="5.0" fill="none" stroke="rgb(0, 0, 0)" stroke-opacity="1.0" stroke-linecap="round" stroke-linejoin="round"/>
    <path d="M 294.053955078125 235.22665405273438 C 300.9429626464844 232.77603149414062 275.24871826171875 252.13412475585938 253.52972412109375 232.87245178222656" stroke-width="5.0" fill="none" stroke="rgb(0, 0, 0)" stroke-opacity="1.0" stroke-linecap="round" stroke-linejoin="round"/>
    <path d="M 345.8384704589844 213.769775390625 C 340.6051025390625 182.00624084472656 342.843505859375 157.4552001953125 351.1944885253906 157.42837524414062" stroke-width="5.0" fill="none" stroke="rgb(0, 0, 0)" stroke-opacity="1.0" stroke-linecap="round" stroke-linejoin="round"/>
    <path d="M 341.56707763671875 209.9776153564453 C 334.2003479003906 268.2398376464844 305.1728820800781 258.03387451171875 291.1089172363281 284.052001953125" stroke-width="5.0" fill="none" stroke="rgb(0, 0, 0)" stroke-opacity="1.0" stroke-linecap="round" stroke-linejoin="round"/>
    <path d="M 325.47125244140625 178.54971313476562 C 293.8423156738281 147.91079711914062 355.6481628417969 153.7945098876953 313.66888427734375 211.9482421875" stroke-width="5.0" fill="none" stroke="rgb(0, 0, 0)" stroke-opacity="1.0" stroke-linecap="round" stroke-linejoin="round"/>
    <path d="M 159.17723083496094 138.5851593017578 C 173.932373046875 180.75181579589844 148.44993591308594 188.37142944335938 182.4125518798828 164.56158447265625" stroke-width="5.0" fill="none" stroke="rgb(0, 0, 0)" stroke-opacity="1.0" stroke-linecap="round" stroke-linejoin="round"/>
    <path d="M 273.77960205078125 181.4912567138672 C 283.8152770996094 158.95606994628906 308.15380859375 154.5950469970703 309.08990478515625 194.4493865966797" stroke-width="5.0" fill="none" stroke="rgb(0, 0, 0)" stroke-opacity="1.0" stroke-linecap="round" stroke-linejoin="round"/>
    <path d="M 336.82861328125 333.20660400390625 C 251.86883544921875 325.1832275390625 242.31129455566406 347.5653381347656 221.6547393798828 300.30670166015625" stroke-width="5.0" fill="none" stroke="rgb(0, 0, 0)" stroke-opacity="1.0" stroke-linecap="round" stroke-linejoin="round"/>
    <path d="M 183.48155212402344 265.5862731933594 C 175.63916015625 271.0225524902344 187.66619873046875 279.2845764160156 182.77725219726562 273.6478576660156" stroke-width="5.0" fill="none" stroke="rgb(0, 0, 0)" stroke-opacity="1.0" stroke-linecap="round" stroke-linejoin="round"/>
    <path d="M 220.62828063964844 211.6060028076172 C 247.5796661376953 236.57598876953125 186.32176208496094 257.45758056640625 182.54629516601562 213.18212890625" stroke-width="5.0" fill="none" stroke="rgb(0, 0, 0)" stroke-opacity="1.0" stroke-linecap="round" stroke-linejoin="round"/>
    <path d="M 214.6488494873047 239.63111877441406 C 219.71263122558594 236.344482421875 227.86611938476562 229.82778930664062 219.59120178222656 238.58090209960938" stroke-width="5.0" fill="none" stroke="rgb(0, 0, 0)" stroke-opacity="1.0" stroke-linecap="round" stroke-linejoin="round"/>
    <path d="M 221.54995727539062 398.705810546875 C 229.4903564453125 346.98583984375 171.0991973876953 397.4609680175781 206.10122680664062 377.0074462890625" stroke-width="5.0" fill="none" stroke="rgb(0, 0, 0)" stroke-opacity="1.0" stroke-linecap="round" stroke-linejoin="round"/>
    <path d="M 254.4261932373047 220.3372344970703 C 229.11654663085938 210.0614776611328 227.32138061523438 160.50308227539062 269.4937438964844 182.56895446777344" stroke-width="5.0" fill="none" stroke="rgb(0, 0, 0)" stroke-opacity="1.0" stroke-linecap="round" stroke-linejoin="round"/>
    <path d="M 164.11090087890625 183.60508728027344 C 111.88113403320312 250.5631561279297 138.19033813476562 276.39642333984375 160.621826171875 274.4686584472656" stroke-width="5.0" fill="none" stroke="rgb(0, 0, 0)" stroke-opacity="1.0" stroke-linecap="round" stroke-linejoin="round"/>
    <path d="M 270.3164978027344 330.3154602050781 C 317.69287109375 303.8425598144531 275.03826904296875 236.04864501953125 272.3358459472656 239.40219116210938" stroke-width="5.0" fill="none" stroke="rgb(0, 0, 0)" stroke-opacity="1.0" stroke-linecap="round" stroke-linejoin="round"/>
    <path d="M 210.31704711914062 392.5130310058594 C 204.74391174316406 443.9620666503906 187.14015197753906 404.92706298828125 210.84225463867188 378.3545837402344" stroke-width="5.0" fill="none" stroke="rgb(0, 0, 0)" stroke-opacity="1.0" stroke-linecap="round" stroke-linejoin="round"/>
  </g>
</svg>
