<?xml version="1.0" ?>
<svg xmlns="http://www.w3.org/2000/svg" version="1.1" width="512" height="512">
  <defs/>
  <g>
    <path d="M 213.22450256347656 231.77186584472656 C 207.33045959472656 167.76657104492188 147.21343994140625 238.01708984375 158.85369873046875 272.3113708496094" stroke-width="5.0" fill="none" stroke="rgb(31, 119, 180)" stroke-opacity="1.0" stroke-linecap="round" stroke-linejoin="round"/>
    <path d="M 212.65536499023438 193.4950408935547 C 212.97210693359375 168.37786865234375 265.7594909667969 131.5785675048828 290.7216796875 159.5969696044922" stroke-width="5.0" fill="none" stroke="rgb(31, 119, 180)" stroke-opacity="1.0" stroke-linecap="round" stroke-linejoin="round"/>
    <path d="M 349.7350158691406 195.78213500976562 C 356.0094909667969 191.0493621826172 358.9658508300781 200.70687866210938 335.3866882324219 181.5288543701172" stroke-width="5.0" fill="none" stroke="rgb(31, 119, 180)" stroke-opacity="1.0" stroke-linecap="round" stroke-linejoin="round"/>
    <path d="M 222.9097137451172 421.02752685546875 C 177.36422729492188 282.9384765625 205.89024353027344 332.60614013671875 215.67926025390625 266.12823486328125" stroke-width="5.0" fill="none" stroke="rgb(31, 119, 180)" stroke-opacity="1.0" stroke-linecap="round" stroke-linejoin="round"/>
    <path d="M 349.6836242675781 201.1394805908203 C 386.2428283691406 253.1463623046875 369.6971435546875 231.2189483642578 361.8134765625 339.5926208496094" stroke-width="5.0" fill="none" stroke="rgb(31, 119, 180)" stroke-opacity="1.0" stroke-linecap="round" stroke-linejoin="round"/>
    <path d="M 301.1524353027344 222.3196258544922 C 313.0194091796875 210.04678344726562 280.7540588378906 182.10646057128906 273.195556640625 202.12962341308594" stroke-width="5.0" fill="none" stroke="rgb(31, 119, 180)" stroke-opacity="1.0" stroke-linecap="round" stroke-linejoin="round"/>
    <path d="M 266.27880859375 260.83367919921875 C 318.3265686035156 326.6205139160156 197.80410766601562 340.57952880859375 231.964111328125 265.70220947265625" stroke-width="5.0" fill="none" stroke="rgb(31, 119, 180)" stroke-opacity="1.0" stroke-linecap="round" stroke-linejoin="round"/>
    <path d="M 247.43043518066406 259.6116943359375 C 274.23828125 246.37750244140625 242.2194366455078 238.96932983398438 208.8984832763672 233.29786682128906" stroke-width="5.0" fill="none" stroke="rgb(31, 119, 180)" stroke-opacity="1.0" stroke-linecap="round" stroke-linejoin="round"/>
    <path d="M 182.1903839111328 215.35861206054688 C 180.95033264160156 210.5061798095703 186.15931701660156 184.76571655273438 213.44732666015625 197.53012084960938" stroke-width="5.0" fill="none" stroke="rgb(31, 119, 180)" stroke-opacity="1.0" stroke-linecap="round" stroke-linejoin="round"/>
    <path d="M 292.8125915527344 232.0564727783203 C 308.630615234375 215.1156463623047 301.0097351074219 229.22203063964844 282.0411071777344 237.08206176757812" stroke-width="5.0" fill="none" stroke="rgb(31, 119, 180)" stroke-opacity="1.0" stroke-linecap="round" stroke-linejoin="round"/>
    <path d="M 169.8223876953125 269.4207458496094 C 252.41001892089844 257.0235900878906 246.89581298828125 265.0568542480469 245.49148559570312 258.69873046875" stroke-width="5.0" fill="none" stroke="rgb(31, 119, 180)" stroke-opacity="1.0" stroke-linecap="round" stroke-linejoin="round"/>
    <path d="M 362.7042541503906 340.0195007324219 C 344.2388916015625 328.01055908203125 364.3340759277344 359.5926818847656 502.3171081542969 383.4031982421875" stroke-width="5.0" fill="none" stroke="rgb(31, 119, 180)" stroke-opacity="1.0" stroke-linecap="round" stroke-linejoin="round"/>
    <path d="M 282.3414611816406 202.66648864746094 C 254.65243530273438 183.31809997558594 309.8048095703125 227.29995727539062 269.0746765136719 212.5426483154297" stroke-width="5.0" fill="none" stroke="rgb(31, 119, 180)" stroke-opacity="1.0" stroke-linecap="round" stroke-linejoin="round"/>
    <path d="M 300.7731628417969 204.0452423095703 C 305.59051513671875 268.13653564453125 208.65660095214844 218.6436309814453 278.83953857421875 191.409912109375" stroke-width="5.0" fill="none" stroke="rgb(31, 119, 180)" stroke-opacity="1.0" stroke-linecap="round" stroke-linejoin="round"/>
    <path d="M 299.71575927734375 105.88793182373047 C 332.88336181640625 194.09255981445312 343.2322692871094 122.77338409423828 343.1511535644531 169.7667999267578" stroke-width="5.0" fill="none" stroke="rgb(31, 119, 180)" stroke-opacity="1.0" stroke-linecap="round" stroke-linejoin="round"/>
    <path d="M 239.12632751464844 248.58729553222656 C 229.2747344970703 245.76638793945312 187.7151641845703 239.99366760253906 162.07449340820312 270.80548095703125" stroke-width="5.0" fill="none" stroke="rgb(31, 119, 180)" stroke-opacity="1.0" stroke-linecap="round" stroke-linejoin="round"/>
    <path d="M 346.76580810546875 194.11270141601562 C 338.0951232910156 207.68006896972656 332.378662109375 174.3590850830078 360.444091796875 165.44346618652344" stroke-width="5.0" fill="none" stroke="rgb(255, 127, 14)" stroke-opacity="1.0" stroke-linecap="round" stroke-linejoin="round"/>
    <path d="M 291.48223876953125 231.79080200195312 C 299.64251708984375 233.46568298339844 265.8175964355469 260.2659606933594 250.6515350341797 232.82534790039062" stroke-width="5.0" fill="none" stroke="rgb(255, 127, 14)" stroke-opacity="1.0" stroke-linecap="round" stroke-linejoin="round"/>
    <path d="M 352.70989990234375 187.82235717773438 C 361.14691162109375 177.27467346191406 349.3143310546875 164.16534423828125 361.25506591796875 167.75933837890625" stroke-width="5.0" fill="none" stroke="rgb(255, 127, 14)" stroke-opacity="1.0" stroke-linecap="round" stroke-linejoin="round"/>
    <path d="M 346.5268859863281 196.63211059570312 C 316.7107238769531 250.86451721191406 291.69354248046875 246.37078857421875 287.4524230957031 268.9407958984375" stroke-width="5.0" fill="none" stroke="rgb(255, 127, 14)" stroke-opacity="1.0" stroke-linecap="round" stroke-linejoin="round"/>
    <path d="M 316.4259033203125 190.74993896484375 C 290.56939697265625 165.57749938964844 356.4645080566406 174.06375122070312 312.335205078125 218.7625732421875" stroke-width="5.0" fill="none" stroke="rgb(255, 127, 14)" stroke-opacity="1.0" stroke-linecap="round" stroke-linejoin="round"/>
    <path d="M 161.7993621826172 116.22655487060547 C 180.90863037109375 176.4937744140625 151.5843048095703 210.6263885498047 183.24496459960938 164.32598876953125" stroke-width="5.0" fill="none" stroke="rgb(255, 127, 14)" stroke-opacity="1.0" stroke-linecap="round" stroke-linejoin="round"/>
    <path d="M 265.501953125 179.41702270507812 C 269.3080139160156 158.35235595703125 300.7148742675781 163.93955993652344 296.7655334472656 199.40463256835938" stroke-width="5.0" fill="none" stroke="rgb(255, 127, 14)" stroke-opacity="1.0" stroke-linecap="round" stroke-linejoin="round"/>
    <path d="M 339.9508972167969 329.21044921875 C 253.02268981933594 324.9441833496094 233.54510498046875 356.9125061035156 212.9265899658203 296.9701232910156" stroke-width="5.0" fill="none" stroke="rgb(255, 127, 14)" stroke-opacity="1.0" stroke-linecap="round" stroke-linejoin="round"/>
    <path d="M 169.10394287109375 273.0319519042969 C 160.74493408203125 277.45941162109375 174.998291015625 271.84375 184.90415954589844 268.46820068359375" stroke-width="5.0" fill="none" stroke="rgb(255, 127, 14)" stroke-opacity="1.0" stroke-linecap="round" stroke-linejoin="round"/>
    <path d="M 219.65184020996094 225.40463256835938 C 245.6891326904297 227.9335174560547 186.96656799316406 243.4193878173828 186.14512634277344 210.0947723388672" stroke-width="5.0" fill="none" stroke="rgb(255, 127, 14)" stroke-opacity="1.0" stroke-linecap="round" stroke-linejoin="round"/>
    <path d="M 227.5296173095703 228.18846130371094 C 218.28897094726562 229.8360595703125 225.44207763671875 232.2744598388672 220.5686492919922 220.31326293945312" stroke-width="5.0" fill="none" stroke="rgb(255, 127, 14)" stroke-opacity="1.0" stroke-linecap="round" stroke-linejoin="round"/>
    <path d="M 226.45529174804688 405.9295654296875 C 211.7756805419922 359.5684509277344 166.41001892089844 408.05267333984375 213.7896270751953 385.6376037597656" stroke-width="5.0" fill="none" stroke="rgb(255, 127, 14)" stroke-opacity="1.0" stroke-linecap="round" stroke-linejoin="round"/>
    <path d="M 249.39381408691406 217.9621124267578 C 233.7750701904297 204.81858825683594 228.4612579345703 160.9482421875 262.041748046875 181.796630859375" stroke-width="5.0" fill="none" stroke="rgb(255, 127, 14)" stroke-opacity="1.0" stroke-linecap="round" stroke-linejoin="round"/>
    <path d="M 158.31265258789062 169.92820739746094 C 114.891845703125 257.6573791503906 135.223876953125 286.39251708984375 160.87794494628906 281.326171875" stroke-width="5.0" fill="none" stroke="rgb(255, 127, 14)" stroke-opacity="1.0" stroke-linecap="round" stroke-linejoin="round"/>
    <path d="M 271.20001220703125 328.7532653808594 C 319.2376403808594 307.4168701171875 274.4733581542969 234.2783966064453 273.9721374511719 238.6888427734375" stroke-width="5.0" fill="none" stroke="rgb(255, 127, 14)" stroke-opacity="1.0" stroke-linecap="round" stroke-linejoin="round"/>
    <path d="M 208.96231079101562 400.06610107421875 C 224.0581512451172 458.10137939453125 191.71690368652344 405.13775634765625 210.59408569335938 382.0622253417969" stroke-width="5.0" fill="none" stroke="rgb(255, 127, 14)" stroke-opacity="1.0" stroke-linecap="round" stroke-linejoin="round"/>
  </g>
</svg>
