<?xml version="1.0" ?>
<svg xmlns="http://www.w3.org/2000/svg" version="1.1" width="512" height="512">
  <defs/>
  <g>
    <path d="M 231.32957458496094 228.1244354248047 C 213.69076538085938 169.53085327148438 159.11500549316406 241.84710693359375 164.95814514160156 275.1492004394531" stroke-width="5.0" fill="none" stroke="rgb(0, 0, 0)" stroke-opacity="1.0" stroke-linecap="round" stroke-linejoin="round"/>
    <path d="M 214.1728057861328 206.2224884033203 C 212.32073974609375 167.43435668945312 247.49473571777344 143.9713592529297 282.2785339355469 153.4744415283203" stroke-width="5.0" fill="none" stroke="rgb(0, 0, 0)" stroke-opacity="1.0" stroke-linecap="round" stroke-linejoin="round"/>
    <path d="M 356.9866943359375 192.00621032714844 C 360.95452880859375 176.35836791992188 376.1392517089844 168.85360717773438 335.9761657714844 174.93174743652344" stroke-width="5.0" fill="none" stroke="rgb(0, 0, 0)" stroke-opacity="1.0" stroke-linecap="round" stroke-linejoin="round"/>
    <path d="M 217.0133514404297 395.49713134765625 C 191.7984619140625 319.8435363769531 220.76693725585938 347.4346923828125 228.7458953857422 264.1009826660156" stroke-width="5.0" fill="none" stroke="rgb(0, 0, 0)" stroke-opacity="1.0" stroke-linecap="round" stroke-linejoin="round"/>
    <path d="M 343.7707824707031 197.31735229492188 C 368.3835144042969 229.5858154296875 352.1841735839844 189.5068359375 363.1265869140625 299.8013916015625" stroke-width="5.0" fill="none" stroke="rgb(0, 0, 0)" stroke-opacity="1.0" stroke-linecap="round" stroke-linejoin="round"/>
    <path d="M 310.1314392089844 228.1584930419922 C 320.4419860839844 206.57745361328125 303.8346252441406 191.5818634033203 285.84808349609375 193.23077392578125" stroke-width="5.0" fill="none" stroke="rgb(0, 0, 0)" stroke-opacity="1.0" stroke-linecap="round" stroke-linejoin="round"/>
    <path d="M 274.9722595214844 262.6499328613281 C 308.174072265625 328.6038818359375 212.6029052734375 345.20782470703125 228.9979705810547 266.055908203125" stroke-width="5.0" fill="none" stroke="rgb(0, 0, 0)" stroke-opacity="1.0" stroke-linecap="round" stroke-linejoin="round"/>
    <path d="M 260.8813781738281 264.966064453125 C 264.2101745605469 232.3482666015625 238.64662170410156 245.10581970214844 203.2871856689453 229.42398071289062" stroke-width="5.0" fill="none" stroke="rgb(0, 0, 0)" stroke-opacity="1.0" stroke-linecap="round" stroke-linejoin="round"/>
    <path d="M 187.36611938476562 215.65655517578125 C 200.6064910888672 209.0470428466797 181.46400451660156 205.49949645996094 211.45469665527344 203.9542236328125" stroke-width="5.0" fill="none" stroke="rgb(0, 0, 0)" stroke-opacity="1.0" stroke-linecap="round" stroke-linejoin="round"/>
    <path d="M 305.818603515625 229.84043884277344 C 309.5465087890625 221.36415100097656 318.9976806640625 232.02171325683594 287.3835754394531 242.88645935058594" stroke-width="5.0" fill="none" stroke="rgb(0, 0, 0)" stroke-opacity="1.0" stroke-linecap="round" stroke-linejoin="round"/>
    <path d="M 171.11004638671875 271.8658447265625 C 252.11488342285156 256.8200988769531 235.86181640625 265.3388977050781 255.5786895751953 267.5372314453125" stroke-width="5.0" fill="none" stroke="rgb(0, 0, 0)" stroke-opacity="1.0" stroke-linecap="round" stroke-linejoin="round"/>
    <path d="M 349.1742858886719 327.3427429199219 C 344.6376647949219 318.47918701171875 363.5258483886719 368.0708312988281 484.94171142578125 374.4049987792969" stroke-width="5.0" fill="none" stroke="rgb(0, 0, 0)" stroke-opacity="1.0" stroke-linecap="round" stroke-linejoin="round"/>
    <path d="M 297.3766784667969 201.26513671875 C 260.5565490722656 190.47195434570312 311.3594665527344 240.94236755371094 280.0020751953125 213.04364013671875" stroke-width="5.0" fill="none" stroke="rgb(0, 0, 0)" stroke-opacity="1.0" stroke-linecap="round" stroke-linejoin="round"/>
    <path d="M 302.16375732421875 206.74679565429688 C 310.412353515625 256.356201171875 229.56787109375 225.90733337402344 278.6558532714844 198.62075805664062" stroke-width="5.0" fill="none" stroke="rgb(0, 0, 0)" stroke-opacity="1.0" stroke-linecap="round" stroke-linejoin="round"/>
    <path d="M 298.24688720703125 137.1064910888672 C 319.17803955078125 190.13340759277344 332.0093078613281 118.16818237304688 337.59130859375 173.52706909179688" stroke-width="5.0" fill="none" stroke="rgb(0, 0, 0)" stroke-opacity="1.0" stroke-linecap="round" stroke-linejoin="round"/>
    <path d="M 241.4967498779297 252.2983856201172 C 231.91502380371094 240.2089080810547 194.71078491210938 241.94412231445312 165.19642639160156 272.3177490234375" stroke-width="5.0" fill="none" stroke="rgb(0, 0, 0)" stroke-opacity="1.0" stroke-linecap="round" stroke-linejoin="round"/>
    <path d="M 366.7029724121094 180.4160614013672 C 350.9434509277344 176.22776794433594 334.1943359375 165.62034606933594 357.51104736328125 154.37252807617188" stroke-width="5.0" fill="none" stroke="rgb(0, 0, 0)" stroke-opacity="1.0" stroke-linecap="round" stroke-linejoin="round"/>
    <path d="M 288.1774597167969 235.13916015625 C 315.2673034667969 243.17613220214844 278.45916748046875 259.4055480957031 239.87705993652344 243.49501037597656" stroke-width="5.0" fill="none" stroke="rgb(0, 0, 0)" stroke-opacity="1.0" stroke-linecap="round" stroke-linejoin="round"/>
    <path d="M 346.9728088378906 215.22605895996094 C 333.466552734375 179.2339630126953 335.6901550292969 162.04852294921875 358.6398620605469 158.04373168945312" stroke-width="5.0" fill="none" stroke="rgb(0, 0, 0)" stroke-opacity="1.0" stroke-linecap="round" stroke-linejoin="round"/>
    <path d="M 342.6671142578125 217.1605224609375 C 332.2198486328125 271.6279296875 308.8223571777344 267.41107177734375 297.96038818359375 278.023681640625" stroke-width="5.0" fill="none" stroke="rgb(0, 0, 0)" stroke-opacity="1.0" stroke-linecap="round" stroke-linejoin="round"/>
    <path d="M 315.0020751953125 195.2410125732422 C 293.4364318847656 172.08973693847656 347.254638671875 170.35549926757812 315.39019775390625 206.41517639160156" stroke-width="5.0" fill="none" stroke="rgb(0, 0, 0)" stroke-opacity="1.0" stroke-linecap="round" stroke-linejoin="round"/>
    <path d="M 152.72982788085938 146.46017456054688 C 159.8267822265625 167.23599243164062 157.56982421875 174.1967010498047 190.1904754638672 169.53236389160156" stroke-width="5.0" fill="none" stroke="rgb(0, 0, 0)" stroke-opacity="1.0" stroke-linecap="round" stroke-linejoin="round"/>
    <path d="M 272.20733642578125 176.60086059570312 C 275.70330810546875 157.06324768066406 303.77386474609375 154.71035766601562 306.2584228515625 203.84474182128906" stroke-width="5.0" fill="none" stroke="rgb(0, 0, 0)" stroke-opacity="1.0" stroke-linecap="round" stroke-linejoin="round"/>
    <path d="M 339.8895263671875 327.3318786621094 C 255.6953125 335.1016540527344 244.72259521484375 350.6358947753906 229.46487426757812 316.0693359375" stroke-width="5.0" fill="none" stroke="rgb(0, 0, 0)" stroke-opacity="1.0" stroke-linecap="round" stroke-linejoin="round"/>
    <path d="M 196.244140625 277.32293701171875 C 194.04855346679688 270.43133544921875 192.86663818359375 273.2796936035156 189.4259796142578 269.9002990722656" stroke-width="5.0" fill="none" stroke="rgb(0, 0, 0)" stroke-opacity="1.0" stroke-linecap="round" stroke-linejoin="round"/>
    <path d="M 216.897216796875 195.2861785888672 C 241.49415588378906 236.52386474609375 205.52406311035156 257.98016357421875 187.7338104248047 223.23695373535156" stroke-width="5.0" fill="none" stroke="rgb(0, 0, 0)" stroke-opacity="1.0" stroke-linecap="round" stroke-linejoin="round"/>
    <path d="M 223.07411193847656 234.9208221435547 C 231.69552612304688 229.66976928710938 231.6597137451172 226.4868621826172 219.82733154296875 233.82333374023438" stroke-width="5.0" fill="none" stroke="rgb(0, 0, 0)" stroke-opacity="1.0" stroke-linecap="round" stroke-linejoin="round"/>
    <path d="M 204.65562438964844 404.1139221191406 C 223.92185974121094 360.6845397949219 171.03582763671875 402.4562072753906 193.3671875 373.88494873046875" stroke-width="5.0" fill="none" stroke="rgb(0, 0, 0)" stroke-opacity="1.0" stroke-linecap="round" stroke-linejoin="round"/>
    <path d="M 257.0535583496094 217.11358642578125 C 232.07318115234375 211.22801208496094 235.7245635986328 162.3824462890625 267.61181640625 180.41162109375" stroke-width="5.0" fill="none" stroke="rgb(0, 0, 0)" stroke-opacity="1.0" stroke-linecap="round" stroke-linejoin="round"/>
    <path d="M 153.9644775390625 187.74679565429688 C 111.62211608886719 246.7550048828125 145.2108612060547 286.27545166015625 165.60487365722656 272.8251647949219" stroke-width="5.0" fill="none" stroke="rgb(0, 0, 0)" stroke-opacity="1.0" stroke-linecap="round" stroke-linejoin="round"/>
    <path d="M 278.6859436035156 334.9669494628906 C 318.0542907714844 308.9538269042969 272.3083190917969 242.61839294433594 285.12420654296875 249.73304748535156" stroke-width="5.0" fill="none" stroke="rgb(0, 0, 0)" stroke-opacity="1.0" stroke-linecap="round" stroke-linejoin="round"/>
    <path d="M 200.03477478027344 377.7386474609375 C 201.1306915283203 432.339111328125 191.44052124023438 395.7141418457031 214.1770477294922 368.8099060058594" stroke-width="5.0" fill="none" stroke="rgb(0, 0, 0)" stroke-opacity="1.0" stroke-linecap="round" stroke-linejoin="round"/>
  </g>
</svg>
