<?xml version="1.0" ?>
<svg xmlns="http://www.w3.org/2000/svg" version="1.1" width="512" height="512">
  <defs/>
  <g>
    <path d="M 207.65687561035156 232.74293518066406 C 198.2840576171875 167.22523498535156 148.79736328125 236.14158630371094 157.5623779296875 283.5185546875" stroke-width="5.0" fill="none" stroke="rgb(0, 0, 0)" stroke-opacity="1.0" stroke-linecap="round" stroke-linejoin="round"/>
    <path d="M 206.43960571289062 193.36912536621094 C 203.59767150878906 160.04074096679688 262.4073181152344 128.18624877929688 288.39105224609375 153.7663116455078" stroke-width="5.0" fill="none" stroke="rgb(0, 0, 0)" stroke-opacity="1.0" stroke-linecap="round" stroke-linejoin="round"/>
    <path d="M 342.22369384765625 194.01138305664062 C 346.4090881347656 191.00360107421875 357.16522216796875 202.4576416015625 333.6346740722656 183.37831115722656" stroke-width="5.0" fill="none" stroke="rgb(0, 0, 0)" stroke-opacity="1.0" stroke-linecap="round" stroke-linejoin="round"/>
    <path d="M 204.3485565185547 432.1860656738281 C 156.98599243164062 289.01763916015625 208.0239715576172 331.58160400390625 205.526123046875 267.2998046875" stroke-width="5.0" fill="none" stroke="rgb(0, 0, 0)" stroke-opacity="1.0" stroke-linecap="round" stroke-linejoin="round"/>
    <path d="M 351.2703857421875 196.5830841064453 C 384.01007080078125 261.87109375 352.2155456542969 216.693603515625 362.807861328125 333.4713439941406" stroke-width="5.0" fill="none" stroke="rgb(0, 0, 0)" stroke-opacity="1.0" stroke-linecap="round" stroke-linejoin="round"/>
    <path d="M 300.2117614746094 229.0404052734375 C 306.9709777832031 209.72286987304688 275.61993408203125 183.781005859375 269.7093505859375 213.5889129638672" stroke-width="5.0" fill="none" stroke="rgb(0, 0, 0)" stroke-opacity="1.0" stroke-linecap="round" stroke-linejoin="round"/>
    <path d="M 255.36842346191406 267.7497253417969 C 305.3539733886719 329.6808776855469 182.9783477783203 343.0185241699219 227.727294921875 264.3173828125" stroke-width="5.0" fill="none" stroke="rgb(0, 0, 0)" stroke-opacity="1.0" stroke-linecap="round" stroke-linejoin="round"/>
    <path d="M 239.02976989746094 260.1203308105469 C 270.093505859375 247.3170623779297 240.0922393798828 238.4697723388672 212.91891479492188 236.2400665283203" stroke-width="5.0" fill="none" stroke="rgb(0, 0, 0)" stroke-opacity="1.0" stroke-linecap="round" stroke-linejoin="round"/>
    <path d="M 184.90554809570312 197.86029052734375 C 172.88458251953125 211.86419677734375 185.72760009765625 181.94851684570312 205.60354614257812 198.64598083496094" stroke-width="5.0" fill="none" stroke="rgb(0, 0, 0)" stroke-opacity="1.0" stroke-linecap="round" stroke-linejoin="round"/>
    <path d="M 294.9821472167969 240.6680908203125 C 311.0763244628906 216.32369995117188 299.8450927734375 228.97708129882812 297.4226379394531 236.41241455078125" stroke-width="5.0" fill="none" stroke="rgb(0, 0, 0)" stroke-opacity="1.0" stroke-linecap="round" stroke-linejoin="round"/>
    <path d="M 166.1486053466797 274.9491271972656 C 225.05545043945312 251.22573852539062 228.8860626220703 266.4832458496094 240.26670837402344 258.6736755371094" stroke-width="5.0" fill="none" stroke="rgb(0, 0, 0)" stroke-opacity="1.0" stroke-linecap="round" stroke-linejoin="round"/>
    <path d="M 366.9963684082031 338.28857421875 C 351.50439453125 328.7795715332031 371.2328186035156 348.50714111328125 501.5588684082031 368.1857604980469" stroke-width="5.0" fill="none" stroke="rgb(0, 0, 0)" stroke-opacity="1.0" stroke-linecap="round" stroke-linejoin="round"/>
    <path d="M 288.7966613769531 201.4112091064453 C 252.6107177734375 191.12220764160156 303.23431396484375 233.19297790527344 268.5572814941406 225.59332275390625" stroke-width="5.0" fill="none" stroke="rgb(0, 0, 0)" stroke-opacity="1.0" stroke-linecap="round" stroke-linejoin="round"/>
    <path d="M 304.1251525878906 216.0856170654297 C 299.00262451171875 288.70379638671875 190.48744201660156 214.0734100341797 281.6600341796875 197.93038940429688" stroke-width="5.0" fill="none" stroke="rgb(0, 0, 0)" stroke-opacity="1.0" stroke-linecap="round" stroke-linejoin="round"/>
    <path d="M 265.8089294433594 108.62722778320312 C 331.7315368652344 170.03012084960938 328.068603515625 122.96336364746094 332.51763916015625 181.78953552246094" stroke-width="5.0" fill="none" stroke="rgb(0, 0, 0)" stroke-opacity="1.0" stroke-linecap="round" stroke-linejoin="round"/>
    <path d="M 233.8330841064453 247.9560089111328 C 232.81082153320312 248.07281494140625 191.62353515625 239.4546661376953 159.50123596191406 284.56146240234375" stroke-width="5.0" fill="none" stroke="rgb(0, 0, 0)" stroke-opacity="1.0" stroke-linecap="round" stroke-linejoin="round"/>
    <path d="M 334.0684509277344 186.01535034179688 C 336.36688232421875 207.0516357421875 326.996337890625 149.31369018554688 360.86029052734375 161.30148315429688" stroke-width="5.0" fill="none" stroke="rgb(0, 0, 0)" stroke-opacity="1.0" stroke-linecap="round" stroke-linejoin="round"/>
    <path d="M 290.4193115234375 221.7642822265625 C 289.0128479003906 236.64793395996094 264.2427062988281 258.6232604980469 225.22897338867188 238.08526611328125" stroke-width="5.0" fill="none" stroke="rgb(0, 0, 0)" stroke-opacity="1.0" stroke-linecap="round" stroke-linejoin="round"/>
    <path d="M 357.0751037597656 191.72402954101562 C 371.4631042480469 174.9859161376953 326.48150634765625 179.9150848388672 362.5849914550781 162.13510131835938" stroke-width="5.0" fill="none" stroke="rgb(0, 0, 0)" stroke-opacity="1.0" stroke-linecap="round" stroke-linejoin="round"/>
    <path d="M 343.4087219238281 197.41015625 C 312.7183837890625 248.50555419921875 292.1549072265625 252.18301391601562 287.212890625 268.24053955078125" stroke-width="5.0" fill="none" stroke="rgb(0, 0, 0)" stroke-opacity="1.0" stroke-linecap="round" stroke-linejoin="round"/>
    <path d="M 308.9525451660156 187.21243286132812 C 276.7255859375 153.9964141845703 343.6277770996094 178.53240966796875 304.11492919921875 211.96693420410156" stroke-width="5.0" fill="none" stroke="rgb(0, 0, 0)" stroke-opacity="1.0" stroke-linecap="round" stroke-linejoin="round"/>
    <path d="M 150.69313049316406 114.94373321533203 C 182.73388671875 191.7056427001953 152.125244140625 223.0750274658203 170.7100830078125 173.20361328125" stroke-width="5.0" fill="none" stroke="rgb(0, 0, 0)" stroke-opacity="1.0" stroke-linecap="round" stroke-linejoin="round"/>
    <path d="M 263.5284423828125 168.7718505859375 C 271.4562683105469 152.45867919921875 304.4466857910156 161.4091796875 296.4216003417969 203.51425170898438" stroke-width="5.0" fill="none" stroke="rgb(0, 0, 0)" stroke-opacity="1.0" stroke-linecap="round" stroke-linejoin="round"/>
    <path d="M 335.71044921875 334.6436462402344 C 252.22312927246094 312.4187316894531 228.87318420410156 366.7286682128906 204.72378540039062 294.30450439453125" stroke-width="5.0" fill="none" stroke="rgb(0, 0, 0)" stroke-opacity="1.0" stroke-linecap="round" stroke-linejoin="round"/>
    <path d="M 176.50579833984375 271.5273132324219 C 176.80284118652344 264.67388916015625 194.71083068847656 271.54205322265625 190.55838012695312 267.9227294921875" stroke-width="5.0" fill="none" stroke="rgb(0, 0, 0)" stroke-opacity="1.0" stroke-linecap="round" stroke-linejoin="round"/>
    <path d="M 226.4191436767578 236.04757690429688 C 237.6044464111328 230.5615692138672 172.7333984375 252.11138916015625 179.84710693359375 212.6779022216797" stroke-width="5.0" fill="none" stroke="rgb(0, 0, 0)" stroke-opacity="1.0" stroke-linecap="round" stroke-linejoin="round"/>
    <path d="M 218.724853515625 234.06414794921875 C 212.59243774414062 234.9160919189453 226.89010620117188 238.23995971679688 211.89881896972656 230.33853149414062" stroke-width="5.0" fill="none" stroke="rgb(0, 0, 0)" stroke-opacity="1.0" stroke-linecap="round" stroke-linejoin="round"/>
    <path d="M 217.3735809326172 408.99676513671875 C 213.41184997558594 365.0664367675781 176.0907440185547 418.6388244628906 197.11155700683594 389.552978515625" stroke-width="5.0" fill="none" stroke="rgb(0, 0, 0)" stroke-opacity="1.0" stroke-linecap="round" stroke-linejoin="round"/>
    <path d="M 237.75025939941406 221.78749084472656 C 219.1113739013672 206.41502380371094 221.91250610351562 152.69842529296875 263.11273193359375 173.1842041015625" stroke-width="5.0" fill="none" stroke="rgb(0, 0, 0)" stroke-opacity="1.0" stroke-linecap="round" stroke-linejoin="round"/>
    <path d="M 176.797119140625 181.75228881835938 C 119.77162170410156 278.5849609375 137.39732360839844 310.3121643066406 176.1923370361328 288.08624267578125" stroke-width="5.0" fill="none" stroke="rgb(0, 0, 0)" stroke-opacity="1.0" stroke-linecap="round" stroke-linejoin="round"/>
    <path d="M 262.5966491699219 330.08599853515625 C 309.4225769042969 311.6658020019531 269.5718078613281 231.4489288330078 275.5609130859375 237.40611267089844" stroke-width="5.0" fill="none" stroke="rgb(0, 0, 0)" stroke-opacity="1.0" stroke-linecap="round" stroke-linejoin="round"/>
    <path d="M 208.63967895507812 406.06646728515625 C 218.5965118408203 463.636962890625 178.97364807128906 417.595458984375 195.88711547851562 389.5198974609375" stroke-width="5.0" fill="none" stroke="rgb(0, 0, 0)" stroke-opacity="1.0" stroke-linecap="round" stroke-linejoin="round"/>
  </g>
</svg>
