<?xml version="1.0" ?>
<svg xmlns="http://www.w3.org/2000/svg" version="1.1" width="512" height="512">
  <defs/>
  <g>
    <path d="M 231.45010375976562 236.34201049804688 C 211.5293731689453 177.1372528076172 173.6919708251953 251.9345703125 180.79196166992188 275.5306091308594" stroke-width="5.0" fill="none" stroke="rgb(0, 0, 0)" stroke-opacity="1.0" stroke-linecap="round" stroke-linejoin="round"/>
    <path d="M 207.50967407226562 200.94149780273438 C 223.91050720214844 163.62986755371094 231.88320922851562 151.18841552734375 288.0308532714844 152.63328552246094" stroke-width="5.0" fill="none" stroke="rgb(0, 0, 0)" stroke-opacity="1.0" stroke-linecap="round" stroke-linejoin="round"/>
    <path d="M 365.3952941894531 179.3249969482422 C 374.24627685546875 156.8166961669922 378.51556396484375 166.1741943359375 341.3636779785156 171.73681640625" stroke-width="5.0" fill="none" stroke="rgb(0, 0, 0)" stroke-opacity="1.0" stroke-linecap="round" stroke-linejoin="round"/>
    <path d="M 225.65745544433594 379.5147705078125 C 209.83570861816406 315.38421630859375 227.44248962402344 339.9331359863281 238.03863525390625 288.2134704589844" stroke-width="5.0" fill="none" stroke="rgb(0, 0, 0)" stroke-opacity="1.0" stroke-linecap="round" stroke-linejoin="round"/>
    <path d="M 354.7461242675781 195.75486755371094 C 369.34649658203125 223.55010986328125 354.49041748046875 192.394287109375 357.8460693359375 256.3054504394531" stroke-width="5.0" fill="none" stroke="rgb(0, 0, 0)" stroke-opacity="1.0" stroke-linecap="round" stroke-linejoin="round"/>
    <path d="M 309.5921936035156 228.62368774414062 C 325.790283203125 208.6784210205078 305.6097412109375 195.42730712890625 307.6739807128906 195.11190795898438" stroke-width="5.0" fill="none" stroke="rgb(0, 0, 0)" stroke-opacity="1.0" stroke-linecap="round" stroke-linejoin="round"/>
    <path d="M 253.53509521484375 275.72247314453125 C 291.6440734863281 340.357666015625 212.0901336669922 353.92327880859375 225.7066650390625 266.1762390136719" stroke-width="5.0" fill="none" stroke="rgb(0, 0, 0)" stroke-opacity="1.0" stroke-linecap="round" stroke-linejoin="round"/>
    <path d="M 265.9097595214844 250.8732452392578 C 262.02288818359375 229.78553771972656 249.65216064453125 245.4026336669922 219.72056579589844 233.552490234375" stroke-width="5.0" fill="none" stroke="rgb(0, 0, 0)" stroke-opacity="1.0" stroke-linecap="round" stroke-linejoin="round"/>
    <path d="M 202.8592529296875 220.38046264648438 C 216.80775451660156 214.55929565429688 194.8361053466797 220.94297790527344 207.49346923828125 194.68763732910156" stroke-width="5.0" fill="none" stroke="rgb(0, 0, 0)" stroke-opacity="1.0" stroke-linecap="round" stroke-linejoin="round"/>
    <path d="M 309.2880859375 232.2135467529297 C 312.6251220703125 222.4755096435547 317.58416748046875 222.366943359375 302.6444396972656 235.4521484375" stroke-width="5.0" fill="none" stroke="rgb(0, 0, 0)" stroke-opacity="1.0" stroke-linecap="round" stroke-linejoin="round"/>
    <path d="M 200.10958862304688 267.3063659667969 C 253.47499084472656 260.9814453125 234.33694458007812 261.77581787109375 235.2699432373047 265.53271484375" stroke-width="5.0" fill="none" stroke="rgb(0, 0, 0)" stroke-opacity="1.0" stroke-linecap="round" stroke-linejoin="round"/>
    <path d="M 321.9743957519531 314.1135559082031 C 329.5386962890625 318.16107177734375 367.3663024902344 364.9898376464844 449.9715270996094 387.0707092285156" stroke-width="5.0" fill="none" stroke="rgb(0, 0, 0)" stroke-opacity="1.0" stroke-linecap="round" stroke-linejoin="round"/>
    <path d="M 297.5808410644531 193.77088928222656 C 268.8929748535156 178.32415771484375 291.2821960449219 238.81793212890625 288.4020080566406 203.46119689941406" stroke-width="5.0" fill="none" stroke="rgb(0, 0, 0)" stroke-opacity="1.0" stroke-linecap="round" stroke-linejoin="round"/>
    <path d="M 303.1157531738281 197.77145385742188 C 319.7650451660156 241.83169555664062 240.05950927734375 225.4429168701172 279.5182800292969 196.52635192871094" stroke-width="5.0" fill="none" stroke="rgb(0, 0, 0)" stroke-opacity="1.0" stroke-linecap="round" stroke-linejoin="round"/>
    <path d="M 314.08074951171875 139.04612731933594 C 337.0603332519531 178.0742950439453 350.301025390625 115.05213165283203 343.739013671875 173.89552307128906" stroke-width="5.0" fill="none" stroke="rgb(0, 0, 0)" stroke-opacity="1.0" stroke-linecap="round" stroke-linejoin="round"/>
    <path d="M 248.91119384765625 247.82394409179688 C 235.4756317138672 245.87181091308594 206.39053344726562 254.61447143554688 184.676513671875 278.68438720703125" stroke-width="5.0" fill="none" stroke="rgb(0, 0, 0)" stroke-opacity="1.0" stroke-linecap="round" stroke-linejoin="round"/>
    <path d="M 355.3190002441406 181.66207885742188 C 342.02520751953125 161.38568115234375 346.745361328125 184.16822814941406 359.2053527832031 172.30764770507812" stroke-width="5.0" fill="none" stroke="rgb(0, 0, 0)" stroke-opacity="1.0" stroke-linecap="round" stroke-linejoin="round"/>
    <path d="M 296.79827880859375 240.68702697753906 C 307.2039794921875 233.7528533935547 262.9025573730469 257.9476623535156 249.7344207763672 239.194091796875" stroke-width="5.0" fill="none" stroke="rgb(0, 0, 0)" stroke-opacity="1.0" stroke-linecap="round" stroke-linejoin="round"/>
    <path d="M 361.4716796875 209.9794158935547 C 345.7767333984375 161.85711669921875 341.8367919921875 172.78958129882812 363.3642272949219 152.65447998046875" stroke-width="5.0" fill="none" stroke="rgb(0, 0, 0)" stroke-opacity="1.0" stroke-linecap="round" stroke-linejoin="round"/>
    <path d="M 352.8387145996094 242.24282836914062 C 343.1460266113281 271.6047058105469 312.7304382324219 272.2880859375 290.61517333984375 279.76739501953125" stroke-width="5.0" fill="none" stroke="rgb(0, 0, 0)" stroke-opacity="1.0" stroke-linecap="round" stroke-linejoin="round"/>
    <path d="M 312.8476257324219 180.213134765625 C 307.208740234375 168.38638305664062 336.6504821777344 173.63961791992188 310.095947265625 203.76524353027344" stroke-width="5.0" fill="none" stroke="rgb(0, 0, 0)" stroke-opacity="1.0" stroke-linecap="round" stroke-linejoin="round"/>
    <path d="M 177.30052185058594 141.40322875976562 C 161.830810546875 168.24868774414062 168.87742614746094 191.7762451171875 192.35006713867188 172.71730041503906" stroke-width="5.0" fill="none" stroke="rgb(0, 0, 0)" stroke-opacity="1.0" stroke-linecap="round" stroke-linejoin="round"/>
    <path d="M 275.450439453125 174.2166290283203 C 278.59490966796875 154.4825897216797 308.4855651855469 150.0044708251953 309.33319091796875 193.24082946777344" stroke-width="5.0" fill="none" stroke="rgb(0, 0, 0)" stroke-opacity="1.0" stroke-linecap="round" stroke-linejoin="round"/>
    <path d="M 318.1037292480469 317.185546875 C 254.1862030029297 333.15234375 259.1864318847656 343.411376953125 231.39967346191406 325.9120178222656" stroke-width="5.0" fill="none" stroke="rgb(0, 0, 0)" stroke-opacity="1.0" stroke-linecap="round" stroke-linejoin="round"/>
    <path d="M 201.75521850585938 270.0529479980469 C 201.841064453125 263.8973388671875 188.54702758789062 263.84295654296875 199.12721252441406 265.95172119140625" stroke-width="5.0" fill="none" stroke="rgb(0, 0, 0)" stroke-opacity="1.0" stroke-linecap="round" stroke-linejoin="round"/>
    <path d="M 213.0622100830078 197.0988311767578 C 249.52491760253906 221.1446990966797 227.02481079101562 237.86865234375 210.13458251953125 231.413330078125" stroke-width="5.0" fill="none" stroke="rgb(0, 0, 0)" stroke-opacity="1.0" stroke-linecap="round" stroke-linejoin="round"/>
    <path d="M 223.9612579345703 236.91567993164062 C 224.05567932128906 238.2598876953125 222.95814514160156 233.2332000732422 215.31454467773438 236.12318420410156" stroke-width="5.0" fill="none" stroke="rgb(0, 0, 0)" stroke-opacity="1.0" stroke-linecap="round" stroke-linejoin="round"/>
    <path d="M 210.29383850097656 388.640625 C 236.51162719726562 329.96319580078125 190.34262084960938 377.04217529296875 200.7281494140625 375.9335632324219" stroke-width="5.0" fill="none" stroke="rgb(0, 0, 0)" stroke-opacity="1.0" stroke-linecap="round" stroke-linejoin="round"/>
    <path d="M 262.0365295410156 216.031494140625 C 231.7295684814453 208.42092895507812 231.16783142089844 151.32470703125 275.1634521484375 173.5605926513672" stroke-width="5.0" fill="none" stroke="rgb(0, 0, 0)" stroke-opacity="1.0" stroke-linecap="round" stroke-linejoin="round"/>
    <path d="M 147.83767700195312 207.01414489746094 C 106.0384750366211 232.75216674804688 149.93777465820312 279.9874572753906 179.7203826904297 258.9476623535156" stroke-width="5.0" fill="none" stroke="rgb(0, 0, 0)" stroke-opacity="1.0" stroke-linecap="round" stroke-linejoin="round"/>
    <path d="M 281.70916748046875 329.7076110839844 C 315.17816162109375 295.4045715332031 268.0888671875 235.6632843017578 281.3784484863281 251.8558807373047" stroke-width="5.0" fill="none" stroke="rgb(0, 0, 0)" stroke-opacity="1.0" stroke-linecap="round" stroke-linejoin="round"/>
    <path d="M 218.63275146484375 359.7619934082031 C 195.99127197265625 392.0417785644531 192.9799346923828 369.9768981933594 212.11068725585938 355.4687805175781" stroke-width="5.0" fill="none" stroke="rgb(0, 0, 0)" stroke-opacity="1.0" stroke-linecap="round" stroke-linejoin="round"/>
  </g>
</svg>
