<?xml version="1.0" ?>
<svg xmlns="http://www.w3.org/2000/svg" version="1.1" width="512" height="512">
  <defs/>
  <g>
    <path d="M 180.12191772460938 281.3296203613281 C 177.58966064453125 336.4227294921875 210.3881072998047 305.9151306152344 215.03114318847656 295.06329345703125" stroke-width="5.0" fill="none" stroke="rgb(0, 0, 0)" stroke-opacity="1.0" stroke-linecap="round" stroke-linejoin="round"/>
    <path d="M 248.21278381347656 199.92201232910156 C 206.54678344726562 201.1820068359375 240.25355529785156 219.83128356933594 247.4131622314453 201.54550170898438" stroke-width="5.0" fill="none" stroke="rgb(0, 0, 0)" stroke-opacity="1.0" stroke-linecap="round" stroke-linejoin="round"/>
    <path d="M 239.10350036621094 229.30758666992188 C 234.22462463378906 277.6064147949219 281.9541015625 239.59344482421875 215.72825622558594 286.2860412597656" stroke-width="5.0" fill="none" stroke="rgb(0, 0, 0)" stroke-opacity="1.0" stroke-linecap="round" stroke-linejoin="round"/>
    <path d="M 234.71751403808594 261.66558837890625 C 205.09844970703125 287.2489318847656 222.64671325683594 266.0299987792969 198.83010864257812 292.5078125" stroke-width="5.0" fill="none" stroke="rgb(0, 0, 0)" stroke-opacity="1.0" stroke-linecap="round" stroke-linejoin="round"/>
    <path d="M 273.85076904296875 146.55677795410156 C 315.96697998046875 151.75930786132812 327.9881286621094 182.0750274658203 411.2434997558594 195.63973999023438" stroke-width="5.0" fill="none" stroke="rgb(0, 0, 0)" stroke-opacity="1.0" stroke-linecap="round" stroke-linejoin="round"/>
    <path d="M 208.9054718017578 312.10711669921875 C 169.17286682128906 308.27593994140625 161.19505310058594 275.3304443359375 186.60482788085938 256.4922790527344" stroke-width="5.0" fill="none" stroke="rgb(0, 0, 0)" stroke-opacity="1.0" stroke-linecap="round" stroke-linejoin="round"/>
    <path d="M 297.3891296386719 237.6342010498047 C 330.1377868652344 234.26712036132812 293.7311096191406 294.4683837890625 294.07440185546875 307.151611328125" stroke-width="5.0" fill="none" stroke="rgb(0, 0, 0)" stroke-opacity="1.0" stroke-linecap="round" stroke-linejoin="round"/>
    <path d="M 230.9640655517578 260.6363220214844 C 254.86463928222656 271.3004455566406 309.8543701171875 266.06451416015625 277.6548767089844 186.57455444335938" stroke-width="5.0" fill="none" stroke="rgb(0, 0, 0)" stroke-opacity="1.0" stroke-linecap="round" stroke-linejoin="round"/>
    <path d="M 272.6166076660156 150.65708923339844 C 272.4218444824219 113.27477264404297 246.38511657714844 117.30477905273438 255.43563842773438 153.7137451171875" stroke-width="5.0" fill="none" stroke="rgb(0, 0, 0)" stroke-opacity="1.0" stroke-linecap="round" stroke-linejoin="round"/>
    <path d="M 188.56199645996094 249.5245361328125 C 209.31991577148438 220.39808654785156 207.69947814941406 223.72935485839844 216.30181884765625 195.8915252685547" stroke-width="5.0" fill="none" stroke="rgb(0, 0, 0)" stroke-opacity="1.0" stroke-linecap="round" stroke-linejoin="round"/>
    <path d="M 353.1652526855469 175.56634521484375 C 303.5248107910156 153.6595458984375 261.1895751953125 141.82449340820312 359.6708068847656 156.19578552246094" stroke-width="5.0" fill="none" stroke="rgb(0, 0, 0)" stroke-opacity="1.0" stroke-linecap="round" stroke-linejoin="round"/>
    <path d="M 348.0104064941406 216.94851684570312 C 323.01348876953125 268.43426513671875 330.18878173828125 244.64068603515625 288.2237243652344 239.00730895996094" stroke-width="5.0" fill="none" stroke="rgb(0, 0, 0)" stroke-opacity="1.0" stroke-linecap="round" stroke-linejoin="round"/>
    <path d="M 295.43243408203125 237.14218139648438 C 253.3422088623047 274.9617919921875 270.231689453125 257.6953125 285.6593322753906 354.938720703125" stroke-width="5.0" fill="none" stroke="rgb(0, 0, 0)" stroke-opacity="1.0" stroke-linecap="round" stroke-linejoin="round"/>
    <path d="M 344.7958679199219 312.2726745605469 C 358.5992736816406 276.8950500488281 339.9400634765625 270.515869140625 319.9171447753906 248.60275268554688" stroke-width="5.0" fill="none" stroke="rgb(0, 0, 0)" stroke-opacity="1.0" stroke-linecap="round" stroke-linejoin="round"/>
    <path d="M 218.0082244873047 195.66668701171875 C 247.9151611328125 173.58563232421875 209.68263244628906 154.41065979003906 300.9328308105469 149.53892517089844" stroke-width="5.0" fill="none" stroke="rgb(0, 0, 0)" stroke-opacity="1.0" stroke-linecap="round" stroke-linejoin="round"/>
    <path d="M 342.8674621582031 360.39935302734375 C 360.4361877441406 327.0167236328125 335.6573791503906 326.8472595214844 346.3953857421875 301.3541564941406" stroke-width="5.0" fill="none" stroke="rgb(0, 0, 0)" stroke-opacity="1.0" stroke-linecap="round" stroke-linejoin="round"/>
  </g>
</svg>
