<?xml version="1.0" ?>
<svg xmlns="http://www.w3.org/2000/svg" version="1.1" width="512" height="512">
  <defs/>
  <g>
    <path d="M 180.12191772460938 281.3296203613281 C 177.58966064453125 336.4227294921875 210.3881072998047 305.9151306152344 215.03114318847656 295.06329345703125" stroke-width="5.0" fill="none" stroke="rgb(31, 119, 180)" stroke-opacity="1.0" stroke-linecap="round" stroke-linejoin="round"/>
    <path d="M 248.21278381347656 199.92201232910156 C 206.54678344726562 201.1820068359375 240.25355529785156 219.83128356933594 247.4131622314453 201.54550170898438" stroke-width="5.0" fill="none" stroke="rgb(31, 119, 180)" stroke-opacity="1.0" stroke-linecap="round" stroke-linejoin="round"/>
    <path d="M 239.10350036621094 229.30758666992188 C 234.22462463378906 277.6064147949219 281.9541015625 239.59344482421875 215.72825622558594 286.2860412597656" stroke-width="5.0" fill="none" stroke="rgb(31, 119, 180)" stroke-opacity="1.0" stroke-linecap="round" stroke-linejoin="round"/>
    <path d="M 234.71751403808594 261.66558837890625 C 205.09844970703125 287.2489318847656 222.64671325683594 266.0299987792969 198.83010864257812 292.5078125" stroke-width="5.0" fill="none" stroke="rgb(31, 119, 180)" stroke-opacity="1.0" stroke-linecap="round" stroke-linejoin="round"/>
    <path d="M 273.85076904296875 146.55677795410156 C 315.96697998046875 151.75930786132812 327.9881286621094 182.0750274658203 411.2434997558594 195.63973999023438" stroke-width="5.0" fill="none" stroke="rgb(31, 119, 180)" stroke-opacity="1.0" stroke-linecap="round" stroke-linejoin="round"/>
    <path d="M 208.9054718017578 312.10711669921875 C 169.17286682128906 308.27593994140625 161.19505310058594 275.3304443359375 186.60482788085938 256.4922790527344" stroke-width="5.0" fill="none" stroke="rgb(31, 119, 180)" stroke-opacity="1.0" stroke-linecap="round" stroke-linejoin="round"/>
    <path d="M 297.3891296386719 237.6342010498047 C 330.1377868652344 234.26712036132812 293.7311096191406 294.4683837890625 294.07440185546875 307.151611328125" stroke-width="5.0" fill="none" stroke="rgb(31, 119, 180)" stroke-opacity="1.0" stroke-linecap="round" stroke-linejoin="round"/>
    <path d="M 230.9640655517578 260.6363220214844 C 254.86463928222656 271.3004455566406 309.8543701171875 266.06451416015625 277.6548767089844 186.57455444335938" stroke-width="5.0" fill="none" stroke="rgb(31, 119, 180)" stroke-opacity="1.0" stroke-linecap="round" stroke-linejoin="round"/>
    <path d="M 272.6166076660156 150.65708923339844 C 272.4218444824219 113.27477264404297 246.38511657714844 117.30477905273438 255.43563842773438 153.7137451171875" stroke-width="5.0" fill="none" stroke="rgb(31, 119, 180)" stroke-opacity="1.0" stroke-linecap="round" stroke-linejoin="round"/>
    <path d="M 188.56199645996094 249.5245361328125 C 209.31991577148438 220.39808654785156 207.69947814941406 223.72935485839844 216.30181884765625 195.8915252685547" stroke-width="5.0" fill="none" stroke="rgb(31, 119, 180)" stroke-opacity="1.0" stroke-linecap="round" stroke-linejoin="round"/>
    <path d="M 353.1652526855469 175.56634521484375 C 303.5248107910156 153.6595458984375 261.1895751953125 141.82449340820312 359.6708068847656 156.19578552246094" stroke-width="5.0" fill="none" stroke="rgb(31, 119, 180)" stroke-opacity="1.0" stroke-linecap="round" stroke-linejoin="round"/>
    <path d="M 348.0104064941406 216.94851684570312 C 323.01348876953125 268.43426513671875 330.18878173828125 244.64068603515625 288.2237243652344 239.00730895996094" stroke-width="5.0" fill="none" stroke="rgb(31, 119, 180)" stroke-opacity="1.0" stroke-linecap="round" stroke-linejoin="round"/>
    <path d="M 295.43243408203125 237.14218139648438 C 253.3422088623047 274.9617919921875 270.231689453125 257.6953125 285.6593322753906 354.938720703125" stroke-width="5.0" fill="none" stroke="rgb(31, 119, 180)" stroke-opacity="1.0" stroke-linecap="round" stroke-linejoin="round"/>
    <path d="M 344.7958679199219 312.2726745605469 C 358.5992736816406 276.8950500488281 339.9400634765625 270.515869140625 319.9171447753906 248.60275268554688" stroke-width="5.0" fill="none" stroke="rgb(31, 119, 180)" stroke-opacity="1.0" stroke-linecap="round" stroke-linejoin="round"/>
    <path d="M 218.0082244873047 195.66668701171875 C 247.9151611328125 173.58563232421875 209.68263244628906 154.41065979003906 300.9328308105469 149.53892517089844" stroke-width="5.0" fill="none" stroke="rgb(31, 119, 180)" stroke-opacity="1.0" stroke-linecap="round" stroke-linejoin="round"/>
    <path d="M 342.8674621582031 360.39935302734375 C 360.4361877441406 327.0167236328125 335.6573791503906 326.8472595214844 346.3953857421875 301.3541564941406" stroke-width="5.0" fill="none" stroke="rgb(31, 119, 180)" stroke-opacity="1.0" stroke-linecap="round" stroke-linejoin="round"/>
    <path d="M 283.6391906738281 197.1082763671875 C 211.64002990722656 160.35997009277344 182.41062927246094 223.61805725097656 244.55532836914062 263.288818359375" stroke-width="5.0" fill="none" stroke="rgb(255, 127, 14)" stroke-opacity="1.0" stroke-linecap="round" stroke-linejoin="round"/>
    <path d="M 298.70611572265625 336.0364990234375 C 236.87969970703125 327.0445556640625 238.0296173095703 383.251953125 253.9075927734375 350.8694763183594" stroke-width="5.0" fill="none" stroke="rgb(255, 127, 14)" stroke-opacity="1.0" stroke-linecap="round" stroke-linejoin="round"/>
    <path d="M 233.99864196777344 183.3455352783203 C 222.84327697753906 187.57366943359375 222.62814331054688 150.5089111328125 266.5707702636719 156.1287384033203" stroke-width="5.0" fill="none" stroke="rgb(255, 127, 14)" stroke-opacity="1.0" stroke-linecap="round" stroke-linejoin="round"/>
    <path d="M 334.1766662597656 180.03382873535156 C 337.8251647949219 189.88690185546875 347.204345703125 160.91835021972656 279.1345520019531 144.64308166503906" stroke-width="5.0" fill="none" stroke="rgb(255, 127, 14)" stroke-opacity="1.0" stroke-linecap="round" stroke-linejoin="round"/>
    <path d="M 222.01211547851562 246.93533325195312 C 178.48851013183594 250.4672088623047 183.38710021972656 265.2650146484375 189.1619415283203 256.958984375" stroke-width="5.0" fill="none" stroke="rgb(255, 127, 14)" stroke-opacity="1.0" stroke-linecap="round" stroke-linejoin="round"/>
    <path d="M 288.3580627441406 317.41656494140625 C 313.18890380859375 346.1075439453125 341.2674865722656 329.4321594238281 353.4402160644531 294.8048095703125" stroke-width="5.0" fill="none" stroke="rgb(255, 127, 14)" stroke-opacity="1.0" stroke-linecap="round" stroke-linejoin="round"/>
    <path d="M 348.0064697265625 153.21986389160156 C 335.7221984863281 148.6438446044922 353.6341857910156 138.21340942382812 360.9287109375 157.2745361328125" stroke-width="5.0" fill="none" stroke="rgb(255, 127, 14)" stroke-opacity="1.0" stroke-linecap="round" stroke-linejoin="round"/>
    <path d="M 353.6044921875 298.9468078613281 C 337.83306884765625 257.4268798828125 352.99053955078125 282.5215148925781 340.6357116699219 265.4776611328125" stroke-width="5.0" fill="none" stroke="rgb(255, 127, 14)" stroke-opacity="1.0" stroke-linecap="round" stroke-linejoin="round"/>
    <path d="M 146.74969482421875 368.17596435546875 C 73.00164794921875 296.2011413574219 168.73028564453125 273.81707763671875 178.3708953857422 327.955078125" stroke-width="5.0" fill="none" stroke="rgb(255, 127, 14)" stroke-opacity="1.0" stroke-linecap="round" stroke-linejoin="round"/>
    <path d="M 294.6206359863281 196.90614318847656 C 278.7957458496094 200.7043914794922 313.2889099121094 239.7904510498047 226.5238037109375 233.58140563964844" stroke-width="5.0" fill="none" stroke="rgb(255, 127, 14)" stroke-opacity="1.0" stroke-linecap="round" stroke-linejoin="round"/>
    <path d="M 270.14886474609375 284.52337646484375 C 257.1585998535156 248.93553161621094 253.5890655517578 274.2148742675781 302.8357238769531 274.4251403808594" stroke-width="5.0" fill="none" stroke="rgb(255, 127, 14)" stroke-opacity="1.0" stroke-linecap="round" stroke-linejoin="round"/>
    <path d="M 182.88226318359375 303.8412170410156 C 191.4210662841797 305.7159118652344 167.2681427001953 335.451904296875 181.54931640625 255.942138671875" stroke-width="5.0" fill="none" stroke="rgb(255, 127, 14)" stroke-opacity="1.0" stroke-linecap="round" stroke-linejoin="round"/>
    <path d="M 324.1296081542969 165.06455993652344 C 341.4101257324219 136.6502685546875 398.4385986328125 169.10873413085938 345.1346435546875 203.7598114013672" stroke-width="5.0" fill="none" stroke="rgb(255, 127, 14)" stroke-opacity="1.0" stroke-linecap="round" stroke-linejoin="round"/>
    <path d="M 129.83355712890625 317.12408447265625 C 108.93540954589844 301.0357360839844 149.49264526367188 306.60455322265625 157.59237670898438 329.46630859375" stroke-width="5.0" fill="none" stroke="rgb(255, 127, 14)" stroke-opacity="1.0" stroke-linecap="round" stroke-linejoin="round"/>
    <path d="M 208.93833923339844 350.2344055175781 C 213.56710815429688 380.5810852050781 148.64035034179688 368.37286376953125 259.006591796875 409.1291809082031" stroke-width="5.0" fill="none" stroke="rgb(255, 127, 14)" stroke-opacity="1.0" stroke-linecap="round" stroke-linejoin="round"/>
    <path d="M 344.0672607421875 353.5959167480469 C 301.3419189453125 411.13397216796875 354.2709045410156 357.3175964355469 305.81427001953125 336.4953308105469" stroke-width="5.0" fill="none" stroke="rgb(255, 127, 14)" stroke-opacity="1.0" stroke-linecap="round" stroke-linejoin="round"/>
    <path d="M 275.9191589355469 181.4171905517578 C 177.66519165039062 208.9847869873047 233.9176788330078 177.64674377441406 220.81626892089844 143.8662109375" stroke-width="5.0" fill="none" stroke="rgb(44, 160, 44)" stroke-opacity="1.0" stroke-linecap="round" stroke-linejoin="round"/>
    <path d="M 202.0290985107422 364.7723388671875 C 227.03768920898438 332.5030212402344 216.69834899902344 294.5130615234375 209.66220092773438 321.2525329589844" stroke-width="5.0" fill="none" stroke="rgb(44, 160, 44)" stroke-opacity="1.0" stroke-linecap="round" stroke-linejoin="round"/>
    <path d="M 263.3737487792969 247.00796508789062 C 204.27944946289062 252.37498474121094 263.8625793457031 183.1343994140625 275.2470703125 234.3268280029297" stroke-width="5.0" fill="none" stroke="rgb(44, 160, 44)" stroke-opacity="1.0" stroke-linecap="round" stroke-linejoin="round"/>
    <path d="M 226.11468505859375 278.8205871582031 C 258.6559143066406 272.0157165527344 206.60707092285156 253.2987823486328 253.64805603027344 226.03858947753906" stroke-width="5.0" fill="none" stroke="rgb(44, 160, 44)" stroke-opacity="1.0" stroke-linecap="round" stroke-linejoin="round"/>
    <path d="M 410.2144775390625 198.9720001220703 C 331.28704833984375 193.98782348632812 308.95184326171875 156.80870056152344 318.5633239746094 164.0404510498047" stroke-width="5.0" fill="none" stroke="rgb(44, 160, 44)" stroke-opacity="1.0" stroke-linecap="round" stroke-linejoin="round"/>
    <path d="M 228.65919494628906 258.5892639160156 C 210.90011596679688 220.42782592773438 202.36544799804688 286.6987609863281 199.3148193359375 303.5055847167969" stroke-width="5.0" fill="none" stroke="rgb(44, 160, 44)" stroke-opacity="1.0" stroke-linecap="round" stroke-linejoin="round"/>
    <path d="M 336.8095397949219 164.2984161376953 C 350.7963562011719 151.65463256835938 340.6402893066406 158.26199340820312 317.6141052246094 254.7262725830078" stroke-width="5.0" fill="none" stroke="rgb(44, 160, 44)" stroke-opacity="1.0" stroke-linecap="round" stroke-linejoin="round"/>
    <path d="M 222.08531188964844 165.1658172607422 C 188.06797790527344 172.43748474121094 193.17514038085938 122.09564208984375 228.99163818359375 132.11705017089844" stroke-width="5.0" fill="none" stroke="rgb(44, 160, 44)" stroke-opacity="1.0" stroke-linecap="round" stroke-linejoin="round"/>
    <path d="M 319.146240234375 174.7496337890625 C 323.55712890625 305.1317138671875 283.37200927734375 293.0326232910156 225.01942443847656 253.25363159179688" stroke-width="5.0" fill="none" stroke="rgb(44, 160, 44)" stroke-opacity="1.0" stroke-linecap="round" stroke-linejoin="round"/>
    <path d="M 242.45155334472656 239.25889587402344 C 296.32208251953125 220.85426330566406 266.0771179199219 186.239013671875 260.7723083496094 202.23004150390625" stroke-width="5.0" fill="none" stroke="rgb(44, 160, 44)" stroke-opacity="1.0" stroke-linecap="round" stroke-linejoin="round"/>
    <path d="M 216.25657653808594 170.62220764160156 C 180.30943298339844 179.7786407470703 188.53297424316406 143.42527770996094 199.1374969482422 145.22947692871094" stroke-width="5.0" fill="none" stroke="rgb(44, 160, 44)" stroke-opacity="1.0" stroke-linecap="round" stroke-linejoin="round"/>
    <path d="M 230.60252380371094 130.15359497070312 C 251.11534118652344 88.2064208984375 333.5242919921875 168.85345458984375 220.72476196289062 160.49920654296875" stroke-width="5.0" fill="none" stroke="rgb(44, 160, 44)" stroke-opacity="1.0" stroke-linecap="round" stroke-linejoin="round"/>
    <path d="M 350.0687561035156 278.5474548339844 C 351.34808349609375 312.87689208984375 356.67022705078125 310.240966796875 343.85516357421875 267.2418212890625" stroke-width="5.0" fill="none" stroke="rgb(44, 160, 44)" stroke-opacity="1.0" stroke-linecap="round" stroke-linejoin="round"/>
    <path d="M 363.28863525390625 181.4805145263672 C 414.09857177734375 173.11618041992188 378.7584533691406 192.07723999023438 336.6794738769531 234.71568298339844" stroke-width="5.0" fill="none" stroke="rgb(44, 160, 44)" stroke-opacity="1.0" stroke-linecap="round" stroke-linejoin="round"/>
    <path d="M 323.9936828613281 154.4949493408203 C 283.21307373046875 136.1422576904297 275.5801696777344 152.2406463623047 346.25897216796875 168.82191467285156" stroke-width="5.0" fill="none" stroke="rgb(44, 160, 44)" stroke-opacity="1.0" stroke-linecap="round" stroke-linejoin="round"/>
    <path d="M 193.3915557861328 325.3847961425781 C 171.04071044921875 320.1492004394531 97.95731353759766 270.64605712890625 123.48126983642578 305.8702697753906" stroke-width="5.0" fill="none" stroke="rgb(44, 160, 44)" stroke-opacity="1.0" stroke-linecap="round" stroke-linejoin="round"/>
    <path d="M 263.12603759765625 271.1991882324219 C 291.1809997558594 300.43017578125 237.3380584716797 311.119873046875 263.4080810546875 312.64508056640625" stroke-width="5.0" fill="none" stroke="rgb(44, 160, 44)" stroke-opacity="1.0" stroke-linecap="round" stroke-linejoin="round"/>
    <path d="M 214.7862548828125 315.0630187988281 C 231.1661834716797 324.93914794921875 145.13670349121094 338.5975646972656 116.94283294677734 313.6661376953125" stroke-width="5.0" fill="none" stroke="rgb(44, 160, 44)" stroke-opacity="1.0" stroke-linecap="round" stroke-linejoin="round"/>
    <path d="M 350.5308532714844 299.19451904296875 C 326.6614074707031 343.1402587890625 314.386474609375 320.6499328613281 329.0957336425781 243.16378784179688" stroke-width="5.0" fill="none" stroke="rgb(44, 160, 44)" stroke-opacity="1.0" stroke-linecap="round" stroke-linejoin="round"/>
    <path d="M 295.3363342285156 212.21124267578125 C 281.3323974609375 213.5977783203125 258.7792663574219 143.9795379638672 271.82635498046875 155.00416564941406" stroke-width="5.0" fill="none" stroke="rgb(44, 160, 44)" stroke-opacity="1.0" stroke-linecap="round" stroke-linejoin="round"/>
    <path d="M 341.8111877441406 182.96041870117188 C 328.59844970703125 159.75514221191406 360.8081359863281 176.33815002441406 409.8699035644531 183.6439971923828" stroke-width="5.0" fill="none" stroke="rgb(44, 160, 44)" stroke-opacity="1.0" stroke-linecap="round" stroke-linejoin="round"/>
    <path d="M 211.93685913085938 308.2376403808594 C 145.50860595703125 298.5135803222656 146.73519897460938 292.3121337890625 209.5110321044922 299.23785400390625" stroke-width="5.0" fill="none" stroke="rgb(44, 160, 44)" stroke-opacity="1.0" stroke-linecap="round" stroke-linejoin="round"/>
    <path d="M 205.8351593017578 363.2948303222656 C 103.55929565429688 407.7505187988281 92.37291717529297 272.780517578125 159.38108825683594 309.29779052734375" stroke-width="5.0" fill="none" stroke="rgb(44, 160, 44)" stroke-opacity="1.0" stroke-linecap="round" stroke-linejoin="round"/>
    <path d="M 238.13662719726562 399.3240051269531 C 239.4702606201172 366.72119140625 237.1783447265625 333.6820983886719 211.92733764648438 280.85345458984375" stroke-width="5.0" fill="none" stroke="rgb(44, 160, 44)" stroke-opacity="1.0" stroke-linecap="round" stroke-linejoin="round"/>
  </g>
</svg>
