<?xml version="1.0" ?>
<svg xmlns="http://www.w3.org/2000/svg" version="1.1" width="512" height="512">
  <defs/>
  <g>
    <path d="M 322.93865966796875 291.5107421875 C 326.0894775390625 295.81121826171875 299.8374328613281 260.287109375 310.07598876953125 268.0090026855469" stroke-width="5.0" fill="none" stroke="rgb(0, 0, 0)" stroke-opacity="1.0" stroke-linecap="round" stroke-linejoin="round"/>
    <path d="M 321.1037902832031 327.143798828125 C 313.56512451171875 280.10467529296875 283.0326843261719 287.22259521484375 317.7899475097656 268.2157287597656" stroke-width="5.0" fill="none" stroke="rgb(0, 0, 0)" stroke-opacity="1.0" stroke-linecap="round" stroke-linejoin="round"/>
    <path d="M 314.3837890625 264.89501953125 C 308.94158935546875 261.7984619140625 328.4874572753906 259.9730224609375 316.7555236816406 247.71539306640625" stroke-width="5.0" fill="none" stroke="rgb(0, 0, 0)" stroke-opacity="1.0" stroke-linecap="round" stroke-linejoin="round"/>
    <path d="M 337.910400390625 331.2607727050781 C 370.2215270996094 324.0730895996094 377.2945556640625 377.3421325683594 322.9489440917969 366.2971496582031" stroke-width="5.0" fill="none" stroke="rgb(0, 0, 0)" stroke-opacity="1.0" stroke-linecap="round" stroke-linejoin="round"/>
    <path d="M 303.8341064453125 275.819091796875 C 322.9266052246094 256.92620849609375 323.0105895996094 230.95175170898438 279.4610595703125 189.482177734375" stroke-width="5.0" fill="none" stroke="rgb(0, 0, 0)" stroke-opacity="1.0" stroke-linecap="round" stroke-linejoin="round"/>
    <path d="M 175.9882049560547 401.5380554199219 C 161.4561309814453 386.1296691894531 158.26092529296875 357.0550842285156 170.5217742919922 333.16827392578125" stroke-width="5.0" fill="none" stroke="rgb(0, 0, 0)" stroke-opacity="1.0" stroke-linecap="round" stroke-linejoin="round"/>
    <path d="M 266.36444091796875 181.51535034179688 C 259.8902587890625 82.63565826416016 249.49996948242188 48.64323806762695 226.11508178710938 112.390625" stroke-width="5.0" fill="none" stroke="rgb(0, 0, 0)" stroke-opacity="1.0" stroke-linecap="round" stroke-linejoin="round"/>
    <path d="M 191.364013671875 72.9029769897461 C 171.07098388671875 138.3303985595703 202.415771484375 152.09519958496094 223.19876098632812 192.1153564453125" stroke-width="5.0" fill="none" stroke="rgb(0, 0, 0)" stroke-opacity="1.0" stroke-linecap="round" stroke-linejoin="round"/>
    <path d="M 206.2582550048828 261.11383056640625 C 203.2006378173828 266.76458740234375 213.47100830078125 262.5328369140625 203.92347717285156 267.1167907714844" stroke-width="5.0" fill="none" stroke="rgb(0, 0, 0)" stroke-opacity="1.0" stroke-linecap="round" stroke-linejoin="round"/>
    <path d="M 275.9132385253906 233.21446228027344 C 247.19415283203125 213.69786071777344 237.64495849609375 238.34255981445312 268.7581787109375 234.19862365722656" stroke-width="5.0" fill="none" stroke="rgb(0, 0, 0)" stroke-opacity="1.0" stroke-linecap="round" stroke-linejoin="round"/>
    <path d="M 299.7076721191406 280.31951904296875 C 297.4669189453125 266.1673889160156 319.4769287109375 276.0395812988281 256.868896484375 277.9274597167969" stroke-width="5.0" fill="none" stroke="rgb(0, 0, 0)" stroke-opacity="1.0" stroke-linecap="round" stroke-linejoin="round"/>
    <path d="M 231.32345581054688 127.83540344238281 C 237.6227569580078 147.20921325683594 214.54270935058594 114.92296600341797 247.8015594482422 69.7514419555664" stroke-width="5.0" fill="none" stroke="rgb(0, 0, 0)" stroke-opacity="1.0" stroke-linecap="round" stroke-linejoin="round"/>
    <path d="M 193.05740356445312 74.4285888671875 C 268.0703430175781 129.45220947265625 223.85177612304688 250.64718627929688 199.2018280029297 149.4234619140625" stroke-width="5.0" fill="none" stroke="rgb(0, 0, 0)" stroke-opacity="1.0" stroke-linecap="round" stroke-linejoin="round"/>
    <path d="M 166.81622314453125 328.6997375488281 C 162.51852416992188 339.8955383300781 167.576904296875 327.8384704589844 168.31954956054688 324.5477294921875" stroke-width="5.0" fill="none" stroke="rgb(0, 0, 0)" stroke-opacity="1.0" stroke-linecap="round" stroke-linejoin="round"/>
    <path d="M 206.87110900878906 260.040283203125 C 185.86204528808594 289.4369201660156 173.74490356445312 309.5242614746094 168.721923828125 333.0126037597656" stroke-width="5.0" fill="none" stroke="rgb(0, 0, 0)" stroke-opacity="1.0" stroke-linecap="round" stroke-linejoin="round"/>
    <path d="M 210.98756408691406 261.4228210449219 C 190.05154418945312 226.45726013183594 233.68902587890625 169.5926055908203 211.73211669921875 210.94773864746094" stroke-width="5.0" fill="none" stroke="rgb(0, 0, 0)" stroke-opacity="1.0" stroke-linecap="round" stroke-linejoin="round"/>
  </g>
</svg>
