<?xml version="1.0" ?>
<svg xmlns="http://www.w3.org/2000/svg" version="1.1" width="512" height="512">
  <defs/>
  <g>
    <path d="M 322.93865966796875 291.5107421875 C 326.0894775390625 295.81121826171875 299.8374328613281 260.287109375 310.07598876953125 268.0090026855469" stroke-width="5.0" fill="none" stroke="rgb(0, 0, 0)" stroke-opacity="1.0" stroke-linecap="round" stroke-linejoin="round"/>
    <path d="M 321.1037902832031 327.143798828125 C 313.56512451171875 280.10467529296875 283.0326843261719 287.22259521484375 317.7899475097656 268.2157287597656" stroke-width="5.0" fill="none" stroke="rgb(0, 0, 0)" stroke-opacity="1.0" stroke-linecap="round" stroke-linejoin="round"/>
    <path d="M 314.3837890625 264.89501953125 C 308.94158935546875 261.7984619140625 328.4874572753906 259.9730224609375 316.7555236816406 247.71539306640625" stroke-width="5.0" fill="none" stroke="rgb(0, 0, 0)" stroke-opacity="1.0" stroke-linecap="round" stroke-linejoin="round"/>
    <path d="M 337.910400390625 331.2607727050781 C 370.2215270996094 324.0730895996094 377.2945556640625 377.3421325683594 322.9489440917969 366.2971496582031" stroke-width="5.0" fill="none" stroke="rgb(0, 0, 0)" stroke-opacity="1.0" stroke-linecap="round" stroke-linejoin="round"/>
    <path d="M 303.8341064453125 275.819091796875 C 322.9266052246094 256.92620849609375 323.0105895996094 230.95175170898438 279.4610595703125 189.482177734375" stroke-width="5.0" fill="none" stroke="rgb(0, 0, 0)" stroke-opacity="1.0" stroke-linecap="round" stroke-linejoin="round"/>
    <path d="M 175.9882049560547 401.5380554199219 C 161.4561309814453 386.1296691894531 158.26092529296875 357.0550842285156 170.5217742919922 333.16827392578125" stroke-width="5.0" fill="none" stroke="rgb(0, 0, 0)" stroke-opacity="1.0" stroke-linecap="round" stroke-linejoin="round"/>
    <path d="M 266.36444091796875 181.51535034179688 C 259.8902587890625 82.63565826416016 249.49996948242188 48.64323806762695 226.11508178710938 112.390625" stroke-width="5.0" fill="none" stroke="rgb(0, 0, 0)" stroke-opacity="1.0" stroke-linecap="round" stroke-linejoin="round"/>
    <path d="M 191.364013671875 72.9029769897461 C 171.07098388671875 138.3303985595703 202.415771484375 152.09519958496094 223.19876098632812 192.1153564453125" stroke-width="5.0" fill="none" stroke="rgb(0, 0, 0)" stroke-opacity="1.0" stroke-linecap="round" stroke-linejoin="round"/>
    <path d="M 206.2582550048828 261.11383056640625 C 203.2006378173828 266.76458740234375 213.47100830078125 262.5328369140625 203.92347717285156 267.1167907714844" stroke-width="5.0" fill="none" stroke="rgb(0, 0, 0)" stroke-opacity="1.0" stroke-linecap="round" stroke-linejoin="round"/>
    <path d="M 275.9132385253906 233.21446228027344 C 247.19415283203125 213.69786071777344 237.64495849609375 238.34255981445312 268.7581787109375 234.19862365722656" stroke-width="5.0" fill="none" stroke="rgb(0, 0, 0)" stroke-opacity="1.0" stroke-linecap="round" stroke-linejoin="round"/>
    <path d="M 299.7076721191406 280.31951904296875 C 297.4669189453125 266.1673889160156 319.4769287109375 276.0395812988281 256.868896484375 277.9274597167969" stroke-width="5.0" fill="none" stroke="rgb(0, 0, 0)" stroke-opacity="1.0" stroke-linecap="round" stroke-linejoin="round"/>
    <path d="M 231.32345581054688 127.83540344238281 C 237.6227569580078 147.20921325683594 214.54270935058594 114.92296600341797 247.8015594482422 69.7514419555664" stroke-width="5.0" fill="none" stroke="rgb(0, 0, 0)" stroke-opacity="1.0" stroke-linecap="round" stroke-linejoin="round"/>
    <path d="M 193.05740356445312 74.4285888671875 C 268.0703430175781 129.45220947265625 223.85177612304688 250.64718627929688 199.2018280029297 149.4234619140625" stroke-width="5.0" fill="none" stroke="rgb(0, 0, 0)" stroke-opacity="1.0" stroke-linecap="round" stroke-linejoin="round"/>
    <path d="M 166.81622314453125 328.6997375488281 C 162.51852416992188 339.8955383300781 167.576904296875 327.8384704589844 168.31954956054688 324.5477294921875" stroke-width="5.0" fill="none" stroke="rgb(0, 0, 0)" stroke-opacity="1.0" stroke-linecap="round" stroke-linejoin="round"/>
    <path d="M 206.87110900878906 260.040283203125 C 185.86204528808594 289.4369201660156 173.74490356445312 309.5242614746094 168.721923828125 333.0126037597656" stroke-width="5.0" fill="none" stroke="rgb(0, 0, 0)" stroke-opacity="1.0" stroke-linecap="round" stroke-linejoin="round"/>
    <path d="M 210.98756408691406 261.4228210449219 C 190.05154418945312 226.45726013183594 233.68902587890625 169.5926055908203 211.73211669921875 210.94773864746094" stroke-width="5.0" fill="none" stroke="rgb(0, 0, 0)" stroke-opacity="1.0" stroke-linecap="round" stroke-linejoin="round"/>
    <path d="M 360.04052734375 363.2945251464844 C 399.4156188964844 300.899169921875 364.5173034667969 320.02142333984375 334.0286865234375 252.38792419433594" stroke-width="5.0" fill="none" stroke="rgb(0, 0, 0)" stroke-opacity="1.0" stroke-linecap="round" stroke-linejoin="round"/>
    <path d="M 283.1264343261719 295.1179504394531 C 325.1843566894531 265.33111572265625 340.59674072265625 257.130615234375 332.10321044921875 245.90524291992188" stroke-width="5.0" fill="none" stroke="rgb(0, 0, 0)" stroke-opacity="1.0" stroke-linecap="round" stroke-linejoin="round"/>
    <path d="M 326.7581787109375 245.5655517578125 C 292.26220703125 179.71127319335938 304.0313720703125 155.97067260742188 233.60121154785156 142.0399627685547" stroke-width="5.0" fill="none" stroke="rgb(0, 0, 0)" stroke-opacity="1.0" stroke-linecap="round" stroke-linejoin="round"/>
    <path d="M 65.56060791015625 311.9240417480469 C 85.30829620361328 256.4116516113281 89.46170043945312 240.68612670898438 18.71147346496582 363.3973693847656" stroke-width="5.0" fill="none" stroke="rgb(0, 0, 0)" stroke-opacity="1.0" stroke-linecap="round" stroke-linejoin="round"/>
    <path d="M 363.2041931152344 298.06866455078125 C 322.5603942871094 245.38363647460938 350.1236572265625 242.71511840820312 296.79119873046875 279.50933837890625" stroke-width="5.0" fill="none" stroke="rgb(0, 0, 0)" stroke-opacity="1.0" stroke-linecap="round" stroke-linejoin="round"/>
    <path d="M 234.68771362304688 327.64898681640625 C 214.98138427734375 245.1444549560547 205.71754455566406 189.53445434570312 264.5869445800781 145.35276794433594" stroke-width="5.0" fill="none" stroke="rgb(0, 0, 0)" stroke-opacity="1.0" stroke-linecap="round" stroke-linejoin="round"/>
    <path d="M 332.9917297363281 257.5995788574219 C 346.46881103515625 261.32855224609375 345.0268249511719 256.9710998535156 323.4588317871094 266.1671447753906" stroke-width="5.0" fill="none" stroke="rgb(0, 0, 0)" stroke-opacity="1.0" stroke-linecap="round" stroke-linejoin="round"/>
    <path d="M 294.7139892578125 283.2339782714844 C 246.28695678710938 357.8296813964844 211.732421875 323.6916809082031 216.544677734375 211.3465118408203" stroke-width="5.0" fill="none" stroke="rgb(0, 0, 0)" stroke-opacity="1.0" stroke-linecap="round" stroke-linejoin="round"/>
    <path d="M 191.57046508789062 151.09429931640625 C 149.56399536132812 180.51751708984375 115.13278198242188 201.27113342285156 70.29171752929688 276.1902770996094" stroke-width="5.0" fill="none" stroke="rgb(0, 0, 0)" stroke-opacity="1.0" stroke-linecap="round" stroke-linejoin="round"/>
    <path d="M 305.2266540527344 350.5711669921875 C 319.7019348144531 400.1663818359375 358.79425048828125 350.7586975097656 262.619140625 319.0936584472656" stroke-width="5.0" fill="none" stroke="rgb(0, 0, 0)" stroke-opacity="1.0" stroke-linecap="round" stroke-linejoin="round"/>
    <path d="M 321.6732482910156 266.8792724609375 C 348.40020751953125 254.25498962402344 325.2533874511719 257.784912109375 320.7147521972656 230.46841430664062" stroke-width="5.0" fill="none" stroke="rgb(0, 0, 0)" stroke-opacity="1.0" stroke-linecap="round" stroke-linejoin="round"/>
    <path d="M 196.64266967773438 388.9344177246094 C 232.73175048828125 276.56671142578125 204.01937866210938 319.4560852050781 194.8451690673828 412.4377136230469" stroke-width="5.0" fill="none" stroke="rgb(0, 0, 0)" stroke-opacity="1.0" stroke-linecap="round" stroke-linejoin="round"/>
    <path d="M 170.0222625732422 165.3455352783203 C 194.08038330078125 157.57046508789062 191.8186492919922 147.62232971191406 182.2661895751953 191.02334594726562" stroke-width="5.0" fill="none" stroke="rgb(0, 0, 0)" stroke-opacity="1.0" stroke-linecap="round" stroke-linejoin="round"/>
    <path d="M 215.47540283203125 212.26123046875 C 316.0448303222656 197.529052734375 309.4530944824219 166.59210205078125 234.45184326171875 143.99667358398438" stroke-width="5.0" fill="none" stroke="rgb(0, 0, 0)" stroke-opacity="1.0" stroke-linecap="round" stroke-linejoin="round"/>
    <path d="M 190.47842407226562 319.0292663574219 C 243.88571166992188 315.3790588378906 271.7518615722656 338.64837646484375 303.7453918457031 350.3765869140625" stroke-width="5.0" fill="none" stroke="rgb(0, 0, 0)" stroke-opacity="1.0" stroke-linecap="round" stroke-linejoin="round"/>
    <path d="M 350.7933654785156 344.6492919921875 C 325.2117004394531 336.45843505859375 348.74090576171875 301.09844970703125 352.35223388671875 321.31976318359375" stroke-width="5.0" fill="none" stroke="rgb(0, 0, 0)" stroke-opacity="1.0" stroke-linecap="round" stroke-linejoin="round"/>
  </g>
</svg>
