<?xml version="1.0" ?>
<svg xmlns="http://www.w3.org/2000/svg" version="1.1" width="512" height="512">
  <defs/>
  <g>
    <path d="M 384.5013122558594 273.79705810546875 C 357.2674560546875 336.04351806640625 371.34759521484375 338.7417907714844 317.8337707519531 360.8916320800781" stroke-width="5.0" fill="none" stroke="rgb(0, 0, 0)" stroke-opacity="1.0" stroke-linecap="round" stroke-linejoin="round"/>
    <path d="M 283.3681640625 352.5703125 C 228.69921875 361.05780029296875 233.0247039794922 385.7872009277344 177.67599487304688 332.6704406738281" stroke-width="5.0" fill="none" stroke="rgb(0, 0, 0)" stroke-opacity="1.0" stroke-linecap="round" stroke-linejoin="round"/>
    <path d="M 381.2095031738281 271.92578125 C 389.1097412109375 257.47052001953125 375.4189453125 268.87982177734375 384.8165283203125 224.4462127685547" stroke-width="5.0" fill="none" stroke="rgb(0, 0, 0)" stroke-opacity="1.0" stroke-linecap="round" stroke-linejoin="round"/>
    <path d="M 162.52822875976562 302.9029846191406 C 168.29994201660156 288.5412292480469 143.5225830078125 258.81103515625 167.28123474121094 315.4278564453125" stroke-width="5.0" fill="none" stroke="rgb(0, 0, 0)" stroke-opacity="1.0" stroke-linecap="round" stroke-linejoin="round"/>
    <path d="M 380.1259460449219 402.08221435546875 C 401.829833984375 378.80267333984375 403.34564208984375 402.997314453125 430.19342041015625 387.7929382324219" stroke-width="5.0" fill="none" stroke="rgb(0, 0, 0)" stroke-opacity="1.0" stroke-linecap="round" stroke-linejoin="round"/>
    <path d="M 182.6542510986328 339.7574157714844 C 225.71771240234375 347.463623046875 181.36700439453125 363.62579345703125 173.73806762695312 314.35174560546875" stroke-width="5.0" fill="none" stroke="rgb(0, 0, 0)" stroke-opacity="1.0" stroke-linecap="round" stroke-linejoin="round"/>
    <path d="M 287.07659912109375 285.0597229003906 C 263.2166442871094 279.3629455566406 296.3191833496094 287.7215576171875 251.8579559326172 284.0762939453125" stroke-width="5.0" fill="none" stroke="rgb(0, 0, 0)" stroke-opacity="1.0" stroke-linecap="round" stroke-linejoin="round"/>
    <path d="M 202.41368103027344 170.54844665527344 C 152.3813018798828 204.3848114013672 161.1185760498047 222.07119750976562 160.45664978027344 203.74139404296875" stroke-width="5.0" fill="none" stroke="rgb(0, 0, 0)" stroke-opacity="1.0" stroke-linecap="round" stroke-linejoin="round"/>
    <path d="M 189.93551635742188 302.12054443359375 C 185.8559112548828 304.8000793457031 184.92929077148438 305.6387634277344 179.89540100097656 305.7065124511719" stroke-width="5.0" fill="none" stroke="rgb(0, 0, 0)" stroke-opacity="1.0" stroke-linecap="round" stroke-linejoin="round"/>
    <path d="M 173.18214416503906 379.4986267089844 C 184.2562255859375 378.9080810546875 170.7917938232422 395.0057373046875 171.54348754882812 380.0072937011719" stroke-width="5.0" fill="none" stroke="rgb(0, 0, 0)" stroke-opacity="1.0" stroke-linecap="round" stroke-linejoin="round"/>
    <path d="M 292.31658935546875 361.806640625 C 378.8080749511719 352.96697998046875 334.18780517578125 375.38299560546875 266.0366516113281 351.7664489746094" stroke-width="5.0" fill="none" stroke="rgb(0, 0, 0)" stroke-opacity="1.0" stroke-linecap="round" stroke-linejoin="round"/>
    <path d="M 386.14111328125 271.48077392578125 C 386.2456970214844 210.36050415039062 362.9974060058594 156.44351196289062 266.5601501464844 188.50064086914062" stroke-width="5.0" fill="none" stroke="rgb(0, 0, 0)" stroke-opacity="1.0" stroke-linecap="round" stroke-linejoin="round"/>
    <path d="M 239.83094787597656 397.8498229980469 C 263.75494384765625 388.4696960449219 245.5043487548828 409.4709167480469 222.4541015625 387.1771545410156" stroke-width="5.0" fill="none" stroke="rgb(0, 0, 0)" stroke-opacity="1.0" stroke-linecap="round" stroke-linejoin="round"/>
    <path d="M 179.3597412109375 384.01519775390625 C 153.33908081054688 393.1602783203125 176.37857055664062 372.25750732421875 173.242919921875 376.32733154296875" stroke-width="5.0" fill="none" stroke="rgb(0, 0, 0)" stroke-opacity="1.0" stroke-linecap="round" stroke-linejoin="round"/>
    <path d="M 195.9878692626953 174.94766235351562 C 257.3194274902344 166.54364013671875 263.8620300292969 222.28257751464844 279.18707275390625 136.91839599609375" stroke-width="5.0" fill="none" stroke="rgb(0, 0, 0)" stroke-opacity="1.0" stroke-linecap="round" stroke-linejoin="round"/>
    <path d="M 264.1750793457031 276.01025390625 C 266.40283203125 284.0088195800781 237.2921142578125 281.88177490234375 246.98130798339844 283.8477783203125" stroke-width="5.0" fill="none" stroke="rgb(0, 0, 0)" stroke-opacity="1.0" stroke-linecap="round" stroke-linejoin="round"/>
  </g>
</svg>
