<?xml version="1.0" ?>
<svg xmlns="http://www.w3.org/2000/svg" version="1.1" width="512" height="512">
  <defs/>
  <g>
    <path d="M 384.5013122558594 273.79705810546875 C 357.2674560546875 336.04351806640625 371.34759521484375 338.7417907714844 317.8337707519531 360.8916320800781" stroke-width="5.0" fill="none" stroke="rgb(0, 0, 0)" stroke-opacity="1.0" stroke-linecap="round" stroke-linejoin="round"/>
    <path d="M 283.3681640625 352.5703125 C 228.69921875 361.05780029296875 233.0247039794922 385.7872009277344 177.67599487304688 332.6704406738281" stroke-width="5.0" fill="none" stroke="rgb(0, 0, 0)" stroke-opacity="1.0" stroke-linecap="round" stroke-linejoin="round"/>
    <path d="M 381.2095031738281 271.92578125 C 389.1097412109375 257.47052001953125 375.4189453125 268.87982177734375 384.8165283203125 224.4462127685547" stroke-width="5.0" fill="none" stroke="rgb(0, 0, 0)" stroke-opacity="1.0" stroke-linecap="round" stroke-linejoin="round"/>
    <path d="M 162.52822875976562 302.9029846191406 C 168.29994201660156 288.5412292480469 143.5225830078125 258.81103515625 167.28123474121094 315.4278564453125" stroke-width="5.0" fill="none" stroke="rgb(0, 0, 0)" stroke-opacity="1.0" stroke-linecap="round" stroke-linejoin="round"/>
    <path d="M 380.1259460449219 402.08221435546875 C 401.829833984375 378.80267333984375 403.34564208984375 402.997314453125 430.19342041015625 387.7929382324219" stroke-width="5.0" fill="none" stroke="rgb(0, 0, 0)" stroke-opacity="1.0" stroke-linecap="round" stroke-linejoin="round"/>
    <path d="M 182.6542510986328 339.7574157714844 C 225.71771240234375 347.463623046875 181.36700439453125 363.62579345703125 173.73806762695312 314.35174560546875" stroke-width="5.0" fill="none" stroke="rgb(0, 0, 0)" stroke-opacity="1.0" stroke-linecap="round" stroke-linejoin="round"/>
    <path d="M 287.07659912109375 285.0597229003906 C 263.2166442871094 279.3629455566406 296.3191833496094 287.7215576171875 251.8579559326172 284.0762939453125" stroke-width="5.0" fill="none" stroke="rgb(0, 0, 0)" stroke-opacity="1.0" stroke-linecap="round" stroke-linejoin="round"/>
    <path d="M 202.41368103027344 170.54844665527344 C 152.3813018798828 204.3848114013672 161.1185760498047 222.07119750976562 160.45664978027344 203.74139404296875" stroke-width="5.0" fill="none" stroke="rgb(0, 0, 0)" stroke-opacity="1.0" stroke-linecap="round" stroke-linejoin="round"/>
    <path d="M 189.93551635742188 302.12054443359375 C 185.8559112548828 304.8000793457031 184.92929077148438 305.6387634277344 179.89540100097656 305.7065124511719" stroke-width="5.0" fill="none" stroke="rgb(0, 0, 0)" stroke-opacity="1.0" stroke-linecap="round" stroke-linejoin="round"/>
    <path d="M 173.18214416503906 379.4986267089844 C 184.2562255859375 378.9080810546875 170.7917938232422 395.0057373046875 171.54348754882812 380.0072937011719" stroke-width="5.0" fill="none" stroke="rgb(0, 0, 0)" stroke-opacity="1.0" stroke-linecap="round" stroke-linejoin="round"/>
    <path d="M 292.31658935546875 361.806640625 C 378.8080749511719 352.96697998046875 334.18780517578125 375.38299560546875 266.0366516113281 351.7664489746094" stroke-width="5.0" fill="none" stroke="rgb(0, 0, 0)" stroke-opacity="1.0" stroke-linecap="round" stroke-linejoin="round"/>
    <path d="M 386.14111328125 271.48077392578125 C 386.2456970214844 210.36050415039062 362.9974060058594 156.44351196289062 266.5601501464844 188.50064086914062" stroke-width="5.0" fill="none" stroke="rgb(0, 0, 0)" stroke-opacity="1.0" stroke-linecap="round" stroke-linejoin="round"/>
    <path d="M 239.83094787597656 397.8498229980469 C 263.75494384765625 388.4696960449219 245.5043487548828 409.4709167480469 222.4541015625 387.1771545410156" stroke-width="5.0" fill="none" stroke="rgb(0, 0, 0)" stroke-opacity="1.0" stroke-linecap="round" stroke-linejoin="round"/>
    <path d="M 179.3597412109375 384.01519775390625 C 153.33908081054688 393.1602783203125 176.37857055664062 372.25750732421875 173.242919921875 376.32733154296875" stroke-width="5.0" fill="none" stroke="rgb(0, 0, 0)" stroke-opacity="1.0" stroke-linecap="round" stroke-linejoin="round"/>
    <path d="M 195.9878692626953 174.94766235351562 C 257.3194274902344 166.54364013671875 263.8620300292969 222.28257751464844 279.18707275390625 136.91839599609375" stroke-width="5.0" fill="none" stroke="rgb(0, 0, 0)" stroke-opacity="1.0" stroke-linecap="round" stroke-linejoin="round"/>
    <path d="M 264.1750793457031 276.01025390625 C 266.40283203125 284.0088195800781 237.2921142578125 281.88177490234375 246.98130798339844 283.8477783203125" stroke-width="5.0" fill="none" stroke="rgb(0, 0, 0)" stroke-opacity="1.0" stroke-linecap="round" stroke-linejoin="round"/>
    <path d="M 202.3171844482422 356.46221923828125 C 152.710205078125 413.28863525390625 173.94752502441406 371.9826354980469 212.95982360839844 356.5148620605469" stroke-width="5.0" fill="none" stroke="rgb(0, 0, 0)" stroke-opacity="1.0" stroke-linecap="round" stroke-linejoin="round"/>
    <path d="M 350.9691162109375 287.8869934082031 C 362.8433837890625 300.71343994140625 370.329833984375 262.4276428222656 333.3120422363281 262.07354736328125" stroke-width="5.0" fill="none" stroke="rgb(0, 0, 0)" stroke-opacity="1.0" stroke-linecap="round" stroke-linejoin="round"/>
    <path d="M 267.4835510253906 363.1869201660156 C 243.2369842529297 350.2604675292969 269.5440979003906 326.0693054199219 246.8720703125 361.1573181152344" stroke-width="5.0" fill="none" stroke="rgb(0, 0, 0)" stroke-opacity="1.0" stroke-linecap="round" stroke-linejoin="round"/>
    <path d="M 198.96612548828125 186.56040954589844 C 203.70449829101562 202.41671752929688 259.30615234375 145.91323852539062 158.30775451660156 178.48971557617188" stroke-width="5.0" fill="none" stroke="rgb(0, 0, 0)" stroke-opacity="1.0" stroke-linecap="round" stroke-linejoin="round"/>
    <path d="M 168.22328186035156 252.29287719726562 C 129.51361083984375 278.5052490234375 183.1942138671875 288.78546142578125 159.15615844726562 294.9998779296875" stroke-width="5.0" fill="none" stroke="rgb(0, 0, 0)" stroke-opacity="1.0" stroke-linecap="round" stroke-linejoin="round"/>
    <path d="M 295.741943359375 340.94940185546875 C 270.6814880371094 339.6648864746094 281.18634033203125 318.747314453125 283.0272521972656 318.7596740722656" stroke-width="5.0" fill="none" stroke="rgb(0, 0, 0)" stroke-opacity="1.0" stroke-linecap="round" stroke-linejoin="round"/>
    <path d="M 344.6182861328125 355.762939453125 C 314.2572021484375 306.72735595703125 325.2638244628906 365.37213134765625 290.5755310058594 338.5723571777344" stroke-width="5.0" fill="none" stroke="rgb(0, 0, 0)" stroke-opacity="1.0" stroke-linecap="round" stroke-linejoin="round"/>
    <path d="M 160.26358032226562 299.7144775390625 C 159.59332275390625 314.2626953125 167.94882202148438 307.4322814941406 160.06741333007812 301.3018798828125" stroke-width="5.0" fill="none" stroke="rgb(0, 0, 0)" stroke-opacity="1.0" stroke-linecap="round" stroke-linejoin="round"/>
    <path d="M 331.4516906738281 355.2028503417969 C 341.13397216796875 410.6122131347656 338.2265625 374.4137268066406 319.6636657714844 399.6454772949219" stroke-width="5.0" fill="none" stroke="rgb(0, 0, 0)" stroke-opacity="1.0" stroke-linecap="round" stroke-linejoin="round"/>
    <path d="M 205.39183044433594 214.661376953125 C 181.62109375 240.43421936035156 136.14346313476562 205.88674926757812 175.9855194091797 210.1758575439453" stroke-width="5.0" fill="none" stroke="rgb(0, 0, 0)" stroke-opacity="1.0" stroke-linecap="round" stroke-linejoin="round"/>
    <path d="M 271.6594543457031 333.8320007324219 C 248.50079345703125 346.82403564453125 266.3116455078125 335.04718017578125 268.3357849121094 337.7364501953125" stroke-width="5.0" fill="none" stroke="rgb(0, 0, 0)" stroke-opacity="1.0" stroke-linecap="round" stroke-linejoin="round"/>
    <path d="M 330.50189208984375 278.76849365234375 C 340.2779846191406 275.72833251953125 308.8329772949219 270.3587951660156 305.4877624511719 293.5315856933594" stroke-width="5.0" fill="none" stroke="rgb(0, 0, 0)" stroke-opacity="1.0" stroke-linecap="round" stroke-linejoin="round"/>
    <path d="M 216.58555603027344 179.0805206298828 C 218.81858825683594 225.40492248535156 194.57177734375 237.06430053710938 166.72752380371094 240.31224060058594" stroke-width="5.0" fill="none" stroke="rgb(0, 0, 0)" stroke-opacity="1.0" stroke-linecap="round" stroke-linejoin="round"/>
    <path d="M 264.20782470703125 282.91424560546875 C 247.5767059326172 272.9792785644531 265.0005187988281 296.1527404785156 273.2829895019531 283.34564208984375" stroke-width="5.0" fill="none" stroke="rgb(0, 0, 0)" stroke-opacity="1.0" stroke-linecap="round" stroke-linejoin="round"/>
    <path d="M 281.48046875 178.28614807128906 C 328.5414733886719 161.59474182128906 236.733154296875 81.2978744506836 197.79965209960938 159.919677734375" stroke-width="5.0" fill="none" stroke="rgb(0, 0, 0)" stroke-opacity="1.0" stroke-linecap="round" stroke-linejoin="round"/>
    <path d="M 364.87774658203125 333.6928405761719 C 370.7922058105469 254.485595703125 374.2349853515625 303.13677978515625 388.98040771484375 268.2318420410156" stroke-width="5.0" fill="none" stroke="rgb(0, 0, 0)" stroke-opacity="1.0" stroke-linecap="round" stroke-linejoin="round"/>
    <path d="M 246.5262451171875 442.1957702636719 C 191.42095947265625 310.6654357910156 182.10986328125 320.07421875 163.5480194091797 280.79766845703125" stroke-width="5.0" fill="none" stroke="rgb(0, 0, 0)" stroke-opacity="1.0" stroke-linecap="round" stroke-linejoin="round"/>
    <path d="M 311.49810791015625 132.30235290527344 C 378.4997863769531 125.58516693115234 341.71258544921875 111.5008316040039 311.94488525390625 176.51055908203125" stroke-width="5.0" fill="none" stroke="rgb(0, 0, 0)" stroke-opacity="1.0" stroke-linecap="round" stroke-linejoin="round"/>
    <path d="M 301.7564392089844 212.85708618164062 C 297.9360046386719 206.66148376464844 289.0991516113281 210.12686157226562 322.25177001953125 209.93902587890625" stroke-width="5.0" fill="none" stroke="rgb(0, 0, 0)" stroke-opacity="1.0" stroke-linecap="round" stroke-linejoin="round"/>
    <path d="M 243.360595703125 179.11636352539062 C 183.68174743652344 126.88692474365234 167.30892944335938 169.01072692871094 190.39663696289062 170.24765014648438" stroke-width="5.0" fill="none" stroke="rgb(0, 0, 0)" stroke-opacity="1.0" stroke-linecap="round" stroke-linejoin="round"/>
    <path d="M 274.4239501953125 271.9150085449219 C 278.63140869140625 262.55615234375 194.9879913330078 286.8026123046875 263.6010437011719 254.79307556152344" stroke-width="5.0" fill="none" stroke="rgb(0, 0, 0)" stroke-opacity="1.0" stroke-linecap="round" stroke-linejoin="round"/>
    <path d="M 196.77130126953125 341.1133728027344 C 217.4705352783203 386.0232849121094 176.8981170654297 353.1007080078125 147.60189819335938 428.1302795410156" stroke-width="5.0" fill="none" stroke="rgb(0, 0, 0)" stroke-opacity="1.0" stroke-linecap="round" stroke-linejoin="round"/>
    <path d="M 175.4385223388672 283.29986572265625 C 174.00039672851562 328.82562255859375 179.0535125732422 342.3055114746094 177.1153564453125 283.443115234375" stroke-width="5.0" fill="none" stroke="rgb(0, 0, 0)" stroke-opacity="1.0" stroke-linecap="round" stroke-linejoin="round"/>
    <path d="M 278.22283935546875 338.40478515625 C 316.9802551269531 356.2090148925781 335.9332580566406 339.4625549316406 307.5301513671875 300.3414001464844" stroke-width="5.0" fill="none" stroke="rgb(0, 0, 0)" stroke-opacity="1.0" stroke-linecap="round" stroke-linejoin="round"/>
    <path d="M 362.3858337402344 197.2414093017578 C 355.1366271972656 201.3853302001953 350.5610656738281 182.55679321289062 413.1403503417969 202.7007598876953" stroke-width="5.0" fill="none" stroke="rgb(0, 0, 0)" stroke-opacity="1.0" stroke-linecap="round" stroke-linejoin="round"/>
    <path d="M 293.1454162597656 182.8002471923828 C 351.7391052246094 184.22793579101562 355.65692138671875 171.85665893554688 382.0371398925781 221.8660430908203" stroke-width="5.0" fill="none" stroke="rgb(0, 0, 0)" stroke-opacity="1.0" stroke-linecap="round" stroke-linejoin="round"/>
    <path d="M 349.1846618652344 163.34768676757812 C 425.0062255859375 163.98886108398438 363.3887939453125 193.8605499267578 431.03033447265625 257.0704040527344" stroke-width="5.0" fill="none" stroke="rgb(0, 0, 0)" stroke-opacity="1.0" stroke-linecap="round" stroke-linejoin="round"/>
    <path d="M 266.1194152832031 183.66973876953125 C 200.2722930908203 189.89068603515625 207.9345703125 188.39613342285156 210.6566162109375 201.62228393554688" stroke-width="5.0" fill="none" stroke="rgb(0, 0, 0)" stroke-opacity="1.0" stroke-linecap="round" stroke-linejoin="round"/>
    <path d="M 316.5139465332031 368.3271789550781 C 191.83245849609375 344.2940673828125 267.90960693359375 360.3738708496094 251.141845703125 369.66485595703125" stroke-width="5.0" fill="none" stroke="rgb(0, 0, 0)" stroke-opacity="1.0" stroke-linecap="round" stroke-linejoin="round"/>
    <path d="M 136.2135467529297 234.07537841796875 C 181.22671508789062 196.43698120117188 153.1758270263672 205.20965576171875 129.7305450439453 271.0299377441406" stroke-width="5.0" fill="none" stroke="rgb(0, 0, 0)" stroke-opacity="1.0" stroke-linecap="round" stroke-linejoin="round"/>
    <path d="M 145.56985473632812 299.0789794921875 C 174.1059112548828 268.9799499511719 187.2418212890625 273.8974609375 201.1506805419922 303.02392578125" stroke-width="5.0" fill="none" stroke="rgb(0, 0, 0)" stroke-opacity="1.0" stroke-linecap="round" stroke-linejoin="round"/>
    <path d="M 218.4275360107422 200.83331298828125 C 150.16876220703125 209.3587646484375 150.30020141601562 213.36988830566406 202.52554321289062 204.28659057617188" stroke-width="5.0" fill="none" stroke="rgb(0, 0, 0)" stroke-opacity="1.0" stroke-linecap="round" stroke-linejoin="round"/>
    <path d="M 202.13650512695312 291.3044128417969 C 207.79458618164062 236.98878479003906 209.43569946289062 278.1124572753906 203.81106567382812 217.04434204101562" stroke-width="5.0" fill="none" stroke="rgb(0, 0, 0)" stroke-opacity="1.0" stroke-linecap="round" stroke-linejoin="round"/>
    <path d="M 308.92864990234375 300.9009704589844 C 306.6391296386719 245.06727600097656 381.5084533691406 291.2183837890625 325.6188049316406 282.49822998046875" stroke-width="5.0" fill="none" stroke="rgb(0, 0, 0)" stroke-opacity="1.0" stroke-linecap="round" stroke-linejoin="round"/>
    <path d="M 289.5298767089844 281.95672607421875 C 261.0889892578125 253.75132751464844 252.30313110351562 296.173828125 236.17388916015625 298.7701110839844" stroke-width="5.0" fill="none" stroke="rgb(0, 0, 0)" stroke-opacity="1.0" stroke-linecap="round" stroke-linejoin="round"/>
    <path d="M 211.32835388183594 351.7276916503906 C 193.44964599609375 271.3401184082031 167.6316680908203 307.1100769042969 151.8014373779297 308.02960205078125" stroke-width="5.0" fill="none" stroke="rgb(0, 0, 0)" stroke-opacity="1.0" stroke-linecap="round" stroke-linejoin="round"/>
    <path d="M 349.20550537109375 250.7378692626953 C 365.5885009765625 284.61859130859375 355.8170471191406 247.81581115722656 333.0678405761719 250.97523498535156" stroke-width="5.0" fill="none" stroke="rgb(0, 0, 0)" stroke-opacity="1.0" stroke-linecap="round" stroke-linejoin="round"/>
    <path d="M 343.2164001464844 388.3316955566406 C 384.3653259277344 310.88311767578125 376.8293762207031 310.9720764160156 326.53057861328125 280.0321960449219" stroke-width="5.0" fill="none" stroke="rgb(0, 0, 0)" stroke-opacity="1.0" stroke-linecap="round" stroke-linejoin="round"/>
    <path d="M 180.93116760253906 327.3502197265625 C 212.77171325683594 322.4829406738281 231.8780975341797 433.3040466308594 318.6745300292969 410.3625183105469" stroke-width="5.0" fill="none" stroke="rgb(0, 0, 0)" stroke-opacity="1.0" stroke-linecap="round" stroke-linejoin="round"/>
    <path d="M 377.955322265625 275.59405517578125 C 380.6412353515625 320.541748046875 420.9334716796875 286.6642761230469 512.6837158203125 307.2306213378906" stroke-width="5.0" fill="none" stroke="rgb(0, 0, 0)" stroke-opacity="1.0" stroke-linecap="round" stroke-linejoin="round"/>
  </g>
</svg>
