<?xml version="1.0" ?>
<svg xmlns="http://www.w3.org/2000/svg" version="1.1" width="512" height="512">
  <defs/>
  <g>
    <path d="M 384.5013122558594 273.79705810546875 C 357.2674560546875 336.04351806640625 371.34759521484375 338.7417907714844 317.8337707519531 360.8916320800781" stroke-width="5.0" fill="none" stroke="rgb(0, 0, 0)" stroke-opacity="1.0" stroke-linecap="round" stroke-linejoin="round"/>
    <path d="M 283.3681640625 352.5703125 C 228.69921875 361.05780029296875 233.0247039794922 385.7872009277344 177.67599487304688 332.6704406738281" stroke-width="5.0" fill="none" stroke="rgb(0, 0, 0)" stroke-opacity="1.0" stroke-linecap="round" stroke-linejoin="round"/>
    <path d="M 381.2095031738281 271.92578125 C 389.1097412109375 257.47052001953125 375.4189453125 268.87982177734375 384.8165283203125 224.4462127685547" stroke-width="5.0" fill="none" stroke="rgb(0, 0, 0)" stroke-opacity="1.0" stroke-linecap="round" stroke-linejoin="round"/>
    <path d="M 162.52822875976562 302.9029846191406 C 168.29994201660156 288.5412292480469 143.5225830078125 258.81103515625 167.28123474121094 315.4278564453125" stroke-width="5.0" fill="none" stroke="rgb(0, 0, 0)" stroke-opacity="1.0" stroke-linecap="round" stroke-linejoin="round"/>
    <path d="M 380.1259460449219 402.08221435546875 C 401.829833984375 378.80267333984375 403.34564208984375 402.997314453125 430.19342041015625 387.7929382324219" stroke-width="5.0" fill="none" stroke="rgb(0, 0, 0)" stroke-opacity="1.0" stroke-linecap="round" stroke-linejoin="round"/>
    <path d="M 182.6542510986328 339.7574157714844 C 225.71771240234375 347.463623046875 181.36700439453125 363.62579345703125 173.73806762695312 314.35174560546875" stroke-width="5.0" fill="none" stroke="rgb(0, 0, 0)" stroke-opacity="1.0" stroke-linecap="round" stroke-linejoin="round"/>
    <path d="M 287.07659912109375 285.0597229003906 C 263.2166442871094 279.3629455566406 296.3191833496094 287.7215576171875 251.8579559326172 284.0762939453125" stroke-width="5.0" fill="none" stroke="rgb(0, 0, 0)" stroke-opacity="1.0" stroke-linecap="round" stroke-linejoin="round"/>
    <path d="M 202.41368103027344 170.54844665527344 C 152.3813018798828 204.3848114013672 161.1185760498047 222.07119750976562 160.45664978027344 203.74139404296875" stroke-width="5.0" fill="none" stroke="rgb(0, 0, 0)" stroke-opacity="1.0" stroke-linecap="round" stroke-linejoin="round"/>
    <path d="M 189.93551635742188 302.12054443359375 C 185.8559112548828 304.8000793457031 184.92929077148438 305.6387634277344 179.89540100097656 305.7065124511719" stroke-width="5.0" fill="none" stroke="rgb(0, 0, 0)" stroke-opacity="1.0" stroke-linecap="round" stroke-linejoin="round"/>
    <path d="M 173.18214416503906 379.4986267089844 C 184.2562255859375 378.9080810546875 170.7917938232422 395.0057373046875 171.54348754882812 380.0072937011719" stroke-width="5.0" fill="none" stroke="rgb(0, 0, 0)" stroke-opacity="1.0" stroke-linecap="round" stroke-linejoin="round"/>
    <path d="M 292.31658935546875 361.806640625 C 378.8080749511719 352.96697998046875 334.18780517578125 375.38299560546875 266.0366516113281 351.7664489746094" stroke-width="5.0" fill="none" stroke="rgb(0, 0, 0)" stroke-opacity="1.0" stroke-linecap="round" stroke-linejoin="round"/>
    <path d="M 386.14111328125 271.48077392578125 C 386.2456970214844 210.36050415039062 362.9974060058594 156.44351196289062 266.5601501464844 188.50064086914062" stroke-width="5.0" fill="none" stroke="rgb(0, 0, 0)" stroke-opacity="1.0" stroke-linecap="round" stroke-linejoin="round"/>
    <path d="M 239.83094787597656 397.8498229980469 C 263.75494384765625 388.4696960449219 245.5043487548828 409.4709167480469 222.4541015625 387.1771545410156" stroke-width="5.0" fill="none" stroke="rgb(0, 0, 0)" stroke-opacity="1.0" stroke-linecap="round" stroke-linejoin="round"/>
    <path d="M 179.3597412109375 384.01519775390625 C 153.33908081054688 393.1602783203125 176.37857055664062 372.25750732421875 173.242919921875 376.32733154296875" stroke-width="5.0" fill="none" stroke="rgb(0, 0, 0)" stroke-opacity="1.0" stroke-linecap="round" stroke-linejoin="round"/>
    <path d="M 195.9878692626953 174.94766235351562 C 257.3194274902344 166.54364013671875 263.8620300292969 222.28257751464844 279.18707275390625 136.91839599609375" stroke-width="5.0" fill="none" stroke="rgb(0, 0, 0)" stroke-opacity="1.0" stroke-linecap="round" stroke-linejoin="round"/>
    <path d="M 264.1750793457031 276.01025390625 C 266.40283203125 284.0088195800781 237.2921142578125 281.88177490234375 246.98130798339844 283.8477783203125" stroke-width="5.0" fill="none" stroke="rgb(0, 0, 0)" stroke-opacity="1.0" stroke-linecap="round" stroke-linejoin="round"/>
    <path d="M 202.3171844482422 356.46221923828125 C 152.710205078125 413.28863525390625 173.94752502441406 371.9826354980469 212.95982360839844 356.5148620605469" stroke-width="5.0" fill="none" stroke="rgb(0, 0, 0)" stroke-opacity="1.0" stroke-linecap="round" stroke-linejoin="round"/>
    <path d="M 350.9691162109375 287.8869934082031 C 362.8433837890625 300.71343994140625 370.329833984375 262.4276428222656 333.3120422363281 262.07354736328125" stroke-width="5.0" fill="none" stroke="rgb(0, 0, 0)" stroke-opacity="1.0" stroke-linecap="round" stroke-linejoin="round"/>
    <path d="M 267.4835510253906 363.1869201660156 C 243.2369842529297 350.2604675292969 269.5440979003906 326.0693054199219 246.8720703125 361.1573181152344" stroke-width="5.0" fill="none" stroke="rgb(0, 0, 0)" stroke-opacity="1.0" stroke-linecap="round" stroke-linejoin="round"/>
    <path d="M 198.96612548828125 186.56040954589844 C 203.70449829101562 202.41671752929688 259.30615234375 145.91323852539062 158.30775451660156 178.48971557617188" stroke-width="5.0" fill="none" stroke="rgb(0, 0, 0)" stroke-opacity="1.0" stroke-linecap="round" stroke-linejoin="round"/>
    <path d="M 168.22328186035156 252.29287719726562 C 129.51361083984375 278.5052490234375 183.1942138671875 288.78546142578125 159.15615844726562 294.9998779296875" stroke-width="5.0" fill="none" stroke="rgb(0, 0, 0)" stroke-opacity="1.0" stroke-linecap="round" stroke-linejoin="round"/>
    <path d="M 295.741943359375 340.94940185546875 C 270.6814880371094 339.6648864746094 281.18634033203125 318.747314453125 283.0272521972656 318.7596740722656" stroke-width="5.0" fill="none" stroke="rgb(0, 0, 0)" stroke-opacity="1.0" stroke-linecap="round" stroke-linejoin="round"/>
    <path d="M 344.6182861328125 355.762939453125 C 314.2572021484375 306.72735595703125 325.2638244628906 365.37213134765625 290.5755310058594 338.5723571777344" stroke-width="5.0" fill="none" stroke="rgb(0, 0, 0)" stroke-opacity="1.0" stroke-linecap="round" stroke-linejoin="round"/>
    <path d="M 160.26358032226562 299.7144775390625 C 159.59332275390625 314.2626953125 167.94882202148438 307.4322814941406 160.06741333007812 301.3018798828125" stroke-width="5.0" fill="none" stroke="rgb(0, 0, 0)" stroke-opacity="1.0" stroke-linecap="round" stroke-linejoin="round"/>
    <path d="M 331.4516906738281 355.2028503417969 C 341.13397216796875 410.6122131347656 338.2265625 374.4137268066406 319.6636657714844 399.6454772949219" stroke-width="5.0" fill="none" stroke="rgb(0, 0, 0)" stroke-opacity="1.0" stroke-linecap="round" stroke-linejoin="round"/>
    <path d="M 205.39183044433594 214.661376953125 C 181.62109375 240.43421936035156 136.14346313476562 205.88674926757812 175.9855194091797 210.1758575439453" stroke-width="5.0" fill="none" stroke="rgb(0, 0, 0)" stroke-opacity="1.0" stroke-linecap="round" stroke-linejoin="round"/>
    <path d="M 271.6594543457031 333.8320007324219 C 248.50079345703125 346.82403564453125 266.3116455078125 335.04718017578125 268.3357849121094 337.7364501953125" stroke-width="5.0" fill="none" stroke="rgb(0, 0, 0)" stroke-opacity="1.0" stroke-linecap="round" stroke-linejoin="round"/>
    <path d="M 330.50189208984375 278.76849365234375 C 340.2779846191406 275.72833251953125 308.8329772949219 270.3587951660156 305.4877624511719 293.5315856933594" stroke-width="5.0" fill="none" stroke="rgb(0, 0, 0)" stroke-opacity="1.0" stroke-linecap="round" stroke-linejoin="round"/>
    <path d="M 216.58555603027344 179.0805206298828 C 218.81858825683594 225.40492248535156 194.57177734375 237.06430053710938 166.72752380371094 240.31224060058594" stroke-width="5.0" fill="none" stroke="rgb(0, 0, 0)" stroke-opacity="1.0" stroke-linecap="round" stroke-linejoin="round"/>
    <path d="M 264.20782470703125 282.91424560546875 C 247.5767059326172 272.9792785644531 265.0005187988281 296.1527404785156 273.2829895019531 283.34564208984375" stroke-width="5.0" fill="none" stroke="rgb(0, 0, 0)" stroke-opacity="1.0" stroke-linecap="round" stroke-linejoin="round"/>
    <path d="M 281.48046875 178.28614807128906 C 328.5414733886719 161.59474182128906 236.733154296875 81.2978744506836 197.79965209960938 159.919677734375" stroke-width="5.0" fill="none" stroke="rgb(0, 0, 0)" stroke-opacity="1.0" stroke-linecap="round" stroke-linejoin="round"/>
    <path d="M 364.87774658203125 333.6928405761719 C 370.7922058105469 254.485595703125 374.2349853515625 303.13677978515625 388.98040771484375 268.2318420410156" stroke-width="5.0" fill="none" stroke="rgb(0, 0, 0)" stroke-opacity="1.0" stroke-linecap="round" stroke-linejoin="round"/>
  </g>
</svg>
