<?xml version="1.0" ?>
<svg xmlns="http://www.w3.org/2000/svg" version="1.1" width="512" height="512">
  <defs/>
  <g>
    <path d="M 215.91018676757812 250.15838623046875 C 219.17092895507812 263.1026611328125 265.50970458984375 223.58934020996094 253.19993591308594 227.22447204589844" stroke-width="5.0" fill="none" stroke="rgb(0, 0, 0)" stroke-opacity="1.0" stroke-linecap="round" stroke-linejoin="round"/>
    <path d="M 297.75927734375 272.21685791015625 C 297.3114318847656 272.6662902832031 275.0956726074219 294.408203125 243.1819305419922 272.597900390625" stroke-width="5.0" fill="none" stroke="rgb(0, 0, 0)" stroke-opacity="1.0" stroke-linecap="round" stroke-linejoin="round"/>
    <path d="M 280.0800476074219 237.75411987304688 C 302.2872619628906 250.5531768798828 328.60064697265625 240.55735778808594 276.4659118652344 218.94224548339844" stroke-width="5.0" fill="none" stroke="rgb(0, 0, 0)" stroke-opacity="1.0" stroke-linecap="round" stroke-linejoin="round"/>
    <path d="M 311.5857238769531 338.050048828125 C 369.452880859375 324.1072998046875 328.64215087890625 262.4398498535156 364.1673583984375 290.689697265625" stroke-width="5.0" fill="none" stroke="rgb(0, 0, 0)" stroke-opacity="1.0" stroke-linecap="round" stroke-linejoin="round"/>
    <path d="M 326.336181640625 252.60247802734375 C 313.7875061035156 231.5696563720703 330.81195068359375 279.8886413574219 403.9983215332031 288.7640686035156" stroke-width="5.0" fill="none" stroke="rgb(0, 0, 0)" stroke-opacity="1.0" stroke-linecap="round" stroke-linejoin="round"/>
    <path d="M 150.73541259765625 306.57635498046875 C 156.46864318847656 340.9775390625 194.86167907714844 356.64373779296875 172.3516082763672 339.3362121582031" stroke-width="5.0" fill="none" stroke="rgb(0, 0, 0)" stroke-opacity="1.0" stroke-linecap="round" stroke-linejoin="round"/>
    <path d="M 212.0696258544922 77.75794219970703 C 185.99700927734375 127.13938903808594 175.3884735107422 139.79861450195312 232.76358032226562 88.0843505859375" stroke-width="5.0" fill="none" stroke="rgb(0, 0, 0)" stroke-opacity="1.0" stroke-linecap="round" stroke-linejoin="round"/>
    <path d="M 191.70840454101562 139.0853729248047 C 139.86819458007812 175.74252319335938 149.65745544433594 157.75973510742188 206.71861267089844 161.64422607421875" stroke-width="5.0" fill="none" stroke="rgb(0, 0, 0)" stroke-opacity="1.0" stroke-linecap="round" stroke-linejoin="round"/>
    <path d="M 179.64613342285156 266.7495422363281 C 180.3603973388672 274.7984313964844 167.0100860595703 256.42620849609375 191.2938995361328 277.52703857421875" stroke-width="5.0" fill="none" stroke="rgb(0, 0, 0)" stroke-opacity="1.0" stroke-linecap="round" stroke-linejoin="round"/>
    <path d="M 269.1180725097656 215.53091430664062 C 245.8144073486328 182.74752807617188 266.114501953125 218.49935913085938 253.3702850341797 217.13096618652344" stroke-width="5.0" fill="none" stroke="rgb(0, 0, 0)" stroke-opacity="1.0" stroke-linecap="round" stroke-linejoin="round"/>
    <path d="M 282.9420166015625 251.9932861328125 C 290.3187255859375 255.32034301757812 274.8019104003906 266.50006103515625 260.2015075683594 255.90504455566406" stroke-width="5.0" fill="none" stroke="rgb(0, 0, 0)" stroke-opacity="1.0" stroke-linecap="round" stroke-linejoin="round"/>
    <path d="M 185.00018310546875 98.42669677734375 C 185.212890625 161.96934509277344 172.75827026367188 113.2094955444336 188.91531372070312 89.74034118652344" stroke-width="5.0" fill="none" stroke="rgb(0, 0, 0)" stroke-opacity="1.0" stroke-linecap="round" stroke-linejoin="round"/>
    <path d="M 246.1847381591797 103.181640625 C 198.281005859375 137.9224853515625 239.19923400878906 91.3314437866211 205.88121032714844 107.97245788574219" stroke-width="5.0" fill="none" stroke="rgb(0, 0, 0)" stroke-opacity="1.0" stroke-linecap="round" stroke-linejoin="round"/>
    <path d="M 130.90338134765625 285.2056884765625 C 144.08651733398438 334.8854675292969 153.5804901123047 325.14923095703125 211.646728515625 360.8202209472656" stroke-width="5.0" fill="none" stroke="rgb(0, 0, 0)" stroke-opacity="1.0" stroke-linecap="round" stroke-linejoin="round"/>
    <path d="M 165.27719116210938 180.9807891845703 C 113.03350067138672 232.70614624023438 126.6553726196289 263.8016662597656 126.45193481445312 284.1000671386719" stroke-width="5.0" fill="none" stroke="rgb(0, 0, 0)" stroke-opacity="1.0" stroke-linecap="round" stroke-linejoin="round"/>
    <path d="M 174.97901916503906 166.1507568359375 C 177.07778930664062 179.57508850097656 150.62721252441406 193.72036743164062 198.7064208984375 152.14923095703125" stroke-width="5.0" fill="none" stroke="rgb(0, 0, 0)" stroke-opacity="1.0" stroke-linecap="round" stroke-linejoin="round"/>
  </g>
</svg>
