<?xml version="1.0" ?>
<svg xmlns="http://www.w3.org/2000/svg" version="1.1" width="512" height="512">
  <defs/>
  <g>
    <path d="M 208.8174285888672 224.60177612304688 C 198.4615020751953 171.6101837158203 139.84994506835938 233.6592254638672 157.45947265625 283.0973205566406" stroke-width="5.0" fill="none" stroke="rgb(31, 119, 180)" stroke-opacity="1.0" stroke-linecap="round" stroke-linejoin="round"/>
    <path d="M 207.09844970703125 198.7970428466797 C 203.10081481933594 164.88482666015625 255.63943481445312 142.06137084960938 282.8154602050781 156.73045349121094" stroke-width="5.0" fill="none" stroke="rgb(31, 119, 180)" stroke-opacity="1.0" stroke-linecap="round" stroke-linejoin="round"/>
    <path d="M 348.8376159667969 187.96702575683594 C 344.9194641113281 185.04356384277344 359.44586181640625 198.69342041015625 336.12744140625 180.15325927734375" stroke-width="5.0" fill="none" stroke="rgb(31, 119, 180)" stroke-opacity="1.0" stroke-linecap="round" stroke-linejoin="round"/>
    <path d="M 195.86526489257812 443.88238525390625 C 157.4802703857422 291.3427734375 209.57415771484375 325.7659912109375 210.33963012695312 263.70941162109375" stroke-width="5.0" fill="none" stroke="rgb(31, 119, 180)" stroke-opacity="1.0" stroke-linecap="round" stroke-linejoin="round"/>
    <path d="M 353.10986328125 187.14932250976562 C 374.1982727050781 269.15142822265625 346.1799011230469 224.2520294189453 362.9460754394531 334.3266296386719" stroke-width="5.0" fill="none" stroke="rgb(31, 119, 180)" stroke-opacity="1.0" stroke-linecap="round" stroke-linejoin="round"/>
    <path d="M 301.44683837890625 227.9288787841797 C 307.7664489746094 205.39974975585938 275.004638671875 178.09364318847656 271.99200439453125 215.2594451904297" stroke-width="5.0" fill="none" stroke="rgb(31, 119, 180)" stroke-opacity="1.0" stroke-linecap="round" stroke-linejoin="round"/>
    <path d="M 246.59913635253906 267.8272705078125 C 302.7846374511719 334.6744384765625 184.54833984375 344.01483154296875 232.9759521484375 266.8292236328125" stroke-width="5.0" fill="none" stroke="rgb(31, 119, 180)" stroke-opacity="1.0" stroke-linecap="round" stroke-linejoin="round"/>
    <path d="M 232.65362548828125 263.08660888671875 C 264.8187561035156 245.15890502929688 238.96261596679688 234.4960479736328 206.05104064941406 231.97914123535156" stroke-width="5.0" fill="none" stroke="rgb(31, 119, 180)" stroke-opacity="1.0" stroke-linecap="round" stroke-linejoin="round"/>
    <path d="M 180.755126953125 193.18209838867188 C 178.26895141601562 214.40858459472656 187.15597534179688 181.64947509765625 203.58804321289062 198.9834747314453" stroke-width="5.0" fill="none" stroke="rgb(31, 119, 180)" stroke-opacity="1.0" stroke-linecap="round" stroke-linejoin="round"/>
    <path d="M 297.396240234375 233.2693634033203 C 310.310791015625 217.54495239257812 300.1045837402344 233.76629638671875 295.77532958984375 235.13848876953125" stroke-width="5.0" fill="none" stroke="rgb(31, 119, 180)" stroke-opacity="1.0" stroke-linecap="round" stroke-linejoin="round"/>
    <path d="M 165.3898468017578 277.90496826171875 C 218.705322265625 253.35137939453125 231.2843017578125 264.5800476074219 238.54086303710938 258.607421875" stroke-width="5.0" fill="none" stroke="rgb(31, 119, 180)" stroke-opacity="1.0" stroke-linecap="round" stroke-linejoin="round"/>
    <path d="M 367.9989013671875 338.4753723144531 C 350.2692565917969 332.3600158691406 369.0527648925781 348.8757629394531 504.50140380859375 365.5386962890625" stroke-width="5.0" fill="none" stroke="rgb(31, 119, 180)" stroke-opacity="1.0" stroke-linecap="round" stroke-linejoin="round"/>
    <path d="M 286.5370178222656 199.59979248046875 C 253.642333984375 185.751220703125 310.0331726074219 241.369873046875 265.2509765625 231.1956329345703" stroke-width="5.0" fill="none" stroke="rgb(31, 119, 180)" stroke-opacity="1.0" stroke-linecap="round" stroke-linejoin="round"/>
    <path d="M 303.2677001953125 217.479248046875 C 290.1299133300781 283.44366455078125 189.57069396972656 210.46517944335938 287.2978210449219 194.6546630859375" stroke-width="5.0" fill="none" stroke="rgb(31, 119, 180)" stroke-opacity="1.0" stroke-linecap="round" stroke-linejoin="round"/>
    <path d="M 259.1903076171875 112.6846923828125 C 336.9559326171875 165.60256958007812 332.29620361328125 115.121826171875 337.31463623046875 176.04867553710938" stroke-width="5.0" fill="none" stroke="rgb(31, 119, 180)" stroke-opacity="1.0" stroke-linecap="round" stroke-linejoin="round"/>
    <path d="M 236.43556213378906 247.77169799804688 C 228.47686767578125 248.58372497558594 185.4640350341797 235.99591064453125 158.18038940429688 278.2476806640625" stroke-width="5.0" fill="none" stroke="rgb(31, 119, 180)" stroke-opacity="1.0" stroke-linecap="round" stroke-linejoin="round"/>
    <path d="M 335.89959716796875 186.10057067871094 C 336.47955322265625 214.1114959716797 336.2618713378906 146.30198669433594 361.0452880859375 163.93788146972656" stroke-width="5.0" fill="none" stroke="rgb(255, 127, 14)" stroke-opacity="1.0" stroke-linecap="round" stroke-linejoin="round"/>
    <path d="M 295.00946044921875 223.7692108154297 C 300.9631652832031 238.05242919921875 264.2000732421875 259.3001708984375 230.1083221435547 237.70033264160156" stroke-width="5.0" fill="none" stroke="rgb(255, 127, 14)" stroke-opacity="1.0" stroke-linecap="round" stroke-linejoin="round"/>
    <path d="M 358.2320861816406 198.01795959472656 C 384.6045837402344 167.85150146484375 342.3530578613281 171.67396545410156 366.4241027832031 168.88185119628906" stroke-width="5.0" fill="none" stroke="rgb(255, 127, 14)" stroke-opacity="1.0" stroke-linecap="round" stroke-linejoin="round"/>
    <path d="M 349.12939453125 198.94358825683594 C 325.1715393066406 258.9375305175781 296.92230224609375 255.4870147705078 284.4925231933594 271.1156921386719" stroke-width="5.0" fill="none" stroke="rgb(255, 127, 14)" stroke-opacity="1.0" stroke-linecap="round" stroke-linejoin="round"/>
    <path d="M 311.89556884765625 185.03453063964844 C 282.44061279296875 149.83917236328125 350.9871520996094 175.01361083984375 308.854736328125 214.05108642578125" stroke-width="5.0" fill="none" stroke="rgb(255, 127, 14)" stroke-opacity="1.0" stroke-linecap="round" stroke-linejoin="round"/>
    <path d="M 145.7967529296875 116.16404724121094 C 177.0415802001953 198.89599609375 152.10179138183594 237.07188415527344 171.78465270996094 179.32559204101562" stroke-width="5.0" fill="none" stroke="rgb(255, 127, 14)" stroke-opacity="1.0" stroke-linecap="round" stroke-linejoin="round"/>
    <path d="M 265.700927734375 177.5680694580078 C 275.8011779785156 147.77294921875 305.9978942871094 156.5589141845703 303.5258483886719 204.2652130126953" stroke-width="5.0" fill="none" stroke="rgb(255, 127, 14)" stroke-opacity="1.0" stroke-linecap="round" stroke-linejoin="round"/>
    <path d="M 343.10955810546875 341.3983459472656 C 258.20538330078125 318.31085205078125 236.33470153808594 371.219970703125 208.52047729492188 296.24835205078125" stroke-width="5.0" fill="none" stroke="rgb(255, 127, 14)" stroke-opacity="1.0" stroke-linecap="round" stroke-linejoin="round"/>
    <path d="M 170.9902801513672 282.40667724609375 C 179.12661743164062 267.3507080078125 194.73939514160156 270.79931640625 186.57875061035156 269.5883483886719" stroke-width="5.0" fill="none" stroke="rgb(255, 127, 14)" stroke-opacity="1.0" stroke-linecap="round" stroke-linejoin="round"/>
    <path d="M 216.33981323242188 233.21121215820312 C 235.1302947998047 229.46875 173.5938262939453 250.82925415039062 174.70484924316406 206.25851440429688" stroke-width="5.0" fill="none" stroke="rgb(255, 127, 14)" stroke-opacity="1.0" stroke-linecap="round" stroke-linejoin="round"/>
    <path d="M 217.66925048828125 237.91006469726562 C 217.87657165527344 229.568115234375 229.4092559814453 236.60101318359375 212.88827514648438 226.011962890625" stroke-width="5.0" fill="none" stroke="rgb(255, 127, 14)" stroke-opacity="1.0" stroke-linecap="round" stroke-linejoin="round"/>
    <path d="M 224.09127807617188 414.0835266113281 C 219.10984802246094 369.2839660644531 166.30235290527344 416.65728759765625 189.25526428222656 392.8204345703125" stroke-width="5.0" fill="none" stroke="rgb(255, 127, 14)" stroke-opacity="1.0" stroke-linecap="round" stroke-linejoin="round"/>
    <path d="M 244.63143920898438 222.53359985351562 C 212.4241485595703 212.43496704101562 215.23541259765625 156.21531677246094 264.2685546875 178.009521484375" stroke-width="5.0" fill="none" stroke="rgb(255, 127, 14)" stroke-opacity="1.0" stroke-linecap="round" stroke-linejoin="round"/>
    <path d="M 160.3976287841797 173.3843231201172 C 108.96910095214844 273.10107421875 133.57583618164062 313.75634765625 173.17579650878906 286.6381530761719" stroke-width="5.0" fill="none" stroke="rgb(255, 127, 14)" stroke-opacity="1.0" stroke-linecap="round" stroke-linejoin="round"/>
    <path d="M 270.5244140625 335.7958068847656 C 322.56060791015625 311.6349182128906 277.7076110839844 232.11431884765625 273.3230895996094 250.5756378173828" stroke-width="5.0" fill="none" stroke="rgb(255, 127, 14)" stroke-opacity="1.0" stroke-linecap="round" stroke-linejoin="round"/>
    <path d="M 205.037353515625 404.3642883300781 C 234.55853271484375 464.30474853515625 185.43609619140625 411.8966979980469 198.5740966796875 392.01068115234375" stroke-width="5.0" fill="none" stroke="rgb(255, 127, 14)" stroke-opacity="1.0" stroke-linecap="round" stroke-linejoin="round"/>
  </g>
</svg>
