<?xml version="1.0" ?>
<svg xmlns="http://www.w3.org/2000/svg" version="1.1" width="512" height="512">
  <defs/>
  <g>
    <path d="M 208.8174285888672 224.60177612304688 C 198.4615020751953 171.6101837158203 139.84994506835938 233.6592254638672 157.45947265625 283.0973205566406" stroke-width="5.0" fill="none" stroke="rgb(0, 0, 0)" stroke-opacity="1.0" stroke-linecap="round" stroke-linejoin="round"/>
    <path d="M 207.09844970703125 198.7970428466797 C 203.10081481933594 164.88482666015625 255.63943481445312 142.06137084960938 282.8154602050781 156.73045349121094" stroke-width="5.0" fill="none" stroke="rgb(0, 0, 0)" stroke-opacity="1.0" stroke-linecap="round" stroke-linejoin="round"/>
    <path d="M 348.8376159667969 187.96702575683594 C 344.9194641113281 185.04356384277344 359.44586181640625 198.69342041015625 336.12744140625 180.15325927734375" stroke-width="5.0" fill="none" stroke="rgb(0, 0, 0)" stroke-opacity="1.0" stroke-linecap="round" stroke-linejoin="round"/>
    <path d="M 195.86526489257812 443.88238525390625 C 157.4802703857422 291.3427734375 209.57415771484375 325.7659912109375 210.33963012695312 263.70941162109375" stroke-width="5.0" fill="none" stroke="rgb(0, 0, 0)" stroke-opacity="1.0" stroke-linecap="round" stroke-linejoin="round"/>
    <path d="M 353.10986328125 187.14932250976562 C 374.1982727050781 269.15142822265625 346.1799011230469 224.2520294189453 362.9460754394531 334.3266296386719" stroke-width="5.0" fill="none" stroke="rgb(0, 0, 0)" stroke-opacity="1.0" stroke-linecap="round" stroke-linejoin="round"/>
    <path d="M 301.44683837890625 227.9288787841797 C 307.7664489746094 205.39974975585938 275.004638671875 178.09364318847656 271.99200439453125 215.2594451904297" stroke-width="5.0" fill="none" stroke="rgb(0, 0, 0)" stroke-opacity="1.0" stroke-linecap="round" stroke-linejoin="round"/>
    <path d="M 246.59913635253906 267.8272705078125 C 302.7846374511719 334.6744384765625 184.54833984375 344.01483154296875 232.9759521484375 266.8292236328125" stroke-width="5.0" fill="none" stroke="rgb(0, 0, 0)" stroke-opacity="1.0" stroke-linecap="round" stroke-linejoin="round"/>
    <path d="M 232.65362548828125 263.08660888671875 C 264.8187561035156 245.15890502929688 238.96261596679688 234.4960479736328 206.05104064941406 231.97914123535156" stroke-width="5.0" fill="none" stroke="rgb(0, 0, 0)" stroke-opacity="1.0" stroke-linecap="round" stroke-linejoin="round"/>
    <path d="M 180.755126953125 193.18209838867188 C 178.26895141601562 214.40858459472656 187.15597534179688 181.64947509765625 203.58804321289062 198.9834747314453" stroke-width="5.0" fill="none" stroke="rgb(0, 0, 0)" stroke-opacity="1.0" stroke-linecap="round" stroke-linejoin="round"/>
    <path d="M 297.396240234375 233.2693634033203 C 310.310791015625 217.54495239257812 300.1045837402344 233.76629638671875 295.77532958984375 235.13848876953125" stroke-width="5.0" fill="none" stroke="rgb(0, 0, 0)" stroke-opacity="1.0" stroke-linecap="round" stroke-linejoin="round"/>
    <path d="M 165.3898468017578 277.90496826171875 C 218.705322265625 253.35137939453125 231.2843017578125 264.5800476074219 238.54086303710938 258.607421875" stroke-width="5.0" fill="none" stroke="rgb(0, 0, 0)" stroke-opacity="1.0" stroke-linecap="round" stroke-linejoin="round"/>
    <path d="M 367.9989013671875 338.4753723144531 C 350.2692565917969 332.3600158691406 369.0527648925781 348.8757629394531 504.50140380859375 365.5386962890625" stroke-width="5.0" fill="none" stroke="rgb(0, 0, 0)" stroke-opacity="1.0" stroke-linecap="round" stroke-linejoin="round"/>
    <path d="M 286.5370178222656 199.59979248046875 C 253.642333984375 185.751220703125 310.0331726074219 241.369873046875 265.2509765625 231.1956329345703" stroke-width="5.0" fill="none" stroke="rgb(0, 0, 0)" stroke-opacity="1.0" stroke-linecap="round" stroke-linejoin="round"/>
    <path d="M 303.2677001953125 217.479248046875 C 290.1299133300781 283.44366455078125 189.57069396972656 210.46517944335938 287.2978210449219 194.6546630859375" stroke-width="5.0" fill="none" stroke="rgb(0, 0, 0)" stroke-opacity="1.0" stroke-linecap="round" stroke-linejoin="round"/>
    <path d="M 259.1903076171875 112.6846923828125 C 336.9559326171875 165.60256958007812 332.29620361328125 115.121826171875 337.31463623046875 176.04867553710938" stroke-width="5.0" fill="none" stroke="rgb(0, 0, 0)" stroke-opacity="1.0" stroke-linecap="round" stroke-linejoin="round"/>
    <path d="M 236.43556213378906 247.77169799804688 C 228.47686767578125 248.58372497558594 185.4640350341797 235.99591064453125 158.18038940429688 278.2476806640625" stroke-width="5.0" fill="none" stroke="rgb(0, 0, 0)" stroke-opacity="1.0" stroke-linecap="round" stroke-linejoin="round"/>
  </g>
</svg>
