<?xml version="1.0" ?>
<svg xmlns="http://www.w3.org/2000/svg" version="1.1" width="512" height="512">
  <defs/>
  <g>
    <path d="M 363.5321044921875 309.4132080078125 C 354.5675354003906 229.6519012451172 404.6363830566406 272.8459777832031 341.5867004394531 215.14097595214844" stroke-width="5.0" fill="none" stroke="rgb(0, 0, 0)" stroke-opacity="1.0" stroke-linecap="round" stroke-linejoin="round"/>
    <path d="M 176.44361877441406 405.1980895996094 C 203.4584503173828 423.8215026855469 223.99107360839844 369.20440673828125 222.39064025878906 380.5527038574219" stroke-width="5.0" fill="none" stroke="rgb(0, 0, 0)" stroke-opacity="1.0" stroke-linecap="round" stroke-linejoin="round"/>
    <path d="M 164.31216430664062 147.1724395751953 C 187.55880737304688 176.8367919921875 153.47811889648438 172.56381225585938 204.06004333496094 173.17391967773438" stroke-width="5.0" fill="none" stroke="rgb(0, 0, 0)" stroke-opacity="1.0" stroke-linecap="round" stroke-linejoin="round"/>
    <path d="M 198.0052032470703 159.27357482910156 C 255.59039306640625 200.01992797851562 191.32748413085938 202.23866271972656 175.93865966796875 164.78009033203125" stroke-width="5.0" fill="none" stroke="rgb(0, 0, 0)" stroke-opacity="1.0" stroke-linecap="round" stroke-linejoin="round"/>
    <path d="M 185.76222229003906 225.6882781982422 C 220.97853088378906 217.016845703125 255.63348388671875 248.89527893066406 237.0221405029297 186.40243530273438" stroke-width="5.0" fill="none" stroke="rgb(0, 0, 0)" stroke-opacity="1.0" stroke-linecap="round" stroke-linejoin="round"/>
    <path d="M 189.65330505371094 416.9811706542969 C 249.0196075439453 455.5179748535156 204.4280548095703 423.4828186035156 303.8812255859375 436.3917541503906" stroke-width="5.0" fill="none" stroke="rgb(0, 0, 0)" stroke-opacity="1.0" stroke-linecap="round" stroke-linejoin="round"/>
    <path d="M 217.48846435546875 353.8277893066406 C 216.147705078125 350.78082275390625 216.9464569091797 353.76202392578125 220.00099182128906 354.8174133300781" stroke-width="5.0" fill="none" stroke="rgb(0, 0, 0)" stroke-opacity="1.0" stroke-linecap="round" stroke-linejoin="round"/>
    <path d="M 229.49771118164062 199.81773376464844 C 237.5323486328125 257.90625 260.3487548828125 195.386962890625 319.0255432128906 205.23007202148438" stroke-width="5.0" fill="none" stroke="rgb(0, 0, 0)" stroke-opacity="1.0" stroke-linecap="round" stroke-linejoin="round"/>
    <path d="M 193.54872131347656 162.0886993408203 C 153.99009704589844 127.81132507324219 179.04127502441406 182.1212921142578 161.1438751220703 153.7585906982422" stroke-width="5.0" fill="none" stroke="rgb(0, 0, 0)" stroke-opacity="1.0" stroke-linecap="round" stroke-linejoin="round"/>
    <path d="M 129.92901611328125 309.4334411621094 C 123.06822204589844 288.9635925292969 131.91885375976562 209.03050231933594 211.11598205566406 226.3003387451172" stroke-width="5.0" fill="none" stroke="rgb(0, 0, 0)" stroke-opacity="1.0" stroke-linecap="round" stroke-linejoin="round"/>
  </g>
</svg>
