<?xml version="1.0" ?>
<svg xmlns="http://www.w3.org/2000/svg" version="1.1" width="512" height="512">
  <defs/>
  <g>
    <path d="M 363.5321044921875 309.4132080078125 C 354.5675354003906 229.6519012451172 404.6363830566406 272.8459777832031 341.5867004394531 215.14097595214844" stroke-width="5.0" fill="none" stroke="rgb(31, 119, 180)" stroke-opacity="1.0" stroke-linecap="round" stroke-linejoin="round"/>
    <path d="M 176.44361877441406 405.1980895996094 C 203.4584503173828 423.8215026855469 223.99107360839844 369.20440673828125 222.39064025878906 380.5527038574219" stroke-width="5.0" fill="none" stroke="rgb(31, 119, 180)" stroke-opacity="1.0" stroke-linecap="round" stroke-linejoin="round"/>
    <path d="M 164.31216430664062 147.1724395751953 C 187.55880737304688 176.8367919921875 153.47811889648438 172.56381225585938 204.06004333496094 173.17391967773438" stroke-width="5.0" fill="none" stroke="rgb(31, 119, 180)" stroke-opacity="1.0" stroke-linecap="round" stroke-linejoin="round"/>
    <path d="M 198.0052032470703 159.27357482910156 C 255.59039306640625 200.01992797851562 191.32748413085938 202.23866271972656 175.93865966796875 164.78009033203125" stroke-width="5.0" fill="none" stroke="rgb(31, 119, 180)" stroke-opacity="1.0" stroke-linecap="round" stroke-linejoin="round"/>
    <path d="M 185.76222229003906 225.6882781982422 C 220.97853088378906 217.016845703125 255.63348388671875 248.89527893066406 237.0221405029297 186.40243530273438" stroke-width="5.0" fill="none" stroke="rgb(31, 119, 180)" stroke-opacity="1.0" stroke-linecap="round" stroke-linejoin="round"/>
    <path d="M 189.65330505371094 416.9811706542969 C 249.0196075439453 455.5179748535156 204.4280548095703 423.4828186035156 303.8812255859375 436.3917541503906" stroke-width="5.0" fill="none" stroke="rgb(31, 119, 180)" stroke-opacity="1.0" stroke-linecap="round" stroke-linejoin="round"/>
    <path d="M 217.48846435546875 353.8277893066406 C 216.147705078125 350.78082275390625 216.9464569091797 353.76202392578125 220.00099182128906 354.8174133300781" stroke-width="5.0" fill="none" stroke="rgb(31, 119, 180)" stroke-opacity="1.0" stroke-linecap="round" stroke-linejoin="round"/>
    <path d="M 229.49771118164062 199.81773376464844 C 237.5323486328125 257.90625 260.3487548828125 195.386962890625 319.0255432128906 205.23007202148438" stroke-width="5.0" fill="none" stroke="rgb(31, 119, 180)" stroke-opacity="1.0" stroke-linecap="round" stroke-linejoin="round"/>
    <path d="M 193.54872131347656 162.0886993408203 C 153.99009704589844 127.81132507324219 179.04127502441406 182.1212921142578 161.1438751220703 153.7585906982422" stroke-width="5.0" fill="none" stroke="rgb(31, 119, 180)" stroke-opacity="1.0" stroke-linecap="round" stroke-linejoin="round"/>
    <path d="M 129.92901611328125 309.4334411621094 C 123.06822204589844 288.9635925292969 131.91885375976562 209.03050231933594 211.11598205566406 226.3003387451172" stroke-width="5.0" fill="none" stroke="rgb(31, 119, 180)" stroke-opacity="1.0" stroke-linecap="round" stroke-linejoin="round"/>
    <path d="M 302.076904296875 225.02090454101562 C 302.35504150390625 228.05526733398438 313.9835205078125 202.74639892578125 351.0332946777344 251.61483764648438" stroke-width="5.0" fill="none" stroke="rgb(255, 127, 14)" stroke-opacity="1.0" stroke-linecap="round" stroke-linejoin="round"/>
    <path d="M 175.28091430664062 121.68445587158203 C 200.3683319091797 192.72677612304688 120.4969711303711 177.22772216796875 176.75933837890625 185.08358764648438" stroke-width="5.0" fill="none" stroke="rgb(255, 127, 14)" stroke-opacity="1.0" stroke-linecap="round" stroke-linejoin="round"/>
    <path d="M 135.90614318847656 291.3465576171875 C 138.57891845703125 344.1631164550781 184.7472686767578 325.41632080078125 204.0096435546875 345.4493103027344" stroke-width="5.0" fill="none" stroke="rgb(255, 127, 14)" stroke-opacity="1.0" stroke-linecap="round" stroke-linejoin="round"/>
    <path d="M 280.4917297363281 442.1675109863281 C 238.69583129882812 436.91436767578125 304.3074951171875 355.5686340332031 239.87034606933594 369.7307434082031" stroke-width="5.0" fill="none" stroke="rgb(255, 127, 14)" stroke-opacity="1.0" stroke-linecap="round" stroke-linejoin="round"/>
    <path d="M 295.6855163574219 356.05181884765625 C 324.52777099609375 351.3257141113281 355.2752380371094 362.8229675292969 264.75762939453125 377.6096496582031" stroke-width="5.0" fill="none" stroke="rgb(255, 127, 14)" stroke-opacity="1.0" stroke-linecap="round" stroke-linejoin="round"/>
    <path d="M 203.96231079101562 209.613525390625 C 158.2208709716797 234.11868286132812 186.17884826660156 164.0082244873047 172.02853393554688 207.27598571777344" stroke-width="5.0" fill="none" stroke="rgb(255, 127, 14)" stroke-opacity="1.0" stroke-linecap="round" stroke-linejoin="round"/>
    <path d="M 248.3434600830078 202.58094787597656 C 224.66561889648438 118.65998840332031 203.95907592773438 162.49671936035156 179.94390869140625 107.3905029296875" stroke-width="5.0" fill="none" stroke="rgb(255, 127, 14)" stroke-opacity="1.0" stroke-linecap="round" stroke-linejoin="round"/>
    <path d="M 232.50836181640625 374.031982421875 C 240.59495544433594 344.40985107421875 201.57899475097656 355.4007568359375 182.1574249267578 329.19354248046875" stroke-width="5.0" fill="none" stroke="rgb(255, 127, 14)" stroke-opacity="1.0" stroke-linecap="round" stroke-linejoin="round"/>
    <path d="M 364.60693359375 247.85752868652344 C 362.6719055175781 294.96759033203125 305.4606628417969 255.08905029296875 298.2156982421875 211.53555297851562" stroke-width="5.0" fill="none" stroke="rgb(44, 160, 44)" stroke-opacity="1.0" stroke-linecap="round" stroke-linejoin="round"/>
    <path d="M 306.05535888671875 191.59239196777344 C 312.8371276855469 83.60621643066406 216.91128540039062 167.36602783203125 247.38412475585938 187.6248779296875" stroke-width="5.0" fill="none" stroke="rgb(44, 160, 44)" stroke-opacity="1.0" stroke-linecap="round" stroke-linejoin="round"/>
    <path d="M 341.1775207519531 225.3496551513672 C 408.5217590332031 282.46807861328125 401.3169860839844 311.3583679199219 369.05743408203125 271.0135803222656" stroke-width="5.0" fill="none" stroke="rgb(44, 160, 44)" stroke-opacity="1.0" stroke-linecap="round" stroke-linejoin="round"/>
    <path d="M 372.3598327636719 234.24351501464844 C 378.833984375 255.27969360351562 465.197998046875 234.40200805664062 469.2030944824219 201.4915313720703" stroke-width="5.0" fill="none" stroke="rgb(44, 160, 44)" stroke-opacity="1.0" stroke-linecap="round" stroke-linejoin="round"/>
    <path d="M 250.11862182617188 253.34059143066406 C 201.7633514404297 314.7557678222656 181.94300842285156 330.7018737792969 201.63192749023438 311.19091796875" stroke-width="5.0" fill="none" stroke="rgb(44, 160, 44)" stroke-opacity="1.0" stroke-linecap="round" stroke-linejoin="round"/>
    <path d="M 343.1397399902344 276.3186950683594 C 346.1811828613281 290.3556213378906 373.9911193847656 331.0157165527344 364.2587890625 283.364501953125" stroke-width="5.0" fill="none" stroke="rgb(44, 160, 44)" stroke-opacity="1.0" stroke-linecap="round" stroke-linejoin="round"/>
    <path d="M 276.970703125 211.3188018798828 C 332.94000244140625 214.17587280273438 308.689208984375 167.0128631591797 380.8900146484375 179.2108917236328" stroke-width="5.0" fill="none" stroke="rgb(44, 160, 44)" stroke-opacity="1.0" stroke-linecap="round" stroke-linejoin="round"/>
    <path d="M 151.52536010742188 248.79981994628906 C 213.2134246826172 197.69476318359375 169.30101013183594 275.9159851074219 267.43646240234375 235.9864501953125" stroke-width="5.0" fill="none" stroke="rgb(44, 160, 44)" stroke-opacity="1.0" stroke-linecap="round" stroke-linejoin="round"/>
    <path d="M 479.4416198730469 167.96389770507812 C 368.76531982421875 192.75955200195312 351.7157287597656 158.39453125 324.6455383300781 190.60549926757812" stroke-width="5.0" fill="none" stroke="rgb(44, 160, 44)" stroke-opacity="1.0" stroke-linecap="round" stroke-linejoin="round"/>
    <path d="M 323.4610595703125 306.33294677734375 C 302.4222717285156 295.48968505859375 334.6406555175781 332.2652282714844 336.65216064453125 285.34381103515625" stroke-width="5.0" fill="none" stroke="rgb(44, 160, 44)" stroke-opacity="1.0" stroke-linecap="round" stroke-linejoin="round"/>
    <path d="M 254.1499786376953 248.46731567382812 C 318.0740966796875 275.72589111328125 270.6783447265625 211.27212524414062 332.1523742675781 349.1042175292969" stroke-width="5.0" fill="none" stroke="rgb(44, 160, 44)" stroke-opacity="1.0" stroke-linecap="round" stroke-linejoin="round"/>
    <path d="M 255.41934204101562 199.37295532226562 C 221.60617065429688 260.4692077636719 144.813232421875 268.6939697265625 175.00038146972656 243.53384399414062" stroke-width="5.0" fill="none" stroke="rgb(44, 160, 44)" stroke-opacity="1.0" stroke-linecap="round" stroke-linejoin="round"/>
    <path d="M 253.70272827148438 200.69778442382812 C 220.8262481689453 108.67761993408203 370.3779296875 129.05178833007812 293.3174743652344 212.23776245117188" stroke-width="5.0" fill="none" stroke="rgb(44, 160, 44)" stroke-opacity="1.0" stroke-linecap="round" stroke-linejoin="round"/>
    <path d="M 327.0163269042969 326.3323974609375 C 286.2857971191406 257.07403564453125 309.4408264160156 156.4069061279297 292.2063293457031 202.95407104492188" stroke-width="5.0" fill="none" stroke="rgb(44, 160, 44)" stroke-opacity="1.0" stroke-linecap="round" stroke-linejoin="round"/>
  </g>
</svg>
