<?xml version="1.0" ?>
<svg xmlns="http://www.w3.org/2000/svg" version="1.1" width="512" height="512">
  <defs/>
  <g>
    <path d="M 210.0185546875 305.33740234375 C 288.8508605957031 370.65679931640625 264.6312561035156 373.3114318847656 188.2012939453125 333.228759765625" stroke-width="5.0" fill="none" stroke="rgb(0, 0, 0)" stroke-opacity="1.0" stroke-linecap="round" stroke-linejoin="round"/>
    <path d="M 262.8184509277344 355.7397155761719 C 252.31784057617188 330.16473388671875 244.01980590820312 335.36962890625 269.46844482421875 346.466064453125" stroke-width="5.0" fill="none" stroke="rgb(0, 0, 0)" stroke-opacity="1.0" stroke-linecap="round" stroke-linejoin="round"/>
    <path d="M 306.4201354980469 159.20965576171875 C 227.0577850341797 151.5584259033203 273.5281677246094 249.14361572265625 321.38873291015625 201.6262664794922" stroke-width="5.0" fill="none" stroke="rgb(0, 0, 0)" stroke-opacity="1.0" stroke-linecap="round" stroke-linejoin="round"/>
    <path d="M 271.5717468261719 360.3789978027344 C 266.86102294921875 357.8247375488281 250.80685424804688 339.5902404785156 255.46022033691406 358.115478515625" stroke-width="5.0" fill="none" stroke="rgb(0, 0, 0)" stroke-opacity="1.0" stroke-linecap="round" stroke-linejoin="round"/>
    <path d="M 310.4039306640625 156.43838500976562 C 353.3982238769531 220.63291931152344 274.6461486816406 210.94190979003906 308.76898193359375 159.01864624023438" stroke-width="5.0" fill="none" stroke="rgb(0, 0, 0)" stroke-opacity="1.0" stroke-linecap="round" stroke-linejoin="round"/>
    <path d="M 109.91600799560547 293.6128234863281 C 116.56236267089844 394.36700439453125 120.81658172607422 389.1582946777344 141.62326049804688 310.3975524902344" stroke-width="5.0" fill="none" stroke="rgb(0, 0, 0)" stroke-opacity="1.0" stroke-linecap="round" stroke-linejoin="round"/>
    <path d="M 198.98873901367188 123.78548431396484 C 246.41526794433594 162.36830139160156 226.64476013183594 141.6759490966797 282.0979919433594 161.21922302246094" stroke-width="5.0" fill="none" stroke="rgb(0, 0, 0)" stroke-opacity="1.0" stroke-linecap="round" stroke-linejoin="round"/>
    <path d="M 110.21746063232422 169.59249877929688 C 137.152587890625 216.86085510253906 183.5323028564453 204.06520080566406 183.3211669921875 195.8740692138672" stroke-width="5.0" fill="none" stroke="rgb(0, 0, 0)" stroke-opacity="1.0" stroke-linecap="round" stroke-linejoin="round"/>
    <path d="M 216.97210693359375 260.3027038574219 C 201.65000915527344 301.46942138671875 164.64968872070312 289.2289123535156 203.83795166015625 363.9701843261719" stroke-width="5.0" fill="none" stroke="rgb(0, 0, 0)" stroke-opacity="1.0" stroke-linecap="round" stroke-linejoin="round"/>
    <path d="M 244.65196228027344 185.99583435058594 C 249.1226348876953 194.5729522705078 246.508544921875 161.59580993652344 251.8115997314453 186.00848388671875" stroke-width="5.0" fill="none" stroke="rgb(0, 0, 0)" stroke-opacity="1.0" stroke-linecap="round" stroke-linejoin="round"/>
    <path d="M 298.6709899902344 225.56300354003906 C 267.3290100097656 233.2241668701172 239.35739135742188 266.99468994140625 196.55433654785156 236.3269500732422" stroke-width="5.0" fill="none" stroke="rgb(0, 0, 0)" stroke-opacity="1.0" stroke-linecap="round" stroke-linejoin="round"/>
    <path d="M 221.7226104736328 142.05799865722656 C 226.2030487060547 139.60952758789062 190.79052734375 154.05325317382812 197.35662841796875 121.7634506225586" stroke-width="5.0" fill="none" stroke="rgb(0, 0, 0)" stroke-opacity="1.0" stroke-linecap="round" stroke-linejoin="round"/>
    <path d="M 106.44023895263672 147.95863342285156 C 184.92092895507812 172.3534698486328 179.01364135742188 150.21560668945312 200.88865661621094 157.76239013671875" stroke-width="5.0" fill="none" stroke="rgb(0, 0, 0)" stroke-opacity="1.0" stroke-linecap="round" stroke-linejoin="round"/>
    <path d="M 149.44232177734375 319.3592224121094 C 133.2896728515625 346.9539794921875 151.56932067871094 347.6925354003906 133.57745361328125 297.8592529296875" stroke-width="5.0" fill="none" stroke="rgb(0, 0, 0)" stroke-opacity="1.0" stroke-linecap="round" stroke-linejoin="round"/>
    <path d="M 130.68409729003906 292.51287841796875 C 169.5648651123047 347.543212890625 178.5864715576172 396.2469482421875 203.03530883789062 356.2130126953125" stroke-width="5.0" fill="none" stroke="rgb(0, 0, 0)" stroke-opacity="1.0" stroke-linecap="round" stroke-linejoin="round"/>
    <path d="M 153.35992431640625 206.1666259765625 C 170.57142639160156 212.3723907470703 182.2801971435547 191.20481872558594 179.046630859375 198.4554443359375" stroke-width="5.0" fill="none" stroke="rgb(0, 0, 0)" stroke-opacity="1.0" stroke-linecap="round" stroke-linejoin="round"/>
    <path d="M 320.74530029296875 265.3349609375 C 302.28948974609375 280.64923095703125 307.0098571777344 283.4136962890625 344.9165344238281 270.01654052734375" stroke-width="5.0" fill="none" stroke="rgb(0, 0, 0)" stroke-opacity="1.0" stroke-linecap="round" stroke-linejoin="round"/>
    <path d="M 318.19158935546875 175.3258514404297 C 319.6686706542969 203.38217163085938 367.588623046875 226.47105407714844 362.4299621582031 182.1499481201172" stroke-width="5.0" fill="none" stroke="rgb(0, 0, 0)" stroke-opacity="1.0" stroke-linecap="round" stroke-linejoin="round"/>
    <path d="M 407.6959533691406 202.6563720703125 C 480.9179382324219 141.17381286621094 366.4310302734375 94.57220458984375 344.12933349609375 124.71044921875" stroke-width="5.0" fill="none" stroke="rgb(0, 0, 0)" stroke-opacity="1.0" stroke-linecap="round" stroke-linejoin="round"/>
    <path d="M 145.1774444580078 294.3756408691406 C 161.32066345214844 348.35821533203125 157.66441345214844 365.20166015625 159.12179565429688 342.3302001953125" stroke-width="5.0" fill="none" stroke="rgb(0, 0, 0)" stroke-opacity="1.0" stroke-linecap="round" stroke-linejoin="round"/>
    <path d="M 370.6584167480469 192.3359375 C 444.18304443359375 163.3892364501953 397.27410888671875 219.14553833007812 409.178466796875 234.90122985839844" stroke-width="5.0" fill="none" stroke="rgb(0, 0, 0)" stroke-opacity="1.0" stroke-linecap="round" stroke-linejoin="round"/>
    <path d="M 221.7559814453125 169.75135803222656 C 232.18052673339844 164.5477752685547 222.96665954589844 179.11517333984375 252.7134246826172 199.2201385498047" stroke-width="5.0" fill="none" stroke="rgb(0, 0, 0)" stroke-opacity="1.0" stroke-linecap="round" stroke-linejoin="round"/>
    <path d="M 396.52490234375 214.7018280029297 C 429.2456970214844 213.71214294433594 385.75048828125 257.2161865234375 382.34423828125 236.017333984375" stroke-width="5.0" fill="none" stroke="rgb(0, 0, 0)" stroke-opacity="1.0" stroke-linecap="round" stroke-linejoin="round"/>
    <path d="M 238.55162048339844 339.4406433105469 C 171.05177307128906 276.1082458496094 224.22860717773438 258.3572692871094 257.0714111328125 242.98085021972656" stroke-width="5.0" fill="none" stroke="rgb(0, 0, 0)" stroke-opacity="1.0" stroke-linecap="round" stroke-linejoin="round"/>
    <path d="M 159.91221618652344 213.58349609375 C 180.3725128173828 239.50234985351562 212.92327880859375 220.63731384277344 203.04379272460938 226.0177764892578" stroke-width="5.0" fill="none" stroke="rgb(0, 0, 0)" stroke-opacity="1.0" stroke-linecap="round" stroke-linejoin="round"/>
    <path d="M 278.17523193359375 360.4161071777344 C 357.6658630371094 344.704345703125 308.68939208984375 327.8523254394531 313.1352844238281 271.5956115722656" stroke-width="5.0" fill="none" stroke="rgb(0, 0, 0)" stroke-opacity="1.0" stroke-linecap="round" stroke-linejoin="round"/>
    <path d="M 296.2148132324219 215.88153076171875 C 341.8524169921875 193.4441680908203 356.3154296875 222.73336791992188 336.02880859375 255.46307373046875" stroke-width="5.0" fill="none" stroke="rgb(0, 0, 0)" stroke-opacity="1.0" stroke-linecap="round" stroke-linejoin="round"/>
    <path d="M 199.82591247558594 356.5110168457031 C 174.7007293701172 269.4349365234375 197.9001007080078 295.8781433105469 116.69542694091797 295.76812744140625" stroke-width="5.0" fill="none" stroke="rgb(0, 0, 0)" stroke-opacity="1.0" stroke-linecap="round" stroke-linejoin="round"/>
    <path d="M 285.4752197265625 215.49954223632812 C 197.51382446289062 164.4719696044922 190.16612243652344 118.91744232177734 211.939208984375 154.513916015625" stroke-width="5.0" fill="none" stroke="rgb(0, 0, 0)" stroke-opacity="1.0" stroke-linecap="round" stroke-linejoin="round"/>
    <path d="M 351.3780212402344 121.77813720703125 C 310.2671813964844 141.59031677246094 318.7778015136719 193.4473876953125 321.4479064941406 180.83863830566406" stroke-width="5.0" fill="none" stroke="rgb(0, 0, 0)" stroke-opacity="1.0" stroke-linecap="round" stroke-linejoin="round"/>
    <path d="M 313.41571044921875 287.96380615234375 C 360.78863525390625 184.7974090576172 362.0500793457031 280.9474182128906 327.0314636230469 273.3196716308594" stroke-width="5.0" fill="none" stroke="rgb(0, 0, 0)" stroke-opacity="1.0" stroke-linecap="round" stroke-linejoin="round"/>
    <path d="M 398.2264404296875 233.74623107910156 C 401.204345703125 253.27081298828125 362.9637451171875 254.5950927734375 349.35107421875 234.3689422607422" stroke-width="5.0" fill="none" stroke="rgb(0, 0, 0)" stroke-opacity="1.0" stroke-linecap="round" stroke-linejoin="round"/>
  </g>
</svg>
