<?xml version="1.0" ?>
<svg xmlns="http://www.w3.org/2000/svg" version="1.1" width="512" height="512">
  <defs/>
  <g>
    <path d="M 338.110107421875 145.99954223632812 C 302.35943603515625 227.22242736816406 305.2433776855469 180.72816467285156 275.731201171875 199.88014221191406" stroke-width="5.0" fill="none" stroke="rgb(0, 0, 0)" stroke-opacity="1.0" stroke-linecap="round" stroke-linejoin="round"/>
    <path d="M 144.63758850097656 366.5467224121094 C 190.9879608154297 375.7073974609375 146.49420166015625 335.3194580078125 229.61257934570312 307.3329772949219" stroke-width="5.0" fill="none" stroke="rgb(0, 0, 0)" stroke-opacity="1.0" stroke-linecap="round" stroke-linejoin="round"/>
    <path d="M 169.51022338867188 226.16494750976562 C 196.8577880859375 273.4425964355469 178.43348693847656 243.4400634765625 151.3505096435547 171.69155883789062" stroke-width="5.0" fill="none" stroke="rgb(0, 0, 0)" stroke-opacity="1.0" stroke-linecap="round" stroke-linejoin="round"/>
    <path d="M 300.96551513671875 212.5267333984375 C 294.7581787109375 172.95553588867188 303.7983703613281 192.2925262451172 375.6254577636719 100.7403793334961" stroke-width="5.0" fill="none" stroke="rgb(0, 0, 0)" stroke-opacity="1.0" stroke-linecap="round" stroke-linejoin="round"/>
    <path d="M 270.3058776855469 412.6527404785156 C 229.45751953125 375.4450378417969 286.9783020019531 389.28485107421875 227.26158142089844 425.386962890625" stroke-width="5.0" fill="none" stroke="rgb(0, 0, 0)" stroke-opacity="1.0" stroke-linecap="round" stroke-linejoin="round"/>
    <path d="M 262.8092041015625 367.66925048828125 C 285.8010559082031 347.74090576171875 263.610107421875 329.7521667480469 256.78485107421875 326.8902282714844" stroke-width="5.0" fill="none" stroke="rgb(0, 0, 0)" stroke-opacity="1.0" stroke-linecap="round" stroke-linejoin="round"/>
    <path d="M 307.9795227050781 175.63429260253906 C 311.8249816894531 262.79876708984375 242.3609619140625 244.08792114257812 269.9583740234375 210.61260986328125" stroke-width="5.0" fill="none" stroke="rgb(0, 0, 0)" stroke-opacity="1.0" stroke-linecap="round" stroke-linejoin="round"/>
    <path d="M 155.6683807373047 173.68260192871094 C 196.6754913330078 239.21463012695312 185.86508178710938 247.7351837158203 191.30030822753906 259.744873046875" stroke-width="5.0" fill="none" stroke="rgb(0, 0, 0)" stroke-opacity="1.0" stroke-linecap="round" stroke-linejoin="round"/>
    <path d="M 258.8371276855469 327.36834716796875 C 235.2744903564453 328.42059326171875 213.5867462158203 350.3166809082031 255.35472106933594 375.4557189941406" stroke-width="5.0" fill="none" stroke="rgb(0, 0, 0)" stroke-opacity="1.0" stroke-linecap="round" stroke-linejoin="round"/>
    <path d="M 247.72189331054688 416.3204040527344 C 263.7977294921875 372.3254089355469 246.32012939453125 380.5857238769531 277.6856994628906 350.1687316894531" stroke-width="5.0" fill="none" stroke="rgb(0, 0, 0)" stroke-opacity="1.0" stroke-linecap="round" stroke-linejoin="round"/>
    <path d="M 195.04232788085938 313.69390869140625 C 210.68222045898438 246.68980407714844 221.28778076171875 366.0802307128906 196.8976287841797 264.7198181152344" stroke-width="5.0" fill="none" stroke="rgb(0, 0, 0)" stroke-opacity="1.0" stroke-linecap="round" stroke-linejoin="round"/>
    <path d="M 199.6153106689453 311.49566650390625 C 229.8497772216797 260.5494689941406 209.06407165527344 353.9462890625 195.37449645996094 269.87188720703125" stroke-width="5.0" fill="none" stroke="rgb(0, 0, 0)" stroke-opacity="1.0" stroke-linecap="round" stroke-linejoin="round"/>
    <path d="M 239.48733520507812 415.0707092285156 C 265.3661804199219 394.28704833984375 258.2818298339844 426.3310852050781 298.95294189453125 408.8935852050781" stroke-width="5.0" fill="none" stroke="rgb(0, 0, 0)" stroke-opacity="1.0" stroke-linecap="round" stroke-linejoin="round"/>
    <path d="M 197.62442016601562 316.7607421875 C 211.95925903320312 252.7919921875 195.4721221923828 267.9200134277344 174.19833374023438 221.61041259765625" stroke-width="5.0" fill="none" stroke="rgb(0, 0, 0)" stroke-opacity="1.0" stroke-linecap="round" stroke-linejoin="round"/>
    <path d="M 141.0474090576172 141.93666076660156 C 175.82601928710938 271.0070495605469 209.1746368408203 295.68304443359375 146.44509887695312 153.27838134765625" stroke-width="5.0" fill="none" stroke="rgb(0, 0, 0)" stroke-opacity="1.0" stroke-linecap="round" stroke-linejoin="round"/>
    <path d="M 214.76512145996094 291.9825744628906 C 180.0752716064453 242.56846618652344 212.48719787597656 271.40789794921875 185.1290283203125 254.89556884765625" stroke-width="5.0" fill="none" stroke="rgb(0, 0, 0)" stroke-opacity="1.0" stroke-linecap="round" stroke-linejoin="round"/>
  </g>
</svg>
