<?xml version="1.0" ?>
<svg xmlns="http://www.w3.org/2000/svg" version="1.1" width="512" height="512">
  <defs/>
  <g>
    <path d="M 192.78274536132812 248.2369842529297 C 166.5815887451172 282.5603332519531 163.6722412109375 283.0179748535156 180.16136169433594 263.1890869140625" stroke-width="5.0" fill="none" stroke="rgb(0, 0, 0)" stroke-opacity="1.0" stroke-linecap="round" stroke-linejoin="round"/>
    <path d="M 314.476806640625 213.16600036621094 C 340.32061767578125 164.6416778564453 351.28448486328125 132.7556610107422 361.457275390625 108.88297271728516" stroke-width="5.0" fill="none" stroke="rgb(0, 0, 0)" stroke-opacity="1.0" stroke-linecap="round" stroke-linejoin="round"/>
    <path d="M 323.6300354003906 217.82412719726562 C 311.2829284667969 207.0017852783203 326.3627014160156 233.02101135253906 335.5041809082031 209.98626708984375" stroke-width="5.0" fill="none" stroke="rgb(0, 0, 0)" stroke-opacity="1.0" stroke-linecap="round" stroke-linejoin="round"/>
    <path d="M 309.5106506347656 248.11309814453125 C 381.0272521972656 245.66001892089844 316.24017333984375 169.4894256591797 292.6109313964844 221.67445373535156" stroke-width="5.0" fill="none" stroke="rgb(0, 0, 0)" stroke-opacity="1.0" stroke-linecap="round" stroke-linejoin="round"/>
    <path d="M 145.1197967529297 178.4489288330078 C 123.22059631347656 169.78518676757812 135.24395751953125 166.64981079101562 108.5791015625 198.06869506835938" stroke-width="5.0" fill="none" stroke="rgb(0, 0, 0)" stroke-opacity="1.0" stroke-linecap="round" stroke-linejoin="round"/>
    <path d="M 324.0072326660156 205.94554138183594 C 327.6095275878906 234.31919860839844 323.5091552734375 224.10733032226562 370.67022705078125 114.0343246459961" stroke-width="5.0" fill="none" stroke="rgb(0, 0, 0)" stroke-opacity="1.0" stroke-linecap="round" stroke-linejoin="round"/>
    <path d="M 294.28009033203125 239.63742065429688 C 271.744873046875 183.69427490234375 381.6484375 198.92457580566406 337.5201110839844 245.00901794433594" stroke-width="5.0" fill="none" stroke="rgb(0, 0, 0)" stroke-opacity="1.0" stroke-linecap="round" stroke-linejoin="round"/>
    <path d="M 264.1399841308594 325.9565734863281 C 313.1952819824219 249.19711303710938 294.3236999511719 260.1468200683594 264.8160095214844 327.73297119140625" stroke-width="5.0" fill="none" stroke="rgb(0, 0, 0)" stroke-opacity="1.0" stroke-linecap="round" stroke-linejoin="round"/>
    <path d="M 249.1378631591797 390.47271728515625 C 234.67633056640625 378.38421630859375 231.5331268310547 399.62567138671875 254.10328674316406 356.07470703125" stroke-width="5.0" fill="none" stroke="rgb(0, 0, 0)" stroke-opacity="1.0" stroke-linecap="round" stroke-linejoin="round"/>
    <path d="M 302.2516784667969 236.7069091796875 C 299.61663818359375 290.4544677734375 313.29034423828125 250.04559326171875 305.960205078125 256.1800231933594" stroke-width="5.0" fill="none" stroke="rgb(0, 0, 0)" stroke-opacity="1.0" stroke-linecap="round" stroke-linejoin="round"/>
    <path d="M 299.280517578125 211.71646118164062 C 295.744140625 265.30865478515625 317.6711730957031 216.7413787841797 260.80426025390625 330.2688293457031" stroke-width="5.0" fill="none" stroke="rgb(0, 0, 0)" stroke-opacity="1.0" stroke-linecap="round" stroke-linejoin="round"/>
    <path d="M 201.5740203857422 339.9590759277344 C 170.17359924316406 369.27764892578125 211.97015380859375 389.3036193847656 219.89036560058594 347.9230041503906" stroke-width="5.0" fill="none" stroke="rgb(0, 0, 0)" stroke-opacity="1.0" stroke-linecap="round" stroke-linejoin="round"/>
    <path d="M 229.94903564453125 189.47044372558594 C 191.32369995117188 211.2148895263672 334.0690002441406 185.60206604003906 277.7671203613281 143.75775146484375" stroke-width="5.0" fill="none" stroke="rgb(0, 0, 0)" stroke-opacity="1.0" stroke-linecap="round" stroke-linejoin="round"/>
    <path d="M 236.8041534423828 299.5765380859375 C 219.2886199951172 292.46771240234375 216.2008514404297 307.88409423828125 237.3264617919922 270.5104064941406" stroke-width="5.0" fill="none" stroke="rgb(0, 0, 0)" stroke-opacity="1.0" stroke-linecap="round" stroke-linejoin="round"/>
    <path d="M 310.6462097167969 251.6504669189453 C 252.4707489013672 315.7066345214844 294.3275451660156 332.35003662109375 289.35772705078125 324.0465087890625" stroke-width="5.0" fill="none" stroke="rgb(0, 0, 0)" stroke-opacity="1.0" stroke-linecap="round" stroke-linejoin="round"/>
    <path d="M 251.01190185546875 173.0236053466797 C 253.2996063232422 212.13027954101562 263.40484619140625 160.50302124023438 253.07205200195312 180.36671447753906" stroke-width="5.0" fill="none" stroke="rgb(0, 0, 0)" stroke-opacity="1.0" stroke-linecap="round" stroke-linejoin="round"/>
  </g>
</svg>
