<?xml version="1.0" ?>
<svg xmlns="http://www.w3.org/2000/svg" version="1.1" width="512" height="512">
  <defs/>
  <g>
    <path d="M 130.7327117919922 243.6548309326172 C 141.34083557128906 236.0373992919922 139.72726440429688 233.65089416503906 131.897216796875 242.18006896972656" stroke-width="5.0" fill="none" stroke="rgb(0, 0, 0)" stroke-opacity="1.0" stroke-linecap="round" stroke-linejoin="round"/>
    <path d="M 405.3567199707031 231.0030517578125 C 440.3033447265625 219.36790466308594 416.97955322265625 192.85955810546875 457.65606689453125 190.79930114746094" stroke-width="5.0" fill="none" stroke="rgb(0, 0, 0)" stroke-opacity="1.0" stroke-linecap="round" stroke-linejoin="round"/>
    <path d="M 271.5789794921875 128.9514923095703 C 242.90072631835938 76.7986068725586 286.8642578125 72.92935180664062 271.07769775390625 195.25779724121094" stroke-width="5.0" fill="none" stroke="rgb(0, 0, 0)" stroke-opacity="1.0" stroke-linecap="round" stroke-linejoin="round"/>
    <path d="M 293.7216796875 120.39285278320312 C 257.7080078125 175.84332275390625 299.616943359375 152.9420928955078 243.87750244140625 279.7882080078125" stroke-width="5.0" fill="none" stroke="rgb(0, 0, 0)" stroke-opacity="1.0" stroke-linecap="round" stroke-linejoin="round"/>
    <path d="M 135.24594116210938 117.39899444580078 C 112.78849792480469 118.41539001464844 125.9088363647461 132.03036499023438 104.64043426513672 142.28761291503906" stroke-width="5.0" fill="none" stroke="rgb(0, 0, 0)" stroke-opacity="1.0" stroke-linecap="round" stroke-linejoin="round"/>
    <path d="M 267.74249267578125 203.86032104492188 C 273.9811706542969 179.35061645507812 239.57101440429688 141.94212341308594 249.4373016357422 120.00996398925781" stroke-width="5.0" fill="none" stroke="rgb(0, 0, 0)" stroke-opacity="1.0" stroke-linecap="round" stroke-linejoin="round"/>
    <path d="M 308.1893310546875 134.16810607910156 C 319.1770935058594 175.3444366455078 264.81573486328125 194.7747344970703 285.93194580078125 186.8712921142578" stroke-width="5.0" fill="none" stroke="rgb(0, 0, 0)" stroke-opacity="1.0" stroke-linecap="round" stroke-linejoin="round"/>
    <path d="M 258.3576965332031 373.173583984375 C 285.7489013671875 354.0960388183594 259.2352600097656 365.9096984863281 268.4312744140625 365.641845703125" stroke-width="5.0" fill="none" stroke="rgb(0, 0, 0)" stroke-opacity="1.0" stroke-linecap="round" stroke-linejoin="round"/>
    <path d="M 257.7422790527344 374.0059814453125 C 245.0274658203125 371.6780700683594 251.4578857421875 376.7373352050781 269.1942138671875 363.0536193847656" stroke-width="5.0" fill="none" stroke="rgb(0, 0, 0)" stroke-opacity="1.0" stroke-linecap="round" stroke-linejoin="round"/>
    <path d="M 298.1808776855469 317.638427734375 C 284.34228515625 329.70355224609375 310.3021545410156 308.8753967285156 305.069091796875 289.4508056640625" stroke-width="5.0" fill="none" stroke="rgb(0, 0, 0)" stroke-opacity="1.0" stroke-linecap="round" stroke-linejoin="round"/>
    <path d="M 318.48602294921875 218.98062133789062 C 326.55126953125 278.1252136230469 304.68609619140625 300.82275390625 245.52442932128906 327.5919494628906" stroke-width="5.0" fill="none" stroke="rgb(0, 0, 0)" stroke-opacity="1.0" stroke-linecap="round" stroke-linejoin="round"/>
    <path d="M 209.79541015625 385.5462341308594 C 188.7166290283203 369.64935302734375 189.22259521484375 335.33233642578125 197.9867706298828 322.6497802734375" stroke-width="5.0" fill="none" stroke="rgb(0, 0, 0)" stroke-opacity="1.0" stroke-linecap="round" stroke-linejoin="round"/>
    <path d="M 214.85421752929688 201.2927703857422 C 224.4703369140625 336.8459777832031 270.40533447265625 308.2784423828125 231.4908905029297 187.23709106445312" stroke-width="5.0" fill="none" stroke="rgb(0, 0, 0)" stroke-opacity="1.0" stroke-linecap="round" stroke-linejoin="round"/>
    <path d="M 210.95822143554688 251.77537536621094 C 207.14097595214844 300.4781799316406 184.97491455078125 308.3517150878906 213.05880737304688 336.6102294921875" stroke-width="5.0" fill="none" stroke="rgb(0, 0, 0)" stroke-opacity="1.0" stroke-linecap="round" stroke-linejoin="round"/>
    <path d="M 298.84283447265625 318.28582763671875 C 302.7515563964844 309.1641540527344 304.8271789550781 311.12237548828125 304.8111877441406 293.7208557128906" stroke-width="5.0" fill="none" stroke="rgb(0, 0, 0)" stroke-opacity="1.0" stroke-linecap="round" stroke-linejoin="round"/>
    <path d="M 223.65634155273438 309.50982666015625 C 201.49168395996094 286.5685119628906 206.18276977539062 271.2548522949219 216.859619140625 235.81033325195312" stroke-width="5.0" fill="none" stroke="rgb(0, 0, 0)" stroke-opacity="1.0" stroke-linecap="round" stroke-linejoin="round"/>
  </g>
</svg>
