<?xml version="1.0" ?>
<svg xmlns="http://www.w3.org/2000/svg" version="1.1" width="512" height="512">
  <defs/>
  <g>
    <path d="M 130.7327117919922 243.6548309326172 C 141.34083557128906 236.0373992919922 139.72726440429688 233.65089416503906 131.897216796875 242.18006896972656" stroke-width="5.0" fill="none" stroke="rgb(0, 0, 0)" stroke-opacity="1.0" stroke-linecap="round" stroke-linejoin="round"/>
    <path d="M 405.3567199707031 231.0030517578125 C 440.3033447265625 219.36790466308594 416.97955322265625 192.85955810546875 457.65606689453125 190.79930114746094" stroke-width="5.0" fill="none" stroke="rgb(0, 0, 0)" stroke-opacity="1.0" stroke-linecap="round" stroke-linejoin="round"/>
    <path d="M 271.5789794921875 128.9514923095703 C 242.90072631835938 76.7986068725586 286.8642578125 72.92935180664062 271.07769775390625 195.25779724121094" stroke-width="5.0" fill="none" stroke="rgb(0, 0, 0)" stroke-opacity="1.0" stroke-linecap="round" stroke-linejoin="round"/>
    <path d="M 293.7216796875 120.39285278320312 C 257.7080078125 175.84332275390625 299.616943359375 152.9420928955078 243.87750244140625 279.7882080078125" stroke-width="5.0" fill="none" stroke="rgb(0, 0, 0)" stroke-opacity="1.0" stroke-linecap="round" stroke-linejoin="round"/>
    <path d="M 135.24594116210938 117.39899444580078 C 112.78849792480469 118.41539001464844 125.9088363647461 132.03036499023438 104.64043426513672 142.28761291503906" stroke-width="5.0" fill="none" stroke="rgb(0, 0, 0)" stroke-opacity="1.0" stroke-linecap="round" stroke-linejoin="round"/>
    <path d="M 267.74249267578125 203.86032104492188 C 273.9811706542969 179.35061645507812 239.57101440429688 141.94212341308594 249.4373016357422 120.00996398925781" stroke-width="5.0" fill="none" stroke="rgb(0, 0, 0)" stroke-opacity="1.0" stroke-linecap="round" stroke-linejoin="round"/>
    <path d="M 308.1893310546875 134.16810607910156 C 319.1770935058594 175.3444366455078 264.81573486328125 194.7747344970703 285.93194580078125 186.8712921142578" stroke-width="5.0" fill="none" stroke="rgb(0, 0, 0)" stroke-opacity="1.0" stroke-linecap="round" stroke-linejoin="round"/>
    <path d="M 258.3576965332031 373.173583984375 C 285.7489013671875 354.0960388183594 259.2352600097656 365.9096984863281 268.4312744140625 365.641845703125" stroke-width="5.0" fill="none" stroke="rgb(0, 0, 0)" stroke-opacity="1.0" stroke-linecap="round" stroke-linejoin="round"/>
    <path d="M 257.7422790527344 374.0059814453125 C 245.0274658203125 371.6780700683594 251.4578857421875 376.7373352050781 269.1942138671875 363.0536193847656" stroke-width="5.0" fill="none" stroke="rgb(0, 0, 0)" stroke-opacity="1.0" stroke-linecap="round" stroke-linejoin="round"/>
    <path d="M 298.1808776855469 317.638427734375 C 284.34228515625 329.70355224609375 310.3021545410156 308.8753967285156 305.069091796875 289.4508056640625" stroke-width="5.0" fill="none" stroke="rgb(0, 0, 0)" stroke-opacity="1.0" stroke-linecap="round" stroke-linejoin="round"/>
    <path d="M 318.48602294921875 218.98062133789062 C 326.55126953125 278.1252136230469 304.68609619140625 300.82275390625 245.52442932128906 327.5919494628906" stroke-width="5.0" fill="none" stroke="rgb(0, 0, 0)" stroke-opacity="1.0" stroke-linecap="round" stroke-linejoin="round"/>
    <path d="M 209.79541015625 385.5462341308594 C 188.7166290283203 369.64935302734375 189.22259521484375 335.33233642578125 197.9867706298828 322.6497802734375" stroke-width="5.0" fill="none" stroke="rgb(0, 0, 0)" stroke-opacity="1.0" stroke-linecap="round" stroke-linejoin="round"/>
    <path d="M 214.85421752929688 201.2927703857422 C 224.4703369140625 336.8459777832031 270.40533447265625 308.2784423828125 231.4908905029297 187.23709106445312" stroke-width="5.0" fill="none" stroke="rgb(0, 0, 0)" stroke-opacity="1.0" stroke-linecap="round" stroke-linejoin="round"/>
    <path d="M 210.95822143554688 251.77537536621094 C 207.14097595214844 300.4781799316406 184.97491455078125 308.3517150878906 213.05880737304688 336.6102294921875" stroke-width="5.0" fill="none" stroke="rgb(0, 0, 0)" stroke-opacity="1.0" stroke-linecap="round" stroke-linejoin="round"/>
    <path d="M 298.84283447265625 318.28582763671875 C 302.7515563964844 309.1641540527344 304.8271789550781 311.12237548828125 304.8111877441406 293.7208557128906" stroke-width="5.0" fill="none" stroke="rgb(0, 0, 0)" stroke-opacity="1.0" stroke-linecap="round" stroke-linejoin="round"/>
    <path d="M 223.65634155273438 309.50982666015625 C 201.49168395996094 286.5685119628906 206.18276977539062 271.2548522949219 216.859619140625 235.81033325195312" stroke-width="5.0" fill="none" stroke="rgb(0, 0, 0)" stroke-opacity="1.0" stroke-linecap="round" stroke-linejoin="round"/>
    <path d="M 344.4058532714844 224.28257751464844 C 272.15496826171875 190.111572265625 288.3695373535156 159.32089233398438 302.5591125488281 248.26455688476562" stroke-width="5.0" fill="none" stroke="rgb(0, 0, 0)" stroke-opacity="1.0" stroke-linecap="round" stroke-linejoin="round"/>
    <path d="M 142.07293701171875 234.06541442871094 C 163.39598083496094 213.17698669433594 190.75726318359375 193.1536865234375 184.2366180419922 201.8629608154297" stroke-width="5.0" fill="none" stroke="rgb(0, 0, 0)" stroke-opacity="1.0" stroke-linecap="round" stroke-linejoin="round"/>
    <path d="M 129.1658172607422 245.61322021484375 C 82.30487060546875 295.8791809082031 114.30570983886719 248.02529907226562 152.7401123046875 289.6146545410156" stroke-width="5.0" fill="none" stroke="rgb(0, 0, 0)" stroke-opacity="1.0" stroke-linecap="round" stroke-linejoin="round"/>
    <path d="M 101.23565673828125 271.7447204589844 C 149.15626525878906 324.1560363769531 146.6819305419922 327.4604187011719 188.2917938232422 335.1897888183594" stroke-width="5.0" fill="none" stroke="rgb(0, 0, 0)" stroke-opacity="1.0" stroke-linecap="round" stroke-linejoin="round"/>
    <path d="M 170.7931671142578 198.19969177246094 C 189.93035888671875 189.77072143554688 227.83145141601562 173.7013397216797 262.5511474609375 181.59701538085938" stroke-width="5.0" fill="none" stroke="rgb(0, 0, 0)" stroke-opacity="1.0" stroke-linecap="round" stroke-linejoin="round"/>
    <path d="M 158.39202880859375 332.3988342285156 C 249.12548828125 358.228271484375 298.4775390625 292.68341064453125 273.1382751464844 199.4842987060547" stroke-width="5.0" fill="none" stroke="rgb(0, 0, 0)" stroke-opacity="1.0" stroke-linecap="round" stroke-linejoin="round"/>
    <path d="M 342.98095703125 278.6463317871094 C 326.1806945800781 260.53125 340.8054504394531 257.2062683105469 317.9984436035156 277.4201965332031" stroke-width="5.0" fill="none" stroke="rgb(0, 0, 0)" stroke-opacity="1.0" stroke-linecap="round" stroke-linejoin="round"/>
    <path d="M 163.9781494140625 129.8585662841797 C 165.36000061035156 116.02062225341797 174.11500549316406 125.35112762451172 158.54722595214844 141.2810821533203" stroke-width="5.0" fill="none" stroke="rgb(0, 0, 0)" stroke-opacity="1.0" stroke-linecap="round" stroke-linejoin="round"/>
    <path d="M 308.1944885253906 276.4333190917969 C 319.56634521484375 279.039306640625 332.7715759277344 312.16558837890625 305.31793212890625 320.11029052734375" stroke-width="5.0" fill="none" stroke="rgb(0, 0, 0)" stroke-opacity="1.0" stroke-linecap="round" stroke-linejoin="round"/>
    <path d="M 344.6758728027344 404.18560791015625 C 335.4617919921875 389.3617858886719 360.3984069824219 359.2412414550781 351.6412658691406 381.1317138671875" stroke-width="5.0" fill="none" stroke="rgb(0, 0, 0)" stroke-opacity="1.0" stroke-linecap="round" stroke-linejoin="round"/>
    <path d="M 197.85977172851562 118.51341247558594 C 176.3386688232422 131.57354736328125 176.01449584960938 128.12168884277344 198.32711791992188 116.81269073486328" stroke-width="5.0" fill="none" stroke="rgb(0, 0, 0)" stroke-opacity="1.0" stroke-linecap="round" stroke-linejoin="round"/>
    <path d="M 416.82781982421875 161.29795837402344 C 327.19415283203125 211.4427032470703 298.3682861328125 278.23687744140625 402.1580810546875 328.86541748046875" stroke-width="5.0" fill="none" stroke="rgb(0, 0, 0)" stroke-opacity="1.0" stroke-linecap="round" stroke-linejoin="round"/>
    <path d="M 166.47772216796875 244.85484313964844 C 207.2793731689453 273.416259765625 195.99537658691406 193.2548065185547 165.07916259765625 236.76368713378906" stroke-width="5.0" fill="none" stroke="rgb(0, 0, 0)" stroke-opacity="1.0" stroke-linecap="round" stroke-linejoin="round"/>
    <path d="M 255.6985321044922 181.6728973388672 C 180.0864715576172 183.66812133789062 163.51846313476562 219.4263458251953 163.770263671875 208.96774291992188" stroke-width="5.0" fill="none" stroke="rgb(0, 0, 0)" stroke-opacity="1.0" stroke-linecap="round" stroke-linejoin="round"/>
    <path d="M 284.11810302734375 168.4867401123047 C 293.4778747558594 145.54966735839844 301.6922302246094 145.4068145751953 290.33868408203125 121.81011962890625" stroke-width="5.0" fill="none" stroke="rgb(0, 0, 0)" stroke-opacity="1.0" stroke-linecap="round" stroke-linejoin="round"/>
    <path d="M 351.0651550292969 254.99154663085938 C 344.26043701171875 180.8671875 383.3758850097656 209.55348205566406 365.1103820800781 261.114501953125" stroke-width="5.0" fill="none" stroke="rgb(0, 0, 0)" stroke-opacity="1.0" stroke-linecap="round" stroke-linejoin="round"/>
  </g>
</svg>
