<?xml version="1.0" ?>
<svg xmlns="http://www.w3.org/2000/svg" version="1.1" width="512" height="512">
  <defs/>
  <g>
    <path d="M 192.78274536132812 248.2369842529297 C 166.5815887451172 282.5603332519531 163.6722412109375 283.0179748535156 180.16136169433594 263.1890869140625" stroke-width="5.0" fill="none" stroke="rgb(0, 0, 0)" stroke-opacity="1.0" stroke-linecap="round" stroke-linejoin="round"/>
    <path d="M 314.476806640625 213.16600036621094 C 340.32061767578125 164.6416778564453 351.28448486328125 132.7556610107422 361.457275390625 108.88297271728516" stroke-width="5.0" fill="none" stroke="rgb(0, 0, 0)" stroke-opacity="1.0" stroke-linecap="round" stroke-linejoin="round"/>
    <path d="M 323.6300354003906 217.82412719726562 C 311.2829284667969 207.0017852783203 326.3627014160156 233.02101135253906 335.5041809082031 209.98626708984375" stroke-width="5.0" fill="none" stroke="rgb(0, 0, 0)" stroke-opacity="1.0" stroke-linecap="round" stroke-linejoin="round"/>
    <path d="M 309.5106506347656 248.11309814453125 C 381.0272521972656 245.66001892089844 316.24017333984375 169.4894256591797 292.6109313964844 221.67445373535156" stroke-width="5.0" fill="none" stroke="rgb(0, 0, 0)" stroke-opacity="1.0" stroke-linecap="round" stroke-linejoin="round"/>
    <path d="M 145.1197967529297 178.4489288330078 C 123.22059631347656 169.78518676757812 135.24395751953125 166.64981079101562 108.5791015625 198.06869506835938" stroke-width="5.0" fill="none" stroke="rgb(0, 0, 0)" stroke-opacity="1.0" stroke-linecap="round" stroke-linejoin="round"/>
    <path d="M 324.0072326660156 205.94554138183594 C 327.6095275878906 234.31919860839844 323.5091552734375 224.10733032226562 370.67022705078125 114.0343246459961" stroke-width="5.0" fill="none" stroke="rgb(0, 0, 0)" stroke-opacity="1.0" stroke-linecap="round" stroke-linejoin="round"/>
    <path d="M 294.28009033203125 239.63742065429688 C 271.744873046875 183.69427490234375 381.6484375 198.92457580566406 337.5201110839844 245.00901794433594" stroke-width="5.0" fill="none" stroke="rgb(0, 0, 0)" stroke-opacity="1.0" stroke-linecap="round" stroke-linejoin="round"/>
    <path d="M 264.1399841308594 325.9565734863281 C 313.1952819824219 249.19711303710938 294.3236999511719 260.1468200683594 264.8160095214844 327.73297119140625" stroke-width="5.0" fill="none" stroke="rgb(0, 0, 0)" stroke-opacity="1.0" stroke-linecap="round" stroke-linejoin="round"/>
    <path d="M 249.1378631591797 390.47271728515625 C 234.67633056640625 378.38421630859375 231.5331268310547 399.62567138671875 254.10328674316406 356.07470703125" stroke-width="5.0" fill="none" stroke="rgb(0, 0, 0)" stroke-opacity="1.0" stroke-linecap="round" stroke-linejoin="round"/>
    <path d="M 302.2516784667969 236.7069091796875 C 299.61663818359375 290.4544677734375 313.29034423828125 250.04559326171875 305.960205078125 256.1800231933594" stroke-width="5.0" fill="none" stroke="rgb(0, 0, 0)" stroke-opacity="1.0" stroke-linecap="round" stroke-linejoin="round"/>
    <path d="M 299.280517578125 211.71646118164062 C 295.744140625 265.30865478515625 317.6711730957031 216.7413787841797 260.80426025390625 330.2688293457031" stroke-width="5.0" fill="none" stroke="rgb(0, 0, 0)" stroke-opacity="1.0" stroke-linecap="round" stroke-linejoin="round"/>
    <path d="M 201.5740203857422 339.9590759277344 C 170.17359924316406 369.27764892578125 211.97015380859375 389.3036193847656 219.89036560058594 347.9230041503906" stroke-width="5.0" fill="none" stroke="rgb(0, 0, 0)" stroke-opacity="1.0" stroke-linecap="round" stroke-linejoin="round"/>
    <path d="M 229.94903564453125 189.47044372558594 C 191.32369995117188 211.2148895263672 334.0690002441406 185.60206604003906 277.7671203613281 143.75775146484375" stroke-width="5.0" fill="none" stroke="rgb(0, 0, 0)" stroke-opacity="1.0" stroke-linecap="round" stroke-linejoin="round"/>
    <path d="M 236.8041534423828 299.5765380859375 C 219.2886199951172 292.46771240234375 216.2008514404297 307.88409423828125 237.3264617919922 270.5104064941406" stroke-width="5.0" fill="none" stroke="rgb(0, 0, 0)" stroke-opacity="1.0" stroke-linecap="round" stroke-linejoin="round"/>
    <path d="M 310.6462097167969 251.6504669189453 C 252.4707489013672 315.7066345214844 294.3275451660156 332.35003662109375 289.35772705078125 324.0465087890625" stroke-width="5.0" fill="none" stroke="rgb(0, 0, 0)" stroke-opacity="1.0" stroke-linecap="round" stroke-linejoin="round"/>
    <path d="M 251.01190185546875 173.0236053466797 C 253.2996063232422 212.13027954101562 263.40484619140625 160.50302124023438 253.07205200195312 180.36671447753906" stroke-width="5.0" fill="none" stroke="rgb(0, 0, 0)" stroke-opacity="1.0" stroke-linecap="round" stroke-linejoin="round"/>
    <path d="M 254.42691040039062 193.5060272216797 C 298.593994140625 185.30882263183594 282.3192138671875 241.2071075439453 284.35870361328125 252.2422332763672" stroke-width="5.0" fill="none" stroke="rgb(0, 0, 0)" stroke-opacity="1.0" stroke-linecap="round" stroke-linejoin="round"/>
    <path d="M 196.65074157714844 208.8471221923828 C 207.52906799316406 204.84226989746094 177.77078247070312 218.55328369140625 214.835205078125 242.73097229003906" stroke-width="5.0" fill="none" stroke="rgb(0, 0, 0)" stroke-opacity="1.0" stroke-linecap="round" stroke-linejoin="round"/>
    <path d="M 170.34548950195312 228.82794189453125 C 132.0209503173828 304.1420593261719 121.12835693359375 294.1048889160156 199.47991943359375 336.26605224609375" stroke-width="5.0" fill="none" stroke="rgb(0, 0, 0)" stroke-opacity="1.0" stroke-linecap="round" stroke-linejoin="round"/>
    <path d="M 167.68324279785156 283.9765625 C 198.63758850097656 306.8924865722656 269.6781005859375 363.1581115722656 215.22232055664062 385.91619873046875" stroke-width="5.0" fill="none" stroke="rgb(0, 0, 0)" stroke-opacity="1.0" stroke-linecap="round" stroke-linejoin="round"/>
    <path d="M 204.4614715576172 205.7119903564453 C 133.9542694091797 117.49862670898438 296.8060607910156 66.47341918945312 274.44384765625 187.56556701660156" stroke-width="5.0" fill="none" stroke="rgb(0, 0, 0)" stroke-opacity="1.0" stroke-linecap="round" stroke-linejoin="round"/>
    <path d="M 271.8806457519531 370.4925537109375 C 323.0293884277344 316.4288330078125 324.67462158203125 306.3558044433594 269.8576354980469 352.6379089355469" stroke-width="5.0" fill="none" stroke="rgb(0, 0, 0)" stroke-opacity="1.0" stroke-linecap="round" stroke-linejoin="round"/>
    <path d="M 307.8936462402344 293.676513671875 C 309.2890930175781 232.15676879882812 308.2395935058594 256.251220703125 281.13629150390625 251.63302612304688" stroke-width="5.0" fill="none" stroke="rgb(0, 0, 0)" stroke-opacity="1.0" stroke-linecap="round" stroke-linejoin="round"/>
    <path d="M 159.41542053222656 209.552001953125 C 93.2620620727539 248.09715270996094 98.51038360595703 128.25453186035156 149.26466369628906 202.85528564453125" stroke-width="5.0" fill="none" stroke="rgb(0, 0, 0)" stroke-opacity="1.0" stroke-linecap="round" stroke-linejoin="round"/>
    <path d="M 320.3930358886719 274.6673278808594 C 290.1152648925781 284.3902893066406 333.072265625 253.48904418945312 322.01141357421875 297.9529724121094" stroke-width="5.0" fill="none" stroke="rgb(0, 0, 0)" stroke-opacity="1.0" stroke-linecap="round" stroke-linejoin="round"/>
    <path d="M 440.2984313964844 377.72125244140625 C 320.136962890625 405.509033203125 361.9718017578125 396.7390441894531 290.1710205078125 389.8089294433594" stroke-width="5.0" fill="none" stroke="rgb(0, 0, 0)" stroke-opacity="1.0" stroke-linecap="round" stroke-linejoin="round"/>
    <path d="M 152.08737182617188 181.93174743652344 C 137.91702270507812 110.90604400634766 262.66778564453125 64.29060363769531 269.25042724609375 183.2025604248047" stroke-width="5.0" fill="none" stroke="rgb(0, 0, 0)" stroke-opacity="1.0" stroke-linecap="round" stroke-linejoin="round"/>
    <path d="M 387.6318664550781 152.4536590576172 C 360.8196716308594 240.6181640625 384.27825927734375 210.40740966796875 407.9742431640625 258.759765625" stroke-width="5.0" fill="none" stroke="rgb(0, 0, 0)" stroke-opacity="1.0" stroke-linecap="round" stroke-linejoin="round"/>
    <path d="M 289.20440673828125 237.7621612548828 C 259.265625 271.7618713378906 223.4119110107422 254.50204467773438 208.5747528076172 242.52793884277344" stroke-width="5.0" fill="none" stroke="rgb(0, 0, 0)" stroke-opacity="1.0" stroke-linecap="round" stroke-linejoin="round"/>
    <path d="M 155.95677185058594 213.9870147705078 C 179.95933532714844 242.52853393554688 245.42532348632812 256.3115234375 210.22337341308594 241.13209533691406" stroke-width="5.0" fill="none" stroke="rgb(0, 0, 0)" stroke-opacity="1.0" stroke-linecap="round" stroke-linejoin="round"/>
    <path d="M 309.111083984375 129.92654418945312 C 314.7366638183594 126.9260482788086 316.31622314453125 120.66731262207031 322.3072509765625 127.82357788085938" stroke-width="5.0" fill="none" stroke="rgb(0, 0, 0)" stroke-opacity="1.0" stroke-linecap="round" stroke-linejoin="round"/>
    <path d="M 332.845703125 310.90618896484375 C 335.2161865234375 246.9219207763672 276.81591796875 265.07232666015625 306.1097106933594 308.71142578125" stroke-width="5.0" fill="none" stroke="rgb(0, 0, 0)" stroke-opacity="1.0" stroke-linecap="round" stroke-linejoin="round"/>
  </g>
</svg>
